  0
SECTION
  2
HEADER
  9
$ACADVER
  1
AC1015
  9
$ACADMAINTVER
 70
     6
  9
$DWGCODEPAGE
  3
ANSI_1252
  9
$INSBASE
 10
0.0
 20
0.0
 30
0.0
  9
$EXTMIN
 10
0.0
 20
0.0
 30
0.0
  9
$EXTMAX
 10
279.4
 20
215.9
 30
0.0
  9
$LIMMIN
 10
0.0
 20
0.0
  9
$LIMMAX
 10
279.4
 20
215.9
  9
$ORTHOMODE
 70
     0
  9
$REGENMODE
 70
     1
  9
$FILLMODE
 70
     1
  9
$QTEXTMODE
 70
     0
  9
$MIRRTEXT
 70
     1
  9
$LTSCALE
 40
1.0
  9
$ATTMODE
 70
     1
  9
$TEXTSIZE
 40
4.2333333333
  9
$TRACEWID
 40
1.0
  9
$TEXTSTYLE
  7
Standard
  9
$CLAYER
  8
0
  9
$CELTYPE
  6
ByLayer
  9
$CECOLOR
 62
   256
  9
$CELTSCALE
 40
1.0
  9
$DISPSILH
 70
     0
  9
$DIMSCALE
 40
1.0
  9
$DIMASZ
 40
3.302
  9
$DIMEXO
 40
1.0
  9
$DIMDLI
 40
3.75
  9
$DIMRND
 40
0.0
  9
$DIMDLE
 40
0.0
  9
$DIMEXE
 40
1.0
  9
$DIMTP
 40
0.0
  9
$DIMTM
 40
0.0
  9
$DIMTXT
 40
3.5
  9
$DIMCEN
 40
2.5
  9
$DIMTSZ
 40
0.0
  9
$DIMTOL
 70
     0
  9
$DIMLIM
 70
     0
  9
$DIMTIH
 70
     1
  9
$DIMTOH
 70
     1
  9
$DIMSE1
 70
     0
  9
$DIMSE2
 70
     0
  9
$DIMTAD
 70
     1
  9
$DIMZIN
 70
     1
  9
$DIMBLK
  1

  9
$DIMASO
 70
     1
  9
$DIMSHO
 70
     1
  9
$DIMPOST
  1

  9
$DIMAPOST
  1

  9
$DIMALT
 70
     0
  9
$DIMALTD
 70
     3
  9
$DIMALTF
 40
0.0393700787
  9
$DIMLFAC
 40
2.0
  9
$DIMTOFL
 70
     1
  9
$DIMTVP
 40
0.0
  9
$DIMTIX
 70
     0
  9
$DIMSOXD
 70
     0
  9
$DIMSAH
 70
     0
  9
$DIMBLK1
  1

  9
$DIMBLK2
  1

  9
$DIMSTYLE
  2
ISO-25
  9
$DIMCLRD
 70
     0
  9
$DIMCLRE
 70
     0
  9
$DIMCLRT
 70
     0
  9
$DIMTFAC
 40
1.0
  9
$DIMGAP
 40
1.524
  9
$DIMJUST
 70
     0
  9
$DIMSD1
 70
     0
  9
$DIMSD2
 70
     0
  9
$DIMTOLJ
 70
     0
  9
$DIMTZIN
 70
     1
  9
$DIMALTZ
 70
     0
  9
$DIMALTTZ
 70
     0
  9
$DIMUPT
 70
     0
  9
$DIMDEC
 70
     2
  9
$DIMTDEC
 70
     2
  9
$DIMALTU
 70
     2
  9
$DIMALTTD
 70
     3
  9
$DIMTXSTY
  7
Standard
  9
$DIMAUNIT
 70
     0
  9
$DIMADEC
 70
     2
  9
$DIMALTRND
 40
0.0
  9
$DIMAZIN
 70
     0
  9
$DIMDSEP
 70
    44
  9
$DIMATFIT
 70
     3
  9
$DIMFRAC
 70
     0
  9
$DIMLDRBLK
  1

  9
$DIMLUNIT
 70
     2
  9
$DIMLWD
 70
    -2
  9
$DIMLWE
 70
    -2
  9
$DIMTMOVE
 70
     0
  9
$LUNITS
 70
     2
  9
$LUPREC
 70
     2
  9
$SKETCHINC
 40
1.0
  9
$FILLETRAD
 40
10.0
  9
$AUNITS
 70
     0
  9
$AUPREC
 70
     2
  9
$MENU
  1
.
  9
$ELEVATION
 40
0.0
  9
$PELEVATION
 40
0.0
  9
$THICKNESS
 40
0.0
  9
$LIMCHECK
 70
     0
  9
$CHAMFERA
 40
0.0
  9
$CHAMFERB
 40
0.0
  9
$CHAMFERC
 40
0.0
  9
$CHAMFERD
 40
0.0
  9
$SKPOLY
 70
     0
  9
$TDCREATE
 40
2459394.909871933
  9
$TDUCREATE
 40
2459395.118205266
  9
$TDUPDATE
 40
2459394.909876887
  9
$TDUUPDATE
 40
2459395.11821022
  9
$TDINDWG
 40
0.0000000116
  9
$TDUSRTIMER
 40
0.0000000116
  9
$USRTIMER
 70
     1
  9
$ANGBASE
 50
0.0
  9
$ANGDIR
 70
     0
  9
$PDMODE
 70
     0
  9
$PDSIZE
 40
-1.0
  9
$PLINEWID
 40
0.0
  9
$SPLFRAME
 70
     0
  9
$SPLINETYPE
 70
     6
  9
$SPLINESEGS
 70
     8
  9
$HANDSEED
  5
497
  9
$SURFTAB1
 70
     6
  9
$SURFTAB2
 70
     6
  9
$SURFTYPE
 70
     6
  9
$SURFU
 70
     6
  9
$SURFV
 70
     6
  9
$UCSBASE
  2

  9
$UCSNAME
  2

  9
$UCSORG
 10
0.0
 20
0.0
 30
0.0
  9
$UCSXDIR
 10
1.0
 20
0.0
 30
0.0
  9
$UCSYDIR
 10
0.0
 20
1.0
 30
0.0
  9
$UCSORTHOREF
  2

  9
$UCSORTHOVIEW
 70
     0
  9
$UCSORGTOP
 10
0.0
 20
0.0
 30
0.0
  9
$UCSORGBOTTOM
 10
0.0
 20
0.0
 30
0.0
  9
$UCSORGLEFT
 10
0.0
 20
0.0
 30
0.0
  9
$UCSORGRIGHT
 10
0.0
 20
0.0
 30
0.0
  9
$UCSORGFRONT
 10
0.0
 20
0.0
 30
0.0
  9
$UCSORGBACK
 10
0.0
 20
0.0
 30
0.0
  9
$PUCSBASE
  2

  9
$PUCSNAME
  2

  9
$PUCSORG
 10
0.0
 20
0.0
 30
0.0
  9
$PUCSXDIR
 10
1.0
 20
0.0
 30
0.0
  9
$PUCSYDIR
 10
0.0
 20
1.0
 30
0.0
  9
$PUCSORTHOREF
  2

  9
$PUCSORTHOVIEW
 70
     0
  9
$PUCSORGTOP
 10
0.0
 20
0.0
 30
0.0
  9
$PUCSORGBOTTOM
 10
0.0
 20
0.0
 30
0.0
  9
$PUCSORGLEFT
 10
0.0
 20
0.0
 30
0.0
  9
$PUCSORGRIGHT
 10
0.0
 20
0.0
 30
0.0
  9
$PUCSORGFRONT
 10
0.0
 20
0.0
 30
0.0
  9
$PUCSORGBACK
 10
0.0
 20
0.0
 30
0.0
  9
$USERI1
 70
     0
  9
$USERI2
 70
     0
  9
$USERI3
 70
     0
  9
$USERI4
 70
     0
  9
$USERI5
 70
     0
  9
$USERR1
 40
0.0
  9
$USERR2
 40
0.0
  9
$USERR3
 40
0.0
  9
$USERR4
 40
0.0
  9
$USERR5
 40
0.0
  9
$WORLDVIEW
 70
     1
  9
$SHADEDGE
 70
     3
  9
$SHADEDIF
 70
    70
  9
$TILEMODE
 70
     1
  9
$MAXACTVP
 70
    64
  9
$PINSBASE
 10
0.0
 20
0.0
 30
0.0
  9
$PLIMCHECK
 70
     0
  9
$PEXTMIN
 10
1.0000000000E+20
 20
1.0000000000E+20
 30
1.0000000000E+20
  9
$PEXTMAX
 10
-1.0000000000E+20
 20
-1.0000000000E+20
 30
-1.0000000000E+20
  9
$PLIMMIN
 10
0.0
 20
0.0
  9
$PLIMMAX
 10
420.0
 20
297.0
  9
$UNITMODE
 70
     0
  9
$VISRETAIN
 70
     1
  9
$PLINEGEN
 70
     0
  9
$PSLTSCALE
 70
     1
  9
$TREEDEPTH
 70
  3020
  9
$CMLSTYLE
  2
Standard
  9
$CMLJUST
 70
     0
  9
$CMLSCALE
 40
20.0
  9
$PROXYGRAPHICS
 70
     1
  9
$MEASUREMENT
 70
     1
  9
$CELWEIGHT
370
    -1
  9
$ENDCAPS
280
     0
  9
$JOINSTYLE
280
     0
  9
$LWDISPLAY
290
     1
  9
$INSUNITS
 70
     4
  9
$HYPERLINKBASE
  1

  9
$STYLESHEET
  1

  9
$XEDIT
290
     1
  9
$CEPSNTYPE
380
     0
  9
$PSTYLEMODE
290
     1
  9
$FINGERPRINTGUID
  2
{90F40828-AFF6-4A73-AA64-8F01504A3DCB}
  9
$VERSIONGUID
  2
{FAEB1C32-E019-11D5-929B-00C0DF256EC4}
  9
$EXTNAMES
290
     1
  9
$PSVPSCALE
 40
0.0
  9
$OLESTARTUP
290
     0
  0
ENDSEC
  0
SECTION
  2
CLASSES
  0
CLASS
  1
ACDBDICTIONARYWDFLT
  2
AcDbDictionaryWithDefault
  3
ObjectDBX Classes
 90
        0
280
     0
281
     0
  0
CLASS
  1
VISUALSTYLE
  2
AcDbVisualStyle
  3
ObjectDBX Classes
 90
     4095
280
     0
281
     0
  0
CLASS
  1
MATERIAL
  2
AcDbMaterial
  3
ObjectDBX Classes
 90
     1153
280
     0
281
     0
  0
CLASS
  1
SCALE
  2
AcDbScale
  3
ObjectDBX Classes
 90
     1153
280
     0
281
     0
  0
CLASS
  1
TABLESTYLE
  2
AcDbTableStyle
  3
ObjectDBX Classes
 90
     4095
280
     0
281
     0
  0
CLASS
  1
MLEADERSTYLE
  2
AcDbMLeaderStyle
  3
ACDB_MLEADERSTYLE_CLASS
 90
     4095
280
     0
281
     0
  0
CLASS
  1
SUN
  2
AcDbSun
  3
SCENEOE
 90
     1153
280
     0
281
     0
  0
CLASS
  1
ACDBPLACEHOLDER
  2
AcDbPlaceHolder
  3
ObjectDBX Classes
 90
        0
280
     0
281
     0
  0
CLASS
  1
LAYOUT
  2
AcDbLayout
  3
ObjectDBX Classes
 90
        0
280
     0
281
     0
  0
ENDSEC
  0
SECTION
  2
TABLES
  0
TABLE
  2
VPORT
  5
8
330
0
100
AcDbSymbolTable
 70
     1
  0
VPORT
  5
29
330
8
100
AcDbSymbolTableRecord
100
AcDbViewportTableRecord
  2
*Active
 70
     0
 10
0.0
 20
0.0
 11
1.0
 21
1.0
 12
139.7
 22
107.95
 13
0.0
 23
0.0
 14
10.0
 24
10.0
 15
10.0
 25
10.0
 16
0.0
 26
0.0
 36
1.0
 17
0.0
 27
0.0
 37
0.0
 40
215.9
 41
1.2941176471
 42
50.0
 43
0.0
 44
0.0
 50
0.0
 51
0.0
 71
     0
 72
  2000
 73
     1
 74
     3
 75
     0
 76
     0
 77
     0
 78
     0
281
     0
 65
     1
110
0.0
120
0.0
130
0.0
111
1.0
121
0.0
131
0.0
112
0.0
122
1.0
132
0.0
 79
     0
146
0.0
  0
ENDTAB
  0
TABLE
  2
LTYPE
  5
5
330
0
100
AcDbSymbolTable
 70
     6
  0
LTYPE
  5
14
330
5
100
AcDbSymbolTableRecord
100
AcDbLinetypeTableRecord
  2
ByBlock
 70
     0
  3

 72
    65
 73
     0
 40
0.0
  0
LTYPE
  5
15
330
5
100
AcDbSymbolTableRecord
100
AcDbLinetypeTableRecord
  2
ByLayer
 70
     0
  3

 72
    65
 73
     0
 40
0.0
  0
LTYPE
  5
16
330
5
100
AcDbSymbolTableRecord
100
AcDbLinetypeTableRecord
  2
Continuous
 70
     0
  3
Solid line
 72
    65
 73
     0
 40
0.0
  0
LTYPE
  5
6E
330
5
100
AcDbSymbolTableRecord
100
AcDbLinetypeTableRecord
  2
HIDDEN
 70
     0
  3
Hidden __ __ __ __ __ __ __ __ __ __ __ __ __ __
 72
    65
 73
     2
 40
1.905
 49
1.27
 74
     0
 49
-0.635
 74
     0
  0
LTYPE
  5
6F
330
5
100
AcDbSymbolTableRecord
100
AcDbLinetypeTableRecord
  2
PHANTOM
 70
     0
  3
Phantom ______  __  __  ______  __  __  ______
 72
    65
 73
     6
 40
12.7
 49
6.35
 74
     0
 49
-1.27
 74
     0
 49
1.27
 74
     0
 49
-1.27
 74
     0
 49
1.27
 74
     0
 49
-1.27
 74
     0
  0
LTYPE
  5
70
330
5
100
AcDbSymbolTableRecord
100
AcDbLinetypeTableRecord
  2
CENTER
 70
     0
  3
Center ____ _ ____ _ ____ _ ____ _ ____ _ ____
 72
    65
 73
     4
 40
10.16
 49
6.35
 74
     0
 49
-1.27
 74
     0
 49
1.27
 74
     0
 49
-1.27
 74
     0
  0
LTYPE
  5
71
330
5
100
AcDbSymbolTableRecord
100
AcDbLinetypeTableRecord
  2
CENTERX2
 70
     0
  3
Center (2x) ________  __  ________  __  _____
 72
    65
 73
     4
 40
20.32
 49
12.7
 74
     0
 49
-2.54
 74
     0
 49
2.54
 74
     0
 49
-2.54
 74
     0
  0
LTYPE
  5
72
330
5
100
AcDbSymbolTableRecord
100
AcDbLinetypeTableRecord
  2
DOT2
 70
     0
  3
Dot (.5x) ........................................
 72
    65
 73
     2
 40
0.635
 49
0.0
 74
     0
 49
-0.635
 74
     0
  0
ENDTAB
  0
TABLE
  2
LAYER
  5
2
330
0
100
AcDbSymbolTable
 70
     6
  0
LAYER
  5
10
330
2
100
AcDbSymbolTableRecord
100
AcDbLayerTableRecord
  2
0
 70
     0
 62
     7
  6
Continuous
370
    -3
390
F
  0
LAYER
  5
73
330
2
100
AcDbSymbolTableRecord
100
AcDbLayerTableRecord
  2
FORMAT
 70
     0
 62
     8
  6
Continuous
370
    -3
390
F
  0
LAYER
  5
74
330
2
100
AcDbSymbolTableRecord
100
AcDbLayerTableRecord
  2
TITLE_BLOCK_TEXT
 70
     0
 62
     8
  6
Continuous
370
    -3
390
F
  0
LAYER
  5
75
330
2
100
AcDbSymbolTableRecord
100
AcDbLayerTableRecord
  2
PAGE_BORDER
 70
     0
 62
     7
  6
Continuous
370
    -3
390
F
  0
LAYER
  5
76
330
2
100
AcDbSymbolTableRecord
100
AcDbLayerTableRecord
  2
TITLE_BLOCK_BORDER
 70
     0
 62
     7
  6
Continuous
370
    -3
390
F
  0
LAYER
  5
77
330
2
100
AcDbSymbolTableRecord
100
AcDbLayerTableRecord
  2
DIM
 70
     0
 62
     1
  6
Continuous
370
    -3
390
F
  0
ENDTAB
  0
TABLE
  2
STYLE
  5
3
330
0
100
AcDbSymbolTable
 70
     4
  0
STYLE
  5
11
330
3
100
AcDbSymbolTableRecord
100
AcDbTextStyleTableRecord
  2
Standard
 70
     0
 40
0.0
 41
1.0
 50
0.0
 71
     0
 42
4.2333333333
  3
txt
  4

  0
STYLE
  5
DE
330
3
100
AcDbSymbolTableRecord
100
AcDbTextStyleTableRecord
  2
SLDTEXTSTYLE0
 70
     0
 40
0.0
 41
0.75
 50
0.0
 71
     0
 42
4.2333333333
  3
TXT
  4

  0
STYLE
  5
107
330
3
100
AcDbSymbolTableRecord
100
AcDbTextStyleTableRecord
  2
SLDTEXTSTYLE1
 70
     0
 40
0.0
 41
0.7
 50
0.0
 71
     0
 42
4.2333333333
  3
TXT
  4

  0
STYLE
  5
149
330
3
100
AcDbSymbolTableRecord
100
AcDbTextStyleTableRecord
  2
SLDTEXTSTYLE2
 70
     0
 40
0.0
 41
0.6923076923
 50
0.0
 71
     0
 42
4.2333333333
  3
TXT
  4

  0
ENDTAB
  0
TABLE
  2
VIEW
  5
6
330
0
100
AcDbSymbolTable
 70
     0
  0
ENDTAB
  0
TABLE
  2
UCS
  5
7
330
0
100
AcDbSymbolTable
 70
     0
  0
ENDTAB
  0
TABLE
  2
APPID
  5
9
330
0
100
AcDbSymbolTable
 70
     1
  0
APPID
  5
12
330
9
100
AcDbSymbolTableRecord
100
AcDbRegAppTableRecord
  2
ACAD
 70
     0
  0
ENDTAB
  0
TABLE
  2
DIMSTYLE
  5
A
330
0
100
AcDbSymbolTable
 70
     9
100
AcDbDimStyleTable
  0
DIMSTYLE
105
27
330
A
100
AcDbSymbolTableRecord
100
AcDbDimStyleTableRecord
  2
ISO-25
 70
     0
 41
2.5
 42
0.625
 43
3.75
 44
1.25
 73
     0
 74
     0
 77
     1
 78
     8
140
2.5
141
2.5
143
0.0393700787
147
0.625
171
     3
172
     1
178
     0
271
     2
272
     2
274
     3
278
    44
283
     0
284
     8
340
11
  0
DIMSTYLE
105
1E1
102
{ACAD_REACTORS
330
1E0
102
}
330
A
100
AcDbSymbolTableRecord
100
AcDbDimStyleTableRecord
  2
SLDDIMSTYLE0
 70
     0
 41
3.302
 44
0.0
 45
0.000000001
 73
     0
 74
     0
 77
     1
 78
    12
 79
     3
140
2.5
144
2.0
147
0.625
173
     1
178
     0
271
     2
272
     2
276
     2
284
    12
340
DE
  0
DIMSTYLE
105
1ED
102
{ACAD_REACTORS
330
1EC
330
1F7
330
20D
330
217
330
221
330
22B
330
235
330
357
330
361
330
376
330
380
330
39B
330
3A6
102
}
330
A
100
AcDbSymbolTableRecord
100
AcDbDimStyleTableRecord
  2
SLDDIMSTYLE1
 70
     0
 41
3.302
 44
0.0
 45
0.000000001
 73
     0
 74
     0
 77
     1
 78
     4
 79
     1
140
2.5
144
2.0
147
0.625
173
     1
178
     0
271
     2
272
     2
276
     2
284
    12
340
DE
  0
DIMSTYLE
105
202
102
{ACAD_REACTORS
330
201
330
36B
102
}
330
A
100
AcDbSymbolTableRecord
100
AcDbDimStyleTableRecord
  2
SLDDIMSTYLE2
 70
     0
 41
3.302
 44
0.0
 45
0.000000001
 73
     0
 74
     0
 77
     1
 78
     4
 79
     1
140
2.5
144
2.0
147
0.625
172
     1
173
     1
178
     0
271
     2
272
     2
276
     2
284
    12
289
     0
340
DE
  0
DIMSTYLE
105
240
102
{ACAD_REACTORS
330
23F
102
}
330
A
100
AcDbSymbolTableRecord
100
AcDbDimStyleTableRecord
  2
SLDDIMSTYLE3
 70
     0
 41
3.302
 44
0.0
 45
0.000000001
 73
     0
 74
     0
 77
     1
 78
    12
 79
     3
140
2.5
141
0.0
144
2.0
147
0.625
173
     1
178
     0
271
     2
272
     2
276
     2
284
    12
340
DE
  0
DIMSTYLE
105
249
102
{ACAD_REACTORS
330
248
330
393
102
}
330
A
100
AcDbSymbolTableRecord
100
AcDbDimStyleTableRecord
  2
SLDDIMSTYLE4
 70
     0
 41
3.302
 44
0.0
 73
     0
 74
     0
 77
     1
 78
    12
 79
     3
140
2.5
144
2.0
147
0.625
173
     1
178
     0
179
     2
272
     2
276
     2
284
    12
340
DE
  0
DIMSTYLE
105
38B
102
{ACAD_REACTORS
330
38A
102
}
330
A
100
AcDbSymbolTableRecord
100
AcDbDimStyleTableRecord
  2
SLDDIMSTYLE5
 70
     0
 41
3.302
 44
0.0
 45
0.000000001
 73
     0
 74
     0
 77
     1
 78
    12
 79
     3
140
2.5
141
0.0
144
2.0
147
0.625
173
     1
178
     0
271
     2
272
     2
276
     2
284
    12
340
DE
  0
DIMSTYLE
105
3B0
102
{ACAD_REACTORS
330
3AF
102
}
330
A
100
AcDbSymbolTableRecord
100
AcDbDimStyleTableRecord
  2
SLDDIMSTYLE6
 70
     0
 41
3.302
 44
0.0
 45
0.000000001
 73
     0
 74
     0
 77
     1
 78
    12
 79
     3
140
2.5
144
2.0
147
0.625
173
     1
178
     0
271
     1
272
     1
276
     2
284
    12
340
DE
  0
DIMSTYLE
105
3C8
330
A
100
AcDbSymbolTableRecord
100
AcDbDimStyleTableRecord
  2
SLDDIMSTYLE7
 70
     0
 41
1.016
 44
0.0
 45
0.000000001
146
1.016
147
0.0
173
     1
178
     0
271
     0
272
     0
276
     2
340
11
341
3C9
343
3C9
344
3C9
  0
ENDTAB
  0
TABLE
  2
BLOCK_RECORD
  5
1
330
0
100
AcDbSymbolTable
 70
    61
  0
BLOCK_RECORD
  5
1F
330
1
100
AcDbSymbolTableRecord
100
AcDbBlockTableRecord
  2
*Model_Space
340
22
  0
BLOCK_RECORD
  5
1B
330
1
100
AcDbSymbolTableRecord
100
AcDbBlockTableRecord
  2
*Paper_Space
340
1E
  0
BLOCK_RECORD
  5
23
330
1
100
AcDbSymbolTableRecord
100
AcDbBlockTableRecord
  2
*Paper_Space0
340
26
  0
BLOCK_RECORD
  5
78
330
1
100
AcDbSymbolTableRecord
100
AcDbBlockTableRecord
  2
Lien3D Logo
340
0
102
{BLKREFS
331
DA
102
}
  0
BLOCK_RECORD
  5
DB
330
1
100
AcDbSymbolTableRecord
100
AcDbBlockTableRecord
  2
SW_NOTE_0
340
0
102
{BLKREFS
331
E1
102
}
  0
BLOCK_RECORD
  5
E2
330
1
100
AcDbSymbolTableRecord
100
AcDbBlockTableRecord
  2
SW_NOTE_1
340
0
102
{BLKREFS
331
E7
102
}
  0
BLOCK_RECORD
  5
E8
330
1
100
AcDbSymbolTableRecord
100
AcDbBlockTableRecord
  2
SW_NOTE_2
340
0
102
{BLKREFS
331
ED
102
}
  0
BLOCK_RECORD
  5
EE
330
1
100
AcDbSymbolTableRecord
100
AcDbBlockTableRecord
  2
SW_NOTE_3
340
0
102
{BLKREFS
331
F3
102
}
  0
BLOCK_RECORD
  5
109
330
1
100
AcDbSymbolTableRecord
100
AcDbBlockTableRecord
  2
SW_TABLEANNOTATION_0
340
0
102
{BLKREFS
331
169
102
}
  0
BLOCK_RECORD
  5
16A
330
1
100
AcDbSymbolTableRecord
100
AcDbBlockTableRecord
  2
SW_TABLEANNOTATION_1
340
0
102
{BLKREFS
331
1B6
102
}
  0
BLOCK_RECORD
  5
1A4
330
1
100
AcDbSymbolTableRecord
100
AcDbBlockTableRecord
  2
SW_SYMBOL_HOLE_SPOT
340
0
102
{BLKREFS
331
1AA
102
}
  0
BLOCK_RECORD
  5
1AD
330
1
100
AcDbSymbolTableRecord
100
AcDbBlockTableRecord
  2
SW_SYMBOL_HOLE_DEPTH
340
0
102
{BLKREFS
331
1B4
331
3C5
102
}
  0
BLOCK_RECORD
  5
1E2
330
1
100
AcDbSymbolTableRecord
100
AcDbBlockTableRecord
  2
_D
340
0
  0
BLOCK_RECORD
  5
1EE
330
1
100
AcDbSymbolTableRecord
100
AcDbBlockTableRecord
  2
_D_1
340
0
  0
BLOCK_RECORD
  5
1F8
330
1
100
AcDbSymbolTableRecord
100
AcDbBlockTableRecord
  2
_D_2
340
0
  0
BLOCK_RECORD
  5
203
330
1
100
AcDbSymbolTableRecord
100
AcDbBlockTableRecord
  2
_D_3
340
0
  0
BLOCK_RECORD
  5
20E
330
1
100
AcDbSymbolTableRecord
100
AcDbBlockTableRecord
  2
_D_4
340
0
  0
BLOCK_RECORD
  5
218
330
1
100
AcDbSymbolTableRecord
100
AcDbBlockTableRecord
  2
_D_5
340
0
  0
BLOCK_RECORD
  5
222
330
1
100
AcDbSymbolTableRecord
100
AcDbBlockTableRecord
  2
_D_6
340
0
  0
BLOCK_RECORD
  5
22C
330
1
100
AcDbSymbolTableRecord
100
AcDbBlockTableRecord
  2
_D_7
340
0
  0
BLOCK_RECORD
  5
236
330
1
100
AcDbSymbolTableRecord
100
AcDbBlockTableRecord
  2
_D_8
340
0
  0
BLOCK_RECORD
  5
241
330
1
100
AcDbSymbolTableRecord
100
AcDbBlockTableRecord
  2
_D_9
340
0
  0
BLOCK_RECORD
  5
24A
330
1
100
AcDbSymbolTableRecord
100
AcDbBlockTableRecord
  2
_D_10
340
0
  0
BLOCK_RECORD
  5
25B
330
1
100
AcDbSymbolTableRecord
100
AcDbBlockTableRecord
  2
SW_CENTERMARKSYMBOL_0
340
0
102
{BLKREFS
331
266
102
}
  0
BLOCK_RECORD
  5
267
330
1
100
AcDbSymbolTableRecord
100
AcDbBlockTableRecord
  2
SW_CENTERMARKSYMBOL_1
340
0
102
{BLKREFS
331
272
102
}
  0
BLOCK_RECORD
  5
273
330
1
100
AcDbSymbolTableRecord
100
AcDbBlockTableRecord
  2
SW_CENTERMARKSYMBOL_2
340
0
102
{BLKREFS
331
27E
102
}
  0
BLOCK_RECORD
  5
27F
330
1
100
AcDbSymbolTableRecord
100
AcDbBlockTableRecord
  2
SW_CENTERMARKSYMBOL_3
340
0
102
{BLKREFS
331
28A
102
}
  0
BLOCK_RECORD
  5
28B
330
1
100
AcDbSymbolTableRecord
100
AcDbBlockTableRecord
  2
SW_CENTERMARKSYMBOL_4
340
0
102
{BLKREFS
331
296
102
}
  0
BLOCK_RECORD
  5
297
330
1
100
AcDbSymbolTableRecord
100
AcDbBlockTableRecord
  2
SW_CENTERMARKSYMBOL_5
340
0
102
{BLKREFS
331
2A2
102
}
  0
BLOCK_RECORD
  5
2A3
330
1
100
AcDbSymbolTableRecord
100
AcDbBlockTableRecord
  2
SW_CENTERMARKSYMBOL_6
340
0
102
{BLKREFS
331
2AE
102
}
  0
BLOCK_RECORD
  5
2AF
330
1
100
AcDbSymbolTableRecord
100
AcDbBlockTableRecord
  2
SW_CENTERMARKSYMBOL_7
340
0
102
{BLKREFS
331
2BA
102
}
  0
BLOCK_RECORD
  5
2BB
330
1
100
AcDbSymbolTableRecord
100
AcDbBlockTableRecord
  2
SW_CENTERMARKSYMBOL_8
340
0
102
{BLKREFS
331
2C6
102
}
  0
BLOCK_RECORD
  5
2CB
330
1
100
AcDbSymbolTableRecord
100
AcDbBlockTableRecord
  2
SW_DATUMORIGIN_0
340
0
102
{BLKREFS
331
2DA
102
}
  0
BLOCK_RECORD
  5
2FB
330
1
100
AcDbSymbolTableRecord
100
AcDbBlockTableRecord
  2
SW_CENTERMARKSYMBOL_9
340
0
102
{BLKREFS
331
306
102
}
  0
BLOCK_RECORD
  5
307
330
1
100
AcDbSymbolTableRecord
100
AcDbBlockTableRecord
  2
SW_CENTERMARKSYMBOL_10
340
0
102
{BLKREFS
331
312
102
}
  0
BLOCK_RECORD
  5
313
330
1
100
AcDbSymbolTableRecord
100
AcDbBlockTableRecord
  2
SW_CENTERMARKSYMBOL_11
340
0
102
{BLKREFS
331
31E
102
}
  0
BLOCK_RECORD
  5
31F
330
1
100
AcDbSymbolTableRecord
100
AcDbBlockTableRecord
  2
SW_CENTERMARKSYMBOL_12
340
0
102
{BLKREFS
331
32A
102
}
  0
BLOCK_RECORD
  5
32B
330
1
100
AcDbSymbolTableRecord
100
AcDbBlockTableRecord
  2
SW_CENTERMARKSYMBOL_13
340
0
102
{BLKREFS
331
336
102
}
  0
BLOCK_RECORD
  5
358
330
1
100
AcDbSymbolTableRecord
100
AcDbBlockTableRecord
  2
_D_11
340
0
  0
BLOCK_RECORD
  5
362
330
1
100
AcDbSymbolTableRecord
100
AcDbBlockTableRecord
  2
_D_12
340
0
  0
BLOCK_RECORD
  5
36C
330
1
100
AcDbSymbolTableRecord
100
AcDbBlockTableRecord
  2
_D_13
340
0
  0
BLOCK_RECORD
  5
377
330
1
100
AcDbSymbolTableRecord
100
AcDbBlockTableRecord
  2
_D_14
340
0
  0
BLOCK_RECORD
  5
381
330
1
100
AcDbSymbolTableRecord
100
AcDbBlockTableRecord
  2
_D_15
340
0
  0
BLOCK_RECORD
  5
38C
330
1
100
AcDbSymbolTableRecord
100
AcDbBlockTableRecord
  2
_D_16
340
0
  0
BLOCK_RECORD
  5
394
330
1
100
AcDbSymbolTableRecord
100
AcDbBlockTableRecord
  2
_D_17
340
0
  0
BLOCK_RECORD
  5
39C
330
1
100
AcDbSymbolTableRecord
100
AcDbBlockTableRecord
  2
_D_18
340
0
  0
BLOCK_RECORD
  5
3A7
330
1
100
AcDbSymbolTableRecord
100
AcDbBlockTableRecord
  2
_D_19
340
0
  0
BLOCK_RECORD
  5
3B1
330
1
100
AcDbSymbolTableRecord
100
AcDbBlockTableRecord
  2
_D_20
340
0
  0
BLOCK_RECORD
  5
3C0
330
1
100
AcDbSymbolTableRecord
100
AcDbBlockTableRecord
  2
SW_NOTE_4
340
0
102
{BLKREFS
331
3C7
102
}
  0
BLOCK_RECORD
  5
3C9
330
1
100
AcDbSymbolTableRecord
100
AcDbBlockTableRecord
  2
_DOT
340
0
  0
BLOCK_RECORD
  5
3D2
330
1
100
AcDbSymbolTableRecord
100
AcDbBlockTableRecord
  2
SW_CENTERMARKSYMBOL_14
340
0
102
{BLKREFS
331
3DD
102
}
  0
BLOCK_RECORD
  5
3DE
330
1
100
AcDbSymbolTableRecord
100
AcDbBlockTableRecord
  2
SW_CENTERMARKSYMBOL_15
340
0
102
{BLKREFS
331
3E9
102
}
  0
BLOCK_RECORD
  5
3EA
330
1
100
AcDbSymbolTableRecord
100
AcDbBlockTableRecord
  2
SW_CENTERMARKSYMBOL_16
340
0
102
{BLKREFS
331
3F5
102
}
  0
BLOCK_RECORD
  5
3F6
330
1
100
AcDbSymbolTableRecord
100
AcDbBlockTableRecord
  2
SW_CENTERMARKSYMBOL_17
340
0
102
{BLKREFS
331
401
102
}
  0
BLOCK_RECORD
  5
402
330
1
100
AcDbSymbolTableRecord
100
AcDbBlockTableRecord
  2
SW_CENTERMARKSYMBOL_18
340
0
102
{BLKREFS
331
40D
102
}
  0
BLOCK_RECORD
  5
40E
330
1
100
AcDbSymbolTableRecord
100
AcDbBlockTableRecord
  2
SW_CENTERMARKSYMBOL_19
340
0
102
{BLKREFS
331
419
102
}
  0
BLOCK_RECORD
  5
41A
330
1
100
AcDbSymbolTableRecord
100
AcDbBlockTableRecord
  2
SW_DATUMORIGIN_1
340
0
102
{BLKREFS
331
429
102
}
  0
BLOCK_RECORD
  5
44B
330
1
100
AcDbSymbolTableRecord
100
AcDbBlockTableRecord
  2
SW_CENTERMARKSYMBOL_20
340
0
102
{BLKREFS
331
456
102
}
  0
BLOCK_RECORD
  5
457
330
1
100
AcDbSymbolTableRecord
100
AcDbBlockTableRecord
  2
SW_CENTERMARKSYMBOL_21
340
0
102
{BLKREFS
331
462
102
}
  0
BLOCK_RECORD
  5
463
330
1
100
AcDbSymbolTableRecord
100
AcDbBlockTableRecord
  2
SW_CENTERMARKSYMBOL_22
340
0
102
{BLKREFS
331
46E
102
}
  0
BLOCK_RECORD
  5
46F
330
1
100
AcDbSymbolTableRecord
100
AcDbBlockTableRecord
  2
SW_CENTERMARKSYMBOL_23
340
0
102
{BLKREFS
331
47A
102
}
  0
BLOCK_RECORD
  5
47B
330
1
100
AcDbSymbolTableRecord
100
AcDbBlockTableRecord
  2
SW_CENTERMARKSYMBOL_24
340
0
102
{BLKREFS
331
486
102
}
  0
BLOCK_RECORD
  5
487
330
1
100
AcDbSymbolTableRecord
100
AcDbBlockTableRecord
  2
SW_CENTERMARKSYMBOL_25
340
0
102
{BLKREFS
331
492
102
}
  0
ENDTAB
  0
ENDSEC
  0
SECTION
  2
BLOCKS
  0
BLOCK
  5
20
330
1F
100
AcDbEntity
  8
0
100
AcDbBlockBegin
  2
*Model_Space
 70
     0
 10
0.0
 20
0.0
 30
0.0
  3
*Model_Space
  1

  0
ENDBLK
  5
21
330
1F
100
AcDbEntity
  8
0
100
AcDbBlockEnd
  0
BLOCK
  5
1C
330
1B
100
AcDbEntity
 67
     1
  8
0
100
AcDbBlockBegin
  2
*Paper_Space
 70
     0
 10
0.0
 20
0.0
 30
0.0
  3
*Paper_Space
  1

  0
ENDBLK
  5
1D
330
1B
100
AcDbEntity
 67
     1
  8
0
100
AcDbBlockEnd
  0
BLOCK
  5
24
330
23
100
AcDbEntity
  8
0
100
AcDbBlockBegin
  2
*Paper_Space0
 70
     0
 10
0.0
 20
0.0
 30
0.0
  3
*Paper_Space0
  1

  0
ENDBLK
  5
25
330
23
100
AcDbEntity
  8
0
100
AcDbBlockEnd
  0
BLOCK
  5
79
330
78
100
AcDbEntity
  8
0
100
AcDbBlockBegin
  2
Lien3D Logo
 70
     0
 10
0.0
 20
0.0
 30
0.0
  3
Lien3D Logo
  1

  0
LINE
  5
7B
330
78
100
AcDbEntity
  8
0
  6
Continuous
 62
     7
370
    18
100
AcDbLine
 10
12.7343265569
 20
5.3110134638
 30
0.0
 11
21.2132034356
 21
10.2057648981
 31
0.0
  0
LINE
  5
7C
330
78
100
AcDbEntity
  8
0
  6
Continuous
 62
     7
370
    18
100
AcDbLine
 10
11.6704641374
 20
5.9251681659
 30
0.0
 11
12.7343265569
 21
5.3110134638
 31
0.0
  0
LINE
  5
7D
330
78
100
AcDbEntity
  8
0
  6
Continuous
 62
     7
370
    18
100
AcDbLine
 10
14.7485350487
 20
8.8934377183
 30
0.0
 11
11.6704641374
 21
5.9251681659
 31
0.0
  0
LINE
  5
7E
330
78
100
AcDbEntity
  8
0
  6
Continuous
 62
     7
370
    18
100
AcDbLine
 10
10.6386241956
 20
6.5208366851
 30
0.0
 11
14.7485350487
 21
8.8934377183
 31
0.0
  0
LINE
  5
7F
330
78
100
AcDbEntity
  8
0
  6
Continuous
 62
     7
370
    18
100
AcDbLine
 10
9.5747617761
 20
7.1349913873
 30
0.0
 11
10.6386241956
 21
6.5208366851
 31
0.0
  0
LINE
  5
80
330
78
100
AcDbEntity
  8
0
  6
Continuous
 62
     7
370
    18
100
AcDbLine
 10
18.0536386548
 20
12.0297428216
 30
0.0
 11
9.5747617761
 21
7.1349913873
 31
0.0
  0
LINE
  5
81
330
78
100
AcDbEntity
  8
0
  6
Continuous
 62
     7
370
    18
100
AcDbLine
 10
19.1175010743
 20
11.4155881195
 30
0.0
 11
18.0536386548
 21
12.0297428216
 31
0.0
  0
LINE
  5
82
330
78
100
AcDbEntity
  8
0
  6
Continuous
 62
     7
370
    18
100
AcDbLine
 10
16.039430163
 20
8.447318567
 30
0.0
 11
19.1175010743
 21
11.4155881195
 31
0.0
  0
LINE
  5
83
330
78
100
AcDbEntity
  8
0
  6
Continuous
 62
     7
370
    18
100
AcDbLine
 10
20.149341016
 20
10.8199196003
 30
0.0
 11
16.039430163
 21
8.447318567
 31
0.0
  0
LINE
  5
84
330
78
100
AcDbEntity
  8
0
  6
Continuous
 62
     7
370
    18
100
AcDbLine
 10
21.2132034356
 20
10.2057648981
 30
0.0
 11
20.149341016
 21
10.8199196003
 31
0.0
  0
LINE
  5
85
330
78
100
AcDbEntity
  8
0
  6
Continuous
 62
     7
370
    18
100
AcDbLine
 10
12.7343265569
 20
5.3110134638
 30
0.0
 11
12.7343265569
 21
1.2283094043
 31
0.0
  0
LINE
  5
86
330
78
100
AcDbEntity
  8
0
  6
Continuous
 62
     7
370
    18
100
AcDbLine
 10
21.2132034356
 20
10.2057648981
 30
0.0
 11
21.2132034356
 21
6.1230608387
 31
0.0
  0
LINE
  5
87
330
78
100
AcDbEntity
  8
0
  6
Continuous
 62
     7
370
    18
100
AcDbLine
 10
12.7343265569
 20
1.2283094043
 30
0.0
 11
21.2132034356
 21
6.1230608387
 31
0.0
  0
LINE
  5
88
330
78
100
AcDbEntity
  8
0
  6
Continuous
 62
     7
370
    18
100
AcDbLine
 10
11.6704641374
 20
5.9251681659
 30
0.0
 11
11.6704641374
 21
4.6968587616
 31
0.0
  0
LINE
  5
89
330
78
100
AcDbEntity
  8
0
  6
Continuous
 62
     7
370
    18
100
AcDbLine
 10
11.6704641374
 20
1.8424641065
 30
0.0
 11
12.7343265569
 21
1.2283094043
 31
0.0
  0
LINE
  5
8A
330
78
100
AcDbEntity
  8
0
  6
Continuous
 62
     7
370
    18
100
AcDbLine
 10
10.6386241956
 20
6.5208366851
 30
0.0
 11
10.6386241956
 21
5.2925272808
 31
0.0
  0
LINE
  5
8B
330
78
100
AcDbEntity
  8
0
  6
Continuous
 62
     7
370
    18
100
AcDbLine
 10
9.5747617761
 20
7.1349913873
 30
0.0
 11
9.5747617761
 21
5.9066819829
 31
0.0
  0
LINE
  5
8C
330
78
100
AcDbEntity
  8
0
  6
Continuous
 62
     7
370
    18
100
AcDbLine
 10
19.1175010743
 20
11.4155881195
 30
0.0
 11
19.1175010743
 21
10.2242510811
 31
0.0
  0
LINE
  5
8D
330
78
100
AcDbEntity
  8
0
  6
Continuous
 62
     7
370
    18
100
AcDbLine
 10
10.6066017178
 20
4.0827040594
 30
0.0
 11
10.6066017178
 21
0.0
 31
0.0
  0
LINE
  5
8E
330
78
100
AcDbEntity
  8
0
  6
Continuous
 62
     7
370
    18
100
AcDbLine
 10
10.6066017178
 20
4.0827040594
 30
0.0
 11
11.6704641374
 21
4.6968587616
 31
0.0
  0
LINE
  5
8F
330
78
100
AcDbEntity
  8
0
  6
Continuous
 62
     7
370
    18
100
AcDbLine
 10
11.6704641374
 20
4.6968587616
 30
0.0
 11
11.6704641374
 21
0.6141547022
 31
0.0
  0
LINE
  5
90
330
78
100
AcDbEntity
  8
0
  6
Continuous
 62
     7
370
    18
100
AcDbLine
 10
10.6066017178
 20
0.0
 30
0.0
 11
11.6704641374
 21
0.6141547022
 31
0.0
  0
LINE
  5
91
330
78
100
AcDbEntity
  8
0
  6
Continuous
 62
     7
370
    18
100
AcDbLine
 10
0.0
 20
10.2057648981
 30
0.0
 11
0.0
 21
6.1230608387
 31
0.0
  0
LINE
  5
92
330
78
100
AcDbEntity
  8
0
  6
Continuous
 62
     7
370
    18
100
AcDbLine
 10
0.0
 20
10.2057648981
 30
0.0
 11
10.6066017178
 21
4.0827040594
 31
0.0
  0
LINE
  5
93
330
78
100
AcDbEntity
  8
0
  6
Continuous
 62
     7
370
    18
100
AcDbLine
 10
0.0
 20
6.1230608387
 30
0.0
 11
10.6066017178
 21
0.0
 31
0.0
  0
LINE
  5
94
330
78
100
AcDbEntity
  8
0
  6
Continuous
 62
     7
370
    18
100
AcDbLine
 10
11.6704641374
 20
15.7146710346
 30
0.0
 11
10.6066017178
 21
16.3288257368
 31
0.0
  0
LINE
  5
95
330
78
100
AcDbEntity
  8
0
  6
Continuous
 62
     7
370
    18
100
AcDbLine
 10
2.1277248391
 20
10.2057648981
 30
0.0
 11
11.6704641374
 21
15.7146710346
 31
0.0
  0
LINE
  5
96
330
78
100
AcDbEntity
  8
0
  6
Continuous
 62
     7
370
    18
100
AcDbLine
 10
11.6704641374
 20
4.6968587616
 30
0.0
 11
2.1277248391
 21
10.2057648981
 31
0.0
  0
LINE
  5
97
330
78
100
AcDbEntity
  8
0
  6
Continuous
 62
     7
370
    18
100
AcDbLine
 10
10.6066017178
 20
16.3288257368
 30
0.0
 11
0.0
 21
10.2057648981
 31
0.0
  0
LINE
  5
98
330
78
100
AcDbEntity
  8
0
  6
Continuous
 62
     7
370
    18
100
AcDbLine
 10
11.6704641374
 20
15.7146710346
 30
0.0
 11
11.6704641374
 21
14.4863616303
 31
0.0
  0
LINE
  5
99
330
78
100
AcDbEntity
  8
0
  6
Continuous
 62
     7
370
    18
100
AcDbLine
 10
4.2554496783
 20
10.2057648981
 30
0.0
 11
4.2554496783
 21
8.9774554938
 31
0.0
  0
LINE
  5
9A
330
78
100
AcDbEntity
  8
0
  6
Continuous
 62
     7
370
    18
100
AcDbLine
 10
4.2554496783
 20
10.2057648981
 30
0.0
 11
5.3193120978
 21
9.5916101959
 31
0.0
  0
LINE
  5
9B
330
78
100
AcDbEntity
  8
0
  6
Continuous
 62
     7
370
    18
100
AcDbLine
 10
5.3193120978
 20
9.5916101959
 30
0.0
 11
5.3193120978
 21
8.3633007916
 31
0.0
  0
LINE
  5
9C
330
78
100
AcDbEntity
  8
0
  6
Continuous
 62
     7
370
    18
100
AcDbLine
 10
5.3193120978
 20
9.5916101959
 30
0.0
 11
13.7981889765
 21
14.4863616303
 31
0.0
  0
LINE
  5
9D
330
78
100
AcDbEntity
  8
0
  6
Continuous
 62
     7
370
    18
100
AcDbLine
 10
13.7981889765
 20
14.4863616303
 30
0.0
 11
13.7981889765
 21
13.2580522259
 31
0.0
  0
LINE
  5
9E
330
78
100
AcDbEntity
  8
0
  6
Continuous
 62
     7
370
    18
100
AcDbLine
 10
12.7343265569
 20
15.1005163324
 30
0.0
 11
4.2554496783
 21
10.2057648981
 31
0.0
  0
LINE
  5
9F
330
78
100
AcDbEntity
  8
0
  6
Continuous
 62
     7
370
    18
100
AcDbLine
 10
13.7981889765
 20
14.4863616303
 30
0.0
 11
12.7343265569
 21
15.1005163324
 31
0.0
  0
LINE
  5
A0
330
78
100
AcDbEntity
  8
0
  6
Continuous
 62
     7
370
    18
100
AcDbLine
 10
15.9259138156
 20
12.0297428216
 30
0.0
 11
16.9897762352
 21
12.6438975238
 31
0.0
  0
LINE
  5
A1
330
78
100
AcDbEntity
  8
0
  6
Continuous
 62
     7
370
    18
100
AcDbLine
 10
14.8620513961
 20
12.6438975238
 30
0.0
 11
15.9259138156
 21
12.0297428216
 31
0.0
  0
LINE
  5
A2
330
78
100
AcDbEntity
  8
0
  6
Continuous
 62
     7
370
    18
100
AcDbLine
 10
12.2184065861
 20
11.1177538599
 30
0.0
 11
14.8620513961
 21
12.6438975238
 31
0.0
  0
LINE
  5
A3
330
78
100
AcDbEntity
  8
0
  6
Continuous
 62
     7
370
    18
100
AcDbLine
 10
13.2822690056
 20
10.5035991577
 30
0.0
 11
12.2184065861
 21
11.1177538599
 31
0.0
  0
LINE
  5
A4
330
78
100
AcDbEntity
  8
0
  6
Continuous
 62
     7
370
    18
100
AcDbLine
 10
12.2184065861
 20
9.8894444555
 30
0.0
 11
13.2822690056
 21
10.5035991577
 31
0.0
  0
LINE
  5
A5
330
78
100
AcDbEntity
  8
0
  6
Continuous
 62
     7
370
    18
100
AcDbLine
 10
11.1545441665
 20
10.5035991577
 30
0.0
 11
12.2184065861
 21
9.8894444555
 31
0.0
  0
LINE
  5
A6
330
78
100
AcDbEntity
  8
0
  6
Continuous
 62
     7
370
    18
100
AcDbLine
 10
8.5108993565
 20
8.9774554938
 30
0.0
 11
11.1545441665
 21
10.5035991577
 31
0.0
  0
LINE
  5
A7
330
78
100
AcDbEntity
  8
0
  6
Continuous
 62
     7
370
    18
100
AcDbLine
 10
9.5747617761
 20
8.3633007916
 30
0.0
 11
8.5108993565
 21
8.9774554938
 31
0.0
  0
LINE
  5
A8
330
78
100
AcDbEntity
  8
0
  6
Continuous
 62
     7
370
    18
100
AcDbLine
 10
8.5108993565
 20
7.7491460894
 30
0.0
 11
9.5747617761
 21
8.3633007916
 31
0.0
  0
LINE
  5
A9
330
78
100
AcDbEntity
  8
0
  6
Continuous
 62
     7
370
    18
100
AcDbLine
 10
6.3831745174
 20
8.9774554938
 30
0.0
 11
8.5108993565
 21
7.7491460894
 31
0.0
  0
LINE
  5
AA
330
78
100
AcDbEntity
  8
0
  6
Continuous
 62
     7
370
    18
100
AcDbLine
 10
14.8620513961
 20
13.8722069281
 30
0.0
 11
6.3831745174
 21
8.9774554938
 31
0.0
  0
LINE
  5
AB
330
78
100
AcDbEntity
  8
0
  6
Continuous
 62
     7
370
    18
100
AcDbLine
 10
16.9897762352
 20
12.6438975238
 30
0.0
 11
14.8620513961
 21
13.8722069281
 31
0.0
  0
LINE
  5
AC
330
78
100
AcDbEntity
  8
0
  6
Continuous
 62
     7
370
    18
100
AcDbLine
 10
6.3831745174
 20
8.9774554938
 30
0.0
 11
6.3831745174
 21
7.7491460894
 31
0.0
  0
LINE
  5
AD
330
78
100
AcDbEntity
  8
0
  6
Continuous
 62
     7
370
    18
100
AcDbLine
 10
8.5108993565
 20
7.7491460894
 30
0.0
 11
8.5108993565
 21
6.5208366851
 31
0.0
  0
LINE
  5
AE
330
78
100
AcDbEntity
  8
0
  6
Continuous
 62
     7
370
    18
100
AcDbLine
 10
9.5747617761
 20
8.3633007916
 30
0.0
 11
9.5747617761
 21
7.1349913873
 31
0.0
  0
LINE
  5
AF
330
78
100
AcDbEntity
  8
0
  6
Continuous
 62
     7
370
    18
100
AcDbLine
 10
11.1545441665
 20
10.5035991577
 30
0.0
 11
11.1545441665
 21
8.046980349
 31
0.0
  0
LINE
  5
B0
330
78
100
AcDbEntity
  8
0
  6
Continuous
 62
     7
370
    18
100
AcDbLine
 10
12.2184065861
 20
9.8894444555
 30
0.0
 11
12.2184065861
 21
8.6611350512
 31
0.0
  0
LINE
  5
B1
330
78
100
AcDbEntity
  8
0
  6
Continuous
 62
     7
370
    18
100
AcDbLine
 10
13.2822690056
 20
10.5035991577
 30
0.0
 11
13.2822690056
 21
9.2752897534
 31
0.0
  0
LINE
  5
B2
330
78
100
AcDbEntity
  8
0
  6
Continuous
 62
     7
370
    18
100
AcDbLine
 10
14.8620513961
 20
12.6438975238
 30
0.0
 11
14.8620513961
 21
10.1872787151
 31
0.0
  0
LINE
  5
B3
330
78
100
AcDbEntity
  8
0
  6
Continuous
 62
     7
370
    18
100
AcDbLine
 10
15.9259138156
 20
12.0297428216
 30
0.0
 11
15.9259138156
 21
10.8014334173
 31
0.0
  0
LINE
  5
B4
330
78
100
AcDbEntity
  8
0
  6
Continuous
 62
     7
370
    18
100
AcDbLine
 10
16.9897762352
 20
12.6438975238
 30
0.0
 11
16.9897762352
 21
11.4155881195
 31
0.0
  0
ENDBLK
  5
7A
330
78
100
AcDbEntity
  8
0
100
AcDbBlockEnd
  0
BLOCK
  5
DC
330
DB
100
AcDbEntity
  8
0
100
AcDbBlockBegin
  2
SW_NOTE_0
 70
     0
 10
0.0
 20
0.0
 30
0.0
  3
SW_NOTE_0
  1

  0
MTEXT
  5
DF
330
DB
100
AcDbEntity
  8
DIM
 62
     0
100
AcDbMText
 10
0.0
 20
3.2226693494
 30
0.0
 40
2.5
 41
0.0
 71
     1
 72
     1
  1
*Y Axis Nema24 Left Endplate,
  7
SLDTEXTSTYLE0
 73
     1
 44
1.0
  0
MTEXT
  5
E0
330
DB
100
AcDbEntity
  8
DIM
 62
     0
100
AcDbMText
 10
0.0
 20
-0.2773307586
 30
0.0
 40
2.5
 41
0.0
 71
     1
 72
     1
  1
Right Side and Left Side are identical
  7
SLDTEXTSTYLE0
 73
     1
 44
1.0
  0
ENDBLK
  5
DD
330
DB
100
AcDbEntity
  8
0
100
AcDbBlockEnd
  0
BLOCK
  5
E3
330
E2
100
AcDbEntity
  8
0
100
AcDbBlockBegin
  2
SW_NOTE_1
 70
     0
 10
0.0
 20
0.0
 30
0.0
  3
SW_NOTE_1
  1

  0
MTEXT
  5
E5
330
E2
100
AcDbEntity
  8
DIM
 62
     0
100
AcDbMText
 10
0.0
 20
3.2226693494
 30
0.0
 40
2.5
 41
0.0
 71
     1
 72
     1
  1
* Y Axis Front Left Endplate,
  7
SLDTEXTSTYLE0
 73
     1
 44
1.0
  0
MTEXT
  5
E6
330
E2
100
AcDbEntity
  8
DIM
 62
     0
100
AcDbMText
 10
0.0
 20
-0.2773307586
 30
0.0
 40
2.5
 41
0.0
 71
     1
 72
     1
  1
Right Side is Mirror of Left Side
  7
SLDTEXTSTYLE0
 73
     1
 44
1.0
  0
ENDBLK
  5
E4
330
E2
100
AcDbEntity
  8
0
100
AcDbBlockEnd
  0
BLOCK
  5
E9
330
E8
100
AcDbEntity
  8
0
100
AcDbBlockBegin
  2
SW_NOTE_2
 70
     0
 10
0.0
 20
0.0
 30
0.0
  3
SW_NOTE_2
  1

  0
MTEXT
  5
EB
330
E8
100
AcDbEntity
  8
DIM
 62
     0
100
AcDbMText
 10
0.0
 20
3.2226693494
 30
0.0
 40
2.5
 41
0.0
 71
     1
 72
     1
  1
* Y Axis Front Right Endplate,
  7
SLDTEXTSTYLE0
 73
     1
 44
1.0
  0
MTEXT
  5
EC
330
E8
100
AcDbEntity
  8
DIM
 62
     0
100
AcDbMText
 10
0.0
 20
-0.2773307586
 30
0.0
 40
2.5
 41
0.0
 71
     1
 72
     1
  1
Right Side is Mirror of Left Side
  7
SLDTEXTSTYLE0
 73
     1
 44
1.0
  0
ENDBLK
  5
EA
330
E8
100
AcDbEntity
  8
0
100
AcDbBlockEnd
  0
BLOCK
  5
EF
330
EE
100
AcDbEntity
  8
0
100
AcDbBlockBegin
  2
SW_NOTE_3
 70
     0
 10
0.0
 20
0.0
 30
0.0
  3
SW_NOTE_3
  1

  0
MTEXT
  5
F1
330
EE
100
AcDbEntity
  8
DIM
 62
     0
100
AcDbMText
 10
0.0
 20
3.2226693494
 30
0.0
 40
2.5
 41
0.0
 71
     1
 72
     1
  1
*Y Axis Nema24 Right Endplate,
  7
SLDTEXTSTYLE0
 73
     1
 44
1.0
  0
MTEXT
  5
F2
330
EE
100
AcDbEntity
  8
DIM
 62
     0
100
AcDbMText
 10
0.0
 20
-0.2773307586
 30
0.0
 40
2.5
 41
0.0
 71
     1
 72
     1
  1
Right Side and Left Side are identical
  7
SLDTEXTSTYLE0
 73
     1
 44
1.0
  0
ENDBLK
  5
F0
330
EE
100
AcDbEntity
  8
0
100
AcDbBlockEnd
  0
BLOCK
  5
10A
330
109
100
AcDbEntity
  8
0
100
AcDbBlockBegin
  2
SW_TABLEANNOTATION_0
 70
     0
 10
0.0
 20
0.0
 30
0.0
  3
SW_TABLEANNOTATION_0
  1

  0
LINE
  5
10C
330
109
100
AcDbEntity
  8
PAGE_BORDER
 62
     0
100
AcDbLine
 10
0.0
 20
0.0
 30
0.0
 11
0.0
 21
-68.5383348672
 31
0.0
  0
LINE
  5
10D
330
109
100
AcDbEntity
  8
PAGE_BORDER
 62
     0
100
AcDbLine
 10
0.0
 20
-68.5383348672
 30
0.0
 11
59.6083155681
 21
-68.5383348672
 31
0.0
  0
LINE
  5
10E
330
109
100
AcDbEntity
  8
PAGE_BORDER
 62
     0
100
AcDbLine
 10
59.6083155681
 20
-68.5383348672
 30
0.0
 11
59.6083155681
 21
0.0
 31
0.0
  0
LINE
  5
10F
330
109
100
AcDbEntity
  8
PAGE_BORDER
 62
     0
100
AcDbLine
 10
59.6083155681
 20
0.0
 30
0.0
 11
0.0
 21
0.0
 31
0.0
  0
LINE
  5
110
330
109
100
AcDbEntity
  8
PAGE_BORDER
 62
     0
100
AcDbLine
 10
8.7541979477
 20
0.0
 30
0.0
 11
8.7541979477
 21
-4.4174096881
 31
0.0
  0
LINE
  5
111
330
109
100
AcDbEntity
  8
PAGE_BORDER
 62
     0
100
AcDbLine
 10
18.5231486056
 20
0.0
 30
0.0
 11
18.5231486056
 21
-4.4174096881
 31
0.0
  0
LINE
  5
112
330
109
100
AcDbEntity
  8
PAGE_BORDER
 62
     0
100
AcDbLine
 10
28.2450622348
 20
0.0
 30
0.0
 11
28.2450622348
 21
-4.4174096881
 31
0.0
  0
LINE
  5
113
330
109
100
AcDbEntity
  8
PAGE_BORDER
 62
     0
100
AcDbLine
 10
8.7541979477
 20
-4.4174096881
 30
0.0
 11
8.7541979477
 21
-68.5383348672
 31
0.0
  0
LINE
  5
114
330
109
100
AcDbEntity
  8
PAGE_BORDER
 62
     0
100
AcDbLine
 10
18.5231486056
 20
-4.4174096881
 30
0.0
 11
18.5231486056
 21
-68.5383348672
 31
0.0
  0
LINE
  5
115
330
109
100
AcDbEntity
  8
PAGE_BORDER
 62
     0
100
AcDbLine
 10
28.2450622348
 20
-4.4174096881
 30
0.0
 11
28.2450622348
 21
-68.5383348672
 31
0.0
  0
LINE
  5
116
330
109
100
AcDbEntity
  8
PAGE_BORDER
 62
     0
100
AcDbLine
 10
0.0
 20
-9.9499096644
 30
0.0
 11
59.6083155681
 21
-9.9499096644
 31
0.0
  0
LINE
  5
117
330
109
100
AcDbEntity
  8
PAGE_BORDER
 62
     0
100
AcDbLine
 10
0.0
 20
-15.4824096407
 30
0.0
 11
59.6083155681
 21
-15.4824096407
 31
0.0
  0
LINE
  5
118
330
109
100
AcDbEntity
  8
PAGE_BORDER
 62
     0
100
AcDbLine
 10
0.0
 20
-21.014909617
 30
0.0
 11
59.6083155681
 21
-21.014909617
 31
0.0
  0
LINE
  5
119
330
109
100
AcDbEntity
  8
PAGE_BORDER
 62
     0
100
AcDbLine
 10
0.0
 20
-26.5474095933
 30
0.0
 11
59.6083155681
 21
-26.5474095933
 31
0.0
  0
LINE
  5
11A
330
109
100
AcDbEntity
  8
PAGE_BORDER
 62
     0
100
AcDbLine
 10
0.0
 20
-32.0799095696
 30
0.0
 11
59.6083155681
 21
-32.0799095696
 31
0.0
  0
LINE
  5
11B
330
109
100
AcDbEntity
  8
PAGE_BORDER
 62
     0
100
AcDbLine
 10
0.0
 20
-39.8113909
 30
0.0
 11
59.6083155681
 21
-39.8113909
 31
0.0
  0
LINE
  5
11C
330
109
100
AcDbEntity
  8
PAGE_BORDER
 62
     0
100
AcDbLine
 10
0.0
 20
-47.5428722303
 30
0.0
 11
59.6083155681
 21
-47.5428722303
 31
0.0
  0
LINE
  5
11D
330
109
100
AcDbEntity
  8
PAGE_BORDER
 62
     0
100
AcDbLine
 10
0.0
 20
-55.2743535606
 30
0.0
 11
59.6083155681
 21
-55.2743535606
 31
0.0
  0
LINE
  5
11E
330
109
100
AcDbEntity
  8
PAGE_BORDER
 62
     0
100
AcDbLine
 10
0.0
 20
-63.0058348909
 30
0.0
 11
59.6083155681
 21
-63.0058348909
 31
0.0
  0
LINE
  5
11F
330
109
100
AcDbEntity
  8
PAGE_BORDER
 62
     0
100
AcDbLine
 10
0.0
 20
-4.4174096881
 30
0.0
 11
59.6083155681
 21
-4.4174096881
 31
0.0
  0
MTEXT
  5
120
330
109
100
AcDbEntity
  8
PAGE_BORDER
 62
     0
100
AcDbMText
 10
1.5
 20
-1.1524002009
 30
0.0
 40
2.1166666667
 41
0.0
 71
     1
 72
     1
  1
TAG
  7
SLDTEXTSTYLE0
 73
     1
 44
1.0
  0
MTEXT
  5
121
330
109
100
AcDbEntity
  8
PAGE_BORDER
 62
     0
100
AcDbMText
 10
9.3641825216
 20
-1.1524002009
 30
0.0
 40
2.1166666667
 41
0.0
 71
     1
 72
     1
  1
X LOC
  7
SLDTEXTSTYLE1
 73
     1
 44
1.0
  0
MTEXT
  5
122
330
109
100
AcDbEntity
  8
PAGE_BORDER
 62
     0
100
AcDbMText
 10
19.1331333541
 20
-1.1524002009
 30
0.0
 40
2.1166666667
 41
0.0
 71
     1
 72
     1
  1
Y LOC
  7
SLDTEXTSTYLE1
 73
     1
 44
1.0
  0
MTEXT
  5
123
330
109
100
AcDbEntity
  8
PAGE_BORDER
 62
     0
100
AcDbMText
 10
41.4690038313
 20
-1.1524002009
 30
0.0
 40
2.1166666667
 41
0.0
 71
     1
 72
     1
  1
SIZE
  7
SLDTEXTSTYLE0
 73
     1
 44
1.0
  0
MTEXT
  5
124
330
109
100
AcDbEntity
  8
PAGE_BORDER
 62
     0
100
AcDbMText
 10
2.5504939128
 20
-6.1708735102
 30
0.0
 40
2.1166666667
 41
0.0
 71
     1
 72
     1
  1
A1
  7
SLDTEXTSTYLE0
 73
     1
 44
1.0
  0
MTEXT
  5
125
330
109
100
AcDbEntity
  8
PAGE_BORDER
 62
     0
100
AcDbMText
 10
12.074691752
 20
-6.1708735102
 30
0.0
 40
2.1166666667
 41
0.0
 71
     1
 72
     1
  1
20
  7
SLDTEXTSTYLE0
 73
     1
 44
1.0
  0
MTEXT
  5
126
330
109
100
AcDbEntity
  8
PAGE_BORDER
 62
     0
100
AcDbMText
 10
21.8201238955
 20
-6.1708735102
 30
0.0
 40
2.1166666667
 41
0.0
 71
     1
 72
     1
  1
20
  7
SLDTEXTSTYLE0
 73
     1
 44
1.0
  0
MTEXT
  5
127
330
109
100
AcDbEntity
  8
PAGE_BORDER
 62
     0
100
AcDbMText
 10
35.857681244
 20
-6.4824936944
 30
0.0
 40
2.1166666667
 41
0.0
 71
     1
 72
     1
  1
%%c
  7
SLDTEXTSTYLE0
 73
     1
 44
1.0
  0
MTEXT
  5
128
330
109
100
AcDbEntity
  8
PAGE_BORDER
 62
     0
100
AcDbMText
 10
39.0526720447
 20
-6.4824936944
 30
0.0
 40
2.1166666667
 41
0.0
 71
     1
 72
     1
  1
8.00
  7
SLDTEXTSTYLE0
 73
     1
 44
1.0
  0
MTEXT
  5
129
330
109
100
AcDbEntity
  8
PAGE_BORDER
 62
     0
100
AcDbMText
 10
45.3183973545
 20
-6.4824936944
 30
0.0
 40
2.1166666667
 41
0.0
 71
     1
 72
     1
  1
THRU
  7
SLDTEXTSTYLE0
 73
     1
 44
1.0
  0
MTEXT
  5
12A
330
109
100
AcDbEntity
  8
PAGE_BORDER
 62
     0
100
AcDbMText
 10
2.5504939128
 20
-11.7033734865
 30
0.0
 40
2.1166666667
 41
0.0
 71
     1
 72
     1
  1
A2
  7
SLDTEXTSTYLE0
 73
     1
 44
1.0
  0
MTEXT
  5
12B
330
109
100
AcDbEntity
  8
PAGE_BORDER
 62
     0
100
AcDbMText
 10
12.074691752
 20
-11.7033734865
 30
0.0
 40
2.1166666667
 41
0.0
 71
     1
 72
     1
  1
20
  7
SLDTEXTSTYLE0
 73
     1
 44
1.0
  0
MTEXT
  5
12C
330
109
100
AcDbEntity
  8
PAGE_BORDER
 62
     0
100
AcDbMText
 10
21.8201238955
 20
-11.7033734865
 30
0.0
 40
2.1166666667
 41
0.0
 71
     1
 72
     1
  1
60
  7
SLDTEXTSTYLE0
 73
     1
 44
1.0
  0
MTEXT
  5
12D
330
109
100
AcDbEntity
  8
PAGE_BORDER
 62
     0
100
AcDbMText
 10
35.857681244
 20
-12.0149936707
 30
0.0
 40
2.1166666667
 41
0.0
 71
     1
 72
     1
  1
%%c
  7
SLDTEXTSTYLE0
 73
     1
 44
1.0
  0
MTEXT
  5
12E
330
109
100
AcDbEntity
  8
PAGE_BORDER
 62
     0
100
AcDbMText
 10
39.0526720447
 20
-12.0149936707
 30
0.0
 40
2.1166666667
 41
0.0
 71
     1
 72
     1
  1
8.00
  7
SLDTEXTSTYLE0
 73
     1
 44
1.0
  0
MTEXT
  5
12F
330
109
100
AcDbEntity
  8
PAGE_BORDER
 62
     0
100
AcDbMText
 10
45.3183973545
 20
-12.0149936707
 30
0.0
 40
2.1166666667
 41
0.0
 71
     1
 72
     1
  1
THRU
  7
SLDTEXTSTYLE0
 73
     1
 44
1.0
  0
MTEXT
  5
130
330
109
100
AcDbEntity
  8
PAGE_BORDER
 62
     0
100
AcDbMText
 10
2.5504939128
 20
-17.2358734628
 30
0.0
 40
2.1166666667
 41
0.0
 71
     1
 72
     1
  1
A3
  7
SLDTEXTSTYLE0
 73
     1
 44
1.0
  0
MTEXT
  5
131
330
109
100
AcDbEntity
  8
PAGE_BORDER
 62
     0
100
AcDbMText
 10
12.074691752
 20
-17.2358734628
 30
0.0
 40
2.1166666667
 41
0.0
 71
     1
 72
     1
  1
60
  7
SLDTEXTSTYLE0
 73
     1
 44
1.0
  0
MTEXT
  5
132
330
109
100
AcDbEntity
  8
PAGE_BORDER
 62
     0
100
AcDbMText
 10
21.8201238955
 20
-17.2358734628
 30
0.0
 40
2.1166666667
 41
0.0
 71
     1
 72
     1
  1
20
  7
SLDTEXTSTYLE0
 73
     1
 44
1.0
  0
MTEXT
  5
133
330
109
100
AcDbEntity
  8
PAGE_BORDER
 62
     0
100
AcDbMText
 10
35.857681244
 20
-17.547493647
 30
0.0
 40
2.1166666667
 41
0.0
 71
     1
 72
     1
  1
%%c
  7
SLDTEXTSTYLE0
 73
     1
 44
1.0
  0
MTEXT
  5
134
330
109
100
AcDbEntity
  8
PAGE_BORDER
 62
     0
100
AcDbMText
 10
39.0526720447
 20
-17.547493647
 30
0.0
 40
2.1166666667
 41
0.0
 71
     1
 72
     1
  1
8.00
  7
SLDTEXTSTYLE0
 73
     1
 44
1.0
  0
MTEXT
  5
135
330
109
100
AcDbEntity
  8
PAGE_BORDER
 62
     0
100
AcDbMText
 10
45.3183973545
 20
-17.547493647
 30
0.0
 40
2.1166666667
 41
0.0
 71
     1
 72
     1
  1
THRU
  7
SLDTEXTSTYLE0
 73
     1
 44
1.0
  0
MTEXT
  5
136
330
109
100
AcDbEntity
  8
PAGE_BORDER
 62
     0
100
AcDbMText
 10
2.5504939128
 20
-22.7683734391
 30
0.0
 40
2.1166666667
 41
0.0
 71
     1
 72
     1
  1
A4
  7
SLDTEXTSTYLE0
 73
     1
 44
1.0
  0
MTEXT
  5
137
330
109
100
AcDbEntity
  8
PAGE_BORDER
 62
     0
100
AcDbMText
 10
12.074691752
 20
-22.7683734391
 30
0.0
 40
2.1166666667
 41
0.0
 71
     1
 72
     1
  1
60
  7
SLDTEXTSTYLE0
 73
     1
 44
1.0
  0
MTEXT
  5
138
330
109
100
AcDbEntity
  8
PAGE_BORDER
 62
     0
100
AcDbMText
 10
21.8201238955
 20
-22.7683734391
 30
0.0
 40
2.1166666667
 41
0.0
 71
     1
 72
     1
  1
60
  7
SLDTEXTSTYLE0
 73
     1
 44
1.0
  0
MTEXT
  5
139
330
109
100
AcDbEntity
  8
PAGE_BORDER
 62
     0
100
AcDbMText
 10
35.857681244
 20
-23.0799936233
 30
0.0
 40
2.1166666667
 41
0.0
 71
     1
 72
     1
  1
%%c
  7
SLDTEXTSTYLE0
 73
     1
 44
1.0
  0
MTEXT
  5
13A
330
109
100
AcDbEntity
  8
PAGE_BORDER
 62
     0
100
AcDbMText
 10
39.0526720447
 20
-23.0799936233
 30
0.0
 40
2.1166666667
 41
0.0
 71
     1
 72
     1
  1
8.00
  7
SLDTEXTSTYLE0
 73
     1
 44
1.0
  0
MTEXT
  5
13B
330
109
100
AcDbEntity
  8
PAGE_BORDER
 62
     0
100
AcDbMText
 10
45.3183973545
 20
-23.0799936233
 30
0.0
 40
2.1166666667
 41
0.0
 71
     1
 72
     1
  1
THRU
  7
SLDTEXTSTYLE0
 73
     1
 44
1.0
  0
MTEXT
  5
13C
330
109
100
AcDbEntity
  8
PAGE_BORDER
 62
     0
100
AcDbMText
 10
2.5504939128
 20
-28.3008734154
 30
0.0
 40
2.1166666667
 41
0.0
 71
     1
 72
     1
  1
A5
  7
SLDTEXTSTYLE0
 73
     1
 44
1.0
  0
MTEXT
  5
13D
330
109
100
AcDbEntity
  8
PAGE_BORDER
 62
     0
100
AcDbMText
 10
12.074691752
 20
-28.3008734154
 30
0.0
 40
2.1166666667
 41
0.0
 71
     1
 72
     1
  1
60
  7
SLDTEXTSTYLE0
 73
     1
 44
1.0
  0
MTEXT
  5
13E
330
109
100
AcDbEntity
  8
PAGE_BORDER
 62
     0
100
AcDbMText
 10
21.0381331914
 20
-28.3008734154
 30
0.0
 40
2.1166666667
 41
0.0
 71
     1
 72
     1
  1
100
  7
SLDTEXTSTYLE0
 73
     1
 44
1.0
  0
MTEXT
  5
13F
330
109
100
AcDbEntity
  8
PAGE_BORDER
 62
     0
100
AcDbMText
 10
35.857681244
 20
-28.6124935996
 30
0.0
 40
2.1166666667
 41
0.0
 71
     1
 72
     1
  1
%%c
  7
SLDTEXTSTYLE0
 73
     1
 44
1.0
  0
MTEXT
  5
140
330
109
100
AcDbEntity
  8
PAGE_BORDER
 62
     0
100
AcDbMText
 10
39.0526720447
 20
-28.6124935996
 30
0.0
 40
2.1166666667
 41
0.0
 71
     1
 72
     1
  1
8.00
  7
SLDTEXTSTYLE0
 73
     1
 44
1.0
  0
MTEXT
  5
141
330
109
100
AcDbEntity
  8
PAGE_BORDER
 62
     0
100
AcDbMText
 10
45.3183973545
 20
-28.6124935996
 30
0.0
 40
2.1166666667
 41
0.0
 71
     1
 72
     1
  1
THRU
  7
SLDTEXTSTYLE0
 73
     1
 44
1.0
  0
MTEXT
  5
142
330
109
100
AcDbEntity
  8
PAGE_BORDER
 62
     0
100
AcDbMText
 10
2.7856791727
 20
-34.9328640687
 30
0.0
 40
2.1166666667
 41
0.0
 71
     1
 72
     1
  1
B1
  7
SLDTEXTSTYLE0
 73
     1
 44
1.0
  0
MTEXT
  5
143
330
109
100
AcDbEntity
  8
PAGE_BORDER
 62
     0
100
AcDbMText
 10
12.074691752
 20
-34.9328640687
 30
0.0
 40
2.1166666667
 41
0.0
 71
     1
 72
     1
  1
80
  7
SLDTEXTSTYLE0
 73
     1
 44
1.0
  0
MTEXT
  5
144
330
109
100
AcDbEntity
  8
PAGE_BORDER
 62
     0
100
AcDbMText
 10
21.8201238955
 20
-34.9328640687
 30
0.0
 40
2.1166666667
 41
0.0
 71
     1
 72
     1
  1
35
  7
SLDTEXTSTYLE0
 73
     1
 44
1.0
  0
MTEXT
  5
145
330
109
100
AcDbEntity
  8
PAGE_BORDER
 62
     0
100
AcDbMText
 10
32.7277575278
 20
-33.5217529747
 30
0.0
 40
2.1166666667
 41
0.0
 71
     1
 72
     1
  1
%%c
  7
SLDTEXTSTYLE0
 73
     1
 44
1.0
  0
MTEXT
  5
146
330
109
100
AcDbEntity
  8
PAGE_BORDER
 62
     0
100
AcDbMText
 10
36.7164983285
 20
-33.5217529747
 30
0.0
 40
2.1166666667
 41
0.0
 71
     1
 72
     1
  1
4.20
  7
SLDTEXTSTYLE0
 73
     1
 44
1.0
  0
MTEXT
  5
147
330
109
100
AcDbEntity
  8
PAGE_BORDER
 62
     0
100
AcDbMText
 10
42.9685047233
 20
-33.5217529747
 30
0.0
 40
2.1166666667
 41
0.0
 71
     1
 72
     1
  1
THRU ALL
  7
SLDTEXTSTYLE0
 73
     1
 44
1.0
  0
MTEXT
  5
148
330
109
100
AcDbEntity
  8
PAGE_BORDER
 62
     0
100
AcDbMText
 10
29.7450228253
 20
-36.3439751628
 30
0.0
 40
2.1166666667
 41
0.0
 71
     1
 72
     1
  1
M5x0.8
  7
SLDTEXTSTYLE0
 73
     1
 44
1.0
  0
MTEXT
  5
14A
330
109
100
AcDbEntity
  8
PAGE_BORDER
 62
     0
100
AcDbMText
 10
39.961859245
 20
-36.3439751628
 30
0.0
 40
2.1166666667
 41
0.0
 71
     1
 72
     1
  1
- 6H THRU ALL
  7
SLDTEXTSTYLE2
 73
     1
 44
1.0
  0
MTEXT
  5
14B
330
109
100
AcDbEntity
  8
PAGE_BORDER
 62
     0
100
AcDbMText
 10
2.7856791727
 20
-42.664345399
 30
0.0
 40
2.1166666667
 41
0.0
 71
     1
 72
     1
  1
B2
  7
SLDTEXTSTYLE0
 73
     1
 44
1.0
  0
MTEXT
  5
14C
330
109
100
AcDbEntity
  8
PAGE_BORDER
 62
     0
100
AcDbMText
 10
12.074691752
 20
-42.664345399
 30
0.0
 40
2.1166666667
 41
0.0
 71
     1
 72
     1
  1
80
  7
SLDTEXTSTYLE0
 73
     1
 44
1.0
  0
MTEXT
  5
14D
330
109
100
AcDbEntity
  8
PAGE_BORDER
 62
     0
100
AcDbMText
 10
21.8201238955
 20
-42.664345399
 30
0.0
 40
2.1166666667
 41
0.0
 71
     1
 72
     1
  1
85
  7
SLDTEXTSTYLE0
 73
     1
 44
1.0
  0
MTEXT
  5
14E
330
109
100
AcDbEntity
  8
PAGE_BORDER
 62
     0
100
AcDbMText
 10
32.7277575278
 20
-41.253234305
 30
0.0
 40
2.1166666667
 41
0.0
 71
     1
 72
     1
  1
%%c
  7
SLDTEXTSTYLE0
 73
     1
 44
1.0
  0
MTEXT
  5
14F
330
109
100
AcDbEntity
  8
PAGE_BORDER
 62
     0
100
AcDbMText
 10
36.7164983285
 20
-41.253234305
 30
0.0
 40
2.1166666667
 41
0.0
 71
     1
 72
     1
  1
4.20
  7
SLDTEXTSTYLE0
 73
     1
 44
1.0
  0
MTEXT
  5
150
330
109
100
AcDbEntity
  8
PAGE_BORDER
 62
     0
100
AcDbMText
 10
42.9685047233
 20
-41.253234305
 30
0.0
 40
2.1166666667
 41
0.0
 71
     1
 72
     1
  1
THRU ALL
  7
SLDTEXTSTYLE0
 73
     1
 44
1.0
  0
MTEXT
  5
151
330
109
100
AcDbEntity
  8
PAGE_BORDER
 62
     0
100
AcDbMText
 10
29.7450228253
 20
-44.0754564931
 30
0.0
 40
2.1166666667
 41
0.0
 71
     1
 72
     1
  1
M5x0.8
  7
SLDTEXTSTYLE0
 73
     1
 44
1.0
  0
MTEXT
  5
152
330
109
100
AcDbEntity
  8
PAGE_BORDER
 62
     0
100
AcDbMText
 10
39.961859245
 20
-44.0754564931
 30
0.0
 40
2.1166666667
 41
0.0
 71
     1
 72
     1
  1
- 6H THRU ALL
  7
SLDTEXTSTYLE2
 73
     1
 44
1.0
  0
MTEXT
  5
153
330
109
100
AcDbEntity
  8
PAGE_BORDER
 62
     0
100
AcDbMText
 10
2.7856791727
 20
-50.3958267294
 30
0.0
 40
2.1166666667
 41
0.0
 71
     1
 72
     1
  1
B3
  7
SLDTEXTSTYLE0
 73
     1
 44
1.0
  0
MTEXT
  5
154
330
109
100
AcDbEntity
  8
PAGE_BORDER
 62
     0
100
AcDbMText
 10
11.2927010478
 20
-50.3958267294
 30
0.0
 40
2.1166666667
 41
0.0
 71
     1
 72
     1
  1
130
  7
SLDTEXTSTYLE0
 73
     1
 44
1.0
  0
MTEXT
  5
155
330
109
100
AcDbEntity
  8
PAGE_BORDER
 62
     0
100
AcDbMText
 10
21.8201238955
 20
-50.3958267294
 30
0.0
 40
2.1166666667
 41
0.0
 71
     1
 72
     1
  1
35
  7
SLDTEXTSTYLE0
 73
     1
 44
1.0
  0
MTEXT
  5
156
330
109
100
AcDbEntity
  8
PAGE_BORDER
 62
     0
100
AcDbMText
 10
32.7277575278
 20
-48.9847156353
 30
0.0
 40
2.1166666667
 41
0.0
 71
     1
 72
     1
  1
%%c
  7
SLDTEXTSTYLE0
 73
     1
 44
1.0
  0
MTEXT
  5
157
330
109
100
AcDbEntity
  8
PAGE_BORDER
 62
     0
100
AcDbMText
 10
36.7164983285
 20
-48.9847156353
 30
0.0
 40
2.1166666667
 41
0.0
 71
     1
 72
     1
  1
4.20
  7
SLDTEXTSTYLE0
 73
     1
 44
1.0
  0
MTEXT
  5
158
330
109
100
AcDbEntity
  8
PAGE_BORDER
 62
     0
100
AcDbMText
 10
42.9685047233
 20
-48.9847156353
 30
0.0
 40
2.1166666667
 41
0.0
 71
     1
 72
     1
  1
THRU ALL
  7
SLDTEXTSTYLE0
 73
     1
 44
1.0
  0
MTEXT
  5
159
330
109
100
AcDbEntity
  8
PAGE_BORDER
 62
     0
100
AcDbMText
 10
29.7450228253
 20
-51.8069378234
 30
0.0
 40
2.1166666667
 41
0.0
 71
     1
 72
     1
  1
M5x0.8
  7
SLDTEXTSTYLE0
 73
     1
 44
1.0
  0
MTEXT
  5
15A
330
109
100
AcDbEntity
  8
PAGE_BORDER
 62
     0
100
AcDbMText
 10
39.961859245
 20
-51.8069378234
 30
0.0
 40
2.1166666667
 41
0.0
 71
     1
 72
     1
  1
- 6H THRU ALL
  7
SLDTEXTSTYLE2
 73
     1
 44
1.0
  0
MTEXT
  5
15B
330
109
100
AcDbEntity
  8
PAGE_BORDER
 62
     0
100
AcDbMText
 10
2.7856791727
 20
-58.1273080597
 30
0.0
 40
2.1166666667
 41
0.0
 71
     1
 72
     1
  1
B4
  7
SLDTEXTSTYLE0
 73
     1
 44
1.0
  0
MTEXT
  5
15C
330
109
100
AcDbEntity
  8
PAGE_BORDER
 62
     0
100
AcDbMText
 10
11.2927010478
 20
-58.1273080597
 30
0.0
 40
2.1166666667
 41
0.0
 71
     1
 72
     1
  1
130
  7
SLDTEXTSTYLE0
 73
     1
 44
1.0
  0
MTEXT
  5
15D
330
109
100
AcDbEntity
  8
PAGE_BORDER
 62
     0
100
AcDbMText
 10
21.8201238955
 20
-58.1273080597
 30
0.0
 40
2.1166666667
 41
0.0
 71
     1
 72
     1
  1
85
  7
SLDTEXTSTYLE0
 73
     1
 44
1.0
  0
MTEXT
  5
15E
330
109
100
AcDbEntity
  8
PAGE_BORDER
 62
     0
100
AcDbMText
 10
32.7277575278
 20
-56.7161969656
 30
0.0
 40
2.1166666667
 41
0.0
 71
     1
 72
     1
  1
%%c
  7
SLDTEXTSTYLE0
 73
     1
 44
1.0
  0
MTEXT
  5
15F
330
109
100
AcDbEntity
  8
PAGE_BORDER
 62
     0
100
AcDbMText
 10
36.7164983285
 20
-56.7161969656
 30
0.0
 40
2.1166666667
 41
0.0
 71
     1
 72
     1
  1
4.20
  7
SLDTEXTSTYLE0
 73
     1
 44
1.0
  0
MTEXT
  5
160
330
109
100
AcDbEntity
  8
PAGE_BORDER
 62
     0
100
AcDbMText
 10
42.9685047233
 20
-56.7161969656
 30
0.0
 40
2.1166666667
 41
0.0
 71
     1
 72
     1
  1
THRU ALL
  7
SLDTEXTSTYLE0
 73
     1
 44
1.0
  0
MTEXT
  5
161
330
109
100
AcDbEntity
  8
PAGE_BORDER
 62
     0
100
AcDbMText
 10
29.7450228253
 20
-59.5384191537
 30
0.0
 40
2.1166666667
 41
0.0
 71
     1
 72
     1
  1
M5x0.8
  7
SLDTEXTSTYLE0
 73
     1
 44
1.0
  0
MTEXT
  5
162
330
109
100
AcDbEntity
  8
PAGE_BORDER
 62
     0
100
AcDbMText
 10
39.961859245
 20
-59.5384191537
 30
0.0
 40
2.1166666667
 41
0.0
 71
     1
 72
     1
  1
- 6H THRU ALL
  7
SLDTEXTSTYLE2
 73
     1
 44
1.0
  0
MTEXT
  5
163
330
109
100
AcDbEntity
  8
PAGE_BORDER
 62
     0
100
AcDbMText
 10
2.4485804476
 20
-64.759298713
 30
0.0
 40
2.1166666667
 41
0.0
 71
     1
 72
     1
  1
C1
  7
SLDTEXTSTYLE0
 73
     1
 44
1.0
  0
MTEXT
  5
164
330
109
100
AcDbEntity
  8
PAGE_BORDER
 62
     0
100
AcDbMText
 10
11.2927010478
 20
-64.759298713
 30
0.0
 40
2.1166666667
 41
0.0
 71
     1
 72
     1
  1
105
  7
SLDTEXTSTYLE0
 73
     1
 44
1.0
  0
MTEXT
  5
165
330
109
100
AcDbEntity
  8
PAGE_BORDER
 62
     0
100
AcDbMText
 10
21.8201238955
 20
-64.759298713
 30
0.0
 40
2.1166666667
 41
0.0
 71
     1
 72
     1
  1
60
  7
SLDTEXTSTYLE0
 73
     1
 44
1.0
  0
MTEXT
  5
166
330
109
100
AcDbEntity
  8
PAGE_BORDER
 62
     0
100
AcDbMText
 10
35.0756906563
 20
-65.0709188972
 30
0.0
 40
2.1166666667
 41
0.0
 71
     1
 72
     1
  1
%%c
  7
SLDTEXTSTYLE0
 73
     1
 44
1.0
  0
MTEXT
  5
167
330
109
100
AcDbEntity
  8
PAGE_BORDER
 62
     0
100
AcDbMText
 10
38.270681457
 20
-65.0709188972
 30
0.0
 40
2.1166666667
 41
0.0
 71
     1
 72
     1
  1
38.55
  7
SLDTEXTSTYLE0
 73
     1
 44
1.0
  0
MTEXT
  5
168
330
109
100
AcDbEntity
  8
PAGE_BORDER
 62
     0
100
AcDbMText
 10
46.1003879422
 20
-65.0709188972
 30
0.0
 40
2.1166666667
 41
0.0
 71
     1
 72
     1
  1
THRU
  7
SLDTEXTSTYLE0
 73
     1
 44
1.0
  0
ENDBLK
  5
10B
330
109
100
AcDbEntity
  8
0
100
AcDbBlockEnd
  0
BLOCK
  5
16B
330
16A
100
AcDbEntity
  8
0
100
AcDbBlockBegin
  2
SW_TABLEANNOTATION_1
 70
     0
 10
0.0
 20
0.0
 30
0.0
  3
SW_TABLEANNOTATION_1
  1

  0
LINE
  5
16D
330
16A
100
AcDbEntity
  8
PAGE_BORDER
 62
     0
100
AcDbLine
 10
0.0
 20
0.0
 30
0.0
 11
0.0
 21
-42.8496152077
 31
0.0
  0
LINE
  5
16E
330
16A
100
AcDbEntity
  8
PAGE_BORDER
 62
     0
100
AcDbLine
 10
0.0
 20
-42.8496152077
 30
0.0
 11
59.6771323235
 21
-42.8496152077
 31
0.0
  0
LINE
  5
16F
330
16A
100
AcDbEntity
  8
PAGE_BORDER
 62
     0
100
AcDbLine
 10
59.6771323235
 20
-42.8496152077
 30
0.0
 11
59.6771323235
 21
0.0
 31
0.0
  0
LINE
  5
170
330
16A
100
AcDbEntity
  8
PAGE_BORDER
 62
     0
100
AcDbLine
 10
59.6771323235
 20
0.0
 30
0.0
 11
0.0
 21
0.0
 31
0.0
  0
LINE
  5
171
330
16A
100
AcDbEntity
  8
PAGE_BORDER
 62
     0
100
AcDbLine
 10
9.3805903063
 20
0.0
 30
0.0
 11
9.3805903063
 21
-5.0564438069
 31
0.0
  0
LINE
  5
172
330
16A
100
AcDbEntity
  8
PAGE_BORDER
 62
     0
100
AcDbLine
 10
19.8485422982
 20
0.0
 30
0.0
 11
19.8485422982
 21
-5.0564438069
 31
0.0
  0
LINE
  5
173
330
16A
100
AcDbEntity
  8
PAGE_BORDER
 62
     0
100
AcDbLine
 10
30.2660916036
 20
0.0
 30
0.0
 11
30.2660916036
 21
-5.0564438069
 31
0.0
  0
LINE
  5
174
330
16A
100
AcDbEntity
  8
PAGE_BORDER
 62
     0
100
AcDbLine
 10
9.3805903063
 20
-5.0564438069
 30
0.0
 11
9.3805903063
 21
-42.8496152077
 31
0.0
  0
LINE
  5
175
330
16A
100
AcDbEntity
  8
PAGE_BORDER
 62
     0
100
AcDbLine
 10
19.8485422982
 20
-5.0564438069
 30
0.0
 11
19.8485422982
 21
-42.8496152077
 31
0.0
  0
LINE
  5
176
330
16A
100
AcDbEntity
  8
PAGE_BORDER
 62
     0
100
AcDbLine
 10
30.2660916036
 20
-5.0564438069
 30
0.0
 11
30.2660916036
 21
-42.8496152077
 31
0.0
  0
LINE
  5
177
330
16A
100
AcDbEntity
  8
PAGE_BORDER
 62
     0
100
AcDbLine
 10
0.0
 20
-10.9441336076
 30
0.0
 11
59.6771323235
 21
-10.9441336076
 31
0.0
  0
LINE
  5
178
330
16A
100
AcDbEntity
  8
PAGE_BORDER
 62
     0
100
AcDbLine
 10
0.0
 20
-16.8318234083
 30
0.0
 11
59.6771323235
 21
-16.8318234083
 31
0.0
  0
LINE
  5
179
330
16A
100
AcDbEntity
  8
PAGE_BORDER
 62
     0
100
AcDbLine
 10
0.0
 20
-22.719513209
 30
0.0
 11
59.6771323235
 21
-22.719513209
 31
0.0
  0
LINE
  5
17A
330
16A
100
AcDbEntity
  8
PAGE_BORDER
 62
     0
100
AcDbLine
 10
0.0
 20
-28.6072030097
 30
0.0
 11
59.6771323235
 21
-28.6072030097
 31
0.0
  0
LINE
  5
17B
330
16A
100
AcDbEntity
  8
PAGE_BORDER
 62
     0
100
AcDbLine
 10
0.0
 20
-34.4948928105
 30
0.0
 11
59.6771323235
 21
-34.4948928105
 31
0.0
  0
LINE
  5
17C
330
16A
100
AcDbEntity
  8
PAGE_BORDER
 62
     0
100
AcDbLine
 10
0.0
 20
-5.0564438069
 30
0.0
 11
59.6771323235
 21
-5.0564438069
 31
0.0
  0
MTEXT
  5
17D
330
16A
100
AcDbEntity
  8
PAGE_BORDER
 62
     0
100
AcDbMText
 10
1.8131961793
 20
-1.4719172603
 30
0.0
 40
2.1166666667
 41
0.0
 71
     1
 72
     1
  1
TAG
  7
SLDTEXTSTYLE0
 73
     1
 44
1.0
  0
MTEXT
  5
17E
330
16A
100
AcDbEntity
  8
PAGE_BORDER
 62
     0
100
AcDbMText
 10
10.3400755472
 20
-1.4719172603
 30
0.0
 40
2.1166666667
 41
0.0
 71
     1
 72
     1
  1
X LOC
  7
SLDTEXTSTYLE1
 73
     1
 44
1.0
  0
MTEXT
  5
17F
330
16A
100
AcDbEntity
  8
PAGE_BORDER
 62
     0
100
AcDbMText
 10
20.8063448848
 20
-1.4719172603
 30
0.0
 40
2.1166666667
 41
0.0
 71
     1
 72
     1
  1
Y LOC
  7
SLDTEXTSTYLE1
 73
     1
 44
1.0
  0
MTEXT
  5
180
330
16A
100
AcDbEntity
  8
PAGE_BORDER
 62
     0
100
AcDbMText
 10
42.5139268934
 20
-1.4719172603
 30
0.0
 40
2.1166666667
 41
0.0
 71
     1
 72
     1
  1
SIZE
  7
SLDTEXTSTYLE0
 73
     1
 44
1.0
  0
MTEXT
  5
181
330
16A
100
AcDbEntity
  8
PAGE_BORDER
 62
     0
100
AcDbMText
 10
2.8636900921
 20
-6.9875025412
 30
0.0
 40
2.1166666667
 41
0.0
 71
     1
 72
     1
  1
A1
  7
SLDTEXTSTYLE0
 73
     1
 44
1.0
  0
MTEXT
  5
182
330
16A
100
AcDbEntity
  8
PAGE_BORDER
 62
     0
100
AcDbMText
 10
13.0505847776
 20
-6.9875025412
 30
0.0
 40
2.1166666667
 41
0.0
 71
     1
 72
     1
  1
20
  7
SLDTEXTSTYLE0
 73
     1
 44
1.0
  0
MTEXT
  5
183
330
16A
100
AcDbEntity
  8
PAGE_BORDER
 62
     0
100
AcDbMText
 10
23.4933354262
 20
-6.9875025412
 30
0.0
 40
2.1166666667
 41
0.0
 71
     1
 72
     1
  1
20
  7
SLDTEXTSTYLE0
 73
     1
 44
1.0
  0
MTEXT
  5
184
330
16A
100
AcDbEntity
  8
PAGE_BORDER
 62
     0
100
AcDbMText
 10
36.9026043061
 20
-7.2991227254
 30
0.0
 40
2.1166666667
 41
0.0
 71
     1
 72
     1
  1
%%c
  7
SLDTEXTSTYLE0
 73
     1
 44
1.0
  0
MTEXT
  5
185
330
16A
100
AcDbEntity
  8
PAGE_BORDER
 62
     0
100
AcDbMText
 10
40.0975951068
 20
-7.2991227254
 30
0.0
 40
2.1166666667
 41
0.0
 71
     1
 72
     1
  1
8.00
  7
SLDTEXTSTYLE0
 73
     1
 44
1.0
  0
MTEXT
  5
186
330
16A
100
AcDbEntity
  8
PAGE_BORDER
 62
     0
100
AcDbMText
 10
46.3633204165
 20
-7.2991227254
 30
0.0
 40
2.1166666667
 41
0.0
 71
     1
 72
     1
  1
THRU
  7
SLDTEXTSTYLE0
 73
     1
 44
1.0
  0
MTEXT
  5
187
330
16A
100
AcDbEntity
  8
PAGE_BORDER
 62
     0
100
AcDbMText
 10
2.8636900921
 20
-12.8751923419
 30
0.0
 40
2.1166666667
 41
0.0
 71
     1
 72
     1
  1
A2
  7
SLDTEXTSTYLE0
 73
     1
 44
1.0
  0
MTEXT
  5
188
330
16A
100
AcDbEntity
  8
PAGE_BORDER
 62
     0
100
AcDbMText
 10
13.0505847776
 20
-12.8751923419
 30
0.0
 40
2.1166666667
 41
0.0
 71
     1
 72
     1
  1
20
  7
SLDTEXTSTYLE0
 73
     1
 44
1.0
  0
MTEXT
  5
189
330
16A
100
AcDbEntity
  8
PAGE_BORDER
 62
     0
100
AcDbMText
 10
23.4933354262
 20
-12.8751923419
 30
0.0
 40
2.1166666667
 41
0.0
 71
     1
 72
     1
  1
60
  7
SLDTEXTSTYLE0
 73
     1
 44
1.0
  0
MTEXT
  5
18A
330
16A
100
AcDbEntity
  8
PAGE_BORDER
 62
     0
100
AcDbMText
 10
36.9026043061
 20
-13.1868125261
 30
0.0
 40
2.1166666667
 41
0.0
 71
     1
 72
     1
  1
%%c
  7
SLDTEXTSTYLE0
 73
     1
 44
1.0
  0
MTEXT
  5
18B
330
16A
100
AcDbEntity
  8
PAGE_BORDER
 62
     0
100
AcDbMText
 10
40.0975951068
 20
-13.1868125261
 30
0.0
 40
2.1166666667
 41
0.0
 71
     1
 72
     1
  1
8.00
  7
SLDTEXTSTYLE0
 73
     1
 44
1.0
  0
MTEXT
  5
18C
330
16A
100
AcDbEntity
  8
PAGE_BORDER
 62
     0
100
AcDbMText
 10
46.3633204165
 20
-13.1868125261
 30
0.0
 40
2.1166666667
 41
0.0
 71
     1
 72
     1
  1
THRU
  7
SLDTEXTSTYLE0
 73
     1
 44
1.0
  0
MTEXT
  5
18D
330
16A
100
AcDbEntity
  8
PAGE_BORDER
 62
     0
100
AcDbMText
 10
2.8636900921
 20
-18.7628821426
 30
0.0
 40
2.1166666667
 41
0.0
 71
     1
 72
     1
  1
A3
  7
SLDTEXTSTYLE0
 73
     1
 44
1.0
  0
MTEXT
  5
18E
330
16A
100
AcDbEntity
  8
PAGE_BORDER
 62
     0
100
AcDbMText
 10
13.0505847776
 20
-18.7628821426
 30
0.0
 40
2.1166666667
 41
0.0
 71
     1
 72
     1
  1
60
  7
SLDTEXTSTYLE0
 73
     1
 44
1.0
  0
MTEXT
  5
18F
330
16A
100
AcDbEntity
  8
PAGE_BORDER
 62
     0
100
AcDbMText
 10
23.4933354262
 20
-18.7628821426
 30
0.0
 40
2.1166666667
 41
0.0
 71
     1
 72
     1
  1
20
  7
SLDTEXTSTYLE0
 73
     1
 44
1.0
  0
MTEXT
  5
190
330
16A
100
AcDbEntity
  8
PAGE_BORDER
 62
     0
100
AcDbMText
 10
36.9026043061
 20
-19.0745023268
 30
0.0
 40
2.1166666667
 41
0.0
 71
     1
 72
     1
  1
%%c
  7
SLDTEXTSTYLE0
 73
     1
 44
1.0
  0
MTEXT
  5
191
330
16A
100
AcDbEntity
  8
PAGE_BORDER
 62
     0
100
AcDbMText
 10
40.0975951068
 20
-19.0745023268
 30
0.0
 40
2.1166666667
 41
0.0
 71
     1
 72
     1
  1
8.00
  7
SLDTEXTSTYLE0
 73
     1
 44
1.0
  0
MTEXT
  5
192
330
16A
100
AcDbEntity
  8
PAGE_BORDER
 62
     0
100
AcDbMText
 10
46.3633204165
 20
-19.0745023268
 30
0.0
 40
2.1166666667
 41
0.0
 71
     1
 72
     1
  1
THRU
  7
SLDTEXTSTYLE0
 73
     1
 44
1.0
  0
MTEXT
  5
193
330
16A
100
AcDbEntity
  8
PAGE_BORDER
 62
     0
100
AcDbMText
 10
2.8636900921
 20
-24.6505719433
 30
0.0
 40
2.1166666667
 41
0.0
 71
     1
 72
     1
  1
A4
  7
SLDTEXTSTYLE0
 73
     1
 44
1.0
  0
MTEXT
  5
194
330
16A
100
AcDbEntity
  8
PAGE_BORDER
 62
     0
100
AcDbMText
 10
13.0505847776
 20
-24.6505719433
 30
0.0
 40
2.1166666667
 41
0.0
 71
     1
 72
     1
  1
60
  7
SLDTEXTSTYLE0
 73
     1
 44
1.0
  0
MTEXT
  5
195
330
16A
100
AcDbEntity
  8
PAGE_BORDER
 62
     0
100
AcDbMText
 10
23.4933354262
 20
-24.6505719433
 30
0.0
 40
2.1166666667
 41
0.0
 71
     1
 72
     1
  1
60
  7
SLDTEXTSTYLE0
 73
     1
 44
1.0
  0
MTEXT
  5
196
330
16A
100
AcDbEntity
  8
PAGE_BORDER
 62
     0
100
AcDbMText
 10
36.9026043061
 20
-24.9621921275
 30
0.0
 40
2.1166666667
 41
0.0
 71
     1
 72
     1
  1
%%c
  7
SLDTEXTSTYLE0
 73
     1
 44
1.0
  0
MTEXT
  5
197
330
16A
100
AcDbEntity
  8
PAGE_BORDER
 62
     0
100
AcDbMText
 10
40.0975951068
 20
-24.9621921275
 30
0.0
 40
2.1166666667
 41
0.0
 71
     1
 72
     1
  1
8.00
  7
SLDTEXTSTYLE0
 73
     1
 44
1.0
  0
MTEXT
  5
198
330
16A
100
AcDbEntity
  8
PAGE_BORDER
 62
     0
100
AcDbMText
 10
46.3633204165
 20
-24.9621921275
 30
0.0
 40
2.1166666667
 41
0.0
 71
     1
 72
     1
  1
THRU
  7
SLDTEXTSTYLE0
 73
     1
 44
1.0
  0
MTEXT
  5
199
330
16A
100
AcDbEntity
  8
PAGE_BORDER
 62
     0
100
AcDbMText
 10
2.8636900921
 20
-30.538261744
 30
0.0
 40
2.1166666667
 41
0.0
 71
     1
 72
     1
  1
A5
  7
SLDTEXTSTYLE0
 73
     1
 44
1.0
  0
MTEXT
  5
19A
330
16A
100
AcDbEntity
  8
PAGE_BORDER
 62
     0
100
AcDbMText
 10
13.0505847776
 20
-30.538261744
 30
0.0
 40
2.1166666667
 41
0.0
 71
     1
 72
     1
  1
60
  7
SLDTEXTSTYLE0
 73
     1
 44
1.0
  0
MTEXT
  5
19B
330
16A
100
AcDbEntity
  8
PAGE_BORDER
 62
     0
100
AcDbMText
 10
22.7113447221
 20
-30.538261744
 30
0.0
 40
2.1166666667
 41
0.0
 71
     1
 72
     1
  1
100
  7
SLDTEXTSTYLE0
 73
     1
 44
1.0
  0
MTEXT
  5
19C
330
16A
100
AcDbEntity
  8
PAGE_BORDER
 62
     0
100
AcDbMText
 10
36.9026043061
 20
-30.8498819283
 30
0.0
 40
2.1166666667
 41
0.0
 71
     1
 72
     1
  1
%%c
  7
SLDTEXTSTYLE0
 73
     1
 44
1.0
  0
MTEXT
  5
19D
330
16A
100
AcDbEntity
  8
PAGE_BORDER
 62
     0
100
AcDbMText
 10
40.0975951068
 20
-30.8498819283
 30
0.0
 40
2.1166666667
 41
0.0
 71
     1
 72
     1
  1
8.00
  7
SLDTEXTSTYLE0
 73
     1
 44
1.0
  0
MTEXT
  5
19E
330
16A
100
AcDbEntity
  8
PAGE_BORDER
 62
     0
100
AcDbMText
 10
46.3633204165
 20
-30.8498819283
 30
0.0
 40
2.1166666667
 41
0.0
 71
     1
 72
     1
  1
THRU
  7
SLDTEXTSTYLE0
 73
     1
 44
1.0
  0
MTEXT
  5
19F
330
16A
100
AcDbEntity
  8
PAGE_BORDER
 62
     0
100
AcDbMText
 10
2.7617766269
 20
-37.659467843
 30
0.0
 40
2.1166666667
 41
0.0
 71
     1
 72
     1
  1
C2
  7
SLDTEXTSTYLE0
 73
     1
 44
1.0
  0
MTEXT
  5
1A0
330
16A
100
AcDbEntity
  8
PAGE_BORDER
 62
     0
100
AcDbMText
 10
12.2685940735
 20
-37.659467843
 30
0.0
 40
2.1166666667
 41
0.0
 71
     1
 72
     1
  1
105
  7
SLDTEXTSTYLE0
 73
     1
 44
1.0
  0
MTEXT
  5
1A1
330
16A
100
AcDbEntity
  8
PAGE_BORDER
 62
     0
100
AcDbMText
 10
23.4933354262
 20
-37.659467843
 30
0.0
 40
2.1166666667
 41
0.0
 71
     1
 72
     1
  1
60
  7
SLDTEXTSTYLE0
 73
     1
 44
1.0
  0
MTEXT
  5
1A2
330
16A
100
AcDbEntity
  8
PAGE_BORDER
 62
     0
100
AcDbMText
 10
36.1206137184
 20
-35.9367362155
 30
0.0
 40
2.1166666667
 41
0.0
 71
     1
 72
     1
  1
%%c
  7
SLDTEXTSTYLE0
 73
     1
 44
1.0
  0
MTEXT
  5
1A3
330
16A
100
AcDbEntity
  8
PAGE_BORDER
 62
     0
100
AcDbMText
 10
39.315604519
 20
-35.9367362155
 30
0.0
 40
2.1166666667
 41
0.0
 71
     1
 72
     1
  1
20.00 THRU
  7
SLDTEXTSTYLE0
 73
     1
 44
1.0
  0
INSERT
  5
1AA
330
16A
100
AcDbEntity
  8
PAGE_BORDER
 62
     0
100
AcDbBlockReference
  2
SW_SYMBOL_HOLE_SPOT
 10
32.7480581197
 20
-41.8172035853
 30
0.0
 41
0.0027037109
 42
0.0027037109
 43
0.0027037109
  0
MTEXT
  5
1AB
330
16A
100
AcDbEntity
  8
PAGE_BORDER
 62
     0
100
AcDbMText
 10
38.4654101524
 20
-39.3821990049
 30
0.0
 40
2.1166666667
 41
0.0
 71
     1
 72
     1
  1
%%c
  7
SLDTEXTSTYLE0
 73
     1
 44
1.0
  0
MTEXT
  5
1AC
330
16A
100
AcDbEntity
  8
PAGE_BORDER
 62
     0
100
AcDbMText
 10
41.6604007203
 20
-39.3821990049
 30
0.0
 40
2.1166666667
 41
0.0
 71
     1
 72
     1
  1
26.10
  7
SLDTEXTSTYLE0
 73
     1
 44
1.0
  0
INSERT
  5
1B4
330
16A
100
AcDbEntity
  8
PAGE_BORDER
 62
     0
100
AcDbBlockReference
  2
SW_SYMBOL_HOLE_DEPTH
 10
48.6963574383
 20
-41.8172035853
 30
0.0
 41
0.0027037109
 42
0.0027037109
 43
0.0027037109
  0
MTEXT
  5
1B5
330
16A
100
AcDbEntity
  8
PAGE_BORDER
 62
     0
100
AcDbMText
 10
51.723191196
 20
-39.3821990049
 30
0.0
 40
2.1166666667
 41
0.0
 71
     1
 72
     1
  1
9.50
  7
SLDTEXTSTYLE0
 73
     1
 44
1.0
  0
ENDBLK
  5
16C
330
16A
100
AcDbEntity
  8
0
100
AcDbBlockEnd
  0
BLOCK
  5
1A5
330
1A4
100
AcDbEntity
  8
0
100
AcDbBlockBegin
  2
SW_SYMBOL_HOLE_SPOT
 70
     0
 10
0.0
 20
0.0
 30
0.0
  3
SW_SYMBOL_HOLE_SPOT
  1

  0
LINE
  5
1A7
330
1A4
100
AcDbEntity
  8
PAGE_BORDER
 62
     0
100
AcDbLine
 10
0.0
 20
875.0
 30
0.0
 11
0.0
 21
75.0
 31
0.0
  0
LINE
  5
1A8
330
1A4
100
AcDbEntity
  8
PAGE_BORDER
 62
     0
100
AcDbLine
 10
0.0
 20
75.0
 30
0.0
 11
1600.0
 21
75.0
 31
0.0
  0
LINE
  5
1A9
330
1A4
100
AcDbEntity
  8
PAGE_BORDER
 62
     0
100
AcDbLine
 10
1600.0
 20
75.0
 30
0.0
 11
1600.0
 21
875.0
 31
0.0
  0
ENDBLK
  5
1A6
330
1A4
100
AcDbEntity
  8
0
100
AcDbBlockEnd
  0
BLOCK
  5
1AE
330
1AD
100
AcDbEntity
  8
0
100
AcDbBlockBegin
  2
SW_SYMBOL_HOLE_DEPTH
 70
     0
 10
0.0
 20
0.0
 30
0.0
  3
SW_SYMBOL_HOLE_DEPTH
  1

  0
LINE
  5
1B0
330
1AD
100
AcDbEntity
  8
PAGE_BORDER
 62
     0
100
AcDbLine
 10
0.0
 20
875.0
 30
0.0
 11
800.0
 21
875.0
 31
0.0
  0
LINE
  5
1B1
330
1AD
100
AcDbEntity
  8
PAGE_BORDER
 62
     0
100
AcDbLine
 10
400.0
 20
875.0
 30
0.0
 11
400.0
 21
75.0
 31
0.0
  0
LINE
  5
1B2
330
1AD
100
AcDbEntity
  8
PAGE_BORDER
 62
     0
100
AcDbLine
 10
100.0
 20
555.0
 30
0.0
 11
400.0
 21
75.0
 31
0.0
  0
LINE
  5
1B3
330
1AD
100
AcDbEntity
  8
PAGE_BORDER
 62
     0
100
AcDbLine
 10
700.0
 20
555.0
 30
0.0
 11
400.0
 21
75.0
 31
0.0
  0
ENDBLK
  5
1AF
330
1AD
100
AcDbEntity
  8
0
100
AcDbBlockEnd
  0
BLOCK
  5
1E3
330
1E2
100
AcDbEntity
  8
0
100
AcDbBlockBegin
  2
_D
 70
     0
 10
0.0
 20
0.0
 30
0.0
  3
_D
  1

  0
SOLID
  5
1E5
330
1E2
100
AcDbEntity
  8
DIM
100
AcDbTrace
 10
135.3361261384
 20
187.6547360968
 30
0.0
 11
138.6381261384
 21
187.1467360968
 31
0.0
 12
138.6381261384
 22
188.1627360968
 32
0.0
 13
138.6381261384
 23
188.1627360968
 33
0.0
  0
SOLID
  5
1E6
330
1E2
100
AcDbEntity
  8
DIM
100
AcDbTrace
 10
149.9216751244
 20
187.6547360968
 30
0.0
 11
146.6196751244
 21
188.1627360968
 31
0.0
 12
146.6196751244
 22
187.1467360968
 32
0.0
 13
146.6196751244
 23
187.1467360968
 33
0.0
  0
LINE
  5
1E7
330
1E2
100
AcDbEntity
  8
DIM
100
AcDbLine
 10
135.3361261384
 20
183.4094773701
 30
0.0
 11
135.3361261384
 21
188.6547360968
 31
0.0
  0
LINE
  5
1E8
330
1E2
100
AcDbEntity
  8
DIM
100
AcDbLine
 10
149.9216751244
 20
181.4094773701
 30
0.0
 11
149.9216751244
 21
188.6547360968
 31
0.0
  0
LINE
  5
1E9
330
1E2
100
AcDbEntity
  8
DIM
100
AcDbLine
 10
135.3361261384
 20
187.6547360968
 30
0.0
 11
149.9216751244
 21
187.6547360968
 31
0.0
  0
LINE
  5
1EA
330
1E2
100
AcDbEntity
  8
DIM
100
AcDbLine
 10
149.9216751244
 20
187.6547360968
 30
0.0
 11
159.8444572189
 21
187.6547360968
 31
0.0
  0
MTEXT
  5
1EB
330
1E2
100
AcDbEntity
  8
DIM
100
AcDbMText
 10
151.5319571369
 20
190.8774056209
 30
0.0
 40
2.5
 41
0.0
 71
     1
 72
     1
  1
29.17
  7
SLDTEXTSTYLE0
 73
     1
 44
1.0
  0
ENDBLK
  5
1E4
330
1E2
100
AcDbEntity
  8
0
100
AcDbBlockEnd
  0
BLOCK
  5
1EF
330
1EE
100
AcDbEntity
  8
0
100
AcDbBlockBegin
  2
_D_1
 70
     0
 10
0.0
 20
0.0
 30
0.0
  3
_D_1
  1

  0
SOLID
  5
1F1
330
1EE
100
AcDbEntity
  8
DIM
100
AcDbTrace
 10
72.4216751244
 20
137.4094773701
 30
0.0
 11
72.9296751244
 21
140.7114773701
 31
0.0
 12
71.9136751244
 22
140.7114773701
 32
0.0
 13
71.9136751244
 23
140.7114773701
 33
0.0
  0
SOLID
  5
1F2
330
1EE
100
AcDbEntity
  8
DIM
100
AcDbTrace
 10
72.4216751244
 20
197.4094773701
 30
0.0
 11
71.9136751244
 21
194.1074773701
 31
0.0
 12
72.9296751244
 22
194.1074773701
 32
0.0
 13
72.9296751244
 23
194.1074773701
 33
0.0
  0
LINE
  5
1F3
330
1EE
100
AcDbEntity
  8
DIM
100
AcDbLine
 10
83.0466751244
 20
137.4094773701
 30
0.0
 11
71.4216751244
 21
137.4094773701
 31
0.0
  0
LINE
  5
1F4
330
1EE
100
AcDbEntity
  8
DIM
100
AcDbLine
 10
103.0466751244
 20
197.4094773701
 30
0.0
 11
71.4216751244
 21
197.4094773701
 31
0.0
  0
LINE
  5
1F5
330
1EE
100
AcDbEntity
  8
DIM
100
AcDbLine
 10
72.4216751244
 20
137.4094773701
 30
0.0
 11
72.4216751244
 21
197.4094773701
 31
0.0
  0
MTEXT
  5
1F6
330
1EE
100
AcDbEntity
  8
DIM
100
AcDbMText
 10
69.1990056003
 20
170.340963246
 30
0.0
 40
2.5
 41
0.0
 71
     1
 72
     1
  1
120.00
  7
SLDTEXTSTYLE0
 11
-2.159213709292946E-15
 21
1.0
 31
0.0
 73
     1
 44
1.0
  0
ENDBLK
  5
1F0
330
1EE
100
AcDbEntity
  8
0
100
AcDbBlockEnd
  0
BLOCK
  5
1F9
330
1F8
100
AcDbEntity
  8
0
100
AcDbBlockBegin
  2
_D_2
 70
     0
 10
0.0
 20
0.0
 30
0.0
  3
_D_2
  1

  0
SOLID
  5
1FB
330
1F8
100
AcDbEntity
  8
DIM
100
AcDbTrace
 10
79.2338659323
 20
137.4094773701
 30
0.0
 11
79.7418659323
 21
140.7114773701
 31
0.0
 12
78.7258659323
 22
140.7114773701
 32
0.0
 13
78.7258659323
 23
140.7114773701
 33
0.0
  0
SOLID
  5
1FC
330
1F8
100
AcDbEntity
  8
DIM
100
AcDbTrace
 10
79.2338659323
 20
177.4094773701
 30
0.0
 11
78.7258659323
 21
174.1074773701
 31
0.0
 12
79.7418659323
 22
174.1074773701
 32
0.0
 13
79.7418659323
 23
174.1074773701
 33
0.0
  0
LINE
  5
1FD
330
1F8
100
AcDbEntity
  8
DIM
100
AcDbLine
 10
83.0466751244
 20
137.4094773701
 30
0.0
 11
78.2338659323
 21
137.4094773701
 31
0.0
  0
LINE
  5
1FE
330
1F8
100
AcDbEntity
  8
DIM
100
AcDbLine
 10
83.0466751244
 20
177.4094773701
 30
0.0
 11
78.2338659323
 21
177.4094773701
 31
0.0
  0
LINE
  5
1FF
330
1F8
100
AcDbEntity
  8
DIM
100
AcDbLine
 10
79.2338659323
 20
137.4094773701
 30
0.0
 11
79.2338659323
 21
177.4094773701
 31
0.0
  0
MTEXT
  5
200
330
1F8
100
AcDbEntity
  8
DIM
100
AcDbMText
 10
76.0111964083
 20
160.1460753101
 30
0.0
 40
2.5
 41
0.0
 71
     1
 72
     1
  1
80.00
  7
SLDTEXTSTYLE0
 11
-2.159213709292946E-15
 21
1.0
 31
0.0
 73
     1
 44
1.0
  0
ENDBLK
  5
1FA
330
1F8
100
AcDbEntity
  8
0
100
AcDbBlockEnd
  0
BLOCK
  5
204
330
203
100
AcDbEntity
  8
0
100
AcDbBlockBegin
  2
_D_3
 70
     0
 10
0.0
 20
0.0
 30
0.0
  3
_D_3
  1

  0
SOLID
  5
206
330
203
100
AcDbEntity
  8
DIM
100
AcDbTrace
 10
82.4216751244
 20
181.3858128194
 30
0.0
 11
79.1196751244
 21
181.8938128194
 31
0.0
 12
79.1196751244
 22
180.8778128194
 32
0.0
 13
79.1196751244
 23
180.8778128194
 33
0.0
  0
SOLID
  5
207
330
203
100
AcDbEntity
  8
DIM
100
AcDbTrace
 10
102.4216751244
 20
181.3858128194
 30
0.0
 11
105.7236751244
 21
180.8778128194
 31
0.0
 12
105.7236751244
 22
181.8938128194
 32
0.0
 13
105.7236751244
 23
181.8938128194
 33
0.0
  0
LINE
  5
208
330
203
100
AcDbEntity
  8
DIM
100
AcDbLine
 10
82.4216751244
 20
176.7844773701
 30
0.0
 11
82.4216751244
 21
182.3858128194
 31
0.0
  0
LINE
  5
209
330
203
100
AcDbEntity
  8
DIM
100
AcDbLine
 10
82.4216751244
 20
181.3858128194
 30
0.0
 11
76.0716751244
 21
181.3858128194
 31
0.0
  0
LINE
  5
20A
330
203
100
AcDbEntity
  8
DIM
100
AcDbLine
 10
82.4216751244
 20
181.3858128194
 30
0.0
 11
102.4216751244
 21
181.3858128194
 31
0.0
  0
LINE
  5
20B
330
203
100
AcDbEntity
  8
DIM
100
AcDbLine
 10
102.4216751244
 20
181.3858128194
 30
0.0
 11
108.7716751244
 21
181.3858128194
 31
0.0
  0
MTEXT
  5
20C
330
203
100
AcDbEntity
  8
DIM
100
AcDbMText
 10
89.6405888151
 20
184.6084823434
 30
0.0
 40
2.5
 41
0.0
 71
     1
 72
     1
  1
40.00
  7
SLDTEXTSTYLE0
 73
     1
 44
1.0
  0
ENDBLK
  5
205
330
203
100
AcDbEntity
  8
0
100
AcDbBlockEnd
  0
BLOCK
  5
20F
330
20E
100
AcDbEntity
  8
0
100
AcDbBlockBegin
  2
_D_4
 70
     0
 10
0.0
 20
0.0
 30
0.0
  3
_D_4
  1

  0
SOLID
  5
211
330
20E
100
AcDbEntity
  8
DIM
100
AcDbTrace
 10
82.4216751244
 20
199.4389881155
 30
0.0
 11
85.7236751244
 21
198.9309881155
 31
0.0
 12
85.7236751244
 22
199.9469881155
 32
0.0
 13
85.7236751244
 23
199.9469881155
 33
0.0
  0
SOLID
  5
212
330
20E
100
AcDbEntity
  8
DIM
100
AcDbTrace
 10
122.4216751244
 20
199.4389881155
 30
0.0
 11
119.1196751244
 21
199.9469881155
 31
0.0
 12
119.1196751244
 22
198.9309881155
 32
0.0
 13
119.1196751244
 23
198.9309881155
 33
0.0
  0
LINE
  5
213
330
20E
100
AcDbEntity
  8
DIM
100
AcDbLine
 10
82.4216751244
 20
176.7844773701
 30
0.0
 11
82.4216751244
 21
200.4389881155
 31
0.0
  0
LINE
  5
214
330
20E
100
AcDbEntity
  8
DIM
100
AcDbLine
 10
122.4216751244
 20
196.7844773701
 30
0.0
 11
122.4216751244
 21
200.4389881155
 31
0.0
  0
LINE
  5
215
330
20E
100
AcDbEntity
  8
DIM
100
AcDbLine
 10
82.4216751244
 20
199.4389881155
 30
0.0
 11
122.4216751244
 21
199.4389881155
 31
0.0
  0
MTEXT
  5
216
330
20E
100
AcDbEntity
  8
DIM
100
AcDbMText
 10
98.4623897209
 20
202.6616576395
 30
0.0
 40
2.5
 41
0.0
 71
     1
 72
     1
  1
80.00
  7
SLDTEXTSTYLE0
 73
     1
 44
1.0
  0
ENDBLK
  5
210
330
20E
100
AcDbEntity
  8
0
100
AcDbBlockEnd
  0
BLOCK
  5
219
330
218
100
AcDbEntity
  8
0
100
AcDbBlockBegin
  2
_D_5
 70
     0
 10
0.0
 20
0.0
 30
0.0
  3
_D_5
  1

  0
SOLID
  5
21B
330
218
100
AcDbEntity
  8
DIM
100
AcDbTrace
 10
82.4216751244
 20
204.0765900468
 30
0.0
 11
85.7236751244
 21
203.5685900468
 31
0.0
 12
85.7236751244
 22
204.5845900468
 32
0.0
 13
85.7236751244
 23
204.5845900468
 33
0.0
  0
SOLID
  5
21C
330
218
100
AcDbEntity
  8
DIM
100
AcDbTrace
 10
149.9216751244
 20
204.0765900468
 30
0.0
 11
146.6196751244
 21
204.5845900468
 31
0.0
 12
146.6196751244
 22
203.5685900468
 32
0.0
 13
146.6196751244
 23
203.5685900468
 33
0.0
  0
LINE
  5
21D
330
218
100
AcDbEntity
  8
DIM
100
AcDbLine
 10
82.4216751244
 20
176.7844773701
 30
0.0
 11
82.4216751244
 21
205.0765900468
 31
0.0
  0
LINE
  5
21E
330
218
100
AcDbEntity
  8
DIM
100
AcDbLine
 10
149.9216751244
 20
181.4094773701
 30
0.0
 11
149.9216751244
 21
205.0765900468
 31
0.0
  0
LINE
  5
21F
330
218
100
AcDbEntity
  8
DIM
100
AcDbLine
 10
82.4216751244
 20
204.0765900468
 30
0.0
 11
149.9216751244
 21
204.0765900468
 31
0.0
  0
MTEXT
  5
220
330
218
100
AcDbEntity
  8
DIM
100
AcDbMText
 10
107.7293815214
 20
207.2992595708
 30
0.0
 40
2.5
 41
0.0
 71
     1
 72
     1
  1
135.00
  7
SLDTEXTSTYLE0
 73
     1
 44
1.0
  0
ENDBLK
  5
21A
330
218
100
AcDbEntity
  8
0
100
AcDbBlockEnd
  0
BLOCK
  5
223
330
222
100
AcDbEntity
  8
0
100
AcDbBlockBegin
  2
_D_6
 70
     0
 10
0.0
 20
0.0
 30
0.0
  3
_D_6
  1

  0
SOLID
  5
225
330
222
100
AcDbEntity
  8
DIM
100
AcDbTrace
 10
155.0241970083
 20
137.4094773701
 30
0.0
 11
155.5321970083
 21
140.7114773701
 31
0.0
 12
154.5161970083
 22
140.7114773701
 32
0.0
 13
154.5161970083
 23
140.7114773701
 33
0.0
  0
SOLID
  5
226
330
222
100
AcDbEntity
  8
DIM
100
AcDbTrace
 10
155.0241970083
 20
152.4094773701
 30
0.0
 11
154.5161970083
 21
149.1074773701
 31
0.0
 12
155.5321970083
 22
149.1074773701
 32
0.0
 13
155.5321970083
 23
149.1074773701
 33
0.0
  0
LINE
  5
227
330
222
100
AcDbEntity
  8
DIM
100
AcDbLine
 10
121.7966751244
 20
137.4094773701
 30
0.0
 11
156.0241970083
 21
137.4094773701
 31
0.0
  0
LINE
  5
228
330
222
100
AcDbEntity
  8
DIM
100
AcDbLine
 10
148.9216751244
 20
152.4094773701
 30
0.0
 11
156.0241970083
 21
152.4094773701
 31
0.0
  0
LINE
  5
229
330
222
100
AcDbEntity
  8
DIM
100
AcDbLine
 10
155.0241970083
 20
137.4094773701
 30
0.0
 11
155.0241970083
 21
152.4094773701
 31
0.0
  0
MTEXT
  5
22A
330
222
100
AcDbEntity
  8
DIM
100
AcDbMText
 10
151.8015274843
 20
140.7976113672
 30
0.0
 40
2.5
 41
0.0
 71
     1
 72
     1
  1
30.00
  7
SLDTEXTSTYLE0
 11
-2.159213709292946E-15
 21
1.0
 31
0.0
 73
     1
 44
1.0
  0
ENDBLK
  5
224
330
222
100
AcDbEntity
  8
0
100
AcDbBlockEnd
  0
BLOCK
  5
22D
330
22C
100
AcDbEntity
  8
0
100
AcDbBlockBegin
  2
_D_7
 70
     0
 10
0.0
 20
0.0
 30
0.0
  3
_D_7
  1

  0
SOLID
  5
22F
330
22C
100
AcDbEntity
  8
DIM
100
AcDbTrace
 10
155.0241970083
 20
152.4094773701
 30
0.0
 11
155.5321970083
 21
155.7114773701
 31
0.0
 12
154.5161970083
 22
155.7114773701
 32
0.0
 13
154.5161970083
 23
155.7114773701
 33
0.0
  0
SOLID
  5
230
330
22C
100
AcDbEntity
  8
DIM
100
AcDbTrace
 10
155.0241970083
 20
182.4094773701
 30
0.0
 11
154.5161970083
 21
179.1074773701
 31
0.0
 12
155.5321970083
 22
179.1074773701
 32
0.0
 13
155.5321970083
 23
179.1074773701
 33
0.0
  0
LINE
  5
231
330
22C
100
AcDbEntity
  8
DIM
100
AcDbLine
 10
148.9216751244
 20
152.4094773701
 30
0.0
 11
156.0241970083
 21
152.4094773701
 31
0.0
  0
LINE
  5
232
330
22C
100
AcDbEntity
  8
DIM
100
AcDbLine
 10
148.9216751244
 20
182.4094773701
 30
0.0
 11
156.0241970083
 21
182.4094773701
 31
0.0
  0
LINE
  5
233
330
22C
100
AcDbEntity
  8
DIM
100
AcDbLine
 10
155.0241970083
 20
152.4094773701
 30
0.0
 11
155.0241970083
 21
182.4094773701
 31
0.0
  0
MTEXT
  5
234
330
22C
100
AcDbEntity
  8
DIM
100
AcDbMText
 10
151.8015274843
 20
163.2505298824
 30
0.0
 40
2.5
 41
0.0
 71
     1
 72
     1
  1
60.00
  7
SLDTEXTSTYLE0
 11
2.359796046201069E-14
 21
1.0
 31
0.0
 73
     1
 44
1.0
  0
ENDBLK
  5
22E
330
22C
100
AcDbEntity
  8
0
100
AcDbBlockEnd
  0
BLOCK
  5
237
330
236
100
AcDbEntity
  8
0
100
AcDbBlockBegin
  2
_D_8
 70
     0
 10
0.0
 20
0.0
 30
0.0
  3
_D_8
  1

  0
SOLID
  5
239
330
236
100
AcDbEntity
  8
DIM
100
AcDbTrace
 10
82.4216751244
 20
132.7892391457
 30
0.0
 11
85.7236751244
 21
132.2812391457
 31
0.0
 12
85.7236751244
 22
133.2972391457
 32
0.0
 13
85.7236751244
 23
133.2972391457
 33
0.0
  0
SOLID
  5
23A
330
236
100
AcDbEntity
  8
DIM
100
AcDbTrace
 10
122.4216751244
 20
132.7892391457
 30
0.0
 11
119.1196751244
 21
133.2972391457
 31
0.0
 12
119.1196751244
 22
132.2812391457
 32
0.0
 13
119.1196751244
 23
132.2812391457
 33
0.0
  0
LINE
  5
23B
330
236
100
AcDbEntity
  8
DIM
100
AcDbLine
 10
82.4216751244
 20
138.0344773701
 30
0.0
 11
82.4216751244
 21
131.7892391457
 31
0.0
  0
LINE
  5
23C
330
236
100
AcDbEntity
  8
DIM
100
AcDbLine
 10
122.4216751244
 20
138.0344773701
 30
0.0
 11
122.4216751244
 21
131.7892391457
 31
0.0
  0
LINE
  5
23D
330
236
100
AcDbEntity
  8
DIM
100
AcDbLine
 10
82.4216751244
 20
132.7892391457
 30
0.0
 11
122.4216751244
 21
132.7892391457
 31
0.0
  0
MTEXT
  5
23E
330
236
100
AcDbEntity
  8
DIM
100
AcDbMText
 10
98.6544756724
 20
136.0119086698
 30
0.0
 40
2.5
 41
0.0
 71
     1
 72
     1
  1
80.00
  7
SLDTEXTSTYLE0
 73
     1
 44
1.0
  0
ENDBLK
  5
238
330
236
100
AcDbEntity
  8
0
100
AcDbBlockEnd
  0
BLOCK
  5
242
330
241
100
AcDbEntity
  8
0
100
AcDbBlockBegin
  2
_D_9
 70
     0
 10
0.0
 20
0.0
 30
0.0
  3
_D_9
  1

  0
SOLID
  5
244
330
241
100
AcDbEntity
  8
DIM
100
AcDbTrace
 10
122.4216751244
 20
139.0344773701
 30
0.0
 11
125.7236751244
 21
138.5264773701
 31
0.0
 12
125.7236751244
 22
139.5424773701
 32
0.0
 13
125.7236751244
 23
139.5424773701
 33
0.0
  0
LINE
  5
245
330
241
100
AcDbEntity
  8
DIM
100
AcDbLine
 10
122.4216751244
 20
139.0344773701
 30
0.0
 11
144.2203082479
 21
139.0344773701
 31
0.0
  0
MTEXT
  5
246
330
241
100
AcDbEntity
  8
DIM
100
AcDbMText
 10
126.9841946996
 20
142.239861168
 30
0.0
 40
2.5
 41
0.0
 71
     1
 72
     1
  1
R3.25
  7
SLDTEXTSTYLE0
 73
     1
 44
1.0
  0
MTEXT
  5
247
330
241
100
AcDbEntity
  8
DIM
100
AcDbMText
 10
136.4112783186
 20
142.239861168
 30
0.0
 40
2.5
 41
0.0
 71
     1
 72
     1
  1
(TYP)
  7
SLDTEXTSTYLE0
 73
     1
 44
1.0
  0
ENDBLK
  5
243
330
241
100
AcDbEntity
  8
0
100
AcDbBlockEnd
  0
BLOCK
  5
24B
330
24A
100
AcDbEntity
  8
0
100
AcDbBlockBegin
  2
_D_10
 70
     0
 10
0.0
 20
0.0
 30
0.0
  3
_D_10
  1

  0
ARC
  5
24D
330
24A
100
AcDbEntity
  8
DIM
100
AcDbCircle
 10
135.3361261384
 20
182.4094773701
 30
0.0
 40
8.665313862520605
100
AcDbArc
 50
360.0
 51
145.0
  0
SOLID
  5
24E
330
24A
100
AcDbEntity
  8
DIM
100
AcDbTrace
 10
144.0014400009
 20
182.4094773701
 30
0.0
 11
143.9032769149
 21
185.7488833065
 31
0.0
 12
142.904064175
 22
185.5649542432
 32
0.0
 13
142.904064175
 23
185.5649542432
 33
0.0
  0
SOLID
  5
24F
330
24A
100
AcDbEntity
  8
DIM
100
AcDbTrace
 10
128.2379165735
 20
187.3796972152
 30
0.0
 11
130.9467414045
 21
189.3350836309
 31
0.0
 12
130.2337316226
 22
190.0588743817
 32
0.0
 13
130.2337316226
 23
190.0588743817
 33
0.0
  0
MTEXT
  5
250
330
24A
100
AcDbEntity
  8
DIM
100
AcDbMText
 10
136.8031147912
 20
194.6972151364
 30
0.0
 40
2.5
 41
0.0
 71
     1
 72
     1
  1
145
  7
SLDTEXTSTYLE0
 11
0.9209425213741705
 21
-0.3896984376732673
 31
0.0
 73
     1
 44
1.0
  0
ENDBLK
  5
24C
330
24A
100
AcDbEntity
  8
0
100
AcDbBlockEnd
  0
BLOCK
  5
25C
330
25B
100
AcDbEntity
  8
0
100
AcDbBlockBegin
  2
SW_CENTERMARKSYMBOL_0
 70
     0
 10
0.0
 20
0.0
 30
0.0
  3
SW_CENTERMARKSYMBOL_0
  1

  0
LINE
  5
25E
330
25B
100
AcDbEntity
  8
DIM
 62
     0
100
AcDbLine
 10
0.0
 20
0.0
 30
0.0
 11
0.0
 21
1.25
 31
0.0
  0
LINE
  5
25F
330
25B
100
AcDbEntity
  8
DIM
 62
     0
100
AcDbLine
 10
0.0
 20
0.0
 30
0.0
 11
-1.25
 21
0.0
 31
0.0
  0
LINE
  5
260
330
25B
100
AcDbEntity
  8
DIM
 62
     0
100
AcDbLine
 10
0.0
 20
0.0
 30
0.0
 11
0.0
 21
-1.25
 31
0.0
  0
LINE
  5
261
330
25B
100
AcDbEntity
  8
DIM
 62
     0
100
AcDbLine
 10
0.0
 20
0.0
 30
0.0
 11
1.25
 21
0.0
 31
0.0
  0
LINE
  5
262
330
25B
100
AcDbEntity
  8
DIM
 62
     0
100
AcDbLine
 10
0.0
 20
2.5
 30
0.0
 11
0.0
 21
3.25
 31
0.0
  0
LINE
  5
263
330
25B
100
AcDbEntity
  8
DIM
 62
     0
100
AcDbLine
 10
-2.5
 20
0.0
 30
0.0
 11
-3.25
 21
0.0
 31
0.0
  0
LINE
  5
264
330
25B
100
AcDbEntity
  8
DIM
 62
     0
100
AcDbLine
 10
0.0
 20
-2.5
 30
0.0
 11
0.0
 21
-3.25
 31
0.0
  0
LINE
  5
265
330
25B
100
AcDbEntity
  8
DIM
 62
     0
100
AcDbLine
 10
2.5
 20
0.0
 30
0.0
 11
3.25
 21
0.0
 31
0.0
  0
ENDBLK
  5
25D
330
25B
100
AcDbEntity
  8
0
100
AcDbBlockEnd
  0
BLOCK
  5
268
330
267
100
AcDbEntity
  8
0
100
AcDbBlockBegin
  2
SW_CENTERMARKSYMBOL_1
 70
     0
 10
0.0
 20
0.0
 30
0.0
  3
SW_CENTERMARKSYMBOL_1
  1

  0
LINE
  5
26A
330
267
100
AcDbEntity
  8
DIM
 62
     0
100
AcDbLine
 10
0.0
 20
0.0
 30
0.0
 11
0.0
 21
1.25
 31
0.0
  0
LINE
  5
26B
330
267
100
AcDbEntity
  8
DIM
 62
     0
100
AcDbLine
 10
0.0
 20
0.0
 30
0.0
 11
-1.25
 21
0.0
 31
0.0
  0
LINE
  5
26C
330
267
100
AcDbEntity
  8
DIM
 62
     0
100
AcDbLine
 10
0.0
 20
0.0
 30
0.0
 11
0.0
 21
-1.25
 31
0.0
  0
LINE
  5
26D
330
267
100
AcDbEntity
  8
DIM
 62
     0
100
AcDbLine
 10
0.0
 20
0.0
 30
0.0
 11
1.25
 21
0.0
 31
0.0
  0
LINE
  5
26E
330
267
100
AcDbEntity
  8
DIM
 62
     0
100
AcDbLine
 10
0.0
 20
2.5
 30
0.0
 11
0.0
 21
3.25
 31
0.0
  0
LINE
  5
26F
330
267
100
AcDbEntity
  8
DIM
 62
     0
100
AcDbLine
 10
-2.5
 20
0.0
 30
0.0
 11
-3.25
 21
0.0
 31
0.0
  0
LINE
  5
270
330
267
100
AcDbEntity
  8
DIM
 62
     0
100
AcDbLine
 10
0.0
 20
-2.5
 30
0.0
 11
0.0
 21
-3.25
 31
0.0
  0
LINE
  5
271
330
267
100
AcDbEntity
  8
DIM
 62
     0
100
AcDbLine
 10
2.5
 20
0.0
 30
0.0
 11
3.25
 21
0.0
 31
0.0
  0
ENDBLK
  5
269
330
267
100
AcDbEntity
  8
0
100
AcDbBlockEnd
  0
BLOCK
  5
274
330
273
100
AcDbEntity
  8
0
100
AcDbBlockBegin
  2
SW_CENTERMARKSYMBOL_2
 70
     0
 10
0.0
 20
0.0
 30
0.0
  3
SW_CENTERMARKSYMBOL_2
  1

  0
LINE
  5
276
330
273
100
AcDbEntity
  8
DIM
 62
     0
100
AcDbLine
 10
0.0
 20
0.0
 30
0.0
 11
0.0
 21
1.25
 31
0.0
  0
LINE
  5
277
330
273
100
AcDbEntity
  8
DIM
 62
     0
100
AcDbLine
 10
0.0
 20
0.0
 30
0.0
 11
-1.25
 21
0.0
 31
0.0
  0
LINE
  5
278
330
273
100
AcDbEntity
  8
DIM
 62
     0
100
AcDbLine
 10
0.0
 20
0.0
 30
0.0
 11
0.0
 21
-1.25
 31
0.0
  0
LINE
  5
279
330
273
100
AcDbEntity
  8
DIM
 62
     0
100
AcDbLine
 10
0.0
 20
0.0
 30
0.0
 11
1.25
 21
0.0
 31
0.0
  0
LINE
  5
27A
330
273
100
AcDbEntity
  8
DIM
 62
     0
100
AcDbLine
 10
0.0
 20
2.5
 30
0.0
 11
0.0
 21
3.25
 31
0.0
  0
LINE
  5
27B
330
273
100
AcDbEntity
  8
DIM
 62
     0
100
AcDbLine
 10
-2.5
 20
0.0
 30
0.0
 11
-3.25
 21
0.0
 31
0.0
  0
LINE
  5
27C
330
273
100
AcDbEntity
  8
DIM
 62
     0
100
AcDbLine
 10
0.0
 20
-2.5
 30
0.0
 11
0.0
 21
-3.25
 31
0.0
  0
LINE
  5
27D
330
273
100
AcDbEntity
  8
DIM
 62
     0
100
AcDbLine
 10
2.5
 20
0.0
 30
0.0
 11
3.25
 21
0.0
 31
0.0
  0
ENDBLK
  5
275
330
273
100
AcDbEntity
  8
0
100
AcDbBlockEnd
  0
BLOCK
  5
280
330
27F
100
AcDbEntity
  8
0
100
AcDbBlockBegin
  2
SW_CENTERMARKSYMBOL_3
 70
     0
 10
0.0
 20
0.0
 30
0.0
  3
SW_CENTERMARKSYMBOL_3
  1

  0
LINE
  5
282
330
27F
100
AcDbEntity
  8
DIM
 62
     0
100
AcDbLine
 10
0.0
 20
0.0
 30
0.0
 11
0.0
 21
1.25
 31
0.0
  0
LINE
  5
283
330
27F
100
AcDbEntity
  8
DIM
 62
     0
100
AcDbLine
 10
0.0
 20
0.0
 30
0.0
 11
-1.25
 21
0.0
 31
0.0
  0
LINE
  5
284
330
27F
100
AcDbEntity
  8
DIM
 62
     0
100
AcDbLine
 10
0.0
 20
0.0
 30
0.0
 11
0.0
 21
-1.25
 31
0.0
  0
LINE
  5
285
330
27F
100
AcDbEntity
  8
DIM
 62
     0
100
AcDbLine
 10
0.0
 20
0.0
 30
0.0
 11
1.25
 21
0.0
 31
0.0
  0
LINE
  5
286
330
27F
100
AcDbEntity
  8
DIM
 62
     0
100
AcDbLine
 10
0.0
 20
2.5
 30
0.0
 11
0.0
 21
3.25
 31
0.0
  0
LINE
  5
287
330
27F
100
AcDbEntity
  8
DIM
 62
     0
100
AcDbLine
 10
-2.5
 20
0.0
 30
0.0
 11
-3.25
 21
0.0
 31
0.0
  0
LINE
  5
288
330
27F
100
AcDbEntity
  8
DIM
 62
     0
100
AcDbLine
 10
0.0
 20
-2.5
 30
0.0
 11
0.0
 21
-3.25
 31
0.0
  0
LINE
  5
289
330
27F
100
AcDbEntity
  8
DIM
 62
     0
100
AcDbLine
 10
2.5
 20
0.0
 30
0.0
 11
3.25
 21
0.0
 31
0.0
  0
ENDBLK
  5
281
330
27F
100
AcDbEntity
  8
0
100
AcDbBlockEnd
  0
BLOCK
  5
28C
330
28B
100
AcDbEntity
  8
0
100
AcDbBlockBegin
  2
SW_CENTERMARKSYMBOL_4
 70
     0
 10
0.0
 20
0.0
 30
0.0
  3
SW_CENTERMARKSYMBOL_4
  1

  0
LINE
  5
28E
330
28B
100
AcDbEntity
  8
DIM
 62
     0
100
AcDbLine
 10
0.0
 20
0.0
 30
0.0
 11
0.0
 21
1.25
 31
0.0
  0
LINE
  5
28F
330
28B
100
AcDbEntity
  8
DIM
 62
     0
100
AcDbLine
 10
0.0
 20
0.0
 30
0.0
 11
-1.25
 21
0.0
 31
0.0
  0
LINE
  5
290
330
28B
100
AcDbEntity
  8
DIM
 62
     0
100
AcDbLine
 10
0.0
 20
0.0
 30
0.0
 11
0.0
 21
-1.25
 31
0.0
  0
LINE
  5
291
330
28B
100
AcDbEntity
  8
DIM
 62
     0
100
AcDbLine
 10
0.0
 20
0.0
 30
0.0
 11
1.25
 21
0.0
 31
0.0
  0
LINE
  5
292
330
28B
100
AcDbEntity
  8
DIM
 62
     0
100
AcDbLine
 10
0.0
 20
2.5
 30
0.0
 11
0.0
 21
3.25
 31
0.0
  0
LINE
  5
293
330
28B
100
AcDbEntity
  8
DIM
 62
     0
100
AcDbLine
 10
-2.5
 20
0.0
 30
0.0
 11
-3.25
 21
0.0
 31
0.0
  0
LINE
  5
294
330
28B
100
AcDbEntity
  8
DIM
 62
     0
100
AcDbLine
 10
0.0
 20
-2.5
 30
0.0
 11
0.0
 21
-3.25
 31
0.0
  0
LINE
  5
295
330
28B
100
AcDbEntity
  8
DIM
 62
     0
100
AcDbLine
 10
2.5
 20
0.0
 30
0.0
 11
3.25
 21
0.0
 31
0.0
  0
ENDBLK
  5
28D
330
28B
100
AcDbEntity
  8
0
100
AcDbBlockEnd
  0
BLOCK
  5
298
330
297
100
AcDbEntity
  8
0
100
AcDbBlockBegin
  2
SW_CENTERMARKSYMBOL_5
 70
     0
 10
0.0
 20
0.0
 30
0.0
  3
SW_CENTERMARKSYMBOL_5
  1

  0
LINE
  5
29A
330
297
100
AcDbEntity
  8
DIM
 62
     0
100
AcDbLine
 10
0.0
 20
0.0
 30
0.0
 11
0.0
 21
1.25
 31
0.0
  0
LINE
  5
29B
330
297
100
AcDbEntity
  8
DIM
 62
     0
100
AcDbLine
 10
0.0
 20
0.0
 30
0.0
 11
-1.25
 21
0.0
 31
0.0
  0
LINE
  5
29C
330
297
100
AcDbEntity
  8
DIM
 62
     0
100
AcDbLine
 10
0.0
 20
0.0
 30
0.0
 11
0.0
 21
-1.25
 31
0.0
  0
LINE
  5
29D
330
297
100
AcDbEntity
  8
DIM
 62
     0
100
AcDbLine
 10
0.0
 20
0.0
 30
0.0
 11
1.25
 21
0.0
 31
0.0
  0
LINE
  5
29E
330
297
100
AcDbEntity
  8
DIM
 62
     0
100
AcDbLine
 10
0.0
 20
1.25
 30
0.0
 11
0.0
 21
2.3
 31
0.0
  0
LINE
  5
29F
330
297
100
AcDbEntity
  8
DIM
 62
     0
100
AcDbLine
 10
-1.25
 20
0.0
 30
0.0
 11
-2.3
 21
0.0
 31
0.0
  0
LINE
  5
2A0
330
297
100
AcDbEntity
  8
DIM
 62
     0
100
AcDbLine
 10
0.0
 20
-1.25
 30
0.0
 11
0.0
 21
-2.3
 31
0.0
  0
LINE
  5
2A1
330
297
100
AcDbEntity
  8
DIM
 62
     0
100
AcDbLine
 10
1.25
 20
0.0
 30
0.0
 11
2.3
 21
0.0
 31
0.0
  0
ENDBLK
  5
299
330
297
100
AcDbEntity
  8
0
100
AcDbBlockEnd
  0
BLOCK
  5
2A4
330
2A3
100
AcDbEntity
  8
0
100
AcDbBlockBegin
  2
SW_CENTERMARKSYMBOL_6
 70
     0
 10
0.0
 20
0.0
 30
0.0
  3
SW_CENTERMARKSYMBOL_6
  1

  0
LINE
  5
2A6
330
2A3
100
AcDbEntity
  8
DIM
 62
     0
100
AcDbLine
 10
0.0
 20
0.0
 30
0.0
 11
0.0
 21
1.25
 31
0.0
  0
LINE
  5
2A7
330
2A3
100
AcDbEntity
  8
DIM
 62
     0
100
AcDbLine
 10
0.0
 20
0.0
 30
0.0
 11
-1.25
 21
0.0
 31
0.0
  0
LINE
  5
2A8
330
2A3
100
AcDbEntity
  8
DIM
 62
     0
100
AcDbLine
 10
0.0
 20
0.0
 30
0.0
 11
0.0
 21
-1.25
 31
0.0
  0
LINE
  5
2A9
330
2A3
100
AcDbEntity
  8
DIM
 62
     0
100
AcDbLine
 10
0.0
 20
0.0
 30
0.0
 11
1.25
 21
0.0
 31
0.0
  0
LINE
  5
2AA
330
2A3
100
AcDbEntity
  8
DIM
 62
     0
100
AcDbLine
 10
0.0
 20
1.25
 30
0.0
 11
0.0
 21
2.3
 31
0.0
  0
LINE
  5
2AB
330
2A3
100
AcDbEntity
  8
DIM
 62
     0
100
AcDbLine
 10
-1.25
 20
0.0
 30
0.0
 11
-2.3
 21
0.0
 31
0.0
  0
LINE
  5
2AC
330
2A3
100
AcDbEntity
  8
DIM
 62
     0
100
AcDbLine
 10
0.0
 20
-1.25
 30
0.0
 11
0.0
 21
-2.3
 31
0.0
  0
LINE
  5
2AD
330
2A3
100
AcDbEntity
  8
DIM
 62
     0
100
AcDbLine
 10
1.25
 20
0.0
 30
0.0
 11
2.3
 21
0.0
 31
0.0
  0
ENDBLK
  5
2A5
330
2A3
100
AcDbEntity
  8
0
100
AcDbBlockEnd
  0
BLOCK
  5
2B0
330
2AF
100
AcDbEntity
  8
0
100
AcDbBlockBegin
  2
SW_CENTERMARKSYMBOL_7
 70
     0
 10
0.0
 20
0.0
 30
0.0
  3
SW_CENTERMARKSYMBOL_7
  1

  0
LINE
  5
2B2
330
2AF
100
AcDbEntity
  8
DIM
 62
     0
100
AcDbLine
 10
0.0
 20
0.0
 30
0.0
 11
0.0
 21
1.25
 31
0.0
  0
LINE
  5
2B3
330
2AF
100
AcDbEntity
  8
DIM
 62
     0
100
AcDbLine
 10
0.0
 20
0.0
 30
0.0
 11
-1.25
 21
0.0
 31
0.0
  0
LINE
  5
2B4
330
2AF
100
AcDbEntity
  8
DIM
 62
     0
100
AcDbLine
 10
0.0
 20
0.0
 30
0.0
 11
0.0
 21
-1.25
 31
0.0
  0
LINE
  5
2B5
330
2AF
100
AcDbEntity
  8
DIM
 62
     0
100
AcDbLine
 10
0.0
 20
0.0
 30
0.0
 11
1.25
 21
0.0
 31
0.0
  0
LINE
  5
2B6
330
2AF
100
AcDbEntity
  8
DIM
 62
     0
100
AcDbLine
 10
0.0
 20
1.25
 30
0.0
 11
0.0
 21
2.3
 31
0.0
  0
LINE
  5
2B7
330
2AF
100
AcDbEntity
  8
DIM
 62
     0
100
AcDbLine
 10
-1.25
 20
0.0
 30
0.0
 11
-2.3
 21
0.0
 31
0.0
  0
LINE
  5
2B8
330
2AF
100
AcDbEntity
  8
DIM
 62
     0
100
AcDbLine
 10
0.0
 20
-1.25
 30
0.0
 11
0.0
 21
-2.3
 31
0.0
  0
LINE
  5
2B9
330
2AF
100
AcDbEntity
  8
DIM
 62
     0
100
AcDbLine
 10
1.25
 20
0.0
 30
0.0
 11
2.3
 21
0.0
 31
0.0
  0
ENDBLK
  5
2B1
330
2AF
100
AcDbEntity
  8
0
100
AcDbBlockEnd
  0
BLOCK
  5
2BC
330
2BB
100
AcDbEntity
  8
0
100
AcDbBlockBegin
  2
SW_CENTERMARKSYMBOL_8
 70
     0
 10
0.0
 20
0.0
 30
0.0
  3
SW_CENTERMARKSYMBOL_8
  1

  0
LINE
  5
2BE
330
2BB
100
AcDbEntity
  8
DIM
 62
     0
100
AcDbLine
 10
0.0
 20
0.0
 30
0.0
 11
0.0
 21
1.25
 31
0.0
  0
LINE
  5
2BF
330
2BB
100
AcDbEntity
  8
DIM
 62
     0
100
AcDbLine
 10
0.0
 20
0.0
 30
0.0
 11
-1.25
 21
0.0
 31
0.0
  0
LINE
  5
2C0
330
2BB
100
AcDbEntity
  8
DIM
 62
     0
100
AcDbLine
 10
0.0
 20
0.0
 30
0.0
 11
0.0
 21
-1.25
 31
0.0
  0
LINE
  5
2C1
330
2BB
100
AcDbEntity
  8
DIM
 62
     0
100
AcDbLine
 10
0.0
 20
0.0
 30
0.0
 11
1.25
 21
0.0
 31
0.0
  0
LINE
  5
2C2
330
2BB
100
AcDbEntity
  8
DIM
 62
     0
100
AcDbLine
 10
0.0
 20
1.25
 30
0.0
 11
0.0
 21
2.3
 31
0.0
  0
LINE
  5
2C3
330
2BB
100
AcDbEntity
  8
DIM
 62
     0
100
AcDbLine
 10
-1.25
 20
0.0
 30
0.0
 11
-2.3
 21
0.0
 31
0.0
  0
LINE
  5
2C4
330
2BB
100
AcDbEntity
  8
DIM
 62
     0
100
AcDbLine
 10
0.0
 20
-1.25
 30
0.0
 11
0.0
 21
-2.3
 31
0.0
  0
LINE
  5
2C5
330
2BB
100
AcDbEntity
  8
DIM
 62
     0
100
AcDbLine
 10
1.25
 20
0.0
 30
0.0
 11
2.3
 21
0.0
 31
0.0
  0
ENDBLK
  5
2BD
330
2BB
100
AcDbEntity
  8
0
100
AcDbBlockEnd
  0
BLOCK
  5
2CC
330
2CB
100
AcDbEntity
  8
0
100
AcDbBlockBegin
  2
SW_DATUMORIGIN_0
 70
     0
 10
0.0
 20
0.0
 30
0.0
  3
SW_DATUMORIGIN_0
  1

  0
CIRCLE
  5
2CE
330
2CB
100
AcDbEntity
  8
DIM
 62
     0
100
AcDbCircle
 10
0.0
 20
-8.2508804563
 30
0.0
 40
0.5000000000000004
  0
CIRCLE
  5
2CF
330
2CB
100
AcDbEntity
  8
DIM
 62
     0
100
AcDbCircle
 10
-6.4367249849
 20
1.0
 30
0.0
 40
0.5000000000000004
  0
SOLID
  5
2D0
330
2CB
100
AcDbEntity
  8
DIM
 62
     0
100
AcDbTrace
 10
6.8366706716
 20
-8.2508804563
 30
0.0
 11
3.5346706716
 21
-7.7428804563
 31
0.0
 12
3.5346706716
 22
-8.7588804563
 32
0.0
 13
3.5346706716
 23
-8.7588804563
 33
0.0
  0
SOLID
  5
2D1
330
2CB
100
AcDbEntity
  8
DIM
 62
     0
100
AcDbTrace
 10
-6.4367249849
 20
7.0903547738
 30
0.0
 11
-6.9447249849
 21
3.7883547738
 31
0.0
 12
-5.9287249849
 22
3.7883547738
 32
0.0
 13
-5.9287249849
 23
3.7883547738
 33
0.0
  0
LINE
  5
2D2
330
2CB
100
AcDbEntity
  8
DIM
 62
     0
100
AcDbLine
 10
0.0
 20
0.0
 30
0.0
 11
0.0
 21
-10.2508804563
 31
0.0
  0
LINE
  5
2D3
330
2CB
100
AcDbEntity
  8
DIM
 62
     0
100
AcDbLine
 10
0.0
 20
-8.2508804563
 30
0.0
 11
3.5346706716
 21
-8.2508804563
 31
0.0
  0
LINE
  5
2D4
330
2CB
100
AcDbEntity
  8
DIM
 62
     0
100
AcDbLine
 10
-1.0
 20
1.0
 30
0.0
 11
-8.4367249849
 21
1.0
 31
0.0
  0
LINE
  5
2D5
330
2CB
100
AcDbEntity
  8
DIM
 62
     0
100
AcDbLine
 10
-6.4367249849
 20
1.0
 30
0.0
 11
-6.4367249849
 21
3.7883547738
 31
0.0
  0
MTEXT
  5
2D6
330
2CB
100
AcDbEntity
  8
DIM
 62
     0
100
AcDbMText
 10
10.9230923818
 20
-6.6807143061
 30
0.0
 40
3.175
 41
0.0
 71
     1
 72
     1
  1
X
  7
SLDTEXTSTYLE0
 73
     1
 44
1.0
  0
MTEXT
  5
2D7
330
2CB
100
AcDbEntity
  8
DIM
 62
     0
100
AcDbMText
 10
-7.6890860925
 20
12.747205093
 30
0.0
 40
3.175
 41
0.0
 71
     1
 72
     1
  1
Y
  7
SLDTEXTSTYLE0
 73
     1
 44
1.0
  0
MTEXT
  5
2D8
330
2CB
100
AcDbEntity
  8
DIM
 62
     0
100
AcDbMText
 10
-4.7594078245
 20
-6.6804518473
 30
0.0
 40
3.175
 41
0.0
 71
     1
 72
     1
  1
0
  7
SLDTEXTSTYLE0
 73
     1
 44
1.0
  0
MTEXT
  5
2D9
330
2CB
100
AcDbEntity
  8
DIM
 62
     0
100
AcDbMText
 10
-7.6097110993
 20
-1.0159931012
 30
0.0
 40
3.175
 41
0.0
 71
     1
 72
     1
  1
0
  7
SLDTEXTSTYLE0
 73
     1
 44
1.0
  0
ENDBLK
  5
2CD
330
2CB
100
AcDbEntity
  8
0
100
AcDbBlockEnd
  0
BLOCK
  5
2FC
330
2FB
100
AcDbEntity
  8
0
100
AcDbBlockBegin
  2
SW_CENTERMARKSYMBOL_9
 70
     0
 10
0.0
 20
0.0
 30
0.0
  3
SW_CENTERMARKSYMBOL_9
  1

  0
LINE
  5
2FE
330
2FB
100
AcDbEntity
  8
DIM
 62
     0
100
AcDbLine
 10
0.0
 20
0.0
 30
0.0
 11
0.0
 21
1.25
 31
0.0
  0
LINE
  5
2FF
330
2FB
100
AcDbEntity
  8
DIM
 62
     0
100
AcDbLine
 10
0.0
 20
0.0
 30
0.0
 11
-1.25
 21
0.0
 31
0.0
  0
LINE
  5
300
330
2FB
100
AcDbEntity
  8
DIM
 62
     0
100
AcDbLine
 10
0.0
 20
0.0
 30
0.0
 11
0.0
 21
-1.25
 31
0.0
  0
LINE
  5
301
330
2FB
100
AcDbEntity
  8
DIM
 62
     0
100
AcDbLine
 10
0.0
 20
0.0
 30
0.0
 11
1.25
 21
0.0
 31
0.0
  0
LINE
  5
302
330
2FB
100
AcDbEntity
  8
DIM
 62
     0
100
AcDbLine
 10
0.0
 20
2.5
 30
0.0
 11
0.0
 21
3.25
 31
0.0
  0
LINE
  5
303
330
2FB
100
AcDbEntity
  8
DIM
 62
     0
100
AcDbLine
 10
-2.5
 20
0.0
 30
0.0
 11
-3.25
 21
0.0
 31
0.0
  0
LINE
  5
304
330
2FB
100
AcDbEntity
  8
DIM
 62
     0
100
AcDbLine
 10
0.0
 20
-2.5
 30
0.0
 11
0.0
 21
-3.25
 31
0.0
  0
LINE
  5
305
330
2FB
100
AcDbEntity
  8
DIM
 62
     0
100
AcDbLine
 10
2.5
 20
0.0
 30
0.0
 11
3.25
 21
0.0
 31
0.0
  0
ENDBLK
  5
2FD
330
2FB
100
AcDbEntity
  8
0
100
AcDbBlockEnd
  0
BLOCK
  5
308
330
307
100
AcDbEntity
  8
0
100
AcDbBlockBegin
  2
SW_CENTERMARKSYMBOL_10
 70
     0
 10
0.0
 20
0.0
 30
0.0
  3
SW_CENTERMARKSYMBOL_10
  1

  0
LINE
  5
30A
330
307
100
AcDbEntity
  8
DIM
 62
     0
100
AcDbLine
 10
0.0
 20
0.0
 30
0.0
 11
0.0
 21
1.25
 31
0.0
  0
LINE
  5
30B
330
307
100
AcDbEntity
  8
DIM
 62
     0
100
AcDbLine
 10
0.0
 20
0.0
 30
0.0
 11
-1.25
 21
0.0
 31
0.0
  0
LINE
  5
30C
330
307
100
AcDbEntity
  8
DIM
 62
     0
100
AcDbLine
 10
0.0
 20
0.0
 30
0.0
 11
0.0
 21
-1.25
 31
0.0
  0
LINE
  5
30D
330
307
100
AcDbEntity
  8
DIM
 62
     0
100
AcDbLine
 10
0.0
 20
0.0
 30
0.0
 11
1.25
 21
0.0
 31
0.0
  0
LINE
  5
30E
330
307
100
AcDbEntity
  8
DIM
 62
     0
100
AcDbLine
 10
0.0
 20
2.5
 30
0.0
 11
0.0
 21
3.25
 31
0.0
  0
LINE
  5
30F
330
307
100
AcDbEntity
  8
DIM
 62
     0
100
AcDbLine
 10
-2.5
 20
0.0
 30
0.0
 11
-3.25
 21
0.0
 31
0.0
  0
LINE
  5
310
330
307
100
AcDbEntity
  8
DIM
 62
     0
100
AcDbLine
 10
0.0
 20
-2.5
 30
0.0
 11
0.0
 21
-3.25
 31
0.0
  0
LINE
  5
311
330
307
100
AcDbEntity
  8
DIM
 62
     0
100
AcDbLine
 10
2.5
 20
0.0
 30
0.0
 11
3.25
 21
0.0
 31
0.0
  0
ENDBLK
  5
309
330
307
100
AcDbEntity
  8
0
100
AcDbBlockEnd
  0
BLOCK
  5
314
330
313
100
AcDbEntity
  8
0
100
AcDbBlockBegin
  2
SW_CENTERMARKSYMBOL_11
 70
     0
 10
0.0
 20
0.0
 30
0.0
  3
SW_CENTERMARKSYMBOL_11
  1

  0
LINE
  5
316
330
313
100
AcDbEntity
  8
DIM
 62
     0
100
AcDbLine
 10
0.0
 20
0.0
 30
0.0
 11
0.0
 21
1.25
 31
0.0
  0
LINE
  5
317
330
313
100
AcDbEntity
  8
DIM
 62
     0
100
AcDbLine
 10
0.0
 20
0.0
 30
0.0
 11
-1.25
 21
0.0
 31
0.0
  0
LINE
  5
318
330
313
100
AcDbEntity
  8
DIM
 62
     0
100
AcDbLine
 10
0.0
 20
0.0
 30
0.0
 11
0.0
 21
-1.25
 31
0.0
  0
LINE
  5
319
330
313
100
AcDbEntity
  8
DIM
 62
     0
100
AcDbLine
 10
0.0
 20
0.0
 30
0.0
 11
1.25
 21
0.0
 31
0.0
  0
LINE
  5
31A
330
313
100
AcDbEntity
  8
DIM
 62
     0
100
AcDbLine
 10
0.0
 20
2.5
 30
0.0
 11
0.0
 21
3.25
 31
0.0
  0
LINE
  5
31B
330
313
100
AcDbEntity
  8
DIM
 62
     0
100
AcDbLine
 10
-2.5
 20
0.0
 30
0.0
 11
-3.25
 21
0.0
 31
0.0
  0
LINE
  5
31C
330
313
100
AcDbEntity
  8
DIM
 62
     0
100
AcDbLine
 10
0.0
 20
-2.5
 30
0.0
 11
0.0
 21
-3.25
 31
0.0
  0
LINE
  5
31D
330
313
100
AcDbEntity
  8
DIM
 62
     0
100
AcDbLine
 10
2.5
 20
0.0
 30
0.0
 11
3.25
 21
0.0
 31
0.0
  0
ENDBLK
  5
315
330
313
100
AcDbEntity
  8
0
100
AcDbBlockEnd
  0
BLOCK
  5
320
330
31F
100
AcDbEntity
  8
0
100
AcDbBlockBegin
  2
SW_CENTERMARKSYMBOL_12
 70
     0
 10
0.0
 20
0.0
 30
0.0
  3
SW_CENTERMARKSYMBOL_12
  1

  0
LINE
  5
322
330
31F
100
AcDbEntity
  8
DIM
 62
     0
100
AcDbLine
 10
0.0
 20
0.0
 30
0.0
 11
0.0
 21
1.25
 31
0.0
  0
LINE
  5
323
330
31F
100
AcDbEntity
  8
DIM
 62
     0
100
AcDbLine
 10
0.0
 20
0.0
 30
0.0
 11
-1.25
 21
0.0
 31
0.0
  0
LINE
  5
324
330
31F
100
AcDbEntity
  8
DIM
 62
     0
100
AcDbLine
 10
0.0
 20
0.0
 30
0.0
 11
0.0
 21
-1.25
 31
0.0
  0
LINE
  5
325
330
31F
100
AcDbEntity
  8
DIM
 62
     0
100
AcDbLine
 10
0.0
 20
0.0
 30
0.0
 11
1.25
 21
0.0
 31
0.0
  0
LINE
  5
326
330
31F
100
AcDbEntity
  8
DIM
 62
     0
100
AcDbLine
 10
0.0
 20
2.5
 30
0.0
 11
0.0
 21
3.25
 31
0.0
  0
LINE
  5
327
330
31F
100
AcDbEntity
  8
DIM
 62
     0
100
AcDbLine
 10
-2.5
 20
0.0
 30
0.0
 11
-3.25
 21
0.0
 31
0.0
  0
LINE
  5
328
330
31F
100
AcDbEntity
  8
DIM
 62
     0
100
AcDbLine
 10
0.0
 20
-2.5
 30
0.0
 11
0.0
 21
-3.25
 31
0.0
  0
LINE
  5
329
330
31F
100
AcDbEntity
  8
DIM
 62
     0
100
AcDbLine
 10
2.5
 20
0.0
 30
0.0
 11
3.25
 21
0.0
 31
0.0
  0
ENDBLK
  5
321
330
31F
100
AcDbEntity
  8
0
100
AcDbBlockEnd
  0
BLOCK
  5
32C
330
32B
100
AcDbEntity
  8
0
100
AcDbBlockBegin
  2
SW_CENTERMARKSYMBOL_13
 70
     0
 10
0.0
 20
0.0
 30
0.0
  3
SW_CENTERMARKSYMBOL_13
  1

  0
LINE
  5
32E
330
32B
100
AcDbEntity
  8
DIM
 62
     0
100
AcDbLine
 10
0.0
 20
0.0
 30
0.0
 11
0.0
 21
1.25
 31
0.0
  0
LINE
  5
32F
330
32B
100
AcDbEntity
  8
DIM
 62
     0
100
AcDbLine
 10
0.0
 20
0.0
 30
0.0
 11
-1.25
 21
0.0
 31
0.0
  0
LINE
  5
330
330
32B
100
AcDbEntity
  8
DIM
 62
     0
100
AcDbLine
 10
0.0
 20
0.0
 30
0.0
 11
0.0
 21
-1.25
 31
0.0
  0
LINE
  5
331
330
32B
100
AcDbEntity
  8
DIM
 62
     0
100
AcDbLine
 10
0.0
 20
0.0
 30
0.0
 11
1.25
 21
0.0
 31
0.0
  0
LINE
  5
332
330
32B
100
AcDbEntity
  8
DIM
 62
     0
100
AcDbLine
 10
0.0
 20
2.5
 30
0.0
 11
0.0
 21
3.25
 31
0.0
  0
LINE
  5
333
330
32B
100
AcDbEntity
  8
DIM
 62
     0
100
AcDbLine
 10
-2.5
 20
0.0
 30
0.0
 11
-3.25
 21
0.0
 31
0.0
  0
LINE
  5
334
330
32B
100
AcDbEntity
  8
DIM
 62
     0
100
AcDbLine
 10
0.0
 20
-2.5
 30
0.0
 11
0.0
 21
-3.25
 31
0.0
  0
LINE
  5
335
330
32B
100
AcDbEntity
  8
DIM
 62
     0
100
AcDbLine
 10
2.5
 20
0.0
 30
0.0
 11
3.25
 21
0.0
 31
0.0
  0
ENDBLK
  5
32D
330
32B
100
AcDbEntity
  8
0
100
AcDbBlockEnd
  0
BLOCK
  5
359
330
358
100
AcDbEntity
  8
0
100
AcDbBlockBegin
  2
_D_11
 70
     0
 10
0.0
 20
0.0
 30
0.0
  3
_D_11
  1

  0
SOLID
  5
35B
330
358
100
AcDbEntity
  8
DIM
100
AcDbTrace
 10
73.6033192266
 20
47.9256916826
 30
0.0
 11
74.1113192266
 21
51.2276916826
 31
0.0
 12
73.0953192266
 22
51.2276916826
 32
0.0
 13
73.0953192266
 23
51.2276916826
 33
0.0
  0
SOLID
  5
35C
330
358
100
AcDbEntity
  8
DIM
100
AcDbTrace
 10
73.6033192266
 20
107.9256916826
 30
0.0
 11
73.0953192266
 21
104.6236916826
 31
0.0
 12
74.1113192266
 22
104.6236916826
 32
0.0
 13
74.1113192266
 23
104.6236916826
 33
0.0
  0
LINE
  5
35D
330
358
100
AcDbEntity
  8
DIM
100
AcDbLine
 10
85.1565389242
 20
47.9256916826
 30
0.0
 11
72.6033192266
 21
47.9256916826
 31
0.0
  0
LINE
  5
35E
330
358
100
AcDbEntity
  8
DIM
100
AcDbLine
 10
105.1565389242
 20
107.9256916826
 30
0.0
 11
72.6033192266
 21
107.9256916826
 31
0.0
  0
LINE
  5
35F
330
358
100
AcDbEntity
  8
DIM
100
AcDbLine
 10
73.6033192266
 20
47.9256916826
 30
0.0
 11
73.6033192266
 21
107.9256916826
 31
0.0
  0
MTEXT
  5
360
330
358
100
AcDbEntity
  8
DIM
100
AcDbMText
 10
70.3806497025
 20
65.142895273
 30
0.0
 40
2.5
 41
0.0
 71
     1
 72
     1
  1
120.00
  7
SLDTEXTSTYLE0
 11
6.123233995736766E-17
 21
1.0
 31
0.0
 73
     1
 44
1.0
  0
ENDBLK
  5
35A
330
358
100
AcDbEntity
  8
0
100
AcDbBlockEnd
  0
BLOCK
  5
363
330
362
100
AcDbEntity
  8
0
100
AcDbBlockBegin
  2
_D_12
 70
     0
 10
0.0
 20
0.0
 30
0.0
  3
_D_12
  1

  0
SOLID
  5
365
330
362
100
AcDbEntity
  8
DIM
100
AcDbTrace
 10
81.5635974256
 20
47.9256916826
 30
0.0
 11
82.0715974256
 21
51.2276916826
 31
0.0
 12
81.0555974256
 22
51.2276916826
 32
0.0
 13
81.0555974256
 23
51.2276916826
 33
0.0
  0
SOLID
  5
366
330
362
100
AcDbEntity
  8
DIM
100
AcDbTrace
 10
81.5635974256
 20
87.9256916826
 30
0.0
 11
81.0555974256
 21
84.6236916826
 31
0.0
 12
82.0715974256
 22
84.6236916826
 32
0.0
 13
82.0715974256
 23
84.6236916826
 33
0.0
  0
LINE
  5
367
330
362
100
AcDbEntity
  8
DIM
100
AcDbLine
 10
85.1565389242
 20
47.9256916826
 30
0.0
 11
80.5635974256
 21
47.9256916826
 31
0.0
  0
LINE
  5
368
330
362
100
AcDbEntity
  8
DIM
100
AcDbLine
 10
85.1565389242
 20
87.9256916826
 30
0.0
 11
80.5635974256
 21
87.9256916826
 31
0.0
  0
LINE
  5
369
330
362
100
AcDbEntity
  8
DIM
100
AcDbLine
 10
81.5635974256
 20
47.9256916826
 30
0.0
 11
81.5635974256
 21
87.9256916826
 31
0.0
  0
MTEXT
  5
36A
330
362
100
AcDbEntity
  8
DIM
100
AcDbMText
 10
78.3409279015
 20
66.0665064967
 30
0.0
 40
2.5
 41
0.0
 71
     1
 72
     1
  1
80.00
  7
SLDTEXTSTYLE0
 11
6.123233995736766E-17
 21
1.0
 31
0.0
 73
     1
 44
1.0
  0
ENDBLK
  5
364
330
362
100
AcDbEntity
  8
0
100
AcDbBlockEnd
  0
BLOCK
  5
36D
330
36C
100
AcDbEntity
  8
0
100
AcDbBlockBegin
  2
_D_13
 70
     0
 10
0.0
 20
0.0
 30
0.0
  3
_D_13
  1

  0
SOLID
  5
36F
330
36C
100
AcDbEntity
  8
DIM
100
AcDbTrace
 10
84.5315389242
 20
90.8671381952
 30
0.0
 11
81.2295389242
 21
91.3751381952
 31
0.0
 12
81.2295389242
 22
90.3591381952
 32
0.0
 13
81.2295389242
 23
90.3591381952
 33
0.0
  0
SOLID
  5
370
330
36C
100
AcDbEntity
  8
DIM
100
AcDbTrace
 10
104.5315389242
 20
90.8671381952
 30
0.0
 11
107.8335389242
 21
90.3591381952
 31
0.0
 12
107.8335389242
 22
91.3751381952
 32
0.0
 13
107.8335389242
 23
91.3751381952
 33
0.0
  0
LINE
  5
371
330
36C
100
AcDbEntity
  8
DIM
100
AcDbLine
 10
84.5315389242
 20
87.3006916826
 30
0.0
 11
84.5315389242
 21
91.8671381952
 31
0.0
  0
LINE
  5
372
330
36C
100
AcDbEntity
  8
DIM
100
AcDbLine
 10
84.5315389242
 20
90.8671381952
 30
0.0
 11
78.1815389242
 21
90.8671381952
 31
0.0
  0
LINE
  5
373
330
36C
100
AcDbEntity
  8
DIM
100
AcDbLine
 10
84.5315389242
 20
90.8671381952
 30
0.0
 11
104.5315389242
 21
90.8671381952
 31
0.0
  0
LINE
  5
374
330
36C
100
AcDbEntity
  8
DIM
100
AcDbLine
 10
104.5315389242
 20
90.8671381952
 30
0.0
 11
110.8815389242
 21
90.8671381952
 31
0.0
  0
MTEXT
  5
375
330
36C
100
AcDbEntity
  8
DIM
100
AcDbMText
 10
90.5360947095
 20
94.0898077193
 30
0.0
 40
2.5
 41
0.0
 71
     1
 72
     1
  1
40.00
  7
SLDTEXTSTYLE0
 73
     1
 44
1.0
  0
ENDBLK
  5
36E
330
36C
100
AcDbEntity
  8
0
100
AcDbBlockEnd
  0
BLOCK
  5
378
330
377
100
AcDbEntity
  8
0
100
AcDbBlockBegin
  2
_D_14
 70
     0
 10
0.0
 20
0.0
 30
0.0
  3
_D_14
  1

  0
SOLID
  5
37A
330
377
100
AcDbEntity
  8
DIM
100
AcDbTrace
 10
84.5315389242
 20
111.4544715231
 30
0.0
 11
87.8335389242
 21
110.9464715231
 31
0.0
 12
87.8335389242
 22
111.9624715231
 32
0.0
 13
87.8335389242
 23
111.9624715231
 33
0.0
  0
SOLID
  5
37B
330
377
100
AcDbEntity
  8
DIM
100
AcDbTrace
 10
124.5315389242
 20
111.4544715231
 30
0.0
 11
121.2295389242
 21
111.9624715231
 31
0.0
 12
121.2295389242
 22
110.9464715231
 32
0.0
 13
121.2295389242
 23
110.9464715231
 33
0.0
  0
LINE
  5
37C
330
377
100
AcDbEntity
  8
DIM
100
AcDbLine
 10
84.5315389242
 20
87.3006916826
 30
0.0
 11
84.5315389242
 21
112.4544715231
 31
0.0
  0
LINE
  5
37D
330
377
100
AcDbEntity
  8
DIM
100
AcDbLine
 10
124.5315389242
 20
107.3006916826
 30
0.0
 11
124.5315389242
 21
112.4544715231
 31
0.0
  0
LINE
  5
37E
330
377
100
AcDbEntity
  8
DIM
100
AcDbLine
 10
84.5315389242
 20
111.4544715231
 30
0.0
 11
124.5315389242
 21
111.4544715231
 31
0.0
  0
MTEXT
  5
37F
330
377
100
AcDbEntity
  8
DIM
100
AcDbMText
 10
100.0816878764
 20
114.6771410472
 30
0.0
 40
2.5
 41
0.0
 71
     1
 72
     1
  1
80.00
  7
SLDTEXTSTYLE0
 73
     1
 44
1.0
  0
ENDBLK
  5
379
330
377
100
AcDbEntity
  8
0
100
AcDbBlockEnd
  0
BLOCK
  5
382
330
381
100
AcDbEntity
  8
0
100
AcDbBlockBegin
  2
_D_15
 70
     0
 10
0.0
 20
0.0
 30
0.0
  3
_D_15
  1

  0
SOLID
  5
384
330
381
100
AcDbEntity
  8
DIM
100
AcDbTrace
 10
84.5315389242
 20
43.4415354207
 30
0.0
 11
87.8335389242
 21
42.9335354207
 31
0.0
 12
87.8335389242
 22
43.9495354207
 32
0.0
 13
87.8335389242
 23
43.9495354207
 33
0.0
  0
SOLID
  5
385
330
381
100
AcDbEntity
  8
DIM
100
AcDbTrace
 10
124.5315389242
 20
43.4415354207
 30
0.0
 11
121.2295389242
 21
43.9495354207
 31
0.0
 12
121.2295389242
 22
42.9335354207
 32
0.0
 13
121.2295389242
 23
42.9335354207
 33
0.0
  0
LINE
  5
386
330
381
100
AcDbEntity
  8
DIM
100
AcDbLine
 10
84.5315389242
 20
48.5506916826
 30
0.0
 11
84.5315389242
 21
42.4415354207
 31
0.0
  0
LINE
  5
387
330
381
100
AcDbEntity
  8
DIM
100
AcDbLine
 10
124.5315389242
 20
48.5506916826
 30
0.0
 11
124.5315389242
 21
42.4415354207
 31
0.0
  0
LINE
  5
388
330
381
100
AcDbEntity
  8
DIM
100
AcDbLine
 10
84.5315389242
 20
43.4415354207
 30
0.0
 11
124.5315389242
 21
43.4415354207
 31
0.0
  0
MTEXT
  5
389
330
381
100
AcDbEntity
  8
DIM
100
AcDbMText
 10
100.8970949082
 20
46.6642049447
 30
0.0
 40
2.5
 41
0.0
 71
     1
 72
     1
  1
80.00
  7
SLDTEXTSTYLE0
 73
     1
 44
1.0
  0
ENDBLK
  5
383
330
381
100
AcDbEntity
  8
0
100
AcDbBlockEnd
  0
BLOCK
  5
38D
330
38C
100
AcDbEntity
  8
0
100
AcDbBlockBegin
  2
_D_16
 70
     0
 10
0.0
 20
0.0
 30
0.0
  3
_D_16
  1

  0
SOLID
  5
38F
330
38C
100
AcDbEntity
  8
DIM
100
AcDbTrace
 10
147.8785071066
 20
84.1881916826
 30
0.0
 11
150.9921229899
 21
85.3992507775
 31
0.0
 12
150.4841229899
 22
86.2791325877
 32
0.0
 13
150.4841229899
 23
86.2791325877
 33
0.0
  0
LINE
  5
390
330
38C
100
AcDbEntity
  8
DIM
100
AcDbLine
 10
147.8785071066
 20
84.1881916826
 30
0.0
 11
159.1748229687
 21
90.7101226865
 31
0.0
  0
LINE
  5
391
330
38C
100
AcDbEntity
  8
DIM
100
AcDbLine
 10
147.8785071066
 20
84.1881916826
 30
0.0
 11
137.0315389242
 21
77.9256916826
 31
0.0
  0
MTEXT
  5
392
330
38C
100
AcDbEntity
  8
DIM
100
AcDbMText
 10
148.6161694025
 20
88.32463499
 30
0.0
 40
2.5
 41
0.0
 71
     1
 72
     1
  1
R25.05
  7
SLDTEXTSTYLE0
 11
0.8660254037844378
 21
0.5000000000000014
 31
0.0
 73
     1
 44
1.0
  0
ENDBLK
  5
38E
330
38C
100
AcDbEntity
  8
0
100
AcDbBlockEnd
  0
BLOCK
  5
395
330
394
100
AcDbEntity
  8
0
100
AcDbBlockBegin
  2
_D_17
 70
     0
 10
0.0
 20
0.0
 30
0.0
  3
_D_17
  1

  0
ARC
  5
397
330
394
100
AcDbEntity
  8
DIM
100
AcDbCircle
 10
158.8682100393
 20
77.9256916826
 30
0.0
 40
31.84112442045722
100
AcDbArc
 50
145.0
 51
215.0
  0
SOLID
  5
398
330
394
100
AcDbEntity
  8
DIM
100
AcDbTrace
 10
132.7854878778
 20
96.1890103571
 30
0.0
 11
130.6031315861
 21
93.6594671145
 31
0.0
 12
131.4643749327
 22
93.1204718473
 32
0.0
 13
131.4643749327
 23
93.1204718473
 33
0.0
  0
SOLID
  5
399
330
394
100
AcDbEntity
  8
DIM
100
AcDbTrace
 10
132.7854878778
 20
59.6623730081
 30
0.0
 11
131.4643749327
 21
62.7309115179
 31
0.0
 12
130.6031315861
 22
62.1919162507
 32
0.0
 13
130.6031315861
 23
62.1919162507
 33
0.0
  0
MTEXT
  5
39A
330
394
100
AcDbEntity
  8
DIM
100
AcDbMText
 10
123.8496284651
 20
81.0059882588
 30
0.0
 40
2.5
 41
0.0
 71
     1
 72
     1
  1
70
  7
SLDTEXTSTYLE0
 11
0.1586352185983048
 21
0.987337261233601
 31
0.0
 73
     1
 44
1.0
  0
ENDBLK
  5
396
330
394
100
AcDbEntity
  8
0
100
AcDbBlockEnd
  0
BLOCK
  5
39D
330
39C
100
AcDbEntity
  8
0
100
AcDbBlockBegin
  2
_D_18
 70
     0
 10
0.0
 20
0.0
 30
0.0
  3
_D_18
  1

  0
SOLID
  5
39F
330
39C
100
AcDbEntity
  8
DIM
100
AcDbTrace
 10
133.7815389242
 20
103.2263346198
 30
0.0
 11
130.4795389242
 21
103.7343346198
 31
0.0
 12
130.4795389242
 22
102.7183346198
 32
0.0
 13
130.4795389242
 23
102.7183346198
 33
0.0
  0
SOLID
  5
3A0
330
39C
100
AcDbEntity
  8
DIM
100
AcDbTrace
 10
124.0315389242
 20
103.2263346198
 30
0.0
 11
127.3335389242
 21
102.7183346198
 31
0.0
 12
127.3335389242
 22
103.7343346198
 32
0.0
 13
127.3335389242
 23
103.7343346198
 33
0.0
  0
LINE
  5
3A1
330
39C
100
AcDbEntity
  8
DIM
100
AcDbLine
 10
133.7815389242
 20
96.491567906
 30
0.0
 11
133.7815389242
 21
104.2263346198
 31
0.0
  0
LINE
  5
3A2
330
39C
100
AcDbEntity
  8
DIM
100
AcDbLine
 10
124.0315389242
 20
103.5596662788
 30
0.0
 11
124.0315389242
 21
104.2263346198
 31
0.0
  0
LINE
  5
3A3
330
39C
100
AcDbEntity
  8
DIM
100
AcDbLine
 10
133.7815389242
 20
103.2263346198
 30
0.0
 11
144.07599663
 21
103.2263346198
 31
0.0
  0
LINE
  5
3A4
330
39C
100
AcDbEntity
  8
DIM
100
AcDbLine
 10
133.7815389242
 20
103.2263346198
 30
0.0
 11
124.0315389242
 21
103.2263346198
 31
0.0
  0
MTEXT
  5
3A5
330
39C
100
AcDbEntity
  8
DIM
100
AcDbMText
 10
135.763496548
 20
106.4490041438
 30
0.0
 40
2.5
 41
0.0
 71
     1
 72
     1
  1
19.50
  7
SLDTEXTSTYLE0
 73
     1
 44
1.0
  0
ENDBLK
  5
39E
330
39C
100
AcDbEntity
  8
0
100
AcDbBlockEnd
  0
BLOCK
  5
3A8
330
3A7
100
AcDbEntity
  8
0
100
AcDbBlockBegin
  2
_D_19
 70
     0
 10
0.0
 20
0.0
 30
0.0
  3
_D_19
  1

  0
SOLID
  5
3AA
330
3A7
100
AcDbEntity
  8
DIM
100
AcDbTrace
 10
122.220203929
 20
92.4256916826
 30
0.0
 11
122.728203929
 21
95.7276916826
 31
0.0
 12
121.712203929
 22
95.7276916826
 32
0.0
 13
121.712203929
 23
95.7276916826
 33
0.0
  0
SOLID
  5
3AB
330
3A7
100
AcDbEntity
  8
DIM
100
AcDbTrace
 10
122.220203929
 20
107.9256916826
 30
0.0
 11
121.712203929
 21
104.6236916826
 31
0.0
 12
122.728203929
 22
104.6236916826
 32
0.0
 13
122.728203929
 23
104.6236916826
 33
0.0
  0
LINE
  5
3AC
330
3A7
100
AcDbEntity
  8
DIM
100
AcDbLine
 10
124.0315389242
 20
92.4256916826
 30
0.0
 11
121.220203929
 21
92.4256916826
 31
0.0
  0
LINE
  5
3AD
330
3A7
100
AcDbEntity
  8
DIM
100
AcDbLine
 10
122.220203929
 20
92.4256916826
 30
0.0
 11
122.220203929
 21
107.9256916826
 31
0.0
  0
MTEXT
  5
3AE
330
3A7
100
AcDbEntity
  8
DIM
100
AcDbMText
 10
118.9975344049
 20
95.3078599066
 30
0.0
 40
2.5
 41
0.0
 71
     1
 72
     1
  1
31.00
  7
SLDTEXTSTYLE0
 11
-3.828568698926949E-16
 21
1.0
 31
0.0
 73
     1
 44
1.0
  0
ENDBLK
  5
3A9
330
3A7
100
AcDbEntity
  8
0
100
AcDbBlockEnd
  0
BLOCK
  5
3B2
330
3B1
100
AcDbEntity
  8
0
100
AcDbBlockBegin
  2
_D_20
 70
     0
 10
0.0
 20
0.0
 30
0.0
  3
_D_20
  1

  0
SOLID
  5
3B4
330
3B1
100
AcDbEntity
  8
DIM
100
AcDbTrace
 10
133.7815389242
 20
115.2268341116
 30
0.0
 11
130.4795389242
 21
115.7348341116
 31
0.0
 12
130.4795389242
 22
114.7188341116
 32
0.0
 13
130.4795389242
 23
114.7188341116
 33
0.0
  0
SOLID
  5
3B5
330
3B1
100
AcDbEntity
  8
DIM
100
AcDbTrace
 10
84.5315389242
 20
115.2268341116
 30
0.0
 11
87.8335389242
 21
114.7188341116
 31
0.0
 12
87.8335389242
 22
115.7348341116
 32
0.0
 13
87.8335389242
 23
115.7348341116
 33
0.0
  0
LINE
  5
3B6
330
3B1
100
AcDbEntity
  8
DIM
100
AcDbLine
 10
133.7815389242
 20
96.491567906
 30
0.0
 11
133.7815389242
 21
116.2268341116
 31
0.0
  0
LINE
  5
3B7
330
3B1
100
AcDbEntity
  8
DIM
100
AcDbLine
 10
84.5315389242
 20
87.3006916826
 30
0.0
 11
84.5315389242
 21
116.2268341116
 31
0.0
  0
LINE
  5
3B8
330
3B1
100
AcDbEntity
  8
DIM
100
AcDbLine
 10
133.7815389242
 20
115.2268341116
 30
0.0
 11
84.5315389242
 21
115.2268341116
 31
0.0
  0
MTEXT
  5
3B9
330
3B1
100
AcDbEntity
  8
DIM
100
AcDbMText
 10
111.3090922308
 20
118.4495036356
 30
0.0
 40
2.5
 41
0.0
 71
     1
 72
     1
  1
98.5
  7
SLDTEXTSTYLE0
 73
     1
 44
1.0
  0
ENDBLK
  5
3B3
330
3B1
100
AcDbEntity
  8
0
100
AcDbBlockEnd
  0
BLOCK
  5
3C1
330
3C0
100
AcDbEntity
  8
0
100
AcDbBlockBegin
  2
SW_NOTE_4
 70
     0
 10
0.0
 20
0.0
 30
0.0
  3
SW_NOTE_4
  1

  0
LINE
  5
3C3
330
3C0
100
AcDbEntity
  8
DIM
 62
     0
100
AcDbLine
 10
24.167221183
 20
0.0
 30
0.0
 11
0.0
 21
0.0
 31
0.0
  0
MTEXT
  5
3C4
330
3C0
100
AcDbEntity
  8
DIM
 62
     0
100
AcDbMText
 10
0.3970866266
 20
3.2498625508
 30
0.0
 40
2.5
 41
0.0
 71
     1
 72
     1
  1
Pocket
  7
SLDTEXTSTYLE0
 73
     1
 44
1.0
  0
INSERT
  5
3C5
330
3C0
100
AcDbEntity
  8
DIM
 62
     0
100
AcDbBlockReference
  2
SW_SYMBOL_HOLE_DEPTH
 10
12.601947895
 20
0.5394879259
 30
0.0
 41
0.002046395
 42
0.002046395
 43
0.002046395
  0
MTEXT
  5
3C6
330
3C0
100
AcDbEntity
  8
DIM
 62
     0
100
AcDbMText
 10
15.6693435076
 20
3.2498625508
 30
0.0
 40
2.5
 41
0.0
 71
     1
 72
     1
  1
2mm
  7
SLDTEXTSTYLE0
 73
     1
 44
1.0
  0
ENDBLK
  5
3C2
330
3C0
100
AcDbEntity
  8
0
100
AcDbBlockEnd
  0
BLOCK
  5
3CA
330
3C9
100
AcDbEntity
  8
0
100
AcDbBlockBegin
  2
_DOT
 70
     0
 10
0.0
 20
0.0
 30
0.0
  3
_DOT
  1

  0
POLYLINE
  5
3CC
330
3C9
100
AcDbEntity
  8
0
  6
ByBlock
 62
     0
100
AcDb2dPolyline
 66
     1
 10
0.0
 20
0.0
 30
0.0
 70
     1
 40
0.5
 41
0.5
  0
VERTEX
  5
3CE
330
3CC
100
AcDbEntity
  8
0
  6
ByBlock
 62
     0
100
AcDbVertex
100
AcDb2dVertex
 10
-0.25
 20
0.0
 30
0.0
 42
1.0
  0
VERTEX
  5
3CF
330
3CC
100
AcDbEntity
  8
0
  6
ByBlock
 62
     0
100
AcDbVertex
100
AcDb2dVertex
 10
0.25
 20
0.0
 30
0.0
 42
1.0
  0
SEQEND
  5
3D0
330
3CC
100
AcDbEntity
  8
0
  6
ByBlock
 62
     0
  0
LINE
  5
3CD
330
3C9
100
AcDbEntity
  8
0
  6
ByBlock
 62
     0
370
    -2
100
AcDbLine
 10
-0.5
 20
0.0
 30
0.0
 11
-1.0
 21
0.0
 31
0.0
  0
ENDBLK
  5
3CB
330
3C9
100
AcDbEntity
  8
0
100
AcDbBlockEnd
  0
BLOCK
  5
3D3
330
3D2
100
AcDbEntity
  8
0
100
AcDbBlockBegin
  2
SW_CENTERMARKSYMBOL_14
 70
     0
 10
0.0
 20
0.0
 30
0.0
  3
SW_CENTERMARKSYMBOL_14
  1

  0
LINE
  5
3D5
330
3D2
100
AcDbEntity
  8
DIM
 62
     0
100
AcDbLine
 10
0.0
 20
0.0
 30
0.0
 11
0.0
 21
1.25
 31
0.0
  0
LINE
  5
3D6
330
3D2
100
AcDbEntity
  8
DIM
 62
     0
100
AcDbLine
 10
0.0
 20
0.0
 30
0.0
 11
-1.25
 21
0.0
 31
0.0
  0
LINE
  5
3D7
330
3D2
100
AcDbEntity
  8
DIM
 62
     0
100
AcDbLine
 10
0.0
 20
0.0
 30
0.0
 11
0.0
 21
-1.25
 31
0.0
  0
LINE
  5
3D8
330
3D2
100
AcDbEntity
  8
DIM
 62
     0
100
AcDbLine
 10
0.0
 20
0.0
 30
0.0
 11
1.25
 21
0.0
 31
0.0
  0
LINE
  5
3D9
330
3D2
100
AcDbEntity
  8
DIM
 62
     0
100
AcDbLine
 10
0.0
 20
2.5
 30
0.0
 11
0.0
 21
7.775
 31
0.0
  0
LINE
  5
3DA
330
3D2
100
AcDbEntity
  8
DIM
 62
     0
100
AcDbLine
 10
-2.5
 20
0.0
 30
0.0
 11
-7.775
 21
0.0
 31
0.0
  0
LINE
  5
3DB
330
3D2
100
AcDbEntity
  8
DIM
 62
     0
100
AcDbLine
 10
0.0
 20
-2.5
 30
0.0
 11
0.0
 21
-7.775
 31
0.0
  0
LINE
  5
3DC
330
3D2
100
AcDbEntity
  8
DIM
 62
     0
100
AcDbLine
 10
2.5
 20
0.0
 30
0.0
 11
7.775
 21
0.0
 31
0.0
  0
ENDBLK
  5
3D4
330
3D2
100
AcDbEntity
  8
0
100
AcDbBlockEnd
  0
BLOCK
  5
3DF
330
3DE
100
AcDbEntity
  8
0
100
AcDbBlockBegin
  2
SW_CENTERMARKSYMBOL_15
 70
     0
 10
0.0
 20
0.0
 30
0.0
  3
SW_CENTERMARKSYMBOL_15
  1

  0
LINE
  5
3E1
330
3DE
100
AcDbEntity
  8
DIM
 62
     0
100
AcDbLine
 10
0.0
 20
0.0
 30
0.0
 11
0.0
 21
1.25
 31
0.0
  0
LINE
  5
3E2
330
3DE
100
AcDbEntity
  8
DIM
 62
     0
100
AcDbLine
 10
0.0
 20
0.0
 30
0.0
 11
-1.25
 21
0.0
 31
0.0
  0
LINE
  5
3E3
330
3DE
100
AcDbEntity
  8
DIM
 62
     0
100
AcDbLine
 10
0.0
 20
0.0
 30
0.0
 11
0.0
 21
-1.25
 31
0.0
  0
LINE
  5
3E4
330
3DE
100
AcDbEntity
  8
DIM
 62
     0
100
AcDbLine
 10
0.0
 20
0.0
 30
0.0
 11
1.25
 21
0.0
 31
0.0
  0
LINE
  5
3E5
330
3DE
100
AcDbEntity
  8
DIM
 62
     0
100
AcDbLine
 10
0.0
 20
2.5
 30
0.0
 11
0.0
 21
3.25
 31
0.0
  0
LINE
  5
3E6
330
3DE
100
AcDbEntity
  8
DIM
 62
     0
100
AcDbLine
 10
-2.5
 20
0.0
 30
0.0
 11
-3.25
 21
0.0
 31
0.0
  0
LINE
  5
3E7
330
3DE
100
AcDbEntity
  8
DIM
 62
     0
100
AcDbLine
 10
0.0
 20
-2.5
 30
0.0
 11
0.0
 21
-3.25
 31
0.0
  0
LINE
  5
3E8
330
3DE
100
AcDbEntity
  8
DIM
 62
     0
100
AcDbLine
 10
2.5
 20
0.0
 30
0.0
 11
3.25
 21
0.0
 31
0.0
  0
ENDBLK
  5
3E0
330
3DE
100
AcDbEntity
  8
0
100
AcDbBlockEnd
  0
BLOCK
  5
3EB
330
3EA
100
AcDbEntity
  8
0
100
AcDbBlockBegin
  2
SW_CENTERMARKSYMBOL_16
 70
     0
 10
0.0
 20
0.0
 30
0.0
  3
SW_CENTERMARKSYMBOL_16
  1

  0
LINE
  5
3ED
330
3EA
100
AcDbEntity
  8
DIM
 62
     0
100
AcDbLine
 10
0.0
 20
0.0
 30
0.0
 11
0.0
 21
1.25
 31
0.0
  0
LINE
  5
3EE
330
3EA
100
AcDbEntity
  8
DIM
 62
     0
100
AcDbLine
 10
0.0
 20
0.0
 30
0.0
 11
-1.25
 21
0.0
 31
0.0
  0
LINE
  5
3EF
330
3EA
100
AcDbEntity
  8
DIM
 62
     0
100
AcDbLine
 10
0.0
 20
0.0
 30
0.0
 11
0.0
 21
-1.25
 31
0.0
  0
LINE
  5
3F0
330
3EA
100
AcDbEntity
  8
DIM
 62
     0
100
AcDbLine
 10
0.0
 20
0.0
 30
0.0
 11
1.25
 21
0.0
 31
0.0
  0
LINE
  5
3F1
330
3EA
100
AcDbEntity
  8
DIM
 62
     0
100
AcDbLine
 10
0.0
 20
2.5
 30
0.0
 11
0.0
 21
3.25
 31
0.0
  0
LINE
  5
3F2
330
3EA
100
AcDbEntity
  8
DIM
 62
     0
100
AcDbLine
 10
-2.5
 20
0.0
 30
0.0
 11
-3.25
 21
0.0
 31
0.0
  0
LINE
  5
3F3
330
3EA
100
AcDbEntity
  8
DIM
 62
     0
100
AcDbLine
 10
0.0
 20
-2.5
 30
0.0
 11
0.0
 21
-3.25
 31
0.0
  0
LINE
  5
3F4
330
3EA
100
AcDbEntity
  8
DIM
 62
     0
100
AcDbLine
 10
2.5
 20
0.0
 30
0.0
 11
3.25
 21
0.0
 31
0.0
  0
ENDBLK
  5
3EC
330
3EA
100
AcDbEntity
  8
0
100
AcDbBlockEnd
  0
BLOCK
  5
3F7
330
3F6
100
AcDbEntity
  8
0
100
AcDbBlockBegin
  2
SW_CENTERMARKSYMBOL_17
 70
     0
 10
0.0
 20
0.0
 30
0.0
  3
SW_CENTERMARKSYMBOL_17
  1

  0
LINE
  5
3F9
330
3F6
100
AcDbEntity
  8
DIM
 62
     0
100
AcDbLine
 10
0.0
 20
0.0
 30
0.0
 11
0.0
 21
1.25
 31
0.0
  0
LINE
  5
3FA
330
3F6
100
AcDbEntity
  8
DIM
 62
     0
100
AcDbLine
 10
0.0
 20
0.0
 30
0.0
 11
-1.25
 21
0.0
 31
0.0
  0
LINE
  5
3FB
330
3F6
100
AcDbEntity
  8
DIM
 62
     0
100
AcDbLine
 10
0.0
 20
0.0
 30
0.0
 11
0.0
 21
-1.25
 31
0.0
  0
LINE
  5
3FC
330
3F6
100
AcDbEntity
  8
DIM
 62
     0
100
AcDbLine
 10
0.0
 20
0.0
 30
0.0
 11
1.25
 21
0.0
 31
0.0
  0
LINE
  5
3FD
330
3F6
100
AcDbEntity
  8
DIM
 62
     0
100
AcDbLine
 10
0.0
 20
2.5
 30
0.0
 11
0.0
 21
3.25
 31
0.0
  0
LINE
  5
3FE
330
3F6
100
AcDbEntity
  8
DIM
 62
     0
100
AcDbLine
 10
-2.5
 20
0.0
 30
0.0
 11
-3.25
 21
0.0
 31
0.0
  0
LINE
  5
3FF
330
3F6
100
AcDbEntity
  8
DIM
 62
     0
100
AcDbLine
 10
0.0
 20
-2.5
 30
0.0
 11
0.0
 21
-3.25
 31
0.0
  0
LINE
  5
400
330
3F6
100
AcDbEntity
  8
DIM
 62
     0
100
AcDbLine
 10
2.5
 20
0.0
 30
0.0
 11
3.25
 21
0.0
 31
0.0
  0
ENDBLK
  5
3F8
330
3F6
100
AcDbEntity
  8
0
100
AcDbBlockEnd
  0
BLOCK
  5
403
330
402
100
AcDbEntity
  8
0
100
AcDbBlockBegin
  2
SW_CENTERMARKSYMBOL_18
 70
     0
 10
0.0
 20
0.0
 30
0.0
  3
SW_CENTERMARKSYMBOL_18
  1

  0
LINE
  5
405
330
402
100
AcDbEntity
  8
DIM
 62
     0
100
AcDbLine
 10
0.0
 20
0.0
 30
0.0
 11
0.0
 21
1.25
 31
0.0
  0
LINE
  5
406
330
402
100
AcDbEntity
  8
DIM
 62
     0
100
AcDbLine
 10
0.0
 20
0.0
 30
0.0
 11
-1.25
 21
0.0
 31
0.0
  0
LINE
  5
407
330
402
100
AcDbEntity
  8
DIM
 62
     0
100
AcDbLine
 10
0.0
 20
0.0
 30
0.0
 11
0.0
 21
-1.25
 31
0.0
  0
LINE
  5
408
330
402
100
AcDbEntity
  8
DIM
 62
     0
100
AcDbLine
 10
0.0
 20
0.0
 30
0.0
 11
1.25
 21
0.0
 31
0.0
  0
LINE
  5
409
330
402
100
AcDbEntity
  8
DIM
 62
     0
100
AcDbLine
 10
0.0
 20
2.5
 30
0.0
 11
0.0
 21
3.25
 31
0.0
  0
LINE
  5
40A
330
402
100
AcDbEntity
  8
DIM
 62
     0
100
AcDbLine
 10
-2.5
 20
0.0
 30
0.0
 11
-3.25
 21
0.0
 31
0.0
  0
LINE
  5
40B
330
402
100
AcDbEntity
  8
DIM
 62
     0
100
AcDbLine
 10
0.0
 20
-2.5
 30
0.0
 11
0.0
 21
-3.25
 31
0.0
  0
LINE
  5
40C
330
402
100
AcDbEntity
  8
DIM
 62
     0
100
AcDbLine
 10
2.5
 20
0.0
 30
0.0
 11
3.25
 21
0.0
 31
0.0
  0
ENDBLK
  5
404
330
402
100
AcDbEntity
  8
0
100
AcDbBlockEnd
  0
BLOCK
  5
40F
330
40E
100
AcDbEntity
  8
0
100
AcDbBlockBegin
  2
SW_CENTERMARKSYMBOL_19
 70
     0
 10
0.0
 20
0.0
 30
0.0
  3
SW_CENTERMARKSYMBOL_19
  1

  0
LINE
  5
411
330
40E
100
AcDbEntity
  8
DIM
 62
     0
100
AcDbLine
 10
0.0
 20
0.0
 30
0.0
 11
0.0
 21
1.25
 31
0.0
  0
LINE
  5
412
330
40E
100
AcDbEntity
  8
DIM
 62
     0
100
AcDbLine
 10
0.0
 20
0.0
 30
0.0
 11
-1.25
 21
0.0
 31
0.0
  0
LINE
  5
413
330
40E
100
AcDbEntity
  8
DIM
 62
     0
100
AcDbLine
 10
0.0
 20
0.0
 30
0.0
 11
0.0
 21
-1.25
 31
0.0
  0
LINE
  5
414
330
40E
100
AcDbEntity
  8
DIM
 62
     0
100
AcDbLine
 10
0.0
 20
0.0
 30
0.0
 11
1.25
 21
0.0
 31
0.0
  0
LINE
  5
415
330
40E
100
AcDbEntity
  8
DIM
 62
     0
100
AcDbLine
 10
0.0
 20
2.5
 30
0.0
 11
0.0
 21
3.25
 31
0.0
  0
LINE
  5
416
330
40E
100
AcDbEntity
  8
DIM
 62
     0
100
AcDbLine
 10
-2.5
 20
0.0
 30
0.0
 11
-3.25
 21
0.0
 31
0.0
  0
LINE
  5
417
330
40E
100
AcDbEntity
  8
DIM
 62
     0
100
AcDbLine
 10
0.0
 20
-2.5
 30
0.0
 11
0.0
 21
-3.25
 31
0.0
  0
LINE
  5
418
330
40E
100
AcDbEntity
  8
DIM
 62
     0
100
AcDbLine
 10
2.5
 20
0.0
 30
0.0
 11
3.25
 21
0.0
 31
0.0
  0
ENDBLK
  5
410
330
40E
100
AcDbEntity
  8
0
100
AcDbBlockEnd
  0
BLOCK
  5
41B
330
41A
100
AcDbEntity
  8
0
100
AcDbBlockBegin
  2
SW_DATUMORIGIN_1
 70
     0
 10
0.0
 20
0.0
 30
0.0
  3
SW_DATUMORIGIN_1
  1

  0
CIRCLE
  5
41D
330
41A
100
AcDbEntity
  8
DIM
 62
     0
100
AcDbCircle
 10
0.0
 20
-7.584939943
 30
0.0
 40
0.5000000000000004
  0
CIRCLE
  5
41E
330
41A
100
AcDbEntity
  8
DIM
 62
     0
100
AcDbCircle
 10
-6.8437680855
 20
1.0
 30
0.0
 40
0.5000000000000004
  0
SOLID
  5
41F
330
41A
100
AcDbEntity
  8
DIM
 62
     0
100
AcDbTrace
 10
10.886939943
 20
-7.584939943
 30
0.0
 11
7.584939943
 21
-7.076939943
 31
0.0
 12
7.584939943
 22
-8.092939943
 32
0.0
 13
7.584939943
 23
-8.092939943
 33
0.0
  0
SOLID
  5
420
330
41A
100
AcDbEntity
  8
DIM
 62
     0
100
AcDbTrace
 10
-6.8437680855
 20
11.886939943
 30
0.0
 11
-7.3517680855
 21
8.584939943
 31
0.0
 12
-6.3357680855
 22
8.584939943
 32
0.0
 13
-6.3357680855
 23
8.584939943
 33
0.0
  0
LINE
  5
421
330
41A
100
AcDbEntity
  8
DIM
 62
     0
100
AcDbLine
 10
0.0
 20
0.0
 30
0.0
 11
0.0
 21
-9.584939943
 31
0.0
  0
LINE
  5
422
330
41A
100
AcDbEntity
  8
DIM
 62
     0
100
AcDbLine
 10
0.0
 20
-7.584939943
 30
0.0
 11
7.584939943
 21
-7.584939943
 31
0.0
  0
LINE
  5
423
330
41A
100
AcDbEntity
  8
DIM
 62
     0
100
AcDbLine
 10
-1.0
 20
1.0
 30
0.0
 11
-8.8437680855
 21
1.0
 31
0.0
  0
LINE
  5
424
330
41A
100
AcDbEntity
  8
DIM
 62
     0
100
AcDbLine
 10
-6.8437680855
 20
1.0
 30
0.0
 11
-6.8437680855
 21
8.584939943
 31
0.0
  0
MTEXT
  5
425
330
41A
100
AcDbEntity
  8
DIM
 62
     0
100
AcDbMText
 10
14.9733616532
 20
-6.0147737929
 30
0.0
 40
3.175
 41
0.0
 71
     1
 72
     1
  1
X
  7
SLDTEXTSTYLE0
 73
     1
 44
1.0
  0
MTEXT
  5
426
330
41A
100
AcDbEntity
  8
DIM
 62
     0
100
AcDbMText
 10
-8.0961291931
 20
17.5437902621
 30
0.0
 40
3.175
 41
0.0
 71
     1
 72
     1
  1
Y
  7
SLDTEXTSTYLE0
 73
     1
 44
1.0
  0
MTEXT
  5
427
330
41A
100
AcDbEntity
  8
DIM
 62
     0
100
AcDbMText
 10
-4.7594078245
 20
-6.0145113341
 30
0.0
 40
3.175
 41
0.0
 71
     1
 72
     1
  1
0
  7
SLDTEXTSTYLE0
 73
     1
 44
1.0
  0
MTEXT
  5
428
330
41A
100
AcDbEntity
  8
DIM
 62
     0
100
AcDbMText
 10
-8.0167541999
 20
-1.0159931012
 30
0.0
 40
3.175
 41
0.0
 71
     1
 72
     1
  1
0
  7
SLDTEXTSTYLE0
 73
     1
 44
1.0
  0
ENDBLK
  5
41C
330
41A
100
AcDbEntity
  8
0
100
AcDbBlockEnd
  0
BLOCK
  5
44C
330
44B
100
AcDbEntity
  8
0
100
AcDbBlockBegin
  2
SW_CENTERMARKSYMBOL_20
 70
     0
 10
0.0
 20
0.0
 30
0.0
  3
SW_CENTERMARKSYMBOL_20
  1

  0
LINE
  5
44E
330
44B
100
AcDbEntity
  8
DIM
 62
     0
100
AcDbLine
 10
0.0
 20
0.0
 30
0.0
 11
0.0
 21
1.25
 31
0.0
  0
LINE
  5
44F
330
44B
100
AcDbEntity
  8
DIM
 62
     0
100
AcDbLine
 10
0.0
 20
0.0
 30
0.0
 11
-1.25
 21
0.0
 31
0.0
  0
LINE
  5
450
330
44B
100
AcDbEntity
  8
DIM
 62
     0
100
AcDbLine
 10
0.0
 20
0.0
 30
0.0
 11
0.0
 21
-1.25
 31
0.0
  0
LINE
  5
451
330
44B
100
AcDbEntity
  8
DIM
 62
     0
100
AcDbLine
 10
0.0
 20
0.0
 30
0.0
 11
1.25
 21
0.0
 31
0.0
  0
LINE
  5
452
330
44B
100
AcDbEntity
  8
DIM
 62
     0
100
AcDbLine
 10
0.0
 20
2.5
 30
0.0
 11
0.0
 21
6.25
 31
0.0
  0
LINE
  5
453
330
44B
100
AcDbEntity
  8
DIM
 62
     0
100
AcDbLine
 10
-2.5
 20
0.0
 30
0.0
 11
-6.25
 21
0.0
 31
0.0
  0
LINE
  5
454
330
44B
100
AcDbEntity
  8
DIM
 62
     0
100
AcDbLine
 10
0.0
 20
-2.5
 30
0.0
 11
0.0
 21
-6.25
 31
0.0
  0
LINE
  5
455
330
44B
100
AcDbEntity
  8
DIM
 62
     0
100
AcDbLine
 10
2.5
 20
0.0
 30
0.0
 11
6.25
 21
0.0
 31
0.0
  0
ENDBLK
  5
44D
330
44B
100
AcDbEntity
  8
0
100
AcDbBlockEnd
  0
BLOCK
  5
458
330
457
100
AcDbEntity
  8
0
100
AcDbBlockBegin
  2
SW_CENTERMARKSYMBOL_21
 70
     0
 10
0.0
 20
0.0
 30
0.0
  3
SW_CENTERMARKSYMBOL_21
  1

  0
LINE
  5
45A
330
457
100
AcDbEntity
  8
DIM
 62
     0
100
AcDbLine
 10
0.0
 20
0.0
 30
0.0
 11
0.0
 21
1.25
 31
0.0
  0
LINE
  5
45B
330
457
100
AcDbEntity
  8
DIM
 62
     0
100
AcDbLine
 10
0.0
 20
0.0
 30
0.0
 11
-1.25
 21
0.0
 31
0.0
  0
LINE
  5
45C
330
457
100
AcDbEntity
  8
DIM
 62
     0
100
AcDbLine
 10
0.0
 20
0.0
 30
0.0
 11
0.0
 21
-1.25
 31
0.0
  0
LINE
  5
45D
330
457
100
AcDbEntity
  8
DIM
 62
     0
100
AcDbLine
 10
0.0
 20
0.0
 30
0.0
 11
1.25
 21
0.0
 31
0.0
  0
LINE
  5
45E
330
457
100
AcDbEntity
  8
DIM
 62
     0
100
AcDbLine
 10
0.0
 20
2.5
 30
0.0
 11
0.0
 21
3.25
 31
0.0
  0
LINE
  5
45F
330
457
100
AcDbEntity
  8
DIM
 62
     0
100
AcDbLine
 10
-2.5
 20
0.0
 30
0.0
 11
-3.25
 21
0.0
 31
0.0
  0
LINE
  5
460
330
457
100
AcDbEntity
  8
DIM
 62
     0
100
AcDbLine
 10
0.0
 20
-2.5
 30
0.0
 11
0.0
 21
-3.25
 31
0.0
  0
LINE
  5
461
330
457
100
AcDbEntity
  8
DIM
 62
     0
100
AcDbLine
 10
2.5
 20
0.0
 30
0.0
 11
3.25
 21
0.0
 31
0.0
  0
ENDBLK
  5
459
330
457
100
AcDbEntity
  8
0
100
AcDbBlockEnd
  0
BLOCK
  5
464
330
463
100
AcDbEntity
  8
0
100
AcDbBlockBegin
  2
SW_CENTERMARKSYMBOL_22
 70
     0
 10
0.0
 20
0.0
 30
0.0
  3
SW_CENTERMARKSYMBOL_22
  1

  0
LINE
  5
466
330
463
100
AcDbEntity
  8
DIM
 62
     0
100
AcDbLine
 10
0.0
 20
0.0
 30
0.0
 11
0.0
 21
1.25
 31
0.0
  0
LINE
  5
467
330
463
100
AcDbEntity
  8
DIM
 62
     0
100
AcDbLine
 10
0.0
 20
0.0
 30
0.0
 11
-1.25
 21
0.0
 31
0.0
  0
LINE
  5
468
330
463
100
AcDbEntity
  8
DIM
 62
     0
100
AcDbLine
 10
0.0
 20
0.0
 30
0.0
 11
0.0
 21
-1.25
 31
0.0
  0
LINE
  5
469
330
463
100
AcDbEntity
  8
DIM
 62
     0
100
AcDbLine
 10
0.0
 20
0.0
 30
0.0
 11
1.25
 21
0.0
 31
0.0
  0
LINE
  5
46A
330
463
100
AcDbEntity
  8
DIM
 62
     0
100
AcDbLine
 10
0.0
 20
2.5
 30
0.0
 11
0.0
 21
3.25
 31
0.0
  0
LINE
  5
46B
330
463
100
AcDbEntity
  8
DIM
 62
     0
100
AcDbLine
 10
-2.5
 20
0.0
 30
0.0
 11
-3.25
 21
0.0
 31
0.0
  0
LINE
  5
46C
330
463
100
AcDbEntity
  8
DIM
 62
     0
100
AcDbLine
 10
0.0
 20
-2.5
 30
0.0
 11
0.0
 21
-3.25
 31
0.0
  0
LINE
  5
46D
330
463
100
AcDbEntity
  8
DIM
 62
     0
100
AcDbLine
 10
2.5
 20
0.0
 30
0.0
 11
3.25
 21
0.0
 31
0.0
  0
ENDBLK
  5
465
330
463
100
AcDbEntity
  8
0
100
AcDbBlockEnd
  0
BLOCK
  5
470
330
46F
100
AcDbEntity
  8
0
100
AcDbBlockBegin
  2
SW_CENTERMARKSYMBOL_23
 70
     0
 10
0.0
 20
0.0
 30
0.0
  3
SW_CENTERMARKSYMBOL_23
  1

  0
LINE
  5
472
330
46F
100
AcDbEntity
  8
DIM
 62
     0
100
AcDbLine
 10
0.0
 20
0.0
 30
0.0
 11
0.0
 21
1.25
 31
0.0
  0
LINE
  5
473
330
46F
100
AcDbEntity
  8
DIM
 62
     0
100
AcDbLine
 10
0.0
 20
0.0
 30
0.0
 11
-1.25
 21
0.0
 31
0.0
  0
LINE
  5
474
330
46F
100
AcDbEntity
  8
DIM
 62
     0
100
AcDbLine
 10
0.0
 20
0.0
 30
0.0
 11
0.0
 21
-1.25
 31
0.0
  0
LINE
  5
475
330
46F
100
AcDbEntity
  8
DIM
 62
     0
100
AcDbLine
 10
0.0
 20
0.0
 30
0.0
 11
1.25
 21
0.0
 31
0.0
  0
LINE
  5
476
330
46F
100
AcDbEntity
  8
DIM
 62
     0
100
AcDbLine
 10
0.0
 20
2.5
 30
0.0
 11
0.0
 21
3.25
 31
0.0
  0
LINE
  5
477
330
46F
100
AcDbEntity
  8
DIM
 62
     0
100
AcDbLine
 10
-2.5
 20
0.0
 30
0.0
 11
-3.25
 21
0.0
 31
0.0
  0
LINE
  5
478
330
46F
100
AcDbEntity
  8
DIM
 62
     0
100
AcDbLine
 10
0.0
 20
-2.5
 30
0.0
 11
0.0
 21
-3.25
 31
0.0
  0
LINE
  5
479
330
46F
100
AcDbEntity
  8
DIM
 62
     0
100
AcDbLine
 10
2.5
 20
0.0
 30
0.0
 11
3.25
 21
0.0
 31
0.0
  0
ENDBLK
  5
471
330
46F
100
AcDbEntity
  8
0
100
AcDbBlockEnd
  0
BLOCK
  5
47C
330
47B
100
AcDbEntity
  8
0
100
AcDbBlockBegin
  2
SW_CENTERMARKSYMBOL_24
 70
     0
 10
0.0
 20
0.0
 30
0.0
  3
SW_CENTERMARKSYMBOL_24
  1

  0
LINE
  5
47E
330
47B
100
AcDbEntity
  8
DIM
 62
     0
100
AcDbLine
 10
0.0
 20
0.0
 30
0.0
 11
0.0
 21
1.25
 31
0.0
  0
LINE
  5
47F
330
47B
100
AcDbEntity
  8
DIM
 62
     0
100
AcDbLine
 10
0.0
 20
0.0
 30
0.0
 11
-1.25
 21
0.0
 31
0.0
  0
LINE
  5
480
330
47B
100
AcDbEntity
  8
DIM
 62
     0
100
AcDbLine
 10
0.0
 20
0.0
 30
0.0
 11
0.0
 21
-1.25
 31
0.0
  0
LINE
  5
481
330
47B
100
AcDbEntity
  8
DIM
 62
     0
100
AcDbLine
 10
0.0
 20
0.0
 30
0.0
 11
1.25
 21
0.0
 31
0.0
  0
LINE
  5
482
330
47B
100
AcDbEntity
  8
DIM
 62
     0
100
AcDbLine
 10
0.0
 20
2.5
 30
0.0
 11
0.0
 21
3.25
 31
0.0
  0
LINE
  5
483
330
47B
100
AcDbEntity
  8
DIM
 62
     0
100
AcDbLine
 10
-2.5
 20
0.0
 30
0.0
 11
-3.25
 21
0.0
 31
0.0
  0
LINE
  5
484
330
47B
100
AcDbEntity
  8
DIM
 62
     0
100
AcDbLine
 10
0.0
 20
-2.5
 30
0.0
 11
0.0
 21
-3.25
 31
0.0
  0
LINE
  5
485
330
47B
100
AcDbEntity
  8
DIM
 62
     0
100
AcDbLine
 10
2.5
 20
0.0
 30
0.0
 11
3.25
 21
0.0
 31
0.0
  0
ENDBLK
  5
47D
330
47B
100
AcDbEntity
  8
0
100
AcDbBlockEnd
  0
BLOCK
  5
488
330
487
100
AcDbEntity
  8
0
100
AcDbBlockBegin
  2
SW_CENTERMARKSYMBOL_25
 70
     0
 10
0.0
 20
0.0
 30
0.0
  3
SW_CENTERMARKSYMBOL_25
  1

  0
LINE
  5
48A
330
487
100
AcDbEntity
  8
DIM
 62
     0
100
AcDbLine
 10
0.0
 20
0.0
 30
0.0
 11
0.0
 21
1.25
 31
0.0
  0
LINE
  5
48B
330
487
100
AcDbEntity
  8
DIM
 62
     0
100
AcDbLine
 10
0.0
 20
0.0
 30
0.0
 11
-1.25
 21
0.0
 31
0.0
  0
LINE
  5
48C
330
487
100
AcDbEntity
  8
DIM
 62
     0
100
AcDbLine
 10
0.0
 20
0.0
 30
0.0
 11
0.0
 21
-1.25
 31
0.0
  0
LINE
  5
48D
330
487
100
AcDbEntity
  8
DIM
 62
     0
100
AcDbLine
 10
0.0
 20
0.0
 30
0.0
 11
1.25
 21
0.0
 31
0.0
  0
LINE
  5
48E
330
487
100
AcDbEntity
  8
DIM
 62
     0
100
AcDbLine
 10
0.0
 20
2.5
 30
0.0
 11
0.0
 21
3.25
 31
0.0
  0
LINE
  5
48F
330
487
100
AcDbEntity
  8
DIM
 62
     0
100
AcDbLine
 10
-2.5
 20
0.0
 30
0.0
 11
-3.25
 21
0.0
 31
0.0
  0
LINE
  5
490
330
487
100
AcDbEntity
  8
DIM
 62
     0
100
AcDbLine
 10
0.0
 20
-2.5
 30
0.0
 11
0.0
 21
-3.25
 31
0.0
  0
LINE
  5
491
330
487
100
AcDbEntity
  8
DIM
 62
     0
100
AcDbLine
 10
2.5
 20
0.0
 30
0.0
 11
3.25
 21
0.0
 31
0.0
  0
ENDBLK
  5
489
330
487
100
AcDbEntity
  8
0
100
AcDbBlockEnd
  0
ENDSEC
  0
SECTION
  2
ENTITIES
  0
LINE
  5
B5
330
1F
100
AcDbEntity
  8
PAGE_BORDER
100
AcDbLine
 10
163.699572883
 20
123.0625587484
 30
0.0
 11
6.35
 21
123.0625587484
 31
0.0
  0
LINE
  5
B6
330
1F
100
AcDbEntity
  8
PAGE_BORDER
100
AcDbLine
 10
163.699572883
 20
123.0625587484
 30
0.0
 11
163.699572883
 21
209.55
 31
0.0
  0
LINE
  5
B7
330
1F
100
AcDbEntity
  8
PAGE_BORDER
100
AcDbLine
 10
163.699572883
 20
209.55
 30
0.0
 11
6.35
 21
209.55
 31
0.0
  0
LINE
  5
B8
330
1F
100
AcDbEntity
  8
PAGE_BORDER
100
AcDbLine
 10
6.35
 20
123.0625587484
 30
0.0
 11
6.35
 21
209.55
 31
0.0
  0
LINE
  5
B9
330
1F
100
AcDbEntity
  8
PAGE_BORDER
100
AcDbLine
 10
6.35
 20
123.0625587484
 30
0.0
 11
163.6700563006
 21
123.0625587484
 31
0.0
  0
LINE
  5
BA
330
1F
100
AcDbEntity
  8
PAGE_BORDER
100
AcDbLine
 10
6.35
 20
123.0625587484
 30
0.0
 11
6.35
 21
30.8092780819
 31
0.0
  0
LINE
  5
BB
330
1F
100
AcDbEntity
  8
PAGE_BORDER
100
AcDbLine
 10
6.35
 20
30.8092780819
 30
0.0
 11
163.6700563006
 21
30.8092780819
 31
0.0
  0
LINE
  5
BC
330
1F
100
AcDbEntity
  8
PAGE_BORDER
100
AcDbLine
 10
163.6700563006
 20
123.0625587484
 30
0.0
 11
163.6700563006
 21
30.8092780819
 31
0.0
  0
LINE
  5
BD
330
1F
100
AcDbEntity
  8
PAGE_BORDER
100
AcDbLine
 10
163.6700563006
 20
123.0625587484
 30
0.0
 11
272.8414507398
 21
123.0625587484
 31
0.0
  0
LINE
  5
BE
330
1F
100
AcDbEntity
  8
PAGE_BORDER
100
AcDbLine
 10
163.6700563006
 20
123.0625587484
 30
0.0
 11
163.6700563006
 21
30.8092780819
 31
0.0
  0
LINE
  5
BF
330
1F
100
AcDbEntity
  8
PAGE_BORDER
100
AcDbLine
 10
163.6700563006
 20
30.8092780819
 30
0.0
 11
272.8414507398
 21
30.8092780819
 31
0.0
  0
LINE
  5
C0
330
1F
100
AcDbEntity
  8
PAGE_BORDER
100
AcDbLine
 10
272.8414507398
 20
123.0625587484
 30
0.0
 11
272.8414507398
 21
30.8092780819
 31
0.0
  0
LINE
  5
C1
330
1F
100
AcDbEntity
  8
PAGE_BORDER
370
    35
100
AcDbLine
 10
6.35
 20
209.55
 30
0.0
 11
273.05
 21
209.55
 31
0.0
  0
LINE
  5
C2
330
1F
100
AcDbEntity
  8
0
  6
Continuous
 62
     7
370
    50
100
AcDbLine
 10
0.0
 20
0.0
 30
0.0
 11
279.4
 21
0.0
 31
0.0
  0
LINE
  5
C3
330
1F
100
AcDbEntity
  8
0
  6
Continuous
 62
     7
370
    50
100
AcDbLine
 10
0.0
 20
0.0
 30
0.0
 11
0.0
 21
215.9
 31
0.0
  0
LINE
  5
C4
330
1F
100
AcDbEntity
  8
0
  6
Continuous
 62
     7
370
    50
100
AcDbLine
 10
0.0
 20
215.9
 30
0.0
 11
279.4
 21
215.9
 31
0.0
  0
LINE
  5
C5
330
1F
100
AcDbEntity
  8
0
  6
Continuous
 62
     7
370
    50
100
AcDbLine
 10
279.4
 20
0.0
 30
0.0
 11
279.4
 21
215.9
 31
0.0
  0
LINE
  5
C6
330
1F
100
AcDbEntity
  8
PAGE_BORDER
370
    35
100
AcDbLine
 10
6.35
 20
6.35
 30
0.0
 11
273.05
 21
6.35
 31
0.0
  0
LINE
  5
C7
330
1F
100
AcDbEntity
  8
PAGE_BORDER
370
    35
100
AcDbLine
 10
273.05
 20
209.55
 30
0.0
 11
273.05
 21
6.35
 31
0.0
  0
LINE
  5
C8
330
1F
100
AcDbEntity
  8
PAGE_BORDER
370
    35
100
AcDbLine
 10
6.35
 20
6.35
 30
0.0
 11
6.35
 21
209.55
 31
0.0
  0
LINE
  5
C9
330
1F
100
AcDbEntity
  8
TITLE_BLOCK_BORDER
370
    50
100
AcDbLine
 10
273.05
 20
24.7327297853
 30
0.0
 11
166.1797118536
 21
24.7327297853
 31
0.0
  0
LINE
  5
CA
330
1F
100
AcDbEntity
  8
TITLE_BLOCK_BORDER
370
    50
100
AcDbLine
 10
273.05
 20
30.7079320672
 30
0.0
 11
273.05
 21
6.35
 31
0.0
  0
LINE
  5
CB
330
1F
100
AcDbEntity
  8
TITLE_BLOCK_BORDER
370
    50
100
AcDbLine
 10
166.3596486342
 20
12.8389822917
 30
0.0
 11
273.05
 21
12.8389822917
 31
0.0
  0
LINE
  5
CC
330
1F
100
AcDbEntity
  8
TITLE_BLOCK_BORDER
370
    50
100
AcDbLine
 10
166.1797118536
 20
6.35
 30
0.0
 11
273.05
 21
6.35
 31
0.0
  0
LINE
  5
CD
330
1F
100
AcDbEntity
  8
TITLE_BLOCK_BORDER
370
    50
100
AcDbLine
 10
219.7048243171
 20
12.8389822917
 30
0.0
 11
219.6148559268
 21
6.35
 31
0.0
  0
LINE
  5
CE
330
1F
100
AcDbEntity
  8
TITLE_BLOCK_BORDER
370
    50
100
AcDbLine
 10
185.2379608383
 20
30.7079320672
 30
0.0
 11
185.2379608383
 21
24.7778494384
 31
0.0
  0
LINE
  5
CF
330
1F
100
AcDbEntity
  8
TITLE_BLOCK_BORDER
370
    50
100
AcDbLine
 10
273.05
 20
18.5181435496
 30
0.0
 11
166.1797118536
 21
18.5181435496
 31
0.0
  0
LINE
  5
D0
330
1F
100
AcDbEntity
  8
TITLE_BLOCK_BORDER
370
    50
100
AcDbLine
 10
166.1797118536
 20
6.35
 30
0.0
 11
123.0873463833
 21
6.35
 31
0.0
  0
LINE
  5
D1
330
1F
100
AcDbEntity
  8
TITLE_BLOCK_BORDER
370
    50
100
AcDbLine
 10
231.1258436229
 20
30.7079320672
 30
0.0
 11
231.1258436229
 21
6.35
 31
0.0
  0
LINE
  5
D2
330
1F
100
AcDbEntity
  8
TITLE_BLOCK_BORDER
370
    50
100
AcDbLine
 10
245.0295122118
 20
30.7079320672
 30
0.0
 11
245.0295122118
 21
12.8389822917
 31
0.0
  0
LINE
  5
D3
330
1F
100
AcDbEntity
  8
TITLE_BLOCK_BORDER
370
    50
100
AcDbLine
 10
166.1797118536
 20
30.7079320672
 30
0.0
 11
166.1797118536
 21
6.35
 31
0.0
  0
LINE
  5
D4
330
1F
100
AcDbEntity
  8
TITLE_BLOCK_BORDER
370
    50
100
AcDbLine
 10
273.05
 20
30.7079320672
 30
0.0
 11
166.1797118536
 21
30.7079320672
 31
0.0
  0
LINE
  5
D5
330
1F
100
AcDbEntity
  8
TITLE_BLOCK_BORDER
370
    50
100
AcDbLine
 10
123.0873463833
 20
30.7079320672
 30
0.0
 11
123.0873463833
 21
6.35
 31
0.0
  0
LINE
  5
D6
330
1F
100
AcDbEntity
  8
TITLE_BLOCK_BORDER
370
    50
100
AcDbLine
 10
166.1797118536
 20
30.7079320672
 30
0.0
 11
123.0873463833
 21
30.7079320672
 31
0.0
  0
LINE
  5
D7
330
1F
100
AcDbEntity
  8
TITLE_BLOCK_BORDER
370
    50
100
AcDbLine
 10
199.1604682989
 20
24.7327297853
 30
0.0
 11
199.1604682989
 21
12.8389822917
 31
0.0
  0
LINE
  5
D8
330
1F
100
AcDbEntity
  8
TITLE_BLOCK_BORDER
370
    50
100
AcDbLine
 10
177.6056946901
 20
24.7327297853
 30
0.0
 11
177.6056946901
 21
6.35
 31
0.0
  0
LINE
  5
D9
330
1F
100
AcDbEntity
  8
TITLE_BLOCK_BORDER
370
    50
100
AcDbLine
 10
210.6379608383
 20
24.7327297853
 30
0.0
 11
210.6379608383
 21
12.8389822917
 31
0.0
  0
INSERT
  5
DA
330
1F
100
AcDbEntity
  8
TITLE_BLOCK_BORDER
100
AcDbBlockReference
  2
Lien3D Logo
 10
132.4320851816
 20
8.9974660089
 30
0.0
 41
1.2
 42
1.2
 43
1.2
  0
INSERT
  5
E1
330
1F
100
AcDbEntity
  8
DIM
100
AcDbBlockReference
  2
SW_NOTE_0
 10
9.4333701966
 20
128.9785625763
 30
0.0
  0
INSERT
  5
E7
330
1F
100
AcDbEntity
  8
DIM
100
AcDbBlockReference
  2
SW_NOTE_1
 10
9.4333701966
 20
39.0972845519
 30
0.0
  0
INSERT
  5
ED
330
1F
100
AcDbEntity
  8
DIM
100
AcDbBlockReference
  2
SW_NOTE_2
 10
169.3335778023
 20
39.0972847847
 30
0.0
  0
INSERT
  5
F3
330
1F
100
AcDbEntity
  8
DIM
100
AcDbBlockReference
  2
SW_NOTE_3
 10
169.2146774081
 20
128.9785628091
 30
0.0
  0
MTEXT
  5
F4
330
1F
100
AcDbEntity
  8
TITLE_BLOCK_TEXT
100
AcDbMText
 10
207.3647202637
 20
29.6163377977
 30
0.0
 40
3.175
 41
0.0
 71
     2
 72
     1
  1
Y Axis Endplates
  7
SLDTEXTSTYLE0
 73
     1
 44
1.0
  0
MTEXT
  5
F5
330
1F
100
AcDbEntity
  8
TITLE_BLOCK_TEXT
100
AcDbMText
 10
258.9855695724
 20
29.6163377977
 30
0.0
 40
3.175
 41
0.0
 71
     2
 72
     1
  1
LCNC_YE
  7
SLDTEXTSTYLE0
 73
     1
 44
1.0
  0
MTEXT
  5
F6
330
1F
100
AcDbEntity
  8
TITLE_BLOCK_TEXT
100
AcDbMText
 10
258.8676106021
 20
23.5121329848
 30
0.0
 40
3.175
 41
0.0
 71
     2
 72
     1
  1
06-28-2021
  7
SLDTEXTSTYLE0
 73
     1
 44
1.0
  0
MTEXT
  5
F7
330
1F
100
AcDbEntity
  8
TITLE_BLOCK_TEXT
100
AcDbMText
 10
259.0311369482
 20
17.4079281719
 30
0.0
 40
3.175
 41
0.0
 71
     2
 72
     1
  1
R00
  7
SLDTEXTSTYLE0
 73
     1
 44
1.0
  0
MTEXT
  5
F8
330
1F
100
AcDbEntity
  8
TITLE_BLOCK_TEXT
100
AcDbMText
 10
187.1823690804
 20
17.4079281719
 30
0.0
 40
3.175
 41
0.0
 71
     2
 72
     1
  1
ECL
  7
SLDTEXTSTYLE0
 73
     1
 44
1.0
  0
MTEXT
  5
F9
330
1F
100
AcDbEntity
  8
TITLE_BLOCK_TEXT
100
AcDbMText
 10
220.3803600487
 20
17.4079281719
 30
0.0
 40
3.175
 41
0.0
 71
     2
 72
     1
  1
mm
  7
SLDTEXTSTYLE0
 73
     1
 44
1.0
  0
MTEXT
  5
FA
330
1F
100
AcDbEntity
  8
TITLE_BLOCK_TEXT
100
AcDbMText
 10
198.2916050425
 20
11.3037233589
 30
0.0
 40
3.175
 41
0.0
 71
     2
 72
     1
  1
1/2" ATP-5 AL
  7
SLDTEXTSTYLE0
 73
     1
 44
1.0
  0
MTEXT
  5
FB
330
1F
100
AcDbEntity
  8
TITLE_BLOCK_TEXT
100
AcDbMText
 10
252.1998129597
 20
11.3037233589
 30
0.0
 40
3.175
 41
0.0
 71
     2
 72
     1
  1
NA
  7
SLDTEXTSTYLE0
 73
     1
 44
1.0
  0
MTEXT
  5
FC
330
1F
100
AcDbEntity
  8
TITLE_BLOCK_TEXT
100
AcDbMText
 10
232.1641238021
 20
28.7457458086
 30
0.0
 40
1.5
 41
0.0
 71
     1
 72
     1
  1
DRAWING #:
  7
SLDTEXTSTYLE0
 73
     1
 44
1.0
  0
MTEXT
  5
FD
330
1F
100
AcDbEntity
  8
TITLE_BLOCK_TEXT
100
AcDbMText
 10
167.0419216099
 20
28.7409279551
 30
0.0
 40
1.5
 41
0.0
 71
     1
 72
     1
  1
DRAWING NAME:
  7
SLDTEXTSTYLE0
 73
     1
 44
1.0
  0
MTEXT
  5
FE
330
1F
100
AcDbEntity
  8
TITLE_BLOCK_TEXT
100
AcDbMText
 10
232.4174845894
 20
22.3605363923
 30
0.0
 40
1.5
 41
0.0
 71
     1
 72
     1
  1
DATE:
  7
SLDTEXTSTYLE0
 73
     1
 44
1.0
  0
MTEXT
  5
FF
330
1F
100
AcDbEntity
  8
TITLE_BLOCK_TEXT
100
AcDbMText
 10
232.1641238021
 20
16.1110682204
 30
0.0
 40
1.5
 41
0.0
 71
     1
 72
     1
  1
REVISION:
  7
SLDTEXTSTYLE0
 73
     1
 44
1.0
  0
MTEXT
  5
100
330
1F
100
AcDbEntity
  8
TITLE_BLOCK_TEXT
100
AcDbMText
 10
167.4667096264
 20
22.3605363923
 30
0.0
 40
1.5
 41
0.0
 71
     1
 72
     1
  1
SCALE:
  7
SLDTEXTSTYLE0
 73
     1
 44
1.0
  0
MTEXT
  5
101
330
1F
100
AcDbEntity
  8
TITLE_BLOCK_TEXT
100
AcDbMText
 10
167.343850922
 20
16.5910810231
 30
0.0
 40
1.5
 41
0.0
 71
     1
 72
     1
  1
DRAWN:
  7
SLDTEXTSTYLE0
 73
     1
 44
1.0
  0
MTEXT
  5
102
330
1F
100
AcDbEntity
  8
TITLE_BLOCK_TEXT
100
AcDbMText
 10
200.0082621128
 20
16.5910810231
 30
0.0
 40
1.5
 41
0.0
 71
     1
 72
     1
  1
DIM UNITS:
  7
SLDTEXTSTYLE0
 73
     1
 44
1.0
  0
MTEXT
  5
103
330
1F
100
AcDbEntity
  8
TITLE_BLOCK_TEXT
100
AcDbMText
 10
200.0125587695
 20
22.3605363923
 30
0.0
 40
1.5
 41
0.0
 71
     1
 72
     1
  1
SHEET SIZE:
  7
SLDTEXTSTYLE0
 73
     1
 44
1.0
  0
MTEXT
  5
104
330
1F
100
AcDbEntity
  8
TITLE_BLOCK_TEXT
100
AcDbMText
 10
167.1307478371
 20
10.3416128512
 30
0.0
 40
1.5
 41
0.0
 71
     1
 72
     1
  1
MATERIAL:
  7
SLDTEXTSTYLE0
 73
     1
 44
1.0
  0
MTEXT
  5
105
330
1F
100
AcDbEntity
  8
TITLE_BLOCK_TEXT
100
AcDbMText
 10
222.244722813
 20
10.3416128512
 30
0.0
 40
1.5
 41
0.0
 71
     1
 72
     1
  1
FINISH:
  7
SLDTEXTSTYLE0
 73
     1
 44
1.0
  0
MTEXT
  5
106
330
1F
100
AcDbEntity
  8
TITLE_BLOCK_TEXT
100
AcDbMText
 10
187.9792433998
 20
23.4756891017
 30
0.0
 40
3.4395833333
 41
0.0
 71
     2
 72
     1
  1
1:2
  7
SLDTEXTSTYLE0
 73
     1
 44
1.0
  0
MTEXT
  5
108
330
1F
100
AcDbEntity
  8
TITLE_BLOCK_TEXT
100
AcDbMText
 10
221.4628897315
 20
23.4756892181
 30
0.0
 40
3.4395833333
 41
0.0
 71
     2
 72
     1
  1
8.5" x 11"
  7
SLDTEXTSTYLE1
 73
     1
 44
1.0
  0
INSERT
  5
169
330
1F
100
AcDbEntity
  8
PAGE_BORDER
100
AcDbBlockReference
  2
SW_TABLEANNOTATION_0
 10
6.35
 20
209.4394308313
 30
0.0
  0
INSERT
  5
1B6
330
1F
100
AcDbEntity
  8
PAGE_BORDER
100
AcDbBlockReference
  2
SW_TABLEANNOTATION_1
 10
6.35
 20
123.0662462852
 30
0.0
  0
CIRCLE
  5
1B7
330
1F
100
AcDbEntity
  8
0
  6
Continuous
 62
     7
370
    25
100
AcDbCircle
 10
147.4216751244
 20
154.9094773701
 30
0.0
 40
1.049999999999983
  0
CIRCLE
  5
1B8
330
1F
100
AcDbEntity
  8
0
  6
Continuous
 62
     7
370
    25
100
AcDbCircle
 10
134.9216751244
 20
167.4094773701
 30
0.0
 40
9.637500000000003
  0
ARC
  5
1B9
330
1F
100
AcDbEntity
  8
0
  6
Continuous
 62
     7
370
    25
100
AcDbCircle
 10
143.2185958604
 20
127.4094773701
 30
0.0
 40
25.00000000000008
100
AcDbArc
 50
90.0
 51
125.0
  0
LINE
  5
1BA
330
1F
100
AcDbEntity
  8
0
  6
Continuous
 62
     7
370
    25
100
AcDbLine
 10
123.4877340335
 20
144.1131439025
 30
0.0
 11
128.8791849516
 21
147.8882784773
 31
0.0
  0
ARC
  5
1BB
330
1F
100
AcDbEntity
  8
0
  6
Continuous
 62
     7
370
    25
100
AcDbCircle
 10
124.9216751244
 20
142.0652637918
 30
0.0
 40
2.499999999999978
100
AcDbArc
 50
125.0
 51
180.0
  0
LINE
  5
1BC
330
1F
100
AcDbEntity
  8
0
  6
Continuous
 62
     7
370
    25
100
AcDbLine
 10
122.4216751244
 20
139.0344773701
 30
0.0
 11
122.4216751244
 21
142.0652637918
 31
0.0
  0
ARC
  5
1BD
330
1F
100
AcDbEntity
  8
0
  6
Continuous
 62
     7
370
    25
100
AcDbCircle
 10
120.7966751244
 20
139.0344773701
 30
0.0
 40
1.625000000000185
100
AcDbArc
 50
270.0
 51
0.0
  0
LINE
  5
1BE
330
1F
100
AcDbEntity
  8
0
  6
Continuous
 62
     7
370
    25
100
AcDbLine
 10
84.0466751244
 20
137.4094773701
 30
0.0
 11
120.7966751244
 21
137.4094773701
 31
0.0
  0
ARC
  5
1BF
330
1F
100
AcDbEntity
  8
0
  6
Continuous
 62
     7
370
    25
100
AcDbCircle
 10
84.0466751244
 20
139.0344773701
 30
0.0
 40
1.625000000000043
100
AcDbArc
 50
180.0
 51
270.0
  0
LINE
  5
1C0
330
1F
100
AcDbEntity
  8
0
  6
Continuous
 62
     7
370
    25
100
AcDbLine
 10
82.4216751244
 20
175.7844773701
 30
0.0
 11
82.4216751244
 21
139.0344773701
 31
0.0
  0
ARC
  5
1C1
330
1F
100
AcDbEntity
  8
0
  6
Continuous
 62
     7
370
    25
100
AcDbCircle
 10
84.0466751244
 20
175.7844773701
 30
0.0
 40
1.624999999999829
100
AcDbArc
 50
90.0
 51
180.0
  0
LINE
  5
1C2
330
1F
100
AcDbEntity
  8
0
  6
Continuous
 62
     7
370
    25
100
AcDbLine
 10
102.4216751244
 20
177.4094773701
 30
0.0
 11
84.0466751244
 21
177.4094773701
 31
0.0
  0
LINE
  5
1C3
330
1F
100
AcDbEntity
  8
0
  6
Continuous
 62
     7
370
    25
100
AcDbLine
 10
102.4216751244
 20
195.7844773701
 30
0.0
 11
102.4216751244
 21
177.4094773701
 31
0.0
  0
ARC
  5
1C4
330
1F
100
AcDbEntity
  8
0
  6
Continuous
 62
     7
370
    25
100
AcDbCircle
 10
104.0466751244
 20
195.7844773701
 30
0.0
 40
1.625000000000156
100
AcDbArc
 50
90.0
 51
180.0
  0
LINE
  5
1C5
330
1F
100
AcDbEntity
  8
0
  6
Continuous
 62
     7
370
    25
100
AcDbLine
 10
120.7966751244
 20
197.4094773701
 30
0.0
 11
104.0466751244
 21
197.4094773701
 31
0.0
  0
ARC
  5
1C6
330
1F
100
AcDbEntity
  8
0
  6
Continuous
 62
     7
370
    25
100
AcDbCircle
 10
120.7966751244
 20
195.7844773701
 30
0.0
 40
1.625000000000298
100
AcDbArc
 50
0.0
 51
90.0
  0
LINE
  5
1C7
330
1F
100
AcDbEntity
  8
0
  6
Continuous
 62
     7
370
    25
100
AcDbLine
 10
122.4216751244
 20
192.7536909483
 30
0.0
 11
122.4216751244
 21
195.7844773701
 31
0.0
  0
ARC
  5
1C8
330
1F
100
AcDbEntity
  8
0
  6
Continuous
 62
     7
370
    25
100
AcDbCircle
 10
124.9216751244
 20
192.7536909483
 30
0.0
 40
2.500000000000069
100
AcDbArc
 50
180.0
 51
235.0
  0
LINE
  5
1C9
330
1F
100
AcDbEntity
  8
0
  6
Continuous
 62
     7
370
    25
100
AcDbLine
 10
128.8791849516
 20
186.9306762628
 30
0.0
 11
123.4877340335
 21
190.7058108376
 31
0.0
  0
ARC
  5
1CA
330
1F
100
AcDbEntity
  8
0
  6
Continuous
 62
     7
370
    25
100
AcDbCircle
 10
143.2185958604
 20
207.4094773701
 30
0.0
 40
25.00000000000015
100
AcDbArc
 50
235.0
 51
270.0
  0
LINE
  5
1CB
330
1F
100
AcDbEntity
  8
0
  6
Continuous
 62
     7
370
    25
100
AcDbLine
 10
143.2185958604
 20
182.4094773701
 30
0.0
 11
147.9216751244
 21
182.4094773701
 31
0.0
  0
ARC
  5
1CC
330
1F
100
AcDbEntity
  8
0
  6
Continuous
 62
     7
370
    25
100
AcDbCircle
 10
147.9216751244
 20
180.4094773701
 30
0.0
 40
2.000000000000114
100
AcDbArc
 50
0.0
 51
90.0
  0
LINE
  5
1CD
330
1F
100
AcDbEntity
  8
0
  6
Continuous
 62
     7
370
    25
100
AcDbLine
 10
149.9216751244
 20
180.4094773701
 30
0.0
 11
149.9216751244
 21
154.4094773701
 31
0.0
  0
ARC
  5
1CE
330
1F
100
AcDbEntity
  8
0
  6
Continuous
 62
     7
370
    25
100
AcDbCircle
 10
147.9216751244
 20
154.4094773701
 30
0.0
 40
2.000000000000085
100
AcDbArc
 50
270.0
 51
0.0
  0
LINE
  5
1CF
330
1F
100
AcDbEntity
  8
0
  6
Continuous
 62
     7
370
    25
100
AcDbLine
 10
147.9216751244
 20
152.4094773701
 30
0.0
 11
143.2185958604
 21
152.4094773701
 31
0.0
  0
CIRCLE
  5
1D0
330
1F
100
AcDbEntity
  8
0
  6
Continuous
 62
     7
370
    25
100
AcDbCircle
 10
112.4216751244
 20
187.4094773701
 30
0.0
 40
2.000000000000014
  0
CIRCLE
  5
1D1
330
1F
100
AcDbEntity
  8
0
  6
Continuous
 62
     7
370
    25
100
AcDbCircle
 10
92.4216751244
 20
167.4094773701
 30
0.0
 40
2.000000000000014
  0
CIRCLE
  5
1D2
330
1F
100
AcDbEntity
  8
0
  6
Continuous
 62
     7
370
    25
100
AcDbCircle
 10
112.4216751244
 20
147.4094773701
 30
0.0
 40
2.0
  0
CIRCLE
  5
1D3
330
1F
100
AcDbEntity
  8
0
  6
Continuous
 62
     7
370
    25
100
AcDbCircle
 10
92.4216751244
 20
147.4094773701
 30
0.0
 40
2.000000000000014
  0
CIRCLE
  5
1D4
330
1F
100
AcDbEntity
  8
0
  6
Continuous
 62
     7
370
    25
100
AcDbCircle
 10
112.4216751244
 20
167.4094773701
 30
0.0
 40
2.0
  0
CIRCLE
  5
1D5
330
1F
100
AcDbEntity
  8
0
  6
Continuous
 62
     7
370
    25
100
AcDbCircle
 10
147.4216751244
 20
179.9094773701
 30
0.0
 40
1.049999999999983
  0
CIRCLE
  5
1D6
330
1F
100
AcDbEntity
  8
0
  6
Continuous
 62
     7
370
    25
100
AcDbCircle
 10
122.4216751244
 20
154.9094773701
 30
0.0
 40
1.049999999999983
  0
CIRCLE
  5
1D7
330
1F
100
AcDbEntity
  8
0
  6
Continuous
 62
     7
370
    25
100
AcDbCircle
 10
122.4216751244
 20
179.9094773701
 30
0.0
 40
1.049999999999997
  0
LINE
  5
1D8
330
1F
100
AcDbEntity
  8
DIM
100
AcDbLine
 10
123.0781580113
 20
190.9925990557
 30
0.0
 11
122.0120991022
 21
191.7390615401
 31
0.0
  0
LINE
  5
1D9
330
1F
100
AcDbEntity
  8
DIM
100
AcDbLine
 10
122.4216751244
 20
192.2536909483
 30
0.0
 11
122.4216751244
 21
190.9522733219
 31
0.0
  0
LINE
  5
1DA
330
1F
100
AcDbEntity
  8
DIM
100
AcDbLine
 10
122.4216751244
 20
142.5652637918
 30
0.0
 11
122.4216751244
 21
143.8666814182
 31
0.0
  0
LINE
  5
1DB
330
1F
100
AcDbEntity
  8
DIM
100
AcDbLine
 10
123.0781580113
 20
143.8263556844
 30
0.0
 11
122.0120991022
 21
143.0798932
 31
0.0
  0
LINE
  5
1DC
330
1F
100
AcDbEntity
  8
DIM
100
AcDbLine
 10
129.2887609737
 20
186.6438880447
 30
0.0
 11
135.7457021605
 21
182.1226891519
 31
0.0
  0
LINE
  5
1DD
330
1F
100
AcDbEntity
  8
DIM
100
AcDbLine
 10
142.7185958604
 20
182.4094773701
 30
0.0
 11
134.8361261384
 21
182.4094773701
 31
0.0
  0
LINE
  5
1DE
330
1F
100
AcDbEntity
  8
DIM
100
AcDbLine
 10
129.2887609737
 20
148.1750666955
 30
0.0
 11
135.7457021605
 21
152.6962655882
 31
0.0
  0
LINE
  5
1DF
330
1F
100
AcDbEntity
  8
DIM
100
AcDbLine
 10
142.7185958604
 20
152.4094773701
 30
0.0
 11
134.8361261384
 21
152.4094773701
 31
0.0
  0
DIMENSION
  5
1E0
330
1F
100
AcDbEntity
  8
DIM
100
AcDbDimension
  2
_D
 10
149.9216751244
 20
187.6547360968
 30
0.0
 11
155.6882071779
 21
187.6547360968
 31
0.0
 70
   160
  1
<>
 71
     2
 42
-1.0
  3
SLDDIMSTYLE0
100
AcDbAlignedDimension
 13
135.3361261384
 23
182.4094773701
 33
0.0
 14
149.9216751244
 24
180.4094773701
 34
0.0
 50
0.0
100
AcDbRotatedDimension
  0
DIMENSION
  5
1EC
330
1F
100
AcDbEntity
  8
DIM
100
AcDbDimension
  2
_D_1
 10
72.4216751244
 20
197.4094773701
 30
0.0
 11
72.4216751244
 21
175.4208245107
 31
0.0
 70
   160
  1
<>
 71
     2
 42
-1.0
  3
SLDDIMSTYLE1
100
AcDbAlignedDimension
 13
84.0466751244
 23
137.4094773701
 33
0.0
 14
104.0466751244
 24
197.4094773701
 34
0.0
 50
90.0
100
AcDbRotatedDimension
  0
DIMENSION
  5
1F7
330
1F
100
AcDbEntity
  8
DIM
100
AcDbDimension
  2
_D_2
 10
79.2338659323
 20
177.4094773701
 30
0.0
 11
79.2338659323
 21
164.3023253511
 31
0.0
 70
   160
  1
<>
 71
     2
 42
-1.0
  3
SLDDIMSTYLE1
100
AcDbAlignedDimension
 13
84.0466751244
 23
137.4094773701
 33
0.0
 14
84.0466751244
 24
177.4094773701
 34
0.0
 50
90.0
100
AcDbRotatedDimension
  0
DIMENSION
  5
201
330
1F
100
AcDbEntity
  8
DIM
100
AcDbDimension
  2
_D_3
 10
102.4216751244
 20
181.3858128194
 30
0.0
 11
93.7968388561
 21
181.3858128194
 31
0.0
 70
   160
  1
<>
 71
     2
 42
-1.0
  3
SLDDIMSTYLE2
100
AcDbAlignedDimension
 13
82.4216751244
 23
175.7844773701
 33
0.0
 14
102.4216751244
 24
177.4094773701
 34
0.0
 50
0.0
100
AcDbRotatedDimension
  0
DIMENSION
  5
20D
330
1F
100
AcDbEntity
  8
DIM
100
AcDbDimension
  2
_D_4
 10
122.4216751244
 20
199.4389881155
 30
0.0
 11
102.6186397619
 21
199.4389881155
 31
0.0
 70
   160
  1
<>
 71
     2
 42
-1.0
  3
SLDDIMSTYLE1
100
AcDbAlignedDimension
 13
82.4216751244
 23
175.7844773701
 33
0.0
 14
122.4216751244
 24
195.7844773701
 34
0.0
 50
0.0
100
AcDbRotatedDimension
  0
DIMENSION
  5
217
330
1F
100
AcDbEntity
  8
DIM
100
AcDbDimension
  2
_D_5
 10
149.9216751244
 20
204.0765900468
 30
0.0
 11
112.809242786
 21
204.0765900468
 31
0.0
 70
   160
  1
<>
 71
     2
 42
-1.0
  3
SLDDIMSTYLE1
100
AcDbAlignedDimension
 13
82.4216751244
 23
175.7844773701
 33
0.0
 14
149.9216751244
 24
180.4094773701
 34
0.0
 50
0.0
100
AcDbRotatedDimension
  0
DIMENSION
  5
221
330
1F
100
AcDbEntity
  8
DIM
100
AcDbDimension
  2
_D_6
 10
155.0241970083
 20
152.4094773701
 30
0.0
 11
155.0241970083
 21
144.9538614082
 31
0.0
 70
   160
  1
<>
 71
     2
 42
-1.0
  3
SLDDIMSTYLE1
100
AcDbAlignedDimension
 13
120.7966751244
 23
137.4094773701
 33
0.0
 14
147.9216751244
 24
152.4094773701
 34
0.0
 50
90.0
100
AcDbRotatedDimension
  0
DIMENSION
  5
22B
330
1F
100
AcDbEntity
  8
DIM
100
AcDbDimension
  2
_D_7
 10
155.0241970083
 20
182.4094773701
 30
0.0
 11
155.0241970083
 21
167.4067799234
 31
0.0
 70
   160
  1
<>
 71
     2
 42
-1.0
  3
SLDDIMSTYLE1
100
AcDbAlignedDimension
 13
147.9216751244
 23
152.4094773701
 33
0.0
 14
147.9216751244
 24
182.4094773701
 34
0.0
 50
90.0
100
AcDbRotatedDimension
  0
DIMENSION
  5
235
330
1F
100
AcDbEntity
  8
DIM
100
AcDbDimension
  2
_D_8
 10
122.4216751244
 20
132.7892391457
 30
0.0
 11
102.8107257134
 21
132.7892391457
 31
0.0
 70
   160
  1
<>
 71
     2
 42
-1.0
  3
SLDDIMSTYLE1
100
AcDbAlignedDimension
 13
82.4216751244
 23
139.0344773701
 33
0.0
 14
122.4216751244
 24
139.0344773701
 34
0.0
 50
0.0
100
AcDbRotatedDimension
  0
DIMENSION
  5
23F
330
1F
100
AcDbEntity
  8
DIM
100
AcDbDimension
  2
_D_9
 10
120.7966751244
 20
139.0344773701
 30
0.0
 11
135.7323649381
 21
139.0344873701
 31
0.0
 70
   164
  1
<> (TYP)
 71
     1
 42
-1.0
  3
SLDDIMSTYLE3
100
AcDbRadialDimension
 15
122.4216751244
 25
139.0344773701
 35
0.0
 40
0.0
  0
DIMENSION
  5
248
330
1F
100
AcDbEntity
  8
DIM
100
AcDbDimension
  2
_D_10
 10
123.4877340335
 20
190.7058108376
 30
0.0
 11
138.7129854126
 21
190.3897333671
 31
0.0
 70
   162
  1
<>
 71
     1
 42
-1.0
  3
SLDDIMSTYLE4
100
AcDb2LineAngularDimension
 13
143.2185958604
 23
182.4094773701
 33
0.0
 14
147.9216751244
 24
182.4094773701
 34
0.0
 15
128.8791849516
 25
186.9306762628
 35
0.0
 16
137.9418362714
 26
190.6737340843
 36
0.0
  0
MTEXT
  5
251
330
1F
100
AcDbEntity
  8
DIM
100
AcDbMText
 10
94.4511153527
 20
152.9818817147
 30
0.0
 40
2.5
 41
0.0
 71
     1
 72
     1
  1
A1
  7
SLDTEXTSTYLE0
 73
     1
 44
1.0
  0
MTEXT
  5
252
330
1F
100
AcDbEntity
  8
DIM
100
AcDbMText
 10
94.4511153527
 20
172.7027078067
 30
0.0
 40
2.5
 41
0.0
 71
     1
 72
     1
  1
A2
  7
SLDTEXTSTYLE0
 73
     1
 44
1.0
  0
MTEXT
  5
253
330
1F
100
AcDbEntity
  8
DIM
100
AcDbMText
 10
104.7130333341
 20
152.9818817147
 30
0.0
 40
2.5
 41
0.0
 71
     1
 72
     1
  1
A3
  7
SLDTEXTSTYLE0
 73
     1
 44
1.0
  0
MTEXT
  5
254
330
1F
100
AcDbEntity
  8
DIM
100
AcDbMText
 10
104.7130333341
 20
172.7027078067
 30
0.0
 40
2.5
 41
0.0
 71
     1
 72
     1
  1
A4
  7
SLDTEXTSTYLE0
 73
     1
 44
1.0
  0
MTEXT
  5
255
330
1F
100
AcDbEntity
  8
DIM
100
AcDbMText
 10
104.7130333341
 20
192.8797638434
 30
0.0
 40
2.5
 41
0.0
 71
     1
 72
     1
  1
A5
  7
SLDTEXTSTYLE0
 73
     1
 44
1.0
  0
MTEXT
  5
256
330
1F
100
AcDbEntity
  8
DIM
100
AcDbMText
 10
123.4252518372
 20
159.6468910548
 30
0.0
 40
2.5
 41
0.0
 71
     1
 72
     1
  1
B1
  7
SLDTEXTSTYLE0
 73
     1
 44
1.0
  0
MTEXT
  5
257
330
1F
100
AcDbEntity
  8
DIM
100
AcDbMText
 10
123.4252518372
 20
184.7965404196
 30
0.0
 40
2.5
 41
0.0
 71
     1
 72
     1
  1
B2
  7
SLDTEXTSTYLE0
 73
     1
 44
1.0
  0
MTEXT
  5
258
330
1F
100
AcDbEntity
  8
DIM
100
AcDbMText
 10
128.2615594978
 20
173.4791882122
 30
0.0
 40
2.5
 41
0.0
 71
     1
 72
     1
  1
C1
  7
SLDTEXTSTYLE0
 73
     1
 44
1.0
  0
MTEXT
  5
259
330
1F
100
AcDbEntity
  8
DIM
100
AcDbMText
 10
141.1135567107
 20
158.8869673887
 30
0.0
 40
2.5
 41
0.0
 71
     1
 72
     1
  1
B3
  7
SLDTEXTSTYLE0
 73
     1
 44
1.0
  0
MTEXT
  5
25A
330
1F
100
AcDbEntity
  8
DIM
100
AcDbMText
 10
141.1135567107
 20
178.643494093
 30
0.0
 40
2.5
 41
0.0
 71
     1
 72
     1
  1
B4
  7
SLDTEXTSTYLE0
 73
     1
 44
1.0
  0
INSERT
  5
266
330
1F
100
AcDbEntity
  8
DIM
100
AcDbBlockReference
  2
SW_CENTERMARKSYMBOL_0
 10
112.4216751244
 20
147.4094773701
 30
0.0
  0
INSERT
  5
272
330
1F
100
AcDbEntity
  8
DIM
100
AcDbBlockReference
  2
SW_CENTERMARKSYMBOL_1
 10
92.4216751244
 20
147.4094773701
 30
0.0
  0
INSERT
  5
27E
330
1F
100
AcDbEntity
  8
DIM
100
AcDbBlockReference
  2
SW_CENTERMARKSYMBOL_2
 10
92.4216751244
 20
167.4094773701
 30
0.0
  0
INSERT
  5
28A
330
1F
100
AcDbEntity
  8
DIM
100
AcDbBlockReference
  2
SW_CENTERMARKSYMBOL_3
 10
112.4216751244
 20
167.4094773701
 30
0.0
  0
INSERT
  5
296
330
1F
100
AcDbEntity
  8
DIM
100
AcDbBlockReference
  2
SW_CENTERMARKSYMBOL_4
 10
112.4216751244
 20
187.4094773701
 30
0.0
  0
INSERT
  5
2A2
330
1F
100
AcDbEntity
  8
DIM
100
AcDbBlockReference
  2
SW_CENTERMARKSYMBOL_5
 10
147.4216751244
 20
154.9094773701
 30
0.0
  0
INSERT
  5
2AE
330
1F
100
AcDbEntity
  8
DIM
100
AcDbBlockReference
  2
SW_CENTERMARKSYMBOL_6
 10
147.4216751244
 20
179.9094773701
 30
0.0
  0
INSERT
  5
2BA
330
1F
100
AcDbEntity
  8
DIM
100
AcDbBlockReference
  2
SW_CENTERMARKSYMBOL_7
 10
122.4216751244
 20
154.9094773701
 30
0.0
  0
INSERT
  5
2C6
330
1F
100
AcDbEntity
  8
DIM
100
AcDbBlockReference
  2
SW_CENTERMARKSYMBOL_8
 10
122.4216751244
 20
179.9094773701
 30
0.0
  0
ARC
  5
2C7
330
1F
100
AcDbEntity
  8
0
  6
Continuous
 62
     7
370
    18
100
AcDbCircle
 10
122.4216751244
 20
154.9094773701
 30
0.0
 40
1.250000000000003
100
AcDbArc
 50
255.0
 51
195.0
  0
ARC
  5
2C8
330
1F
100
AcDbEntity
  8
0
  6
Continuous
 62
     7
370
    18
100
AcDbCircle
 10
122.4216751244
 20
179.9094773701
 30
0.0
 40
1.250000000000003
100
AcDbArc
 50
255.0
 51
195.0
  0
ARC
  5
2C9
330
1F
100
AcDbEntity
  8
0
  6
Continuous
 62
     7
370
    18
100
AcDbCircle
 10
147.4216751244
 20
154.9094773701
 30
0.0
 40
1.250000000000003
100
AcDbArc
 50
255.0
 51
195.0
  0
ARC
  5
2CA
330
1F
100
AcDbEntity
  8
0
  6
Continuous
 62
     7
370
    18
100
AcDbCircle
 10
147.4216751244
 20
179.9094773701
 30
0.0
 40
1.250000000000011
100
AcDbArc
 50
255.0
 51
195.0
  0
INSERT
  5
2DA
330
1F
100
AcDbEntity
  8
DIM
100
AcDbBlockReference
  2
SW_DATUMORIGIN_0
 10
82.4216751244
 20
136.4094773701
 30
0.0
  0
CIRCLE
  5
2DB
330
1F
100
AcDbEntity
  8
0
  6
Continuous
 62
     7
370
    25
100
AcDbCircle
 10
196.2434842312
 20
76.1739034165
 30
0.0
 40
6.525000000000006
  0
CIRCLE
  5
2DC
330
1F
100
AcDbEntity
  8
0
  6
Continuous
 62
     7
370
    25
100
AcDbCircle
 10
218.7434842312
 20
96.1739034165
 30
0.0
 40
2.0
  0
CIRCLE
  5
2DD
330
1F
100
AcDbEntity
  8
0
  6
Continuous
 62
     7
370
    25
100
AcDbCircle
 10
218.7434842312
 20
76.1739034165
 30
0.0
 40
2.0
  0
CIRCLE
  5
2DE
330
1F
100
AcDbEntity
  8
0
  6
Continuous
 62
     7
370
    25
100
AcDbCircle
 10
238.7434842312
 20
76.1739034165
 30
0.0
 40
2.0
  0
CIRCLE
  5
2DF
330
1F
100
AcDbEntity
  8
0
  6
Continuous
 62
     7
370
    25
100
AcDbCircle
 10
238.7434842312
 20
56.1739034165
 30
0.0
 40
2.0
  0
CIRCLE
  5
2E0
330
1F
100
AcDbEntity
  8
0
  6
Continuous
 62
     7
370
    25
100
AcDbCircle
 10
218.7434842312
 20
56.1739034165
 30
0.0
 40
2.0
  0
ARC
  5
2E1
330
1F
100
AcDbEntity
  8
0
  6
Continuous
 62
     7
370
    25
100
AcDbCircle
 10
208.2434842312
 20
91.6739034165
 30
0.0
 40
1.000000000000114
100
AcDbArc
 50
270.0
 51
0.0
  0
LINE
  5
2E2
330
1F
100
AcDbEntity
  8
0
  6
Continuous
 62
     7
370
    25
100
AcDbLine
 10
209.2434842312
 20
91.6739034165
 30
0.0
 11
209.2434842312
 21
100.8078780127
 31
0.0
  0
ARC
  5
2E3
330
1F
100
AcDbEntity
  8
0
  6
Continuous
 62
     7
370
    25
100
AcDbCircle
 10
208.2434842312
 20
100.8078780127
 30
0.0
 40
0.9999999999999656
100
AcDbArc
 50
0.0
 51
60.0
  0
LINE
  5
2E4
330
1F
100
AcDbEntity
  8
0
  6
Continuous
 62
     7
370
    25
100
AcDbLine
 10
208.7434842312
 20
101.6739034165
 30
0.0
 11
208.7434842312
 21
104.5489034165
 31
0.0
  0
ARC
  5
2E5
330
1F
100
AcDbEntity
  8
0
  6
Continuous
 62
     7
370
    25
100
AcDbCircle
 10
210.3684842312
 20
104.5489034165
 30
0.0
 40
1.625
100
AcDbArc
 50
90.0
 51
180.0
  0
LINE
  5
2E6
330
1F
100
AcDbEntity
  8
0
  6
Continuous
 62
     7
370
    25
100
AcDbLine
 10
210.3684842312
 20
106.1739034165
 30
0.0
 11
227.1184842312
 21
106.1739034165
 31
0.0
  0
ARC
  5
2E7
330
1F
100
AcDbEntity
  8
0
  6
Continuous
 62
     7
370
    25
100
AcDbCircle
 10
227.1184842312
 20
104.5489034165
 30
0.0
 40
1.625
100
AcDbArc
 50
0.0
 51
90.0
  0
LINE
  5
2E8
330
1F
100
AcDbEntity
  8
0
  6
Continuous
 62
     7
370
    25
100
AcDbLine
 10
228.7434842312
 20
104.5489034165
 30
0.0
 11
228.7434842312
 21
86.1739034165
 31
0.0
  0
LINE
  5
2E9
330
1F
100
AcDbEntity
  8
0
  6
Continuous
 62
     7
370
    25
100
AcDbLine
 10
228.7434842312
 20
86.1739034165
 30
0.0
 11
247.1184842312
 21
86.1739034165
 31
0.0
  0
ARC
  5
2EA
330
1F
100
AcDbEntity
  8
0
  6
Continuous
 62
     7
370
    25
100
AcDbCircle
 10
247.1184842312
 20
84.5489034165
 30
0.0
 40
1.625000000000043
100
AcDbArc
 50
0.0
 51
90.0
  0
LINE
  5
2EB
330
1F
100
AcDbEntity
  8
0
  6
Continuous
 62
     7
370
    25
100
AcDbLine
 10
248.7434842312
 20
84.5489034165
 30
0.0
 11
248.7434842312
 21
47.7989034165
 31
0.0
  0
ARC
  5
2EC
330
1F
100
AcDbEntity
  8
0
  6
Continuous
 62
     7
370
    25
100
AcDbCircle
 10
247.1184842312
 20
47.7989034165
 30
0.0
 40
1.625000000000021
100
AcDbArc
 50
270.0
 51
0.0
  0
LINE
  5
2ED
330
1F
100
AcDbEntity
  8
0
  6
Continuous
 62
     7
370
    25
100
AcDbLine
 10
247.1184842312
 20
46.1739034165
 30
0.0
 11
210.3684842312
 21
46.1739034165
 31
0.0
  0
ARC
  5
2EE
330
1F
100
AcDbEntity
  8
0
  6
Continuous
 62
     7
370
    25
100
AcDbCircle
 10
210.3684842312
 20
47.7989034165
 30
0.0
 40
1.625
100
AcDbArc
 50
180.0
 51
270.0
  0
LINE
  5
2EF
330
1F
100
AcDbEntity
  8
0
  6
Continuous
 62
     7
370
    25
100
AcDbLine
 10
208.7434842312
 20
47.7989034165
 30
0.0
 11
208.7434842312
 21
50.8296898383
 31
0.0
  0
ARC
  5
2F0
330
1F
100
AcDbEntity
  8
0
  6
Continuous
 62
     7
370
    25
100
AcDbCircle
 10
206.2434842312
 20
50.8296898383
 30
0.0
 40
2.500000000000066
100
AcDbArc
 50
0.0
 51
55.0
  0
LINE
  5
2F1
330
1F
100
AcDbEntity
  8
0
  6
Continuous
 62
     7
370
    25
100
AcDbLine
 10
207.677425322
 20
52.877569949
 30
0.0
 11
189.0594393659
 21
65.9140240618
 31
0.0
  0
ARC
  5
2F2
330
1F
100
AcDbEntity
  8
0
  6
Continuous
 62
     7
370
    25
100
AcDbCircle
 10
196.2434842312
 20
76.1739034165
 30
0.0
 40
12.52500000000002
100
AcDbArc
 50
125.0
 51
235.0
  0
LINE
  5
2F3
330
1F
100
AcDbEntity
  8
0
  6
Continuous
 62
     7
370
    25
100
AcDbLine
 10
199.4934842312
 20
93.7397796399
 30
0.0
 11
199.4934842312
 21
91.6739034165
 31
0.0
  0
ARC
  5
2F4
330
1F
100
AcDbEntity
  8
0
  6
Continuous
 62
     7
370
    25
100
AcDbCircle
 10
200.4934842312
 20
91.6739034165
 30
0.0
 40
1.000000000000057
100
AcDbArc
 50
180.0
 51
270.0
  0
LINE
  5
2F5
330
1F
100
AcDbEntity
  8
0
  6
Continuous
 62
     7
370
    25
100
AcDbLine
 10
200.4934842312
 20
90.6739034165
 30
0.0
 11
208.2434842312
 21
90.6739034165
 31
0.0
  0
LINE
  5
2F6
330
1F
100
AcDbEntity
  8
0
  6
Continuous
 62
     7
370
    25
100
AcDbLine
 10
189.0594393659
 20
86.4337827712
 30
0.0
 11
199.4934842312
 21
93.7397796399
 31
0.0
  0
ARC
  5
2F7
330
1F
100
AcDbEntity
  8
0
  6
Continuous
 62
     7
370
    25
100
AcDbCircle
 10
206.2434842312
 20
101.5181169947
 30
0.0
 40
2.500000000000057
100
AcDbArc
 50
305.0
 51
360.0
  0
LINE
  5
2F8
330
1F
100
AcDbEntity
  8
0
  6
Continuous
 62
     7
370
    25
100
AcDbLine
 10
208.7434842312
 20
101.6739034165
 30
0.0
 11
208.7434842312
 21
101.5181169947
 31
0.0
  0
LINE
  5
2F9
330
1F
100
AcDbEntity
  8
0
  6
Continuous
 62
     7
370
    25
100
AcDbLine
 10
207.677425322
 20
99.470236884
 30
0.0
 11
199.4934842312
 21
93.7397796399
 31
0.0
  0
CIRCLE
  5
2FA
330
1F
100
AcDbEntity
  8
0
  6
Continuous
 62
     7
370
    25
100
AcDbCircle
 10
196.2434842312
 20
76.1739034165
 30
0.0
 40
5.0
  0
INSERT
  5
306
330
1F
100
AcDbEntity
  8
DIM
100
AcDbBlockReference
  2
SW_CENTERMARKSYMBOL_9
 10
218.7434842312
 20
56.1739034165
 30
0.0
  0
INSERT
  5
312
330
1F
100
AcDbEntity
  8
DIM
100
AcDbBlockReference
  2
SW_CENTERMARKSYMBOL_10
 10
238.7434842312
 20
56.1739034165
 30
0.0
  0
INSERT
  5
31E
330
1F
100
AcDbEntity
  8
DIM
100
AcDbBlockReference
  2
SW_CENTERMARKSYMBOL_11
 10
238.7434842312
 20
76.1739034165
 30
0.0
  0
INSERT
  5
32A
330
1F
100
AcDbEntity
  8
DIM
100
AcDbBlockReference
  2
SW_CENTERMARKSYMBOL_12
 10
218.7434842312
 20
76.1739034165
 30
0.0
  0
INSERT
  5
336
330
1F
100
AcDbEntity
  8
DIM
100
AcDbBlockReference
  2
SW_CENTERMARKSYMBOL_13
 10
218.7434842312
 20
96.1739034165
 30
0.0
  0
CIRCLE
  5
337
330
1F
100
AcDbEntity
  8
0
  6
Continuous
 62
     7
370
    25
100
AcDbCircle
 10
137.0315389242
 20
77.9256916826
 30
0.0
 40
6.525000000000006
  0
CIRCLE
  5
338
330
1F
100
AcDbEntity
  8
0
  6
Continuous
 62
     7
370
    25
100
AcDbCircle
 10
114.5315389242
 20
97.9256916826
 30
0.0
 40
2.000000000000014
  0
CIRCLE
  5
339
330
1F
100
AcDbEntity
  8
0
  6
Continuous
 62
     7
370
    25
100
AcDbCircle
 10
114.5315389242
 20
77.9256916826
 30
0.0
 40
2.0
  0
CIRCLE
  5
33A
330
1F
100
AcDbEntity
  8
0
  6
Continuous
 62
     7
370
    25
100
AcDbCircle
 10
94.5315389242
 20
77.9256916826
 30
0.0
 40
2.000000000000014
  0
CIRCLE
  5
33B
330
1F
100
AcDbEntity
  8
0
  6
Continuous
 62
     7
370
    25
100
AcDbCircle
 10
94.5315389242
 20
57.9256916826
 30
0.0
 40
2.0
  0
CIRCLE
  5
33C
330
1F
100
AcDbEntity
  8
0
  6
Continuous
 62
     7
370
    25
100
AcDbCircle
 10
114.5315389242
 20
57.9256916826
 30
0.0
 40
2.0
  0
ARC
  5
33D
330
1F
100
AcDbEntity
  8
0
  6
Continuous
 62
     7
370
    25
100
AcDbCircle
 10
132.7815389242
 20
93.4256916826
 30
0.0
 40
1.000000000000057
100
AcDbArc
 50
270.0
 51
360.0
  0
LINE
  5
33E
330
1F
100
AcDbEntity
  8
0
  6
Continuous
 62
     7
370
    25
100
AcDbLine
 10
133.7815389242
 20
95.491567906
 30
0.0
 11
133.7815389242
 21
93.4256916826
 31
0.0
  0
ARC
  5
33F
330
1F
100
AcDbEntity
  8
0
  6
Continuous
 62
     7
370
    25
100
AcDbCircle
 10
137.0315389242
 20
77.9256916826
 30
0.0
 40
12.52500000000002
100
AcDbArc
 50
305.0
 51
55.0
  0
LINE
  5
340
330
1F
100
AcDbEntity
  8
0
  6
Continuous
 62
     7
370
    25
100
AcDbLine
 10
125.5975978333
 20
54.6293582151
 30
0.0
 11
144.2155837895
 21
67.6658123279
 31
0.0
  0
ARC
  5
341
330
1F
100
AcDbEntity
  8
0
  6
Continuous
 62
     7
370
    25
100
AcDbCircle
 10
127.0315389242
 20
52.5814781044
 30
0.0
 40
2.500000000000066
100
AcDbArc
 50
125.0
 51
180.0
  0
LINE
  5
342
330
1F
100
AcDbEntity
  8
0
  6
Continuous
 62
     7
370
    25
100
AcDbLine
 10
124.5315389242
 20
49.5506916826
 30
0.0
 11
124.5315389242
 21
52.5814781044
 31
0.0
  0
ARC
  5
343
330
1F
100
AcDbEntity
  8
0
  6
Continuous
 62
     7
370
    25
100
AcDbCircle
 10
122.9065389242
 20
49.5506916826
 30
0.0
 40
1.624999999999986
100
AcDbArc
 50
270.0
 51
360.0
  0
LINE
  5
344
330
1F
100
AcDbEntity
  8
0
  6
Continuous
 62
     7
370
    25
100
AcDbLine
 10
86.1565389242
 20
47.9256916826
 30
0.0
 11
122.9065389242
 21
47.9256916826
 31
0.0
  0
ARC
  5
345
330
1F
100
AcDbEntity
  8
0
  6
Continuous
 62
     7
370
    25
100
AcDbCircle
 10
86.1565389242
 20
49.5506916826
 30
0.0
 40
1.625000000000014
100
AcDbArc
 50
180.0
 51
270.0
  0
LINE
  5
346
330
1F
100
AcDbEntity
  8
0
  6
Continuous
 62
     7
370
    25
100
AcDbLine
 10
84.5315389242
 20
86.3006916826
 30
0.0
 11
84.5315389242
 21
49.5506916826
 31
0.0
  0
ARC
  5
347
330
1F
100
AcDbEntity
  8
0
  6
Continuous
 62
     7
370
    25
100
AcDbCircle
 10
86.1565389242
 20
86.3006916826
 30
0.0
 40
1.625000000000043
100
AcDbArc
 50
90.0
 51
180.0
  0
LINE
  5
348
330
1F
100
AcDbEntity
  8
0
  6
Continuous
 62
     7
370
    25
100
AcDbLine
 10
104.5315389242
 20
87.9256916826
 30
0.0
 11
86.1565389242
 21
87.9256916826
 31
0.0
  0
LINE
  5
349
330
1F
100
AcDbEntity
  8
0
  6
Continuous
 62
     7
370
    25
100
AcDbLine
 10
104.5315389242
 20
106.3006916826
 30
0.0
 11
104.5315389242
 21
87.9256916826
 31
0.0
  0
ARC
  5
34A
330
1F
100
AcDbEntity
  8
0
  6
Continuous
 62
     7
370
    25
100
AcDbCircle
 10
106.1565389242
 20
106.3006916826
 30
0.0
 40
1.625
100
AcDbArc
 50
90.0
 51
180.0
  0
LINE
  5
34B
330
1F
100
AcDbEntity
  8
0
  6
Continuous
 62
     7
370
    25
100
AcDbLine
 10
122.9065389242
 20
107.9256916826
 30
0.0
 11
106.1565389242
 21
107.9256916826
 31
0.0
  0
ARC
  5
34C
330
1F
100
AcDbEntity
  8
0
  6
Continuous
 62
     7
370
    25
100
AcDbCircle
 10
122.9065389242
 20
106.3006916826
 30
0.0
 40
1.625
100
AcDbArc
 50
0.0
 51
90.0
  0
LINE
  5
34D
330
1F
100
AcDbEntity
  8
0
  6
Continuous
 62
     7
370
    25
100
AcDbLine
 10
124.5315389242
 20
103.4256916826
 30
0.0
 11
124.5315389242
 21
106.3006916826
 31
0.0
  0
ARC
  5
34E
330
1F
100
AcDbEntity
  8
0
  6
Continuous
 62
     7
370
    25
100
AcDbCircle
 10
125.0315389242
 20
102.5596662788
 30
0.0
 40
0.9999999999999533
100
AcDbArc
 50
120.0
 51
180.0
  0
LINE
  5
34F
330
1F
100
AcDbEntity
  8
0
  6
Continuous
 62
     7
370
    25
100
AcDbLine
 10
124.0315389242
 20
93.4256916826
 30
0.0
 11
124.0315389242
 21
102.5596662788
 31
0.0
  0
ARC
  5
350
330
1F
100
AcDbEntity
  8
0
  6
Continuous
 62
     7
370
    25
100
AcDbCircle
 10
125.0315389242
 20
93.4256916826
 30
0.0
 40
1.000000000000114
100
AcDbArc
 50
180.0
 51
270.0
  0
LINE
  5
351
330
1F
100
AcDbEntity
  8
0
  6
Continuous
 62
     7
370
    25
100
AcDbLine
 10
132.7815389242
 20
92.4256916826
 30
0.0
 11
125.0315389242
 21
92.4256916826
 31
0.0
  0
LINE
  5
352
330
1F
100
AcDbEntity
  8
0
  6
Continuous
 62
     7
370
    25
100
AcDbLine
 10
144.2155837895
 20
88.1855710373
 30
0.0
 11
133.7815389242
 21
95.491567906
 31
0.0
  0
ARC
  5
353
330
1F
100
AcDbEntity
  8
0
  6
Continuous
 62
     7
370
    25
100
AcDbCircle
 10
127.0315389242
 20
103.2699052608
 30
0.0
 40
2.500000000000057
100
AcDbArc
 50
180.0
 51
235.0
  0
LINE
  5
354
330
1F
100
AcDbEntity
  8
0
  6
Continuous
 62
     7
370
    25
100
AcDbLine
 10
124.5315389242
 20
103.4256916826
 30
0.0
 11
124.5315389242
 21
103.2699052608
 31
0.0
  0
LINE
  5
355
330
1F
100
AcDbEntity
  8
0
  6
Continuous
 62
     7
370
    25
100
AcDbLine
 10
125.5975978333
 20
101.2220251501
 30
0.0
 11
133.7815389242
 21
95.491567906
 31
0.0
  0
CIRCLE
  5
356
330
1F
100
AcDbEntity
  8
0
  6
Continuous
 62
     7
370
    25
100
AcDbCircle
 10
137.0315389242
 20
77.9256916826
 30
0.0
 40
5.0
  0
DIMENSION
  5
357
330
1F
100
AcDbEntity
  8
DIM
100
AcDbDimension
  2
_D_11
 10
73.6033192266
 20
107.9256916826
 30
0.0
 11
73.6033192266
 21
70.2227565376
 31
0.0
 70
   160
  1
<>
 71
     2
 42
-1.0
  3
SLDDIMSTYLE1
100
AcDbAlignedDimension
 13
86.1565389242
 23
47.9256916826
 33
0.0
 14
106.1565389242
 24
107.9256916826
 34
0.0
 50
90.0
100
AcDbRotatedDimension
  0
DIMENSION
  5
361
330
1F
100
AcDbEntity
  8
DIM
100
AcDbDimension
  2
_D_12
 10
81.5635974256
 20
87.9256916826
 30
0.0
 11
81.5635974256
 21
70.2227565376
 31
0.0
 70
   160
  1
<>
 71
     2
 42
-1.0
  3
SLDDIMSTYLE1
100
AcDbAlignedDimension
 13
86.1565389242
 23
47.9256916826
 33
0.0
 14
86.1565389242
 24
87.9256916826
 34
0.0
 50
90.0
100
AcDbRotatedDimension
  0
DIMENSION
  5
36B
330
1F
100
AcDbEntity
  8
DIM
100
AcDbDimension
  2
_D_13
 10
104.5315389242
 20
90.8671381952
 30
0.0
 11
94.6923447505
 21
90.8671381952
 31
0.0
 70
   160
  1
<>
 71
     2
 42
-1.0
  3
SLDDIMSTYLE2
100
AcDbAlignedDimension
 13
84.5315389242
 23
86.3006916826
 33
0.0
 14
104.5315389242
 24
87.9256916826
 34
0.0
100
AcDbRotatedDimension
  0
DIMENSION
  5
376
330
1F
100
AcDbEntity
  8
DIM
100
AcDbDimension
  2
_D_14
 10
124.5315389242
 20
111.4544715231
 30
0.0
 11
104.2379379173
 21
111.4544715231
 31
0.0
 70
   160
  1
<>
 71
     2
 42
-1.0
  3
SLDDIMSTYLE1
100
AcDbAlignedDimension
 13
84.5315389242
 23
86.3006916826
 33
0.0
 14
124.5315389242
 24
106.3006916826
 34
0.0
100
AcDbRotatedDimension
  0
DIMENSION
  5
380
330
1F
100
AcDbEntity
  8
DIM
100
AcDbDimension
  2
_D_15
 10
124.5315389242
 20
43.4415354207
 30
0.0
 11
105.0533449492
 21
43.4415354207
 31
0.0
 70
   160
  1
<>
 71
     2
 42
-1.0
  3
SLDDIMSTYLE1
100
AcDbAlignedDimension
 13
84.5315389242
 23
49.5506916826
 33
0.0
 14
124.5315389242
 24
49.5506916826
 34
0.0
 50
0.0
100
AcDbRotatedDimension
  0
DIMENSION
  5
38A
330
1F
100
AcDbEntity
  8
DIM
100
AcDbDimension
  2
_D_16
 10
137.0315389242
 20
77.9256916826
 30
0.0
 11
154.7814764296
 21
88.173627106
 31
0.0
 70
   164
  1
<>
 71
     1
 42
-1.0
  3
SLDDIMSTYLE5
100
AcDbRadialDimension
 15
147.8785071066
 25
84.1881916826
 35
0.0
 40
0.0
  0
DIMENSION
  5
393
330
1F
100
AcDbEntity
  8
DIM
100
AcDbDimension
  2
_D_17
 10
144.2155837895
 20
88.1855710373
 30
0.0
 11
127.4302814594
 21
82.9768154155
 31
0.0
 70
   162
  1
<>
 71
     1
 42
-1.0
  3
SLDDIMSTYLE4
100
AcDb2LineAngularDimension
 13
144.2155837895
 23
67.6658123279
 33
0.0
 14
125.5975978333
 24
54.6293582151
 34
0.0
 15
125.5975978333
 25
101.2220251501
 35
0.0
 16
127.0270856189
 26
77.9256916826
 36
0.0
  0
DIMENSION
  5
39B
330
1F
100
AcDbEntity
  8
DIM
100
AcDbDimension
  2
_D_18
 10
124.0315389242
 20
103.2263346198
 30
0.0
 11
139.919746589
 21
103.2263346198
 31
0.0
 70
   160
  1
<>
 71
     2
 42
-1.0
  3
SLDDIMSTYLE1
100
AcDbAlignedDimension
 13
133.7815389242
 23
95.491567906
 33
0.0
 14
124.0315389242
 24
102.5596662788
 34
0.0
100
AcDbRotatedDimension
  0
DIMENSION
  5
3A6
330
1F
100
AcDbEntity
  8
DIM
100
AcDbDimension
  2
_D_19
 10
122.220203929
 20
107.9256916826
 30
0.0
 11
122.220203929
 21
99.4641099476
 31
0.0
 70
   160
  1
<>
 71
     2
 42
-1.0
  3
SLDDIMSTYLE1
100
AcDbAlignedDimension
 13
125.0315389242
 23
92.4256916826
 33
0.0
 14
122.9065389242
 24
107.9256916826
 34
0.0
 50
90.0
100
AcDbRotatedDimension
  0
DIMENSION
  5
3AF
330
1F
100
AcDbEntity
  8
DIM
100
AcDbDimension
  2
_D_20
 10
84.5315389242
 20
115.2268341116
 30
0.0
 11
114.5417310481
 21
115.2268341116
 31
0.0
 70
   160
  1
<>
 71
     2
 42
-1.0
  3
SLDDIMSTYLE6
100
AcDbAlignedDimension
 13
133.7815389242
 23
95.491567906
 33
0.0
 14
84.5315389242
 24
86.3006916826
 34
0.0
 50
0.0
100
AcDbRotatedDimension
  0
MTEXT
  5
3BA
330
1F
100
AcDbEntity
  8
DIM
100
AcDbMText
 10
96.287374343
 20
62.8857239513
 30
0.0
 40
2.5
 41
0.0
 71
     1
 72
     1
  1
A1
  7
SLDTEXTSTYLE0
 73
     1
 44
1.0
  0
MTEXT
  5
3BB
330
1F
100
AcDbEntity
  8
DIM
100
AcDbMText
 10
96.0261229427
 20
82.3520292668
 30
0.0
 40
2.5
 41
0.0
 71
     1
 72
     1
  1
A2
  7
SLDTEXTSTYLE0
 73
     1
 44
1.0
  0
MTEXT
  5
3BC
330
1F
100
AcDbEntity
  8
DIM
100
AcDbMText
 10
115.7554297335
 20
62.8857239513
 30
0.0
 40
2.5
 41
0.0
 71
     1
 72
     1
  1
A3
  7
SLDTEXTSTYLE0
 73
     1
 44
1.0
  0
MTEXT
  5
3BD
330
1F
100
AcDbEntity
  8
DIM
100
AcDbMText
 10
115.7554297335
 20
83.0846683727
 30
0.0
 40
2.5
 41
0.0
 71
     1
 72
     1
  1
A4
  7
SLDTEXTSTYLE0
 73
     1
 44
1.0
  0
MTEXT
  5
3BE
330
1F
100
AcDbEntity
  8
DIM
100
AcDbMText
 10
106.5390976911
 20
102.6867795298
 30
0.0
 40
2.5
 41
0.0
 71
     1
 72
     1
  1
A5
  7
SLDTEXTSTYLE0
 73
     1
 44
1.0
  0
MTEXT
  5
3BF
330
1F
100
AcDbEntity
  8
DIM
100
AcDbMText
 10
140.4686759153
 20
71.7336547068
 30
0.0
 40
2.5
 41
0.0
 71
     1
 72
     1
  1
C2
  7
SLDTEXTSTYLE0
 73
     1
 44
1.0
  0
INSERT
  5
3C7
330
1F
100
AcDbEntity
  8
DIM
100
AcDbBlockReference
  2
SW_NOTE_4
 10
135.8381858903
 20
97.8437848864
 30
0.0
  0
LEADER
  5
3D1
330
1F
100
AcDbEntity
  8
DIM
100
AcDbLeader
  3
SLDDIMSTYLE7
 76
     2
 10
128.2755809942
 20
96.4612880971
 30
0.0
 10
135.8381858903
 20
97.8437848864
 30
0.0
  0
INSERT
  5
3DD
330
1F
100
AcDbEntity
  8
DIM
100
AcDbBlockReference
  2
SW_CENTERMARKSYMBOL_14
 10
137.0315389242
 20
77.9256916826
 30
0.0
  0
INSERT
  5
3E9
330
1F
100
AcDbEntity
  8
DIM
100
AcDbBlockReference
  2
SW_CENTERMARKSYMBOL_15
 10
114.5315389242
 20
57.9256916826
 30
0.0
  0
INSERT
  5
3F5
330
1F
100
AcDbEntity
  8
DIM
100
AcDbBlockReference
  2
SW_CENTERMARKSYMBOL_16
 10
94.5315389242
 20
57.9256916826
 30
0.0
  0
INSERT
  5
401
330
1F
100
AcDbEntity
  8
DIM
100
AcDbBlockReference
  2
SW_CENTERMARKSYMBOL_17
 10
94.5315389242
 20
77.9256916826
 30
0.0
  0
INSERT
  5
40D
330
1F
100
AcDbEntity
  8
DIM
100
AcDbBlockReference
  2
SW_CENTERMARKSYMBOL_18
 10
114.5315389242
 20
77.9256916826
 30
0.0
  0
INSERT
  5
419
330
1F
100
AcDbEntity
  8
DIM
100
AcDbBlockReference
  2
SW_CENTERMARKSYMBOL_19
 10
114.5315389242
 20
97.9256916826
 30
0.0
  0
INSERT
  5
429
330
1F
100
AcDbEntity
  8
DIM
100
AcDbBlockReference
  2
SW_DATUMORIGIN_1
 10
84.5315389242
 20
46.9256916826
 30
0.0
  0
CIRCLE
  5
42A
330
1F
100
AcDbEntity
  8
0
  6
Continuous
 62
     7
370
    25
100
AcDbCircle
 10
185.9158587472
 20
154.9094773701
 30
0.0
 40
1.049999999999983
  0
CIRCLE
  5
42B
330
1F
100
AcDbEntity
  8
0
  6
Continuous
 62
     7
370
    25
100
AcDbCircle
 10
198.4158587472
 20
167.4094773701
 30
0.0
 40
9.637499999999989
  0
ARC
  5
42C
330
1F
100
AcDbEntity
  8
0
  6
Continuous
 62
     7
370
    25
100
AcDbCircle
 10
185.4158587472
 20
154.4094773701
 30
0.0
 40
2.000000000000114
100
AcDbArc
 50
180.0
 51
270.0
  0
LINE
  5
42D
330
1F
100
AcDbEntity
  8
0
  6
Continuous
 62
     7
370
    25
100
AcDbLine
 10
183.4158587472
 20
180.4094773701
 30
0.0
 11
183.4158587472
 21
154.4094773701
 31
0.0
  0
ARC
  5
42E
330
1F
100
AcDbEntity
  8
0
  6
Continuous
 62
     7
370
    25
100
AcDbCircle
 10
185.4158587472
 20
180.4094773701
 30
0.0
 40
2.000000000000114
100
AcDbArc
 50
90.0
 51
180.0
  0
LINE
  5
42F
330
1F
100
AcDbEntity
  8
0
  6
Continuous
 62
     7
370
    25
100
AcDbLine
 10
190.1189380112
 20
182.4094773701
 30
0.0
 11
185.4158587472
 21
182.4094773701
 31
0.0
  0
ARC
  5
430
330
1F
100
AcDbEntity
  8
0
  6
Continuous
 62
     7
370
    25
100
AcDbCircle
 10
190.1189380112
 20
207.4094773701
 30
0.0
 40
25.00000000000017
100
AcDbArc
 50
270.0
 51
305.0
  0
LINE
  5
431
330
1F
100
AcDbEntity
  8
0
  6
Continuous
 62
     7
370
    25
100
AcDbLine
 10
204.45834892
 20
186.9306762628
 30
0.0
 11
209.8497998381
 21
190.7058108376
 31
0.0
  0
ARC
  5
432
330
1F
100
AcDbEntity
  8
0
  6
Continuous
 62
     7
370
    25
100
AcDbCircle
 10
208.4158587472
 20
192.7536909483
 30
0.0
 40
2.500000000000101
100
AcDbArc
 50
305.0
 51
360.0
  0
LINE
  5
433
330
1F
100
AcDbEntity
  8
0
  6
Continuous
 62
     7
370
    25
100
AcDbLine
 10
210.9158587472
 20
192.7536909483
 30
0.0
 11
210.9158587472
 21
195.7844773701
 31
0.0
  0
ARC
  5
434
330
1F
100
AcDbEntity
  8
0
  6
Continuous
 62
     7
370
    25
100
AcDbCircle
 10
212.5408587472
 20
195.7844773701
 30
0.0
 40
1.625000000000284
100
AcDbArc
 50
90.0
 51
180.0
  0
LINE
  5
435
330
1F
100
AcDbEntity
  8
0
  6
Continuous
 62
     7
370
    25
100
AcDbLine
 10
212.5408587472
 20
197.4094773701
 30
0.0
 11
229.2908587472
 21
197.4094773701
 31
0.0
  0
ARC
  5
436
330
1F
100
AcDbEntity
  8
0
  6
Continuous
 62
     7
370
    25
100
AcDbCircle
 10
229.2908587472
 20
195.7844773701
 30
0.0
 40
1.625000000000142
100
AcDbArc
 50
360.0
 51
90.0
  0
LINE
  5
437
330
1F
100
AcDbEntity
  8
0
  6
Continuous
 62
     7
370
    25
100
AcDbLine
 10
230.9158587472
 20
195.7844773701
 30
0.0
 11
230.9158587472
 21
177.4094773701
 31
0.0
  0
LINE
  5
438
330
1F
100
AcDbEntity
  8
0
  6
Continuous
 62
     7
370
    25
100
AcDbLine
 10
230.9158587472
 20
177.4094773701
 30
0.0
 11
249.2908587472
 21
177.4094773701
 31
0.0
  0
ARC
  5
439
330
1F
100
AcDbEntity
  8
0
  6
Continuous
 62
     7
370
    25
100
AcDbCircle
 10
249.2908587472
 20
175.7844773701
 30
0.0
 40
1.624999999999858
100
AcDbArc
 50
360.0
 51
90.0
  0
LINE
  5
43A
330
1F
100
AcDbEntity
  8
0
  6
Continuous
 62
     7
370
    25
100
AcDbLine
 10
250.9158587472
 20
175.7844773701
 30
0.0
 11
250.9158587472
 21
139.0344773701
 31
0.0
  0
ARC
  5
43B
330
1F
100
AcDbEntity
  8
0
  6
Continuous
 62
     7
370
    25
100
AcDbCircle
 10
249.2908587472
 20
139.0344773701
 30
0.0
 40
1.625000000000057
100
AcDbArc
 50
270.0
 51
0.0
  0
LINE
  5
43C
330
1F
100
AcDbEntity
  8
0
  6
Continuous
 62
     7
370
    25
100
AcDbLine
 10
249.2908587472
 20
137.4094773701
 30
0.0
 11
212.5408587472
 21
137.4094773701
 31
0.0
  0
ARC
  5
43D
330
1F
100
AcDbEntity
  8
0
  6
Continuous
 62
     7
370
    25
100
AcDbCircle
 10
212.5408587472
 20
139.0344773701
 30
0.0
 40
1.625000000000199
100
AcDbArc
 50
180.0
 51
270.0
  0
LINE
  5
43E
330
1F
100
AcDbEntity
  8
0
  6
Continuous
 62
     7
370
    25
100
AcDbLine
 10
210.9158587472
 20
139.0344773701
 30
0.0
 11
210.9158587472
 21
142.0652637918
 31
0.0
  0
ARC
  5
43F
330
1F
100
AcDbEntity
  8
0
  6
Continuous
 62
     7
370
    25
100
AcDbCircle
 10
208.4158587472
 20
142.0652637918
 30
0.0
 40
2.499999999999947
100
AcDbArc
 50
360.0
 51
55.0
  0
LINE
  5
440
330
1F
100
AcDbEntity
  8
0
  6
Continuous
 62
     7
370
    25
100
AcDbLine
 10
209.8497998381
 20
144.1131439025
 30
0.0
 11
204.45834892
 21
147.8882784773
 31
0.0
  0
ARC
  5
441
330
1F
100
AcDbEntity
  8
0
  6
Continuous
 62
     7
370
    25
100
AcDbCircle
 10
190.1189380112
 20
127.4094773701
 30
0.0
 40
25.0000000000001
100
AcDbArc
 50
55.0
 51
90.0
  0
LINE
  5
442
330
1F
100
AcDbEntity
  8
0
  6
Continuous
 62
     7
370
    25
100
AcDbLine
 10
185.4158587472
 20
152.4094773701
 30
0.0
 11
190.1189380112
 21
152.4094773701
 31
0.0
  0
CIRCLE
  5
443
330
1F
100
AcDbEntity
  8
0
  6
Continuous
 62
     7
370
    25
100
AcDbCircle
 10
220.9158587472
 20
187.4094773701
 30
0.0
 40
2.0
  0
CIRCLE
  5
444
330
1F
100
AcDbEntity
  8
0
  6
Continuous
 62
     7
370
    25
100
AcDbCircle
 10
240.9158587472
 20
167.4094773701
 30
0.0
 40
2.0
  0
CIRCLE
  5
445
330
1F
100
AcDbEntity
  8
0
  6
Continuous
 62
     7
370
    25
100
AcDbCircle
 10
220.9158587472
 20
147.4094773701
 30
0.0
 40
2.0
  0
CIRCLE
  5
446
330
1F
100
AcDbEntity
  8
0
  6
Continuous
 62
     7
370
    25
100
AcDbCircle
 10
240.9158587472
 20
147.4094773701
 30
0.0
 40
2.0
  0
CIRCLE
  5
447
330
1F
100
AcDbEntity
  8
0
  6
Continuous
 62
     7
370
    25
100
AcDbCircle
 10
220.9158587472
 20
167.4094773701
 30
0.0
 40
2.0
  0
CIRCLE
  5
448
330
1F
100
AcDbEntity
  8
0
  6
Continuous
 62
     7
370
    25
100
AcDbCircle
 10
185.9158587472
 20
179.9094773701
 30
0.0
 40
1.049999999999983
  0
CIRCLE
  5
449
330
1F
100
AcDbEntity
  8
0
  6
Continuous
 62
     7
370
    25
100
AcDbCircle
 10
210.9158587472
 20
154.9094773701
 30
0.0
 40
1.050000000000011
  0
CIRCLE
  5
44A
330
1F
100
AcDbEntity
  8
0
  6
Continuous
 62
     7
370
    25
100
AcDbCircle
 10
210.9158587472
 20
179.9094773701
 30
0.0
 40
1.050000000000011
  0
INSERT
  5
456
330
1F
100
AcDbEntity
  8
DIM
100
AcDbBlockReference
  2
SW_CENTERMARKSYMBOL_20
 10
198.4158587472
 20
167.4094773701
 30
0.0
  0
INSERT
  5
462
330
1F
100
AcDbEntity
  8
DIM
100
AcDbBlockReference
  2
SW_CENTERMARKSYMBOL_21
 10
220.9158587472
 20
147.4094773701
 30
0.0
  0
INSERT
  5
46E
330
1F
100
AcDbEntity
  8
DIM
100
AcDbBlockReference
  2
SW_CENTERMARKSYMBOL_22
 10
240.9158587472
 20
147.4094773701
 30
0.0
  0
INSERT
  5
47A
330
1F
100
AcDbEntity
  8
DIM
100
AcDbBlockReference
  2
SW_CENTERMARKSYMBOL_23
 10
240.9158587472
 20
167.4094773701
 30
0.0
  0
INSERT
  5
486
330
1F
100
AcDbEntity
  8
DIM
100
AcDbBlockReference
  2
SW_CENTERMARKSYMBOL_24
 10
220.9158587472
 20
167.4094773701
 30
0.0
  0
INSERT
  5
492
330
1F
100
AcDbEntity
  8
DIM
100
AcDbBlockReference
  2
SW_CENTERMARKSYMBOL_25
 10
220.9158587472
 20
187.4094773701
 30
0.0
  0
ARC
  5
493
330
1F
100
AcDbEntity
  8
0
  6
Continuous
 62
     7
370
    18
100
AcDbCircle
 10
210.9158587472
 20
154.9094773701
 30
0.0
 40
1.250000000000003
100
AcDbArc
 50
255.0
 51
195.0
  0
ARC
  5
494
330
1F
100
AcDbEntity
  8
0
  6
Continuous
 62
     7
370
    18
100
AcDbCircle
 10
210.9158587472
 20
179.9094773701
 30
0.0
 40
1.250000000000003
100
AcDbArc
 50
255.0
 51
195.0
  0
ARC
  5
495
330
1F
100
AcDbEntity
  8
0
  6
Continuous
 62
     7
370
    18
100
AcDbCircle
 10
185.9158587472
 20
154.9094773701
 30
0.0
 40
1.250000000000011
100
AcDbArc
 50
255.0
 51
195.0
  0
ARC
  5
496
330
1F
100
AcDbEntity
  8
0
  6
Continuous
 62
     7
370
    18
100
AcDbCircle
 10
185.9158587472
 20
179.9094773701
 30
0.0
 40
1.250000000000011
100
AcDbArc
 50
255.0
 51
195.0
  0
ENDSEC
  0
SECTION
  2
OBJECTS
  0
DICTIONARY
  5
C
330
0
100
AcDbDictionary
281
     1
  3
ACAD_GROUP
350
D
  3
ACAD_LAYOUT
350
1A
  3
ACAD_MLINESTYLE
350
17
  3
ACAD_PLOTSETTINGS
350
19
  3
ACAD_PLOTSTYLENAME
350
E
  3
ACAD_SCALELIST
350
47
  0
DICTIONARY
  5
D
102
{ACAD_REACTORS
330
C
102
}
330
C
100
AcDbDictionary
281
     1
  0
DICTIONARY
  5
1A
102
{ACAD_REACTORS
330
C
102
}
330
C
100
AcDbDictionary
281
     1
  3
Layout1
350
1E
  3
Layout2
350
26
  3
Model
350
22
  0
DICTIONARY
  5
17
102
{ACAD_REACTORS
330
C
102
}
330
C
100
AcDbDictionary
281
     1
  3
Standard
350
18
  0
DICTIONARY
  5
19
102
{ACAD_REACTORS
330
C
102
}
330
C
100
AcDbDictionary
281
     1
  0
ACDBDICTIONARYWDFLT
  5
E
102
{ACAD_REACTORS
330
C
102
}
330
C
100
AcDbDictionary
281
     1
  3
Normal
350
F
100
AcDbDictionaryWithDefault
340
F
  0
DICTIONARY
  5
47
102
{ACAD_REACTORS
330
C
102
}
330
C
100
AcDbDictionary
281
     1
  3
A0
350
48
  3
A1
350
49
  3
A2
350
4A
  3
A3
350
4B
  3
A4
350
4C
  3
A5
350
4D
  3
A6
350
4E
  3
A7
350
4F
  3
A8
350
50
  3
A9
350
51
  3
B0
350
52
  3
B1
350
53
  3
B2
350
54
  3
B3
350
55
  3
B4
350
56
  3
B5
350
57
  3
B6
350
58
  3
B7
350
59
  3
B8
350
5A
  3
B9
350
5B
  3
C0
350
5C
  3
C1
350
5D
  3
C2
350
5E
  3
C3
350
5F
  3
C4
350
60
  3
C5
350
61
  3
C6
350
62
  3
C7
350
63
  3
C8
350
64
  3
C9
350
65
  3
D0
350
66
  3
D1
350
67
  3
D2
350
68
  0
LAYOUT
  5
1E
102
{ACAD_REACTORS
330
1A
102
}
330
1A
100
AcDbPlotSettings
  1

  2
none_device
  4

  6

 40
0.0
 41
0.0
 42
0.0
 43
0.0
 44
0.0
 45
0.0
 46
0.0
 47
0.0
 48
0.0
 49
0.0
140
0.0
141
0.0
142
1.0
143
1.0
 70
   688
 72
     1
 73
     0
 74
     5
  7

 75
    16
147
1.0
148
0.0
149
0.0
100
AcDbLayout
  1
Layout1
 70
     1
 71
     1
 10
0.0
 20
0.0
 11
420.0
 21
297.0
 12
0.0
 22
0.0
 32
0.0
 14
1.0000000000E+20
 24
1.0000000000E+20
 34
1.0000000000E+20
 15
-1.0000000000E+20
 25
-1.0000000000E+20
 35
-1.0000000000E+20
146
0.0
 13
0.0
 23
0.0
 33
0.0
 16
1.0
 26
0.0
 36
0.0
 17
0.0
 27
1.0
 37
0.0
 76
     0
330
1B
  0
LAYOUT
  5
26
102
{ACAD_REACTORS
330
1A
102
}
330
1A
100
AcDbPlotSettings
  1

  2
none_device
  4

  6

 40
0.0
 41
0.0
 42
0.0
 43
0.0
 44
0.0
 45
0.0
 46
0.0
 47
0.0
 48
0.0
 49
0.0
140
0.0
141
0.0
142
1.0
143
1.0
 70
   688
 72
     1
 73
     0
 74
     5
  7

 75
    16
147
1.0
148
0.0
149
0.0
100
AcDbLayout
  1
Layout2
 70
     1
 71
     2
 10
0.0
 20
0.0
 11
0.0
 21
0.0
 12
0.0
 22
0.0
 32
0.0
 14
0.0
 24
0.0
 34
0.0
 15
0.0
 25
0.0
 35
0.0
146
0.0
 13
0.0
 23
0.0
 33
0.0
 16
1.0
 26
0.0
 36
0.0
 17
0.0
 27
1.0
 37
0.0
 76
     0
330
23
  0
LAYOUT
  5
22
102
{ACAD_REACTORS
330
1A
102
}
330
1A
100
AcDbPlotSettings
  1

  2
none_device
  4
Letter_(8.50_x_11.00_Inches)
  6

 40
6.35
 41
6.35
 42
6.35000508
 43
6.35000508
 44
215.9
 45
279.4
 46
0.0
 47
0.0
 48
0.0
 49
0.0
140
0.0
141
0.0
142
1.0
143
1.0
 70
  1712
 72
     1
 73
     0
 74
     0
  7

 75
     0
147
1.0
148
0.0
149
0.0
100
AcDbLayout
  1
Model
 70
     1
 71
     0
 10
0.0
 20
0.0
 11
279.4
 21
215.9
 12
0.0
 22
0.0
 32
0.0
 14
0.0
 24
0.0
 34
0.0
 15
279.4
 25
215.9
 35
0.0
146
0.0
 13
0.0
 23
0.0
 33
0.0
 16
1.0
 26
0.0
 36
0.0
 17
0.0
 27
1.0
 37
0.0
 76
     0
330
1F
331
29
  0
MLINESTYLE
  5
18
102
{ACAD_REACTORS
330
17
102
}
330
17
100
AcDbMlineStyle
  2
Standard
 70
     0
  3

 62
   256
 51
90.0
 52
90.0
 71
     2
 49
0.5
 62
   256
  6
BYLAYER
 49
-0.5
 62
   256
  6
BYLAYER
  0
ACDBPLACEHOLDER
  5
F
102
{ACAD_REACTORS
330
E
102
}
330
E
  0
SCALE
  5
48
102
{ACAD_REACTORS
330
47
102
}
330
47
100
AcDbScale
 70
     0
300
1:1
140
1.0
141
1.0
290
     1
  0
SCALE
  5
49
102
{ACAD_REACTORS
330
47
102
}
330
47
100
AcDbScale
 70
     0
300
1:2
140
1.0
141
2.0
290
     0
  0
SCALE
  5
4A
102
{ACAD_REACTORS
330
47
102
}
330
47
100
AcDbScale
 70
     0
300
1:4
140
1.0
141
4.0
290
     0
  0
SCALE
  5
4B
102
{ACAD_REACTORS
330
47
102
}
330
47
100
AcDbScale
 70
     0
300
1:5
140
1.0
141
5.0
290
     0
  0
SCALE
  5
4C
102
{ACAD_REACTORS
330
47
102
}
330
47
100
AcDbScale
 70
     0
300
1:8
140
1.0
141
8.0
290
     0
  0
SCALE
  5
4D
102
{ACAD_REACTORS
330
47
102
}
330
47
100
AcDbScale
 70
     0
300
1:10
140
1.0
141
10.0
290
     0
  0
SCALE
  5
4E
102
{ACAD_REACTORS
330
47
102
}
330
47
100
AcDbScale
 70
     0
300
1:16
140
1.0
141
16.0
290
     0
  0
SCALE
  5
4F
102
{ACAD_REACTORS
330
47
102
}
330
47
100
AcDbScale
 70
     0
300
1:20
140
1.0
141
20.0
290
     0
  0
SCALE
  5
50
102
{ACAD_REACTORS
330
47
102
}
330
47
100
AcDbScale
 70
     0
300
1:30
140
1.0
141
30.0
290
     0
  0
SCALE
  5
51
102
{ACAD_REACTORS
330
47
102
}
330
47
100
AcDbScale
 70
     0
300
1:40
140
1.0
141
40.0
290
     0
  0
SCALE
  5
52
102
{ACAD_REACTORS
330
47
102
}
330
47
100
AcDbScale
 70
     0
300
1:50
140
1.0
141
50.0
290
     0
  0
SCALE
  5
53
102
{ACAD_REACTORS
330
47
102
}
330
47
100
AcDbScale
 70
     0
300
1:100
140
1.0
141
100.0
290
     0
  0
SCALE
  5
54
102
{ACAD_REACTORS
330
47
102
}
330
47
100
AcDbScale
 70
     0
300
2:1
140
2.0
141
1.0
290
     0
  0
SCALE
  5
55
102
{ACAD_REACTORS
330
47
102
}
330
47
100
AcDbScale
 70
     0
300
4:1
140
4.0
141
1.0
290
     0
  0
SCALE
  5
56
102
{ACAD_REACTORS
330
47
102
}
330
47
100
AcDbScale
 70
     0
300
8:1
140
8.0
141
1.0
290
     0
  0
SCALE
  5
57
102
{ACAD_REACTORS
330
47
102
}
330
47
100
AcDbScale
 70
     0
300
10:1
140
10.0
141
1.0
290
     0
  0
SCALE
  5
58
102
{ACAD_REACTORS
330
47
102
}
330
47
100
AcDbScale
 70
     0
300
100:1
140
100.0
141
1.0
290
     0
  0
SCALE
  5
59
102
{ACAD_REACTORS
330
47
102
}
330
47
100
AcDbScale
 70
     0
300
1/128" = 1'-0"
140
0.0078125
141
12.0
290
     0
  0
SCALE
  5
5A
102
{ACAD_REACTORS
330
47
102
}
330
47
100
AcDbScale
 70
     0
300
1/64" = 1'-0"
140
0.015625
141
12.0
290
     0
  0
SCALE
  5
5B
102
{ACAD_REACTORS
330
47
102
}
330
47
100
AcDbScale
 70
     0
300
1/32" = 1'-0"
140
0.03125
141
12.0
290
     0
  0
SCALE
  5
5C
102
{ACAD_REACTORS
330
47
102
}
330
47
100
AcDbScale
 70
     0
300
1/16" = 1'-0"
140
0.0625
141
12.0
290
     0
  0
SCALE
  5
5D
102
{ACAD_REACTORS
330
47
102
}
330
47
100
AcDbScale
 70
     0
300
3/32" = 1'-0"
140
0.09375
141
12.0
290
     0
  0
SCALE
  5
5E
102
{ACAD_REACTORS
330
47
102
}
330
47
100
AcDbScale
 70
     0
300
1/8" = 1'-0"
140
0.125
141
12.0
290
     0
  0
SCALE
  5
5F
102
{ACAD_REACTORS
330
47
102
}
330
47
100
AcDbScale
 70
     0
300
3/16" = 1'-0"
140
0.1875
141
12.0
290
     0
  0
SCALE
  5
60
102
{ACAD_REACTORS
330
47
102
}
330
47
100
AcDbScale
 70
     0
300
1/4" = 1'-0"
140
0.25
141
12.0
290
     0
  0
SCALE
  5
61
102
{ACAD_REACTORS
330
47
102
}
330
47
100
AcDbScale
 70
     0
300
3/8" = 1'-0"
140
0.375
141
12.0
290
     0
  0
SCALE
  5
62
102
{ACAD_REACTORS
330
47
102
}
330
47
100
AcDbScale
 70
     0
300
1/2" = 1'-0"
140
0.5
141
12.0
290
     0
  0
SCALE
  5
63
102
{ACAD_REACTORS
330
47
102
}
330
47
100
AcDbScale
 70
     0
300
3/4" = 1'-0"
140
0.75
141
12.0
290
     0
  0
SCALE
  5
64
102
{ACAD_REACTORS
330
47
102
}
330
47
100
AcDbScale
 70
     0
300
1" = 1'-0"
140
1.0
141
12.0
290
     0
  0
SCALE
  5
65
102
{ACAD_REACTORS
330
47
102
}
330
47
100
AcDbScale
 70
     0
300
1-1/2" = 1'-0"
140
1.5
141
12.0
290
     0
  0
SCALE
  5
66
102
{ACAD_REACTORS
330
47
102
}
330
47
100
AcDbScale
 70
     0
300
3" = 1'-0"
140
3.0
141
12.0
290
     0
  0
SCALE
  5
67
102
{ACAD_REACTORS
330
47
102
}
330
47
100
AcDbScale
 70
     0
300
6" = 1'-0"
140
6.0
141
12.0
290
     0
  0
SCALE
  5
68
102
{ACAD_REACTORS
330
47
102
}
330
47
100
AcDbScale
 70
     0
300
1'-0" = 1'-0"
140
12.0
141
12.0
290
     0
  0
ENDSEC
  0
EOF
