  0
SECTION
  2
HEADER
  9
$ACADVER
  1
AC1015
  9
$ACADMAINTVER
 70
     6
  9
$DWGCODEPAGE
  3
ANSI_1252
  9
$INSBASE
 10
0.0
 20
0.0
 30
0.0
  9
$EXTMIN
 10
0.0
 20
0.0
 30
0.0
  9
$EXTMAX
 10
279.4
 20
215.9
 30
0.0
  9
$LIMMIN
 10
0.0
 20
0.0
  9
$LIMMAX
 10
279.4
 20
215.9
  9
$ORTHOMODE
 70
     0
  9
$REGENMODE
 70
     1
  9
$FILLMODE
 70
     1
  9
$QTEXTMODE
 70
     0
  9
$MIRRTEXT
 70
     1
  9
$LTSCALE
 40
1.0
  9
$ATTMODE
 70
     1
  9
$TEXTSIZE
 40
3.5
  9
$TRACEWID
 40
1.0
  9
$TEXTSTYLE
  7
Standard
  9
$CLAYER
  8
0
  9
$CELTYPE
  6
ByLayer
  9
$CECOLOR
 62
   256
  9
$CELTSCALE
 40
1.0
  9
$DISPSILH
 70
     0
  9
$DIMSCALE
 40
1.0
  9
$DIMASZ
 40
3.302
  9
$DIMEXO
 40
1.0
  9
$DIMDLI
 40
3.75
  9
$DIMRND
 40
0.0
  9
$DIMDLE
 40
0.0
  9
$DIMEXE
 40
1.0
  9
$DIMTP
 40
0.0
  9
$DIMTM
 40
0.0
  9
$DIMTXT
 40
3.5
  9
$DIMCEN
 40
2.5
  9
$DIMTSZ
 40
0.0
  9
$DIMTOL
 70
     0
  9
$DIMLIM
 70
     0
  9
$DIMTIH
 70
     1
  9
$DIMTOH
 70
     1
  9
$DIMSE1
 70
     0
  9
$DIMSE2
 70
     0
  9
$DIMTAD
 70
     1
  9
$DIMZIN
 70
     1
  9
$DIMBLK
  1

  9
$DIMASO
 70
     1
  9
$DIMSHO
 70
     1
  9
$DIMPOST
  1

  9
$DIMAPOST
  1

  9
$DIMALT
 70
     0
  9
$DIMALTD
 70
     3
  9
$DIMALTF
 40
0.0393700787
  9
$DIMLFAC
 40
16.0
  9
$DIMTOFL
 70
     1
  9
$DIMTVP
 40
0.0
  9
$DIMTIX
 70
     0
  9
$DIMSOXD
 70
     0
  9
$DIMSAH
 70
     0
  9
$DIMBLK1
  1

  9
$DIMBLK2
  1

  9
$DIMSTYLE
  2
ISO-25
  9
$DIMCLRD
 70
     0
  9
$DIMCLRE
 70
     0
  9
$DIMCLRT
 70
     0
  9
$DIMTFAC
 40
1.0
  9
$DIMGAP
 40
1.524
  9
$DIMJUST
 70
     0
  9
$DIMSD1
 70
     0
  9
$DIMSD2
 70
     0
  9
$DIMTOLJ
 70
     0
  9
$DIMTZIN
 70
     1
  9
$DIMALTZ
 70
     0
  9
$DIMALTTZ
 70
     0
  9
$DIMUPT
 70
     0
  9
$DIMDEC
 70
     2
  9
$DIMTDEC
 70
     2
  9
$DIMALTU
 70
     2
  9
$DIMALTTD
 70
     3
  9
$DIMTXSTY
  7
Standard
  9
$DIMAUNIT
 70
     0
  9
$DIMADEC
 70
     2
  9
$DIMALTRND
 40
0.0
  9
$DIMAZIN
 70
     0
  9
$DIMDSEP
 70
    44
  9
$DIMATFIT
 70
     3
  9
$DIMFRAC
 70
     0
  9
$DIMLDRBLK
  1

  9
$DIMLUNIT
 70
     2
  9
$DIMLWD
 70
    -2
  9
$DIMLWE
 70
    -2
  9
$DIMTMOVE
 70
     0
  9
$LUNITS
 70
     2
  9
$LUPREC
 70
     2
  9
$SKETCHINC
 40
1.0
  9
$FILLETRAD
 40
10.0
  9
$AUNITS
 70
     0
  9
$AUPREC
 70
     2
  9
$MENU
  1
.
  9
$ELEVATION
 40
0.0
  9
$PELEVATION
 40
0.0
  9
$THICKNESS
 40
0.0
  9
$LIMCHECK
 70
     0
  9
$CHAMFERA
 40
0.0
  9
$CHAMFERB
 40
0.0
  9
$CHAMFERC
 40
0.0
  9
$CHAMFERD
 40
0.0
  9
$SKPOLY
 70
     0
  9
$TDCREATE
 40
2459387.083434583
  9
$TDUCREATE
 40
2459387.291767917
  9
$TDUPDATE
 40
2459387.083438843
  9
$TDUUPDATE
 40
2459387.291772176
  9
$TDINDWG
 40
0.0000000116
  9
$TDUSRTIMER
 40
0.0000000116
  9
$USRTIMER
 70
     1
  9
$ANGBASE
 50
0.0
  9
$ANGDIR
 70
     0
  9
$PDMODE
 70
     0
  9
$PDSIZE
 40
-1.0
  9
$PLINEWID
 40
0.0
  9
$SPLFRAME
 70
     0
  9
$SPLINETYPE
 70
     6
  9
$SPLINESEGS
 70
     8
  9
$HANDSEED
  5
1BE
  9
$SURFTAB1
 70
     6
  9
$SURFTAB2
 70
     6
  9
$SURFTYPE
 70
     6
  9
$SURFU
 70
     6
  9
$SURFV
 70
     6
  9
$UCSBASE
  2

  9
$UCSNAME
  2

  9
$UCSORG
 10
0.0
 20
0.0
 30
0.0
  9
$UCSXDIR
 10
1.0
 20
0.0
 30
0.0
  9
$UCSYDIR
 10
0.0
 20
1.0
 30
0.0
  9
$UCSORTHOREF
  2

  9
$UCSORTHOVIEW
 70
     0
  9
$UCSORGTOP
 10
0.0
 20
0.0
 30
0.0
  9
$UCSORGBOTTOM
 10
0.0
 20
0.0
 30
0.0
  9
$UCSORGLEFT
 10
0.0
 20
0.0
 30
0.0
  9
$UCSORGRIGHT
 10
0.0
 20
0.0
 30
0.0
  9
$UCSORGFRONT
 10
0.0
 20
0.0
 30
0.0
  9
$UCSORGBACK
 10
0.0
 20
0.0
 30
0.0
  9
$PUCSBASE
  2

  9
$PUCSNAME
  2

  9
$PUCSORG
 10
0.0
 20
0.0
 30
0.0
  9
$PUCSXDIR
 10
1.0
 20
0.0
 30
0.0
  9
$PUCSYDIR
 10
0.0
 20
1.0
 30
0.0
  9
$PUCSORTHOREF
  2

  9
$PUCSORTHOVIEW
 70
     0
  9
$PUCSORGTOP
 10
0.0
 20
0.0
 30
0.0
  9
$PUCSORGBOTTOM
 10
0.0
 20
0.0
 30
0.0
  9
$PUCSORGLEFT
 10
0.0
 20
0.0
 30
0.0
  9
$PUCSORGRIGHT
 10
0.0
 20
0.0
 30
0.0
  9
$PUCSORGFRONT
 10
0.0
 20
0.0
 30
0.0
  9
$PUCSORGBACK
 10
0.0
 20
0.0
 30
0.0
  9
$USERI1
 70
     0
  9
$USERI2
 70
     0
  9
$USERI3
 70
     0
  9
$USERI4
 70
     0
  9
$USERI5
 70
     0
  9
$USERR1
 40
0.0
  9
$USERR2
 40
0.0
  9
$USERR3
 40
0.0
  9
$USERR4
 40
0.0
  9
$USERR5
 40
0.0
  9
$WORLDVIEW
 70
     1
  9
$SHADEDGE
 70
     3
  9
$SHADEDIF
 70
    70
  9
$TILEMODE
 70
     1
  9
$MAXACTVP
 70
    64
  9
$PINSBASE
 10
0.0
 20
0.0
 30
0.0
  9
$PLIMCHECK
 70
     0
  9
$PEXTMIN
 10
1.0000000000E+20
 20
1.0000000000E+20
 30
1.0000000000E+20
  9
$PEXTMAX
 10
-1.0000000000E+20
 20
-1.0000000000E+20
 30
-1.0000000000E+20
  9
$PLIMMIN
 10
0.0
 20
0.0
  9
$PLIMMAX
 10
420.0
 20
297.0
  9
$UNITMODE
 70
     0
  9
$VISRETAIN
 70
     1
  9
$PLINEGEN
 70
     0
  9
$PSLTSCALE
 70
     1
  9
$TREEDEPTH
 70
  3020
  9
$CMLSTYLE
  2
Standard
  9
$CMLJUST
 70
     0
  9
$CMLSCALE
 40
20.0
  9
$PROXYGRAPHICS
 70
     1
  9
$MEASUREMENT
 70
     1
  9
$CELWEIGHT
370
    -1
  9
$ENDCAPS
280
     0
  9
$JOINSTYLE
280
     0
  9
$LWDISPLAY
290
     1
  9
$INSUNITS
 70
     4
  9
$HYPERLINKBASE
  1

  9
$STYLESHEET
  1

  9
$XEDIT
290
     1
  9
$CEPSNTYPE
380
     0
  9
$PSTYLEMODE
290
     1
  9
$FINGERPRINTGUID
  2
{2729E6BF-7F1C-4940-B2CF-6F8D25F47D9E}
  9
$VERSIONGUID
  2
{FAEB1C32-E019-11D5-929B-00C0DF256EC4}
  9
$EXTNAMES
290
     1
  9
$PSVPSCALE
 40
0.0
  9
$OLESTARTUP
290
     0
  0
ENDSEC
  0
SECTION
  2
CLASSES
  0
CLASS
  1
ACDBDICTIONARYWDFLT
  2
AcDbDictionaryWithDefault
  3
ObjectDBX Classes
 90
        0
280
     0
281
     0
  0
CLASS
  1
VISUALSTYLE
  2
AcDbVisualStyle
  3
ObjectDBX Classes
 90
     4095
280
     0
281
     0
  0
CLASS
  1
MATERIAL
  2
AcDbMaterial
  3
ObjectDBX Classes
 90
     1153
280
     0
281
     0
  0
CLASS
  1
SCALE
  2
AcDbScale
  3
ObjectDBX Classes
 90
     1153
280
     0
281
     0
  0
CLASS
  1
TABLESTYLE
  2
AcDbTableStyle
  3
ObjectDBX Classes
 90
     4095
280
     0
281
     0
  0
CLASS
  1
MLEADERSTYLE
  2
AcDbMLeaderStyle
  3
ACDB_MLEADERSTYLE_CLASS
 90
     4095
280
     0
281
     0
  0
CLASS
  1
SUN
  2
AcDbSun
  3
SCENEOE
 90
     1153
280
     0
281
     0
  0
CLASS
  1
ACDBPLACEHOLDER
  2
AcDbPlaceHolder
  3
ObjectDBX Classes
 90
        0
280
     0
281
     0
  0
CLASS
  1
LAYOUT
  2
AcDbLayout
  3
ObjectDBX Classes
 90
        0
280
     0
281
     0
  0
ENDSEC
  0
SECTION
  2
TABLES
  0
TABLE
  2
VPORT
  5
8
330
0
100
AcDbSymbolTable
 70
     1
  0
VPORT
  5
29
330
8
100
AcDbSymbolTableRecord
100
AcDbViewportTableRecord
  2
*Active
 70
     0
 10
0.0
 20
0.0
 11
1.0
 21
1.0
 12
139.7
 22
107.95
 13
0.0
 23
0.0
 14
10.0
 24
10.0
 15
10.0
 25
10.0
 16
0.0
 26
0.0
 36
1.0
 17
0.0
 27
0.0
 37
0.0
 40
215.9
 41
1.2941176471
 42
50.0
 43
0.0
 44
0.0
 50
0.0
 51
0.0
 71
     0
 72
  2000
 73
     1
 74
     3
 75
     0
 76
     0
 77
     0
 78
     0
281
     0
 65
     1
110
0.0
120
0.0
130
0.0
111
1.0
121
0.0
131
0.0
112
0.0
122
1.0
132
0.0
 79
     0
146
0.0
  0
ENDTAB
  0
TABLE
  2
LTYPE
  5
5
330
0
100
AcDbSymbolTable
 70
     6
  0
LTYPE
  5
14
330
5
100
AcDbSymbolTableRecord
100
AcDbLinetypeTableRecord
  2
ByBlock
 70
     0
  3

 72
    65
 73
     0
 40
0.0
  0
LTYPE
  5
15
330
5
100
AcDbSymbolTableRecord
100
AcDbLinetypeTableRecord
  2
ByLayer
 70
     0
  3

 72
    65
 73
     0
 40
0.0
  0
LTYPE
  5
16
330
5
100
AcDbSymbolTableRecord
100
AcDbLinetypeTableRecord
  2
Continuous
 70
     0
  3
Solid line
 72
    65
 73
     0
 40
0.0
  0
LTYPE
  5
6E
330
5
100
AcDbSymbolTableRecord
100
AcDbLinetypeTableRecord
  2
HIDDEN
 70
     0
  3
Hidden __ __ __ __ __ __ __ __ __ __ __ __ __ __
 72
    65
 73
     2
 40
1.905
 49
1.27
 74
     0
 49
-0.635
 74
     0
  0
LTYPE
  5
6F
330
5
100
AcDbSymbolTableRecord
100
AcDbLinetypeTableRecord
  2
PHANTOM
 70
     0
  3
Phantom ______  __  __  ______  __  __  ______
 72
    65
 73
     6
 40
12.7
 49
6.35
 74
     0
 49
-1.27
 74
     0
 49
1.27
 74
     0
 49
-1.27
 74
     0
 49
1.27
 74
     0
 49
-1.27
 74
     0
  0
LTYPE
  5
70
330
5
100
AcDbSymbolTableRecord
100
AcDbLinetypeTableRecord
  2
CENTER
 70
     0
  3
Center ____ _ ____ _ ____ _ ____ _ ____ _ ____
 72
    65
 73
     4
 40
10.16
 49
6.35
 74
     0
 49
-1.27
 74
     0
 49
1.27
 74
     0
 49
-1.27
 74
     0
  0
LTYPE
  5
71
330
5
100
AcDbSymbolTableRecord
100
AcDbLinetypeTableRecord
  2
CENTERX2
 70
     0
  3
Center (2x) ________  __  ________  __  _____
 72
    65
 73
     4
 40
20.32
 49
12.7
 74
     0
 49
-2.54
 74
     0
 49
2.54
 74
     0
 49
-2.54
 74
     0
  0
LTYPE
  5
72
330
5
100
AcDbSymbolTableRecord
100
AcDbLinetypeTableRecord
  2
DOT2
 70
     0
  3
Dot (.5x) ........................................
 72
    65
 73
     2
 40
0.635
 49
0.0
 74
     0
 49
-0.635
 74
     0
  0
ENDTAB
  0
TABLE
  2
LAYER
  5
2
330
0
100
AcDbSymbolTable
 70
     6
  0
LAYER
  5
10
330
2
100
AcDbSymbolTableRecord
100
AcDbLayerTableRecord
  2
0
 70
     0
 62
     7
  6
Continuous
370
    -3
390
F
  0
LAYER
  5
73
330
2
100
AcDbSymbolTableRecord
100
AcDbLayerTableRecord
  2
FORMAT
 70
     0
 62
     8
  6
Continuous
370
    -3
390
F
  0
LAYER
  5
74
330
2
100
AcDbSymbolTableRecord
100
AcDbLayerTableRecord
  2
TITLE_BLOCK_TEXT
 70
     0
 62
     8
  6
Continuous
370
    -3
390
F
  0
LAYER
  5
75
330
2
100
AcDbSymbolTableRecord
100
AcDbLayerTableRecord
  2
PAGE_BORDER
 70
     0
 62
     7
  6
Continuous
370
    -3
390
F
  0
LAYER
  5
76
330
2
100
AcDbSymbolTableRecord
100
AcDbLayerTableRecord
  2
TITLE_BLOCK_BORDER
 70
     0
 62
     7
  6
Continuous
370
    -3
390
F
  0
LAYER
  5
77
330
2
100
AcDbSymbolTableRecord
100
AcDbLayerTableRecord
  2
DIM
 70
     0
 62
     1
  6
Continuous
370
    -3
390
F
  0
ENDTAB
  0
TABLE
  2
STYLE
  5
3
330
0
100
AcDbSymbolTable
 70
     3
  0
STYLE
  5
11
330
3
100
AcDbSymbolTableRecord
100
AcDbTextStyleTableRecord
  2
Standard
 70
     0
 40
0.0
 41
1.0
 50
0.0
 71
     0
 42
3.5
  3
txt
  4

  0
STYLE
  5
CF
330
3
100
AcDbSymbolTableRecord
100
AcDbTextStyleTableRecord
  2
SLDTEXTSTYLE0
 70
     0
 40
0.0
 41
0.75
 50
0.0
 71
     0
 42
3.5
  3
TXT
  4

  0
STYLE
  5
E6
330
3
100
AcDbSymbolTableRecord
100
AcDbTextStyleTableRecord
  2
SLDTEXTSTYLE1
 70
     0
 40
0.0
 41
0.7
 50
0.0
 71
     0
 42
3.5
  3
TXT
  4

  0
ENDTAB
  0
TABLE
  2
VIEW
  5
6
330
0
100
AcDbSymbolTable
 70
     0
  0
ENDTAB
  0
TABLE
  2
UCS
  5
7
330
0
100
AcDbSymbolTable
 70
     0
  0
ENDTAB
  0
TABLE
  2
APPID
  5
9
330
0
100
AcDbSymbolTable
 70
     1
  0
APPID
  5
12
330
9
100
AcDbSymbolTableRecord
100
AcDbRegAppTableRecord
  2
ACAD
 70
     0
  0
ENDTAB
  0
TABLE
  2
DIMSTYLE
  5
A
330
0
100
AcDbSymbolTable
 70
     3
100
AcDbDimStyleTable
  0
DIMSTYLE
105
27
330
A
100
AcDbSymbolTableRecord
100
AcDbDimStyleTableRecord
  2
ISO-25
 70
     0
 41
2.5
 42
0.625
 43
3.75
 44
1.25
 73
     0
 74
     0
 77
     1
 78
     8
140
2.5
141
2.5
143
0.0393700787
147
0.625
171
     3
172
     1
178
     0
271
     2
272
     2
274
     3
278
    44
283
     0
284
     8
340
11
  0
DIMSTYLE
105
F1
102
{ACAD_REACTORS
330
F0
330
104
330
16E
330
181
330
198
330
1AB
102
}
330
A
100
AcDbSymbolTableRecord
100
AcDbDimStyleTableRecord
  2
SLDDIMSTYLE0
 70
     0
 41
3.302
 44
0.0
 45
0.000000001
 73
     0
 74
     0
 77
     1
 78
     4
 79
     1
140
3.5
143
0.0393700787
144
16.0
147
0.875
148
0.000000001
170
     1
173
     1
178
     0
271
     2
272
     2
276
     2
284
    12
340
CF
  0
DIMSTYLE
105
118
102
{ACAD_REACTORS
330
117
330
12D
330
141
330
156
102
}
330
A
100
AcDbSymbolTableRecord
100
AcDbDimStyleTableRecord
  2
SLDDIMSTYLE1
 70
     0
 41
3.302
 44
0.0
 45
0.000000001
 73
     0
 74
     0
 77
     1
 78
    12
 79
     3
140
3.5
143
0.0393700787
144
16.0
147
0.875
148
0.000000001
170
     1
172
     1
173
     1
178
     0
271
     2
272
     2
276
     2
284
    12
289
     0
340
CF
  0
ENDTAB
  0
TABLE
  2
BLOCK_RECORD
  5
1
330
0
100
AcDbSymbolTable
 70
    12
  0
BLOCK_RECORD
  5
1F
330
1
100
AcDbSymbolTableRecord
100
AcDbBlockTableRecord
  2
*Model_Space
340
22
  0
BLOCK_RECORD
  5
1B
330
1
100
AcDbSymbolTableRecord
100
AcDbBlockTableRecord
  2
*Paper_Space
340
1E
  0
BLOCK_RECORD
  5
23
330
1
100
AcDbSymbolTableRecord
100
AcDbBlockTableRecord
  2
*Paper_Space0
340
26
  0
BLOCK_RECORD
  5
78
330
1
100
AcDbSymbolTableRecord
100
AcDbBlockTableRecord
  2
Lien3D Logo
340
0
102
{BLKREFS
331
CE
102
}
  0
BLOCK_RECORD
  5
F2
330
1
100
AcDbSymbolTableRecord
100
AcDbBlockTableRecord
  2
_D
340
0
  0
BLOCK_RECORD
  5
105
330
1
100
AcDbSymbolTableRecord
100
AcDbBlockTableRecord
  2
_D_1
340
0
  0
BLOCK_RECORD
  5
119
330
1
100
AcDbSymbolTableRecord
100
AcDbBlockTableRecord
  2
_D_2
340
0
  0
BLOCK_RECORD
  5
12E
330
1
100
AcDbSymbolTableRecord
100
AcDbBlockTableRecord
  2
_D_3
340
0
  0
BLOCK_RECORD
  5
142
330
1
100
AcDbSymbolTableRecord
100
AcDbBlockTableRecord
  2
_D_4
340
0
  0
BLOCK_RECORD
  5
157
330
1
100
AcDbSymbolTableRecord
100
AcDbBlockTableRecord
  2
_D_5
340
0
  0
BLOCK_RECORD
  5
16F
330
1
100
AcDbSymbolTableRecord
100
AcDbBlockTableRecord
  2
_D_6
340
0
  0
BLOCK_RECORD
  5
182
330
1
100
AcDbSymbolTableRecord
100
AcDbBlockTableRecord
  2
_D_7
340
0
  0
BLOCK_RECORD
  5
199
330
1
100
AcDbSymbolTableRecord
100
AcDbBlockTableRecord
  2
_D_8
340
0
  0
BLOCK_RECORD
  5
1AC
330
1
100
AcDbSymbolTableRecord
100
AcDbBlockTableRecord
  2
_D_9
340
0
  0
ENDTAB
  0
ENDSEC
  0
SECTION
  2
BLOCKS
  0
BLOCK
  5
20
330
1F
100
AcDbEntity
  8
0
100
AcDbBlockBegin
  2
*Model_Space
 70
     0
 10
0.0
 20
0.0
 30
0.0
  3
*Model_Space
  1

  0
ENDBLK
  5
21
330
1F
100
AcDbEntity
  8
0
100
AcDbBlockEnd
  0
BLOCK
  5
1C
330
1B
100
AcDbEntity
 67
     1
  8
0
100
AcDbBlockBegin
  2
*Paper_Space
 70
     0
 10
0.0
 20
0.0
 30
0.0
  3
*Paper_Space
  1

  0
ENDBLK
  5
1D
330
1B
100
AcDbEntity
 67
     1
  8
0
100
AcDbBlockEnd
  0
BLOCK
  5
24
330
23
100
AcDbEntity
  8
0
100
AcDbBlockBegin
  2
*Paper_Space0
 70
     0
 10
0.0
 20
0.0
 30
0.0
  3
*Paper_Space0
  1

  0
ENDBLK
  5
25
330
23
100
AcDbEntity
  8
0
100
AcDbBlockEnd
  0
BLOCK
  5
79
330
78
100
AcDbEntity
  8
0
100
AcDbBlockBegin
  2
Lien3D Logo
 70
     0
 10
0.0
 20
0.0
 30
0.0
  3
Lien3D Logo
  1

  0
LINE
  5
7B
330
78
100
AcDbEntity
  8
0
  6
Continuous
 62
     7
370
    18
100
AcDbLine
 10
12.7343265569
 20
5.3110134638
 30
0.0
 11
21.2132034356
 21
10.2057648981
 31
0.0
  0
LINE
  5
7C
330
78
100
AcDbEntity
  8
0
  6
Continuous
 62
     7
370
    18
100
AcDbLine
 10
11.6704641374
 20
5.9251681659
 30
0.0
 11
12.7343265569
 21
5.3110134638
 31
0.0
  0
LINE
  5
7D
330
78
100
AcDbEntity
  8
0
  6
Continuous
 62
     7
370
    18
100
AcDbLine
 10
14.7485350487
 20
8.8934377183
 30
0.0
 11
11.6704641374
 21
5.9251681659
 31
0.0
  0
LINE
  5
7E
330
78
100
AcDbEntity
  8
0
  6
Continuous
 62
     7
370
    18
100
AcDbLine
 10
10.6386241956
 20
6.5208366851
 30
0.0
 11
14.7485350487
 21
8.8934377183
 31
0.0
  0
LINE
  5
7F
330
78
100
AcDbEntity
  8
0
  6
Continuous
 62
     7
370
    18
100
AcDbLine
 10
9.5747617761
 20
7.1349913873
 30
0.0
 11
10.6386241956
 21
6.5208366851
 31
0.0
  0
LINE
  5
80
330
78
100
AcDbEntity
  8
0
  6
Continuous
 62
     7
370
    18
100
AcDbLine
 10
18.0536386548
 20
12.0297428216
 30
0.0
 11
9.5747617761
 21
7.1349913873
 31
0.0
  0
LINE
  5
81
330
78
100
AcDbEntity
  8
0
  6
Continuous
 62
     7
370
    18
100
AcDbLine
 10
19.1175010743
 20
11.4155881195
 30
0.0
 11
18.0536386548
 21
12.0297428216
 31
0.0
  0
LINE
  5
82
330
78
100
AcDbEntity
  8
0
  6
Continuous
 62
     7
370
    18
100
AcDbLine
 10
16.039430163
 20
8.447318567
 30
0.0
 11
19.1175010743
 21
11.4155881195
 31
0.0
  0
LINE
  5
83
330
78
100
AcDbEntity
  8
0
  6
Continuous
 62
     7
370
    18
100
AcDbLine
 10
20.149341016
 20
10.8199196003
 30
0.0
 11
16.039430163
 21
8.447318567
 31
0.0
  0
LINE
  5
84
330
78
100
AcDbEntity
  8
0
  6
Continuous
 62
     7
370
    18
100
AcDbLine
 10
21.2132034356
 20
10.2057648981
 30
0.0
 11
20.149341016
 21
10.8199196003
 31
0.0
  0
LINE
  5
85
330
78
100
AcDbEntity
  8
0
  6
Continuous
 62
     7
370
    18
100
AcDbLine
 10
12.7343265569
 20
5.3110134638
 30
0.0
 11
12.7343265569
 21
1.2283094043
 31
0.0
  0
LINE
  5
86
330
78
100
AcDbEntity
  8
0
  6
Continuous
 62
     7
370
    18
100
AcDbLine
 10
21.2132034356
 20
10.2057648981
 30
0.0
 11
21.2132034356
 21
6.1230608387
 31
0.0
  0
LINE
  5
87
330
78
100
AcDbEntity
  8
0
  6
Continuous
 62
     7
370
    18
100
AcDbLine
 10
12.7343265569
 20
1.2283094043
 30
0.0
 11
21.2132034356
 21
6.1230608387
 31
0.0
  0
LINE
  5
88
330
78
100
AcDbEntity
  8
0
  6
Continuous
 62
     7
370
    18
100
AcDbLine
 10
11.6704641374
 20
5.9251681659
 30
0.0
 11
11.6704641374
 21
4.6968587616
 31
0.0
  0
LINE
  5
89
330
78
100
AcDbEntity
  8
0
  6
Continuous
 62
     7
370
    18
100
AcDbLine
 10
11.6704641374
 20
1.8424641065
 30
0.0
 11
12.7343265569
 21
1.2283094043
 31
0.0
  0
LINE
  5
8A
330
78
100
AcDbEntity
  8
0
  6
Continuous
 62
     7
370
    18
100
AcDbLine
 10
10.6386241956
 20
6.5208366851
 30
0.0
 11
10.6386241956
 21
5.2925272808
 31
0.0
  0
LINE
  5
8B
330
78
100
AcDbEntity
  8
0
  6
Continuous
 62
     7
370
    18
100
AcDbLine
 10
9.5747617761
 20
7.1349913873
 30
0.0
 11
9.5747617761
 21
5.9066819829
 31
0.0
  0
LINE
  5
8C
330
78
100
AcDbEntity
  8
0
  6
Continuous
 62
     7
370
    18
100
AcDbLine
 10
19.1175010743
 20
11.4155881195
 30
0.0
 11
19.1175010743
 21
10.2242510811
 31
0.0
  0
LINE
  5
8D
330
78
100
AcDbEntity
  8
0
  6
Continuous
 62
     7
370
    18
100
AcDbLine
 10
10.6066017178
 20
4.0827040594
 30
0.0
 11
10.6066017178
 21
0.0
 31
0.0
  0
LINE
  5
8E
330
78
100
AcDbEntity
  8
0
  6
Continuous
 62
     7
370
    18
100
AcDbLine
 10
10.6066017178
 20
4.0827040594
 30
0.0
 11
11.6704641374
 21
4.6968587616
 31
0.0
  0
LINE
  5
8F
330
78
100
AcDbEntity
  8
0
  6
Continuous
 62
     7
370
    18
100
AcDbLine
 10
11.6704641374
 20
4.6968587616
 30
0.0
 11
11.6704641374
 21
0.6141547022
 31
0.0
  0
LINE
  5
90
330
78
100
AcDbEntity
  8
0
  6
Continuous
 62
     7
370
    18
100
AcDbLine
 10
10.6066017178
 20
0.0
 30
0.0
 11
11.6704641374
 21
0.6141547022
 31
0.0
  0
LINE
  5
91
330
78
100
AcDbEntity
  8
0
  6
Continuous
 62
     7
370
    18
100
AcDbLine
 10
0.0
 20
10.2057648981
 30
0.0
 11
0.0
 21
6.1230608387
 31
0.0
  0
LINE
  5
92
330
78
100
AcDbEntity
  8
0
  6
Continuous
 62
     7
370
    18
100
AcDbLine
 10
0.0
 20
10.2057648981
 30
0.0
 11
10.6066017178
 21
4.0827040594
 31
0.0
  0
LINE
  5
93
330
78
100
AcDbEntity
  8
0
  6
Continuous
 62
     7
370
    18
100
AcDbLine
 10
0.0
 20
6.1230608387
 30
0.0
 11
10.6066017178
 21
0.0
 31
0.0
  0
LINE
  5
94
330
78
100
AcDbEntity
  8
0
  6
Continuous
 62
     7
370
    18
100
AcDbLine
 10
11.6704641374
 20
15.7146710346
 30
0.0
 11
10.6066017178
 21
16.3288257368
 31
0.0
  0
LINE
  5
95
330
78
100
AcDbEntity
  8
0
  6
Continuous
 62
     7
370
    18
100
AcDbLine
 10
2.1277248391
 20
10.2057648981
 30
0.0
 11
11.6704641374
 21
15.7146710346
 31
0.0
  0
LINE
  5
96
330
78
100
AcDbEntity
  8
0
  6
Continuous
 62
     7
370
    18
100
AcDbLine
 10
11.6704641374
 20
4.6968587616
 30
0.0
 11
2.1277248391
 21
10.2057648981
 31
0.0
  0
LINE
  5
97
330
78
100
AcDbEntity
  8
0
  6
Continuous
 62
     7
370
    18
100
AcDbLine
 10
10.6066017178
 20
16.3288257368
 30
0.0
 11
0.0
 21
10.2057648981
 31
0.0
  0
LINE
  5
98
330
78
100
AcDbEntity
  8
0
  6
Continuous
 62
     7
370
    18
100
AcDbLine
 10
11.6704641374
 20
15.7146710346
 30
0.0
 11
11.6704641374
 21
14.4863616303
 31
0.0
  0
LINE
  5
99
330
78
100
AcDbEntity
  8
0
  6
Continuous
 62
     7
370
    18
100
AcDbLine
 10
4.2554496783
 20
10.2057648981
 30
0.0
 11
4.2554496783
 21
8.9774554938
 31
0.0
  0
LINE
  5
9A
330
78
100
AcDbEntity
  8
0
  6
Continuous
 62
     7
370
    18
100
AcDbLine
 10
4.2554496783
 20
10.2057648981
 30
0.0
 11
5.3193120978
 21
9.5916101959
 31
0.0
  0
LINE
  5
9B
330
78
100
AcDbEntity
  8
0
  6
Continuous
 62
     7
370
    18
100
AcDbLine
 10
5.3193120978
 20
9.5916101959
 30
0.0
 11
5.3193120978
 21
8.3633007916
 31
0.0
  0
LINE
  5
9C
330
78
100
AcDbEntity
  8
0
  6
Continuous
 62
     7
370
    18
100
AcDbLine
 10
5.3193120978
 20
9.5916101959
 30
0.0
 11
13.7981889765
 21
14.4863616303
 31
0.0
  0
LINE
  5
9D
330
78
100
AcDbEntity
  8
0
  6
Continuous
 62
     7
370
    18
100
AcDbLine
 10
13.7981889765
 20
14.4863616303
 30
0.0
 11
13.7981889765
 21
13.2580522259
 31
0.0
  0
LINE
  5
9E
330
78
100
AcDbEntity
  8
0
  6
Continuous
 62
     7
370
    18
100
AcDbLine
 10
12.7343265569
 20
15.1005163324
 30
0.0
 11
4.2554496783
 21
10.2057648981
 31
0.0
  0
LINE
  5
9F
330
78
100
AcDbEntity
  8
0
  6
Continuous
 62
     7
370
    18
100
AcDbLine
 10
13.7981889765
 20
14.4863616303
 30
0.0
 11
12.7343265569
 21
15.1005163324
 31
0.0
  0
LINE
  5
A0
330
78
100
AcDbEntity
  8
0
  6
Continuous
 62
     7
370
    18
100
AcDbLine
 10
15.9259138156
 20
12.0297428216
 30
0.0
 11
16.9897762352
 21
12.6438975238
 31
0.0
  0
LINE
  5
A1
330
78
100
AcDbEntity
  8
0
  6
Continuous
 62
     7
370
    18
100
AcDbLine
 10
14.8620513961
 20
12.6438975238
 30
0.0
 11
15.9259138156
 21
12.0297428216
 31
0.0
  0
LINE
  5
A2
330
78
100
AcDbEntity
  8
0
  6
Continuous
 62
     7
370
    18
100
AcDbLine
 10
12.2184065861
 20
11.1177538599
 30
0.0
 11
14.8620513961
 21
12.6438975238
 31
0.0
  0
LINE
  5
A3
330
78
100
AcDbEntity
  8
0
  6
Continuous
 62
     7
370
    18
100
AcDbLine
 10
13.2822690056
 20
10.5035991577
 30
0.0
 11
12.2184065861
 21
11.1177538599
 31
0.0
  0
LINE
  5
A4
330
78
100
AcDbEntity
  8
0
  6
Continuous
 62
     7
370
    18
100
AcDbLine
 10
12.2184065861
 20
9.8894444555
 30
0.0
 11
13.2822690056
 21
10.5035991577
 31
0.0
  0
LINE
  5
A5
330
78
100
AcDbEntity
  8
0
  6
Continuous
 62
     7
370
    18
100
AcDbLine
 10
11.1545441665
 20
10.5035991577
 30
0.0
 11
12.2184065861
 21
9.8894444555
 31
0.0
  0
LINE
  5
A6
330
78
100
AcDbEntity
  8
0
  6
Continuous
 62
     7
370
    18
100
AcDbLine
 10
8.5108993565
 20
8.9774554938
 30
0.0
 11
11.1545441665
 21
10.5035991577
 31
0.0
  0
LINE
  5
A7
330
78
100
AcDbEntity
  8
0
  6
Continuous
 62
     7
370
    18
100
AcDbLine
 10
9.5747617761
 20
8.3633007916
 30
0.0
 11
8.5108993565
 21
8.9774554938
 31
0.0
  0
LINE
  5
A8
330
78
100
AcDbEntity
  8
0
  6
Continuous
 62
     7
370
    18
100
AcDbLine
 10
8.5108993565
 20
7.7491460894
 30
0.0
 11
9.5747617761
 21
8.3633007916
 31
0.0
  0
LINE
  5
A9
330
78
100
AcDbEntity
  8
0
  6
Continuous
 62
     7
370
    18
100
AcDbLine
 10
6.3831745174
 20
8.9774554938
 30
0.0
 11
8.5108993565
 21
7.7491460894
 31
0.0
  0
LINE
  5
AA
330
78
100
AcDbEntity
  8
0
  6
Continuous
 62
     7
370
    18
100
AcDbLine
 10
14.8620513961
 20
13.8722069281
 30
0.0
 11
6.3831745174
 21
8.9774554938
 31
0.0
  0
LINE
  5
AB
330
78
100
AcDbEntity
  8
0
  6
Continuous
 62
     7
370
    18
100
AcDbLine
 10
16.9897762352
 20
12.6438975238
 30
0.0
 11
14.8620513961
 21
13.8722069281
 31
0.0
  0
LINE
  5
AC
330
78
100
AcDbEntity
  8
0
  6
Continuous
 62
     7
370
    18
100
AcDbLine
 10
6.3831745174
 20
8.9774554938
 30
0.0
 11
6.3831745174
 21
7.7491460894
 31
0.0
  0
LINE
  5
AD
330
78
100
AcDbEntity
  8
0
  6
Continuous
 62
     7
370
    18
100
AcDbLine
 10
8.5108993565
 20
7.7491460894
 30
0.0
 11
8.5108993565
 21
6.5208366851
 31
0.0
  0
LINE
  5
AE
330
78
100
AcDbEntity
  8
0
  6
Continuous
 62
     7
370
    18
100
AcDbLine
 10
9.5747617761
 20
8.3633007916
 30
0.0
 11
9.5747617761
 21
7.1349913873
 31
0.0
  0
LINE
  5
AF
330
78
100
AcDbEntity
  8
0
  6
Continuous
 62
     7
370
    18
100
AcDbLine
 10
11.1545441665
 20
10.5035991577
 30
0.0
 11
11.1545441665
 21
8.046980349
 31
0.0
  0
LINE
  5
B0
330
78
100
AcDbEntity
  8
0
  6
Continuous
 62
     7
370
    18
100
AcDbLine
 10
12.2184065861
 20
9.8894444555
 30
0.0
 11
12.2184065861
 21
8.6611350512
 31
0.0
  0
LINE
  5
B1
330
78
100
AcDbEntity
  8
0
  6
Continuous
 62
     7
370
    18
100
AcDbLine
 10
13.2822690056
 20
10.5035991577
 30
0.0
 11
13.2822690056
 21
9.2752897534
 31
0.0
  0
LINE
  5
B2
330
78
100
AcDbEntity
  8
0
  6
Continuous
 62
     7
370
    18
100
AcDbLine
 10
14.8620513961
 20
12.6438975238
 30
0.0
 11
14.8620513961
 21
10.1872787151
 31
0.0
  0
LINE
  5
B3
330
78
100
AcDbEntity
  8
0
  6
Continuous
 62
     7
370
    18
100
AcDbLine
 10
15.9259138156
 20
12.0297428216
 30
0.0
 11
15.9259138156
 21
10.8014334173
 31
0.0
  0
LINE
  5
B4
330
78
100
AcDbEntity
  8
0
  6
Continuous
 62
     7
370
    18
100
AcDbLine
 10
16.9897762352
 20
12.6438975238
 30
0.0
 11
16.9897762352
 21
11.4155881195
 31
0.0
  0
ENDBLK
  5
7A
330
78
100
AcDbEntity
  8
0
100
AcDbBlockEnd
  0
BLOCK
  5
F3
330
F2
100
AcDbEntity
  8
0
100
AcDbBlockBegin
  2
_D
 70
     0
 10
0.0
 20
0.0
 30
0.0
  3
_D
  1

  0
SOLID
  5
F5
330
F2
100
AcDbEntity
  8
DIM
100
AcDbTrace
 10
112.9891049857
 20
192.8471261682
 30
0.0
 11
109.6871049857
 21
193.3551261682
 31
0.0
 12
109.6871049857
 22
192.3391261682
 32
0.0
 13
109.6871049857
 23
192.3391261682
 33
0.0
  0
SOLID
  5
F6
330
F2
100
AcDbEntity
  8
DIM
100
AcDbTrace
 10
36.7891049857
 20
192.8471261682
 30
0.0
 11
40.0911049857
 21
192.3391261682
 31
0.0
 12
40.0911049857
 22
193.3551261682
 32
0.0
 13
40.0911049857
 23
193.3551261682
 33
0.0
  0
LINE
  5
F7
330
F2
100
AcDbEntity
  8
DIM
100
AcDbLine
 10
69.3208834903
 20
203.6400078843
 30
0.0
 11
68.2544772329
 21
203.6400078843
 31
0.0
  0
LINE
  5
F8
330
F2
100
AcDbEntity
  8
DIM
100
AcDbLine
 10
68.2544772329
 20
203.6400078843
 30
0.0
 11
68.2544772329
 21
198.0837578932
 31
0.0
  0
LINE
  5
F9
330
F2
100
AcDbEntity
  8
DIM
100
AcDbLine
 10
68.2544772329
 20
198.0837578932
 30
0.0
 11
69.3208834903
 21
198.0837578932
 31
0.0
  0
LINE
  5
FA
330
F2
100
AcDbEntity
  8
DIM
100
AcDbLine
 10
83.5444954039
 20
203.6400078843
 30
0.0
 11
84.6109016614
 21
203.6400078843
 31
0.0
  0
LINE
  5
FB
330
F2
100
AcDbEntity
  8
DIM
100
AcDbLine
 10
84.6109016614
 20
203.6400078843
 30
0.0
 11
84.6109016614
 21
198.0837578932
 31
0.0
  0
LINE
  5
FC
330
F2
100
AcDbEntity
  8
DIM
100
AcDbLine
 10
84.6109016614
 20
198.0837578932
 30
0.0
 11
83.5444954039
 21
198.0837578932
 31
0.0
  0
LINE
  5
FD
330
F2
100
AcDbEntity
  8
DIM
100
AcDbLine
 10
112.9891049857
 20
188.5307815421
 30
0.0
 11
112.9891049857
 21
193.8471261682
 31
0.0
  0
LINE
  5
FE
330
F2
100
AcDbEntity
  8
DIM
100
AcDbLine
 10
36.7891049857
 20
188.5307815421
 30
0.0
 11
36.7891049857
 21
193.8471261682
 31
0.0
  0
LINE
  5
FF
330
F2
100
AcDbEntity
  8
DIM
100
AcDbLine
 10
112.9891049857
 20
192.8471261682
 30
0.0
 11
36.7891049857
 21
192.8471261682
 31
0.0
  0
MTEXT
  5
100
330
F2
100
AcDbEntity
  8
DIM
100
AcDbMText
 10
67.2075153786
 20
197.4123354341
 30
0.0
 40
3.5
 41
0.0
 71
     1
 72
     1
  1

  7
SLDTEXTSTYLE0
 73
     1
 44
1.0
  0
MTEXT
  5
101
330
F2
100
AcDbEntity
  8
DIM
100
AcDbMText
 10
69.3208834903
 20
202.5954948078
 30
0.0
 40
3.5
 41
0.0
 71
     1
 72
     1
  1
48.000
  7
SLDTEXTSTYLE0
 73
     1
 44
1.0
  0
MTEXT
  5
102
330
F2
100
AcDbEntity
  8
DIM
100
AcDbMText
 10
68.0278277771
 20
197.3588632574
 30
0.0
 40
3.5
 41
0.0
 71
     1
 72
     1
  1
1219.20
  7
SLDTEXTSTYLE0
 73
     1
 44
1.0
  0
MTEXT
  5
103
330
F2
100
AcDbEntity
  8
DIM
100
AcDbMText
 10
86.9898071039
 20
197.4123354341
 30
0.0
 40
3.5
 41
0.0
 71
     1
 72
     1
  1

  7
SLDTEXTSTYLE0
 73
     1
 44
1.0
  0
ENDBLK
  5
F4
330
F2
100
AcDbEntity
  8
0
100
AcDbBlockEnd
  0
BLOCK
  5
106
330
105
100
AcDbEntity
  8
0
100
AcDbBlockBegin
  2
_D_1
 70
     0
 10
0.0
 20
0.0
 30
0.0
  3
_D_1
  1

  0
SOLID
  5
108
330
105
100
AcDbEntity
  8
DIM
100
AcDbTrace
 10
125.7885178599
 20
187.5307815421
 30
0.0
 11
125.2805178599
 21
184.2287815421
 31
0.0
 12
126.2965178599
 22
184.2287815421
 32
0.0
 13
126.2965178599
 23
184.2287815421
 33
0.0
  0
SOLID
  5
109
330
105
100
AcDbEntity
  8
DIM
100
AcDbTrace
 10
125.7885178599
 20
153.3995315421
 30
0.0
 11
126.2965178599
 21
156.7015315421
 31
0.0
 12
125.2805178599
 22
156.7015315421
 32
0.0
 13
125.2805178599
 23
156.7015315421
 33
0.0
  0
LINE
  5
10A
330
105
100
AcDbEntity
  8
DIM
100
AcDbLine
 10
114.9956361439
 20
165.4410801616
 30
0.0
 11
114.9956361439
 21
164.3746739042
 31
0.0
  0
LINE
  5
10B
330
105
100
AcDbEntity
  8
DIM
100
AcDbLine
 10
114.9956361439
 20
164.3746739042
 30
0.0
 11
120.5518861349
 21
164.3746739042
 31
0.0
  0
LINE
  5
10C
330
105
100
AcDbEntity
  8
DIM
100
AcDbLine
 10
120.5518861349
 20
164.3746739042
 30
0.0
 11
120.5518861349
 21
165.4410801616
 31
0.0
  0
LINE
  5
10D
330
105
100
AcDbEntity
  8
DIM
100
AcDbLine
 10
114.9956361439
 20
179.6646920752
 30
0.0
 11
114.9956361439
 21
180.7310983327
 31
0.0
  0
LINE
  5
10E
330
105
100
AcDbEntity
  8
DIM
100
AcDbLine
 10
114.9956361439
 20
180.7310983327
 30
0.0
 11
120.5518861349
 21
180.7310983327
 31
0.0
  0
LINE
  5
10F
330
105
100
AcDbEntity
  8
DIM
100
AcDbLine
 10
120.5518861349
 20
180.7310983327
 30
0.0
 11
120.5518861349
 21
179.6646920752
 31
0.0
  0
LINE
  5
110
330
105
100
AcDbEntity
  8
DIM
100
AcDbLine
 10
113.9891049857
 20
187.5307815421
 30
0.0
 11
126.7885178599
 21
187.5307815421
 31
0.0
  0
LINE
  5
111
330
105
100
AcDbEntity
  8
DIM
100
AcDbLine
 10
109.1769956107
 20
153.3995315421
 30
0.0
 11
126.7885178599
 21
153.3995315421
 31
0.0
  0
LINE
  5
112
330
105
100
AcDbEntity
  8
DIM
100
AcDbLine
 10
125.7885178599
 20
187.5307815421
 30
0.0
 11
125.7885178599
 21
153.3995315421
 31
0.0
  0
MTEXT
  5
113
330
105
100
AcDbEntity
  8
DIM
100
AcDbMText
 10
121.2233085941
 20
163.32771205
 30
0.0
 40
3.5
 41
0.0
 71
     1
 72
     1
  1

  7
SLDTEXTSTYLE0
 11
-7.044195017643634E-15
 21
1.0
 31
0.0
 73
     1
 44
1.0
  0
MTEXT
  5
114
330
105
100
AcDbEntity
  8
DIM
100
AcDbMText
 10
116.0401492204
 20
165.4410801616
 30
0.0
 40
3.5
 41
0.0
 71
     1
 72
     1
  1
21.500
  7
SLDTEXTSTYLE0
 11
-7.044195017643634E-15
 21
1.0
 31
0.0
 73
     1
 44
1.0
  0
MTEXT
  5
115
330
105
100
AcDbEntity
  8
DIM
100
AcDbMText
 10
121.2767807707
 20
165.441079696
 30
0.0
 40
3.5
 41
0.0
 71
     1
 72
     1
  1
546.10
  7
SLDTEXTSTYLE0
 11
-7.044195017643634E-15
 21
1.0
 31
0.0
 73
     1
 44
1.0
  0
MTEXT
  5
116
330
105
100
AcDbEntity
  8
DIM
100
AcDbMText
 10
121.2233085941
 20
183.1100037752
 30
0.0
 40
3.5
 41
0.0
 71
     1
 72
     1
  1

  7
SLDTEXTSTYLE0
 11
-7.044195017643634E-15
 21
1.0
 31
0.0
 73
     1
 44
1.0
  0
ENDBLK
  5
107
330
105
100
AcDbEntity
  8
0
100
AcDbBlockEnd
  0
BLOCK
  5
11A
330
119
100
AcDbEntity
  8
0
100
AcDbBlockBegin
  2
_D_2
 70
     0
 10
0.0
 20
0.0
 30
0.0
  3
_D_2
  1

  0
SOLID
  5
11C
330
119
100
AcDbEntity
  8
DIM
100
AcDbTrace
 10
112.9891049857
 20
137.3995315421
 30
0.0
 11
116.2911049857
 21
136.8915315421
 31
0.0
 12
116.2911049857
 22
137.9075315421
 32
0.0
 13
116.2911049857
 23
137.9075315421
 33
0.0
  0
SOLID
  5
11D
330
119
100
AcDbEntity
  8
DIM
100
AcDbTrace
 10
108.1769956107
 20
137.3995315421
 30
0.0
 11
104.8749956107
 21
137.9075315421
 31
0.0
 12
104.8749956107
 22
136.8915315421
 32
0.0
 13
104.8749956107
 23
136.8915315421
 33
0.0
  0
LINE
  5
11E
330
119
100
AcDbEntity
  8
DIM
100
AcDbLine
 10
119.9697679655
 20
148.1924132581
 30
0.0
 11
118.9033617081
 21
148.1924132581
 31
0.0
  0
LINE
  5
11F
330
119
100
AcDbEntity
  8
DIM
100
AcDbLine
 10
118.9033617081
 20
148.1924132581
 30
0.0
 11
118.9033617081
 21
142.636163267
 31
0.0
  0
LINE
  5
120
330
119
100
AcDbEntity
  8
DIM
100
AcDbLine
 10
118.9033617081
 20
142.636163267
 30
0.0
 11
119.9697679655
 21
142.636163267
 31
0.0
  0
LINE
  5
121
330
119
100
AcDbEntity
  8
DIM
100
AcDbLine
 10
131.6072684528
 20
148.1924132581
 30
0.0
 11
132.6736747102
 21
148.1924132581
 31
0.0
  0
LINE
  5
122
330
119
100
AcDbEntity
  8
DIM
100
AcDbLine
 10
132.6736747102
 20
148.1924132581
 30
0.0
 11
132.6736747102
 21
142.636163267
 31
0.0
  0
LINE
  5
123
330
119
100
AcDbEntity
  8
DIM
100
AcDbLine
 10
132.6736747102
 20
142.636163267
 30
0.0
 11
131.6072684528
 21
142.636163267
 31
0.0
  0
LINE
  5
124
330
119
100
AcDbEntity
  8
DIM
100
AcDbLine
 10
112.9891049857
 20
158.0053909171
 30
0.0
 11
112.9891049857
 21
136.3995315421
 31
0.0
  0
LINE
  5
125
330
119
100
AcDbEntity
  8
DIM
100
AcDbLine
 10
108.1769956107
 20
152.3995315421
 30
0.0
 11
108.1769956107
 21
136.3995315421
 31
0.0
  0
LINE
  5
126
330
119
100
AcDbEntity
  8
DIM
100
AcDbLine
 10
112.9891049857
 20
137.3995315421
 30
0.0
 11
135.033135866
 21
137.3995315421
 31
0.0
  0
LINE
  5
127
330
119
100
AcDbEntity
  8
DIM
100
AcDbLine
 10
112.9891049857
 20
137.3995315421
 30
0.0
 11
108.1769956107
 21
137.3995315421
 31
0.0
  0
LINE
  5
128
330
119
100
AcDbEntity
  8
DIM
100
AcDbLine
 10
108.1769956107
 20
137.3995315421
 30
0.0
 11
101.8269956107
 21
137.3995315421
 31
0.0
  0
MTEXT
  5
129
330
119
100
AcDbEntity
  8
DIM
100
AcDbMText
 10
117.8563998539
 20
141.9647408079
 30
0.0
 40
3.5
 41
0.0
 71
     1
 72
     1
  1

  7
SLDTEXTSTYLE0
 73
     1
 44
1.0
  0
MTEXT
  5
12A
330
119
100
AcDbEntity
  8
DIM
100
AcDbMText
 10
119.9697679655
 20
147.1479001816
 30
0.0
 40
3.5
 41
0.0
 71
     1
 72
     1
  1
3.031
  7
SLDTEXTSTYLE0
 73
     1
 44
1.0
  0
MTEXT
  5
12B
330
119
100
AcDbEntity
  8
DIM
100
AcDbMText
 10
119.9697674999
 20
141.9112686313
 30
0.0
 40
3.5
 41
0.0
 71
     1
 72
     1
  1
76.99
  7
SLDTEXTSTYLE0
 73
     1
 44
1.0
  0
MTEXT
  5
12C
330
119
100
AcDbEntity
  8
DIM
100
AcDbMText
 10
135.0525801528
 20
141.9647408079
 30
0.0
 40
3.5
 41
0.0
 71
     1
 72
     1
  1

  7
SLDTEXTSTYLE0
 73
     1
 44
1.0
  0
ENDBLK
  5
11B
330
119
100
AcDbEntity
  8
0
100
AcDbBlockEnd
  0
BLOCK
  5
12F
330
12E
100
AcDbEntity
  8
0
100
AcDbBlockBegin
  2
_D_3
 70
     0
 10
0.0
 20
0.0
 30
0.0
  3
_D_3
  1

  0
SOLID
  5
131
330
12E
100
AcDbEntity
  8
DIM
100
AcDbTrace
 10
96.3385114213
 20
159.0053909171
 30
0.0
 11
96.8465114213
 21
162.3073909171
 31
0.0
 12
95.8305114213
 22
162.3073909171
 32
0.0
 13
95.8305114213
 23
162.3073909171
 33
0.0
  0
SOLID
  5
132
330
12E
100
AcDbEntity
  8
DIM
100
AcDbTrace
 10
96.3385114213
 20
153.3995315421
 30
0.0
 11
95.8305114213
 21
150.0975315421
 31
0.0
 12
96.8465114213
 22
150.0975315421
 32
0.0
 13
96.8465114213
 23
150.0975315421
 33
0.0
  0
LINE
  5
133
330
12E
100
AcDbEntity
  8
DIM
100
AcDbLine
 10
85.5456297053
 20
137.9890838182
 30
0.0
 11
85.5456297053
 21
136.9226775608
 31
0.0
  0
LINE
  5
134
330
12E
100
AcDbEntity
  8
DIM
100
AcDbLine
 10
85.5456297053
 20
136.9226775608
 30
0.0
 11
91.1018796963
 21
136.9226775608
 31
0.0
  0
LINE
  5
135
330
12E
100
AcDbEntity
  8
DIM
100
AcDbLine
 10
91.1018796963
 20
136.9226775608
 30
0.0
 11
91.1018796963
 21
137.9890838182
 31
0.0
  0
LINE
  5
136
330
12E
100
AcDbEntity
  8
DIM
100
AcDbLine
 10
85.5456297053
 20
149.6265843055
 30
0.0
 11
85.5456297053
 21
150.692990563
 31
0.0
  0
LINE
  5
137
330
12E
100
AcDbEntity
  8
DIM
100
AcDbLine
 10
85.5456297053
 20
150.692990563
 30
0.0
 11
91.1018796963
 21
150.692990563
 31
0.0
  0
LINE
  5
138
330
12E
100
AcDbEntity
  8
DIM
100
AcDbLine
 10
91.1018796963
 20
150.692990563
 30
0.0
 11
91.1018796963
 21
149.6265843055
 31
0.0
  0
LINE
  5
139
330
12E
100
AcDbEntity
  8
DIM
100
AcDbLine
 10
107.1769956107
 20
159.0053909171
 30
0.0
 11
95.3385114213
 21
159.0053909171
 31
0.0
  0
LINE
  5
13A
330
12E
100
AcDbEntity
  8
DIM
100
AcDbLine
 10
96.3385114213
 20
159.0053909171
 30
0.0
 11
96.3385114213
 21
165.3553909171
 31
0.0
  0
LINE
  5
13B
330
12E
100
AcDbEntity
  8
DIM
100
AcDbLine
 10
96.3385114213
 20
159.0053909171
 30
0.0
 11
96.3385114213
 21
153.3995315421
 31
0.0
  0
LINE
  5
13C
330
12E
100
AcDbEntity
  8
DIM
100
AcDbLine
 10
96.3385114213
 20
153.3995315421
 30
0.0
 11
96.3385114213
 21
134.5632157066
 31
0.0
  0
MTEXT
  5
13D
330
12E
100
AcDbEntity
  8
DIM
100
AcDbMText
 10
91.7733021555
 20
135.8757157066
 30
0.0
 40
3.5
 41
0.0
 71
     1
 72
     1
  1

  7
SLDTEXTSTYLE0
 11
-7.044195017643634E-15
 21
1.0
 31
0.0
 73
     1
 44
1.0
  0
MTEXT
  5
13E
330
12E
100
AcDbEntity
  8
DIM
100
AcDbMText
 10
86.5901427818
 20
137.9890838182
 30
0.0
 40
3.5
 41
0.0
 71
     1
 72
     1
  1
3.531
  7
SLDTEXTSTYLE0
 11
-7.044195017643634E-15
 21
1.0
 31
0.0
 73
     1
 44
1.0
  0
MTEXT
  5
13F
330
12E
100
AcDbEntity
  8
DIM
100
AcDbMText
 10
91.8267743321
 20
137.9890833526
 30
0.0
 40
3.5
 41
0.0
 71
     1
 72
     1
  1
89.69
  7
SLDTEXTSTYLE0
 11
-7.044195017643634E-15
 21
1.0
 31
0.0
 73
     1
 44
1.0
  0
MTEXT
  5
140
330
12E
100
AcDbEntity
  8
DIM
100
AcDbMText
 10
91.7733021555
 20
153.0718960055
 30
0.0
 40
3.5
 41
0.0
 71
     1
 72
     1
  1

  7
SLDTEXTSTYLE0
 11
-7.044195017643634E-15
 21
1.0
 31
0.0
 73
     1
 44
1.0
  0
ENDBLK
  5
130
330
12E
100
AcDbEntity
  8
0
100
AcDbBlockEnd
  0
BLOCK
  5
143
330
142
100
AcDbEntity
  8
0
100
AcDbBlockBegin
  2
_D_4
 70
     0
 10
0.0
 20
0.0
 30
0.0
  3
_D_4
  1

  0
SOLID
  5
145
330
142
100
AcDbEntity
  8
DIM
100
AcDbTrace
 10
36.7891049857
 20
137.3995315421
 30
0.0
 11
33.4871049857
 21
137.9075315421
 31
0.0
 12
33.4871049857
 22
136.8915315421
 32
0.0
 13
33.4871049857
 23
136.8915315421
 33
0.0
  0
SOLID
  5
146
330
142
100
AcDbEntity
  8
DIM
100
AcDbTrace
 10
41.6012143607
 20
137.3995315421
 30
0.0
 11
44.9032143607
 21
136.8915315421
 31
0.0
 12
44.9032143607
 22
137.9075315421
 32
0.0
 13
44.9032143607
 23
137.9075315421
 33
0.0
  0
LINE
  5
147
330
142
100
AcDbEntity
  8
DIM
100
AcDbLine
 10
20.9703550913
 20
148.1924132581
 30
0.0
 11
19.9039488339
 21
148.1924132581
 31
0.0
  0
LINE
  5
148
330
142
100
AcDbEntity
  8
DIM
100
AcDbLine
 10
19.9039488339
 20
148.1924132581
 30
0.0
 11
19.9039488339
 21
142.636163267
 31
0.0
  0
LINE
  5
149
330
142
100
AcDbEntity
  8
DIM
100
AcDbLine
 10
19.9039488339
 20
142.636163267
 30
0.0
 11
20.9703550913
 21
142.636163267
 31
0.0
  0
LINE
  5
14A
330
142
100
AcDbEntity
  8
DIM
100
AcDbLine
 10
32.6078555786
 20
148.1924132581
 30
0.0
 11
33.6742618361
 21
148.1924132581
 31
0.0
  0
LINE
  5
14B
330
142
100
AcDbEntity
  8
DIM
100
AcDbLine
 10
33.6742618361
 20
148.1924132581
 30
0.0
 11
33.6742618361
 21
142.636163267
 31
0.0
  0
LINE
  5
14C
330
142
100
AcDbEntity
  8
DIM
100
AcDbLine
 10
33.6742618361
 20
142.636163267
 30
0.0
 11
32.6078555786
 21
142.636163267
 31
0.0
  0
LINE
  5
14D
330
142
100
AcDbEntity
  8
DIM
100
AcDbLine
 10
36.7891049857
 20
158.0053909171
 30
0.0
 11
36.7891049857
 21
136.3995315421
 31
0.0
  0
LINE
  5
14E
330
142
100
AcDbEntity
  8
DIM
100
AcDbLine
 10
41.6012143607
 20
152.3995315421
 30
0.0
 11
41.6012143607
 21
136.3995315421
 31
0.0
  0
LINE
  5
14F
330
142
100
AcDbEntity
  8
DIM
100
AcDbLine
 10
36.7891049857
 20
137.3995315421
 30
0.0
 11
17.5444869797
 21
137.3995315421
 31
0.0
  0
LINE
  5
150
330
142
100
AcDbEntity
  8
DIM
100
AcDbLine
 10
36.7891049857
 20
137.3995315421
 30
0.0
 11
41.6012143607
 21
137.3995315421
 31
0.0
  0
LINE
  5
151
330
142
100
AcDbEntity
  8
DIM
100
AcDbLine
 10
41.6012143607
 20
137.3995315421
 30
0.0
 11
47.9512143607
 21
137.3995315421
 31
0.0
  0
MTEXT
  5
152
330
142
100
AcDbEntity
  8
DIM
100
AcDbMText
 10
18.8569869797
 20
141.9647408079
 30
0.0
 40
3.5
 41
0.0
 71
     1
 72
     1
  1

  7
SLDTEXTSTYLE0
 73
     1
 44
1.0
  0
MTEXT
  5
153
330
142
100
AcDbEntity
  8
DIM
100
AcDbMText
 10
20.9703550913
 20
147.1479001816
 30
0.0
 40
3.5
 41
0.0
 71
     1
 72
     1
  1
3.031
  7
SLDTEXTSTYLE0
 73
     1
 44
1.0
  0
MTEXT
  5
154
330
142
100
AcDbEntity
  8
DIM
100
AcDbMText
 10
20.9703546257
 20
141.9112686313
 30
0.0
 40
3.5
 41
0.0
 71
     1
 72
     1
  1
76.99
  7
SLDTEXTSTYLE0
 73
     1
 44
1.0
  0
MTEXT
  5
155
330
142
100
AcDbEntity
  8
DIM
100
AcDbMText
 10
36.0531672786
 20
141.9647408079
 30
0.0
 40
3.5
 41
0.0
 71
     1
 72
     1
  1

  7
SLDTEXTSTYLE0
 73
     1
 44
1.0
  0
ENDBLK
  5
144
330
142
100
AcDbEntity
  8
0
100
AcDbBlockEnd
  0
BLOCK
  5
158
330
157
100
AcDbEntity
  8
0
100
AcDbBlockBegin
  2
_D_5
 70
     0
 10
0.0
 20
0.0
 30
0.0
  3
_D_5
  1

  0
SOLID
  5
15A
330
157
100
AcDbEntity
  8
DIM
100
AcDbTrace
 10
61.993879352
 20
159.0053909171
 30
0.0
 11
62.501879352
 21
162.3073909171
 31
0.0
 12
61.485879352
 22
162.3073909171
 32
0.0
 13
61.485879352
 23
162.3073909171
 33
0.0
  0
SOLID
  5
15B
330
157
100
AcDbEntity
  8
DIM
100
AcDbTrace
 10
61.993879352
 20
153.3995315421
 30
0.0
 11
61.485879352
 21
150.0975315421
 31
0.0
 12
62.501879352
 22
150.0975315421
 32
0.0
 13
62.501879352
 23
150.0975315421
 33
0.0
  0
LINE
  5
15C
330
157
100
AcDbEntity
  8
DIM
100
AcDbLine
 10
51.2009976359
 20
135.5873899662
 30
0.0
 11
51.2009976359
 21
134.5209837088
 31
0.0
  0
LINE
  5
15D
330
157
100
AcDbEntity
  8
DIM
100
AcDbLine
 10
51.2009976359
 20
134.5209837088
 30
0.0
 11
56.757247627
 21
134.5209837088
 31
0.0
  0
LINE
  5
15E
330
157
100
AcDbEntity
  8
DIM
100
AcDbLine
 10
56.757247627
 20
134.5209837088
 30
0.0
 11
56.757247627
 21
135.5873899662
 31
0.0
  0
LINE
  5
15F
330
157
100
AcDbEntity
  8
DIM
100
AcDbLine
 10
51.2009976359
 20
147.2248904535
 30
0.0
 11
51.2009976359
 21
148.2912967109
 31
0.0
  0
LINE
  5
160
330
157
100
AcDbEntity
  8
DIM
100
AcDbLine
 10
51.2009976359
 20
148.2912967109
 30
0.0
 11
56.757247627
 21
148.2912967109
 31
0.0
  0
LINE
  5
161
330
157
100
AcDbEntity
  8
DIM
100
AcDbLine
 10
56.757247627
 20
148.2912967109
 30
0.0
 11
56.757247627
 21
147.2248904535
 31
0.0
  0
LINE
  5
162
330
157
100
AcDbEntity
  8
DIM
100
AcDbLine
 10
42.6012143607
 20
159.0053909171
 30
0.0
 11
62.993879352
 21
159.0053909171
 31
0.0
  0
LINE
  5
163
330
157
100
AcDbEntity
  8
DIM
100
AcDbLine
 10
61.993879352
 20
159.0053909171
 30
0.0
 11
61.993879352
 21
165.3553909171
 31
0.0
  0
LINE
  5
164
330
157
100
AcDbEntity
  8
DIM
100
AcDbLine
 10
61.993879352
 20
159.0053909171
 30
0.0
 11
61.993879352
 21
153.3995315421
 31
0.0
  0
LINE
  5
165
330
157
100
AcDbEntity
  8
DIM
100
AcDbLine
 10
61.993879352
 20
153.3995315421
 30
0.0
 11
61.993879352
 21
132.1615218546
 31
0.0
  0
MTEXT
  5
166
330
157
100
AcDbEntity
  8
DIM
100
AcDbMText
 10
57.4286700861
 20
133.4740218546
 30
0.0
 40
3.5
 41
0.0
 71
     1
 72
     1
  1

  7
SLDTEXTSTYLE0
 11
-7.044195017643634E-15
 21
1.0
 31
0.0
 73
     1
 44
1.0
  0
MTEXT
  5
167
330
157
100
AcDbEntity
  8
DIM
100
AcDbMText
 10
52.2455107124
 20
135.5873899662
 30
0.0
 40
3.5
 41
0.0
 71
     1
 72
     1
  1
3.531
  7
SLDTEXTSTYLE0
 11
-7.044195017643634E-15
 21
1.0
 31
0.0
 73
     1
 44
1.0
  0
MTEXT
  5
168
330
157
100
AcDbEntity
  8
DIM
100
AcDbMText
 10
57.4821422628
 20
135.5873895006
 30
0.0
 40
3.5
 41
0.0
 71
     1
 72
     1
  1
89.69
  7
SLDTEXTSTYLE0
 11
-7.044195017643634E-15
 21
1.0
 31
0.0
 73
     1
 44
1.0
  0
MTEXT
  5
169
330
157
100
AcDbEntity
  8
DIM
100
AcDbMText
 10
57.4286700861
 20
150.6702021535
 30
0.0
 40
3.5
 41
0.0
 71
     1
 72
     1
  1

  7
SLDTEXTSTYLE0
 11
-7.044195017643634E-15
 21
1.0
 31
0.0
 73
     1
 44
1.0
  0
ENDBLK
  5
159
330
157
100
AcDbEntity
  8
0
100
AcDbBlockEnd
  0
BLOCK
  5
170
330
16F
100
AcDbEntity
  8
0
100
AcDbBlockBegin
  2
_D_6
 70
     0
 10
0.0
 20
0.0
 30
0.0
  3
_D_6
  1

  0
SOLID
  5
172
330
16F
100
AcDbEntity
  8
DIM
100
AcDbTrace
 10
112.9891049857
 20
105.5405046895
 30
0.0
 11
109.6871049857
 21
106.0485046895
 31
0.0
 12
109.6871049857
 22
105.0325046895
 32
0.0
 13
109.6871049857
 23
105.0325046895
 33
0.0
  0
SOLID
  5
173
330
16F
100
AcDbEntity
  8
DIM
100
AcDbTrace
 10
36.7891049857
 20
105.5405046895
 30
0.0
 11
40.0911049857
 21
105.0325046895
 31
0.0
 12
40.0911049857
 22
106.0485046895
 32
0.0
 13
40.0911049857
 23
106.0485046895
 33
0.0
  0
LINE
  5
174
330
16F
100
AcDbEntity
  8
DIM
100
AcDbLine
 10
69.0097436525
 20
116.3333864056
 30
0.0
 11
67.943337395
 21
116.3333864056
 31
0.0
  0
LINE
  5
175
330
16F
100
AcDbEntity
  8
DIM
100
AcDbLine
 10
67.943337395
 20
116.3333864056
 30
0.0
 11
67.943337395
 21
110.7771364145
 31
0.0
  0
LINE
  5
176
330
16F
100
AcDbEntity
  8
DIM
100
AcDbLine
 10
67.943337395
 20
110.7771364145
 30
0.0
 11
69.0097436525
 21
110.7771364145
 31
0.0
  0
LINE
  5
177
330
16F
100
AcDbEntity
  8
DIM
100
AcDbLine
 10
83.2333555661
 20
116.3333864056
 30
0.0
 11
84.2997618236
 21
116.3333864056
 31
0.0
  0
LINE
  5
178
330
16F
100
AcDbEntity
  8
DIM
100
AcDbLine
 10
84.2997618236
 20
116.3333864056
 30
0.0
 11
84.2997618236
 21
110.7771364145
 31
0.0
  0
LINE
  5
179
330
16F
100
AcDbEntity
  8
DIM
100
AcDbLine
 10
84.2997618236
 20
110.7771364145
 30
0.0
 11
83.2333555661
 21
110.7771364145
 31
0.0
  0
LINE
  5
17A
330
16F
100
AcDbEntity
  8
DIM
100
AcDbLine
 10
112.9891049857
 20
100.3957585842
 30
0.0
 11
112.9891049857
 21
106.5405046895
 31
0.0
  0
LINE
  5
17B
330
16F
100
AcDbEntity
  8
DIM
100
AcDbLine
 10
36.7891049857
 20
100.3957585842
 30
0.0
 11
36.7891049857
 21
106.5405046895
 31
0.0
  0
LINE
  5
17C
330
16F
100
AcDbEntity
  8
DIM
100
AcDbLine
 10
112.9891049857
 20
105.5405046895
 30
0.0
 11
36.7891049857
 21
105.5405046895
 31
0.0
  0
MTEXT
  5
17D
330
16F
100
AcDbEntity
  8
DIM
100
AcDbMText
 10
66.8963755408
 20
110.1057139554
 30
0.0
 40
3.5
 41
0.0
 71
     1
 72
     1
  1

  7
SLDTEXTSTYLE0
 73
     1
 44
1.0
  0
MTEXT
  5
17E
330
16F
100
AcDbEntity
  8
DIM
100
AcDbMText
 10
69.0097436525
 20
115.2888733291
 30
0.0
 40
3.5
 41
0.0
 71
     1
 72
     1
  1
48.000
  7
SLDTEXTSTYLE0
 73
     1
 44
1.0
  0
MTEXT
  5
17F
330
16F
100
AcDbEntity
  8
DIM
100
AcDbMText
 10
67.7166879393
 20
110.0522417787
 30
0.0
 40
3.5
 41
0.0
 71
     1
 72
     1
  1
1219.20
  7
SLDTEXTSTYLE0
 73
     1
 44
1.0
  0
MTEXT
  5
180
330
16F
100
AcDbEntity
  8
DIM
100
AcDbMText
 10
86.6786672661
 20
110.1057139554
 30
0.0
 40
3.5
 41
0.0
 71
     1
 72
     1
  1

  7
SLDTEXTSTYLE0
 73
     1
 44
1.0
  0
ENDBLK
  5
171
330
16F
100
AcDbEntity
  8
0
100
AcDbBlockEnd
  0
BLOCK
  5
183
330
182
100
AcDbEntity
  8
0
100
AcDbBlockBegin
  2
_D_7
 70
     0
 10
0.0
 20
0.0
 30
0.0
  3
_D_7
  1

  0
SOLID
  5
185
330
182
100
AcDbEntity
  8
DIM
100
AcDbTrace
 10
30.5272165105
 20
99.3957585842
 30
0.0
 11
30.0192165105
 21
96.0937585842
 31
0.0
 12
31.0352165105
 22
96.0937585842
 32
0.0
 13
31.0352165105
 23
96.0937585842
 33
0.0
  0
SOLID
  5
186
330
182
100
AcDbEntity
  8
DIM
100
AcDbTrace
 10
30.5272165105
 20
32.7207585842
 30
0.0
 11
31.0352165105
 21
36.0227585842
 31
0.0
 12
30.0192165105
 22
36.0227585842
 32
0.0
 13
30.0192165105
 23
36.0227585842
 33
0.0
  0
LINE
  5
187
330
182
100
AcDbEntity
  8
DIM
100
AcDbLine
 10
19.7343347944
 20
61.1796321643
 30
0.0
 11
19.7343347944
 21
60.1132259068
 31
0.0
  0
LINE
  5
188
330
182
100
AcDbEntity
  8
DIM
100
AcDbLine
 10
19.7343347944
 20
60.1132259068
 30
0.0
 11
25.2905847855
 21
60.1132259068
 31
0.0
  0
LINE
  5
189
330
182
100
AcDbEntity
  8
DIM
100
AcDbLine
 10
25.2905847855
 20
60.1132259068
 30
0.0
 11
25.2905847855
 21
61.1796321643
 31
0.0
  0
LINE
  5
18A
330
182
100
AcDbEntity
  8
DIM
100
AcDbLine
 10
19.7343347944
 20
75.4032440779
 30
0.0
 11
19.7343347944
 21
76.4696503354
 31
0.0
  0
LINE
  5
18B
330
182
100
AcDbEntity
  8
DIM
100
AcDbLine
 10
19.7343347944
 20
76.4696503354
 30
0.0
 11
25.2905847855
 21
76.4696503354
 31
0.0
  0
LINE
  5
18C
330
182
100
AcDbEntity
  8
DIM
100
AcDbLine
 10
25.2905847855
 20
76.4696503354
 30
0.0
 11
25.2905847855
 21
75.4032440779
 31
0.0
  0
LINE
  5
18D
330
182
100
AcDbEntity
  8
DIM
100
AcDbLine
 10
35.7891049857
 20
99.3957585842
 30
0.0
 11
29.5272165105
 21
99.3957585842
 31
0.0
  0
LINE
  5
18E
330
182
100
AcDbEntity
  8
DIM
100
AcDbLine
 10
35.7891049857
 20
32.7207585842
 30
0.0
 11
29.5272165105
 21
32.7207585842
 31
0.0
  0
LINE
  5
18F
330
182
100
AcDbEntity
  8
DIM
100
AcDbLine
 10
30.5272165105
 20
99.3957585842
 30
0.0
 11
30.5272165105
 21
32.7207585842
 31
0.0
  0
MTEXT
  5
190
330
182
100
AcDbEntity
  8
DIM
100
AcDbMText
 10
25.9620072446
 20
59.0662640526
 30
0.0
 40
3.5
 41
0.0
 71
     1
 72
     1
  1

  7
SLDTEXTSTYLE0
 11
-5.267838178243384E-15
 21
1.0
 31
0.0
 73
     1
 44
1.0
  0
MTEXT
  5
191
330
182
100
AcDbEntity
  8
DIM
100
AcDbMText
 10
20.7788478709
 20
61.1796321643
 30
0.0
 40
3.5
 41
0.0
 71
     1
 72
     1
  1
42.000
  7
SLDTEXTSTYLE0
 11
-5.267838178243384E-15
 21
1.0
 31
0.0
 73
     1
 44
1.0
  0
MTEXT
  5
192
330
182
100
AcDbEntity
  8
DIM
100
AcDbMText
 10
26.0154794213
 20
59.8865764511
 30
0.0
 40
3.5
 41
0.0
 71
     1
 72
     1
  1
1066.80
  7
SLDTEXTSTYLE0
 11
-5.267838178243384E-15
 21
1.0
 31
0.0
 73
     1
 44
1.0
  0
MTEXT
  5
193
330
182
100
AcDbEntity
  8
DIM
100
AcDbMText
 10
25.9620072446
 20
78.8485557779
 30
0.0
 40
3.5
 41
0.0
 71
     1
 72
     1
  1

  7
SLDTEXTSTYLE0
 11
-5.267838178243384E-15
 21
1.0
 31
0.0
 73
     1
 44
1.0
  0
ENDBLK
  5
184
330
182
100
AcDbEntity
  8
0
100
AcDbBlockEnd
  0
BLOCK
  5
19A
330
199
100
AcDbEntity
  8
0
100
AcDbBlockBegin
  2
_D_8
 70
     0
 10
0.0
 20
0.0
 30
0.0
  3
_D_8
  1

  0
SOLID
  5
19C
330
199
100
AcDbEntity
  8
DIM
100
AcDbTrace
 10
240.3101593878
 20
194.0455764368
 30
0.0
 11
237.0081593878
 21
194.5535764368
 31
0.0
 12
237.0081593878
 22
193.5375764368
 32
0.0
 13
237.0081593878
 23
193.5375764368
 33
0.0
  0
SOLID
  5
19D
330
199
100
AcDbEntity
  8
DIM
100
AcDbTrace
 10
168.8726593878
 20
194.0455764368
 30
0.0
 11
172.1746593878
 21
193.5375764368
 31
0.0
 12
172.1746593878
 22
194.5535764368
 32
0.0
 13
172.1746593878
 23
194.5535764368
 33
0.0
  0
LINE
  5
19E
330
199
100
AcDbEntity
  8
DIM
100
AcDbLine
 10
198.8967424787
 20
204.8384581529
 30
0.0
 11
197.8303362212
 21
204.8384581529
 31
0.0
  0
LINE
  5
19F
330
199
100
AcDbEntity
  8
DIM
100
AcDbLine
 10
197.8303362212
 20
204.8384581529
 30
0.0
 11
197.8303362212
 21
199.2822081618
 31
0.0
  0
LINE
  5
1A0
330
199
100
AcDbEntity
  8
DIM
100
AcDbLine
 10
197.8303362212
 20
199.2822081618
 30
0.0
 11
198.8967424787
 21
199.2822081618
 31
0.0
  0
LINE
  5
1A1
330
199
100
AcDbEntity
  8
DIM
100
AcDbLine
 10
213.1203543923
 20
204.8384581529
 30
0.0
 11
214.1867606497
 21
204.8384581529
 31
0.0
  0
LINE
  5
1A2
330
199
100
AcDbEntity
  8
DIM
100
AcDbLine
 10
214.1867606497
 20
204.8384581529
 30
0.0
 11
214.1867606497
 21
199.2822081618
 31
0.0
  0
LINE
  5
1A3
330
199
100
AcDbEntity
  8
DIM
100
AcDbLine
 10
214.1867606497
 20
199.2822081618
 30
0.0
 11
213.1203543923
 21
199.2822081618
 31
0.0
  0
LINE
  5
1A4
330
199
100
AcDbEntity
  8
DIM
100
AcDbLine
 10
240.3101593878
 20
190.5151565421
 30
0.0
 11
240.3101593878
 21
195.0455764368
 31
0.0
  0
LINE
  5
1A5
330
199
100
AcDbEntity
  8
DIM
100
AcDbLine
 10
168.8726593878
 20
190.5151565421
 30
0.0
 11
168.8726593878
 21
195.0455764368
 31
0.0
  0
LINE
  5
1A6
330
199
100
AcDbEntity
  8
DIM
100
AcDbLine
 10
240.3101593878
 20
194.0455764368
 30
0.0
 11
168.8726593878
 21
194.0455764368
 31
0.0
  0
MTEXT
  5
1A7
330
199
100
AcDbEntity
  8
DIM
100
AcDbMText
 10
196.783374367
 20
198.6107857027
 30
0.0
 40
3.5
 41
0.0
 71
     1
 72
     1
  1

  7
SLDTEXTSTYLE0
 73
     1
 44
1.0
  0
MTEXT
  5
1A8
330
199
100
AcDbEntity
  8
DIM
100
AcDbMText
 10
198.8967424787
 20
203.7939450764
 30
0.0
 40
3.5
 41
0.0
 71
     1
 72
     1
  1
45.000
  7
SLDTEXTSTYLE0
 73
     1
 44
1.0
  0
MTEXT
  5
1A9
330
199
100
AcDbEntity
  8
DIM
100
AcDbMText
 10
197.6036867655
 20
198.557313526
 30
0.0
 40
3.5
 41
0.0
 71
     1
 72
     1
  1
1143.00
  7
SLDTEXTSTYLE0
 73
     1
 44
1.0
  0
MTEXT
  5
1AA
330
199
100
AcDbEntity
  8
DIM
100
AcDbMText
 10
216.5656660923
 20
198.6107857027
 30
0.0
 40
3.5
 41
0.0
 71
     1
 72
     1
  1

  7
SLDTEXTSTYLE0
 73
     1
 44
1.0
  0
ENDBLK
  5
19B
330
199
100
AcDbEntity
  8
0
100
AcDbBlockEnd
  0
BLOCK
  5
1AD
330
1AC
100
AcDbEntity
  8
0
100
AcDbBlockBegin
  2
_D_9
 70
     0
 10
0.0
 20
0.0
 30
0.0
  3
_D_9
  1

  0
SOLID
  5
1AF
330
1AC
100
AcDbEntity
  8
DIM
100
AcDbTrace
 10
163.3208716731
 20
189.5151565421
 30
0.0
 11
162.8128716731
 21
186.2131565421
 31
0.0
 12
163.8288716731
 22
186.2131565421
 32
0.0
 13
163.8288716731
 23
186.2131565421
 33
0.0
  0
SOLID
  5
1B0
330
1AC
100
AcDbEntity
  8
DIM
100
AcDbTrace
 10
163.3208716731
 20
151.4151565421
 30
0.0
 11
163.8288716731
 21
154.7171565421
 31
0.0
 12
162.8128716731
 22
154.7171565421
 32
0.0
 13
162.8128716731
 23
154.7171565421
 33
0.0
  0
LINE
  5
1B1
330
1AC
100
AcDbEntity
  8
DIM
100
AcDbLine
 10
152.527989957
 20
166.2521519465
 30
0.0
 11
152.527989957
 21
165.1857456891
 31
0.0
  0
LINE
  5
1B2
330
1AC
100
AcDbEntity
  8
DIM
100
AcDbLine
 10
152.527989957
 20
165.1857456891
 30
0.0
 11
158.0842399481
 21
165.1857456891
 31
0.0
  0
LINE
  5
1B3
330
1AC
100
AcDbEntity
  8
DIM
100
AcDbLine
 10
158.0842399481
 20
165.1857456891
 30
0.0
 11
158.0842399481
 21
166.2521519465
 31
0.0
  0
LINE
  5
1B4
330
1AC
100
AcDbEntity
  8
DIM
100
AcDbLine
 10
152.527989957
 20
180.4757638601
 30
0.0
 11
152.527989957
 21
181.5421701176
 31
0.0
  0
LINE
  5
1B5
330
1AC
100
AcDbEntity
  8
DIM
100
AcDbLine
 10
152.527989957
 20
181.5421701176
 30
0.0
 11
158.0842399481
 21
181.5421701176
 31
0.0
  0
LINE
  5
1B6
330
1AC
100
AcDbEntity
  8
DIM
100
AcDbLine
 10
158.0842399481
 20
181.5421701176
 30
0.0
 11
158.0842399481
 21
180.4757638601
 31
0.0
  0
LINE
  5
1B7
330
1AC
100
AcDbEntity
  8
DIM
100
AcDbLine
 10
167.8726593878
 20
189.5151565421
 30
0.0
 11
162.3208716731
 21
189.5151565421
 31
0.0
  0
LINE
  5
1B8
330
1AC
100
AcDbEntity
  8
DIM
100
AcDbLine
 10
167.8726593878
 20
151.4151565421
 30
0.0
 11
162.3208716731
 21
151.4151565421
 31
0.0
  0
LINE
  5
1B9
330
1AC
100
AcDbEntity
  8
DIM
100
AcDbLine
 10
163.3208716731
 20
189.5151565421
 30
0.0
 11
163.3208716731
 21
151.4151565421
 31
0.0
  0
MTEXT
  5
1BA
330
1AC
100
AcDbEntity
  8
DIM
100
AcDbMText
 10
158.7556624072
 20
164.1387838348
 30
0.0
 40
3.5
 41
0.0
 71
     1
 72
     1
  1

  7
SLDTEXTSTYLE0
 11
-7.932373437343760E-15
 21
1.0
 31
0.0
 73
     1
 44
1.0
  0
MTEXT
  5
1BB
330
1AC
100
AcDbEntity
  8
DIM
100
AcDbMText
 10
153.5725030335
 20
166.2521519465
 30
0.0
 40
3.5
 41
0.0
 71
     1
 72
     1
  1
24.000
  7
SLDTEXTSTYLE0
 11
-7.932373437343760E-15
 21
1.0
 31
0.0
 73
     1
 44
1.0
  0
MTEXT
  5
1BC
330
1AC
100
AcDbEntity
  8
DIM
100
AcDbMText
 10
158.8091345839
 20
166.2521514809
 30
0.0
 40
3.5
 41
0.0
 71
     1
 72
     1
  1
609.60
  7
SLDTEXTSTYLE0
 11
-7.932373437343760E-15
 21
1.0
 31
0.0
 73
     1
 44
1.0
  0
MTEXT
  5
1BD
330
1AC
100
AcDbEntity
  8
DIM
100
AcDbMText
 10
158.7556624072
 20
183.9210755601
 30
0.0
 40
3.5
 41
0.0
 71
     1
 72
     1
  1

  7
SLDTEXTSTYLE0
 11
-7.932373437343760E-15
 21
1.0
 31
0.0
 73
     1
 44
1.0
  0
ENDBLK
  5
1AE
330
1AC
100
AcDbEntity
  8
0
100
AcDbBlockEnd
  0
ENDSEC
  0
SECTION
  2
ENTITIES
  0
LINE
  5
B5
330
1F
100
AcDbEntity
  8
PAGE_BORDER
370
    35
100
AcDbLine
 10
6.35
 20
209.55
 30
0.0
 11
273.05
 21
209.55
 31
0.0
  0
LINE
  5
B6
330
1F
100
AcDbEntity
  8
0
  6
Continuous
 62
     7
370
    50
100
AcDbLine
 10
0.0
 20
0.0
 30
0.0
 11
279.4
 21
0.0
 31
0.0
  0
LINE
  5
B7
330
1F
100
AcDbEntity
  8
0
  6
Continuous
 62
     7
370
    50
100
AcDbLine
 10
0.0
 20
0.0
 30
0.0
 11
0.0
 21
215.9
 31
0.0
  0
LINE
  5
B8
330
1F
100
AcDbEntity
  8
0
  6
Continuous
 62
     7
370
    50
100
AcDbLine
 10
0.0
 20
215.9
 30
0.0
 11
279.4
 21
215.9
 31
0.0
  0
LINE
  5
B9
330
1F
100
AcDbEntity
  8
0
  6
Continuous
 62
     7
370
    50
100
AcDbLine
 10
279.4
 20
0.0
 30
0.0
 11
279.4
 21
215.9
 31
0.0
  0
LINE
  5
BA
330
1F
100
AcDbEntity
  8
PAGE_BORDER
370
    35
100
AcDbLine
 10
6.35
 20
6.35
 30
0.0
 11
273.05
 21
6.35
 31
0.0
  0
LINE
  5
BB
330
1F
100
AcDbEntity
  8
PAGE_BORDER
370
    35
100
AcDbLine
 10
273.05
 20
209.55
 30
0.0
 11
273.05
 21
6.35
 31
0.0
  0
LINE
  5
BC
330
1F
100
AcDbEntity
  8
PAGE_BORDER
370
    35
100
AcDbLine
 10
6.35
 20
6.35
 30
0.0
 11
6.35
 21
209.55
 31
0.0
  0
LINE
  5
BD
330
1F
100
AcDbEntity
  8
TITLE_BLOCK_BORDER
370
    50
100
AcDbLine
 10
273.05
 20
24.7327297853
 30
0.0
 11
166.1797118536
 21
24.7327297853
 31
0.0
  0
LINE
  5
BE
330
1F
100
AcDbEntity
  8
TITLE_BLOCK_BORDER
370
    50
100
AcDbLine
 10
273.05
 20
30.7079320672
 30
0.0
 11
273.05
 21
6.35
 31
0.0
  0
LINE
  5
BF
330
1F
100
AcDbEntity
  8
TITLE_BLOCK_BORDER
370
    50
100
AcDbLine
 10
166.3596486342
 20
12.8389822917
 30
0.0
 11
273.05
 21
12.8389822917
 31
0.0
  0
LINE
  5
C0
330
1F
100
AcDbEntity
  8
TITLE_BLOCK_BORDER
370
    50
100
AcDbLine
 10
166.1797118536
 20
6.35
 30
0.0
 11
273.05
 21
6.35
 31
0.0
  0
LINE
  5
C1
330
1F
100
AcDbEntity
  8
TITLE_BLOCK_BORDER
370
    50
100
AcDbLine
 10
219.7048243171
 20
12.8389822917
 30
0.0
 11
219.6148559268
 21
6.35
 31
0.0
  0
LINE
  5
C2
330
1F
100
AcDbEntity
  8
TITLE_BLOCK_BORDER
370
    50
100
AcDbLine
 10
185.2379608383
 20
30.7079320672
 30
0.0
 11
185.2379608383
 21
24.7778494384
 31
0.0
  0
LINE
  5
C3
330
1F
100
AcDbEntity
  8
TITLE_BLOCK_BORDER
370
    50
100
AcDbLine
 10
273.05
 20
18.5181435496
 30
0.0
 11
166.1797118536
 21
18.5181435496
 31
0.0
  0
LINE
  5
C4
330
1F
100
AcDbEntity
  8
TITLE_BLOCK_BORDER
370
    50
100
AcDbLine
 10
166.1797118536
 20
6.35
 30
0.0
 11
123.0873463833
 21
6.35
 31
0.0
  0
LINE
  5
C5
330
1F
100
AcDbEntity
  8
TITLE_BLOCK_BORDER
370
    50
100
AcDbLine
 10
231.1258436229
 20
30.7079320672
 30
0.0
 11
231.1258436229
 21
6.35
 31
0.0
  0
LINE
  5
C6
330
1F
100
AcDbEntity
  8
TITLE_BLOCK_BORDER
370
    50
100
AcDbLine
 10
245.0295122118
 20
30.7079320672
 30
0.0
 11
245.0295122118
 21
12.8389822917
 31
0.0
  0
LINE
  5
C7
330
1F
100
AcDbEntity
  8
TITLE_BLOCK_BORDER
370
    50
100
AcDbLine
 10
166.1797118536
 20
30.7079320672
 30
0.0
 11
166.1797118536
 21
6.35
 31
0.0
  0
LINE
  5
C8
330
1F
100
AcDbEntity
  8
TITLE_BLOCK_BORDER
370
    50
100
AcDbLine
 10
273.05
 20
30.7079320672
 30
0.0
 11
166.1797118536
 21
30.7079320672
 31
0.0
  0
LINE
  5
C9
330
1F
100
AcDbEntity
  8
TITLE_BLOCK_BORDER
370
    50
100
AcDbLine
 10
123.0873463833
 20
30.7079320672
 30
0.0
 11
123.0873463833
 21
6.35
 31
0.0
  0
LINE
  5
CA
330
1F
100
AcDbEntity
  8
TITLE_BLOCK_BORDER
370
    50
100
AcDbLine
 10
166.1797118536
 20
30.7079320672
 30
0.0
 11
123.0873463833
 21
30.7079320672
 31
0.0
  0
LINE
  5
CB
330
1F
100
AcDbEntity
  8
TITLE_BLOCK_BORDER
370
    50
100
AcDbLine
 10
199.1604682989
 20
24.7327297853
 30
0.0
 11
199.1604682989
 21
12.8389822917
 31
0.0
  0
LINE
  5
CC
330
1F
100
AcDbEntity
  8
TITLE_BLOCK_BORDER
370
    50
100
AcDbLine
 10
177.6056946901
 20
24.7327297853
 30
0.0
 11
177.6056946901
 21
6.35
 31
0.0
  0
LINE
  5
CD
330
1F
100
AcDbEntity
  8
TITLE_BLOCK_BORDER
370
    50
100
AcDbLine
 10
210.6379608383
 20
24.7327297853
 30
0.0
 11
210.6379608383
 21
12.8389822917
 31
0.0
  0
INSERT
  5
CE
330
1F
100
AcDbEntity
  8
TITLE_BLOCK_BORDER
100
AcDbBlockReference
  2
Lien3D Logo
 10
132.4320851816
 20
8.9974660089
 30
0.0
 41
1.2
 42
1.2
 43
1.2
  0
MTEXT
  5
D0
330
1F
100
AcDbEntity
  8
TITLE_BLOCK_TEXT
100
AcDbMText
 10
208.2651581855
 20
29.585738099
 30
0.0
 40
3.5
 41
0.0
 71
     2
 72
     1
  1
Workbench Panels
  7
SLDTEXTSTYLE0
 73
     1
 44
1.0
  0
MTEXT
  5
D1
330
1F
100
AcDbEntity
  8
TITLE_BLOCK_TEXT
100
AcDbMText
 10
258.6714426074
 20
17.6814883611
 30
0.0
 40
3.5
 41
0.0
 71
     2
 72
     1
  1
R00
  7
SLDTEXTSTYLE0
 73
     1
 44
1.0
  0
MTEXT
  5
D2
330
1F
100
AcDbEntity
  8
TITLE_BLOCK_TEXT
100
AcDbMText
 10
258.571790101
 20
29.585738099
 30
0.0
 40
3.5
 41
0.0
 71
     2
 72
     1
  1
LCNC_WB3
  7
SLDTEXTSTYLE0
 73
     1
 44
1.0
  0
MTEXT
  5
D3
330
1F
100
AcDbEntity
  8
TITLE_BLOCK_TEXT
100
AcDbMText
 10
258.4903656487
 20
23.2631720222
 30
0.0
 40
3.5
 41
0.0
 71
     2
 72
     1
  1
06-20-2021
  7
SLDTEXTSTYLE0
 73
     1
 44
1.0
  0
MTEXT
  5
D4
330
1F
100
AcDbEntity
  8
TITLE_BLOCK_TEXT
100
AcDbMText
 10
251.5111341242
 20
11.5635616442
 30
0.0
 40
3.5
 41
0.0
 71
     2
 72
     1
  1
NA
  7
SLDTEXTSTYLE0
 73
     1
 44
1.0
  0
MTEXT
  5
D5
330
1F
100
AcDbEntity
  8
TITLE_BLOCK_TEXT
100
AcDbMText
 10
198.9513459116
 20
10.9722872104
 30
0.0
 40
2.9104166667
 41
0.0
 71
     2
 72
     1
  1
3/4" Plywood or MDF
  7
SLDTEXTSTYLE0
 73
     1
 44
1.0
  0
MTEXT
  5
D6
330
1F
100
AcDbEntity
  8
TITLE_BLOCK_TEXT
100
AcDbMText
 10
188.4337041161
 20
17.6814883611
 30
0.0
 40
3.5
 41
0.0
 71
     2
 72
     1
  1
ECL
  7
SLDTEXTSTYLE0
 73
     1
 44
1.0
  0
MTEXT
  5
D7
330
1F
100
AcDbEntity
  8
TITLE_BLOCK_TEXT
100
AcDbMText
 10
220.730229628
 20
17.6814883611
 30
0.0
 40
3.5
 41
0.0
 71
     2
 72
     1
  1
mm [in]
  7
SLDTEXTSTYLE0
 73
     1
 44
1.0
  0
MTEXT
  5
D8
330
1F
100
AcDbEntity
  8
DIM
100
AcDbMText
 10
17.8970757678
 20
203.5250562187
 30
0.0
 40
3.5
 41
0.0
 71
     1
 72
     1
  1
Lower Shelf
  7
SLDTEXTSTYLE0
 73
     1
 44
1.0
  0
MTEXT
  5
D9
330
1F
100
AcDbEntity
  8
DIM
100
AcDbMText
 10
17.8970757678
 20
116.6458962477
 30
0.0
 40
3.5
 41
0.0
 71
     1
 72
     1
  1
Workbench Top
  7
SLDTEXTSTYLE0
 73
     1
 44
1.0
  0
MTEXT
  5
DA
330
1F
100
AcDbEntity
  8
DIM
100
AcDbMText
 10
149.6894556176
 20
203.5250562187
 30
0.0
 40
3.5
 41
0.0
 71
     1
 72
     1
  1
Workbench Back
  7
SLDTEXTSTYLE0
 73
     1
 44
1.0
  0
MTEXT
  5
DB
330
1F
100
AcDbEntity
  8
TITLE_BLOCK_TEXT
100
AcDbMText
 10
232.1641238021
 20
28.7457458086
 30
0.0
 40
1.5
 41
0.0
 71
     1
 72
     1
  1
DRAWING #:
  7
SLDTEXTSTYLE0
 73
     1
 44
1.0
  0
MTEXT
  5
DC
330
1F
100
AcDbEntity
  8
TITLE_BLOCK_TEXT
100
AcDbMText
 10
167.0419216099
 20
28.7409279551
 30
0.0
 40
1.5
 41
0.0
 71
     1
 72
     1
  1
DRAWING NAME:
  7
SLDTEXTSTYLE0
 73
     1
 44
1.0
  0
MTEXT
  5
DD
330
1F
100
AcDbEntity
  8
TITLE_BLOCK_TEXT
100
AcDbMText
 10
232.4174845894
 20
22.3605363923
 30
0.0
 40
1.5
 41
0.0
 71
     1
 72
     1
  1
DATE:
  7
SLDTEXTSTYLE0
 73
     1
 44
1.0
  0
MTEXT
  5
DE
330
1F
100
AcDbEntity
  8
TITLE_BLOCK_TEXT
100
AcDbMText
 10
232.1641238021
 20
16.1110682204
 30
0.0
 40
1.5
 41
0.0
 71
     1
 72
     1
  1
REVISION:
  7
SLDTEXTSTYLE0
 73
     1
 44
1.0
  0
MTEXT
  5
DF
330
1F
100
AcDbEntity
  8
TITLE_BLOCK_TEXT
100
AcDbMText
 10
167.4667096264
 20
22.3605363923
 30
0.0
 40
1.5
 41
0.0
 71
     1
 72
     1
  1
SCALE:
  7
SLDTEXTSTYLE0
 73
     1
 44
1.0
  0
MTEXT
  5
E0
330
1F
100
AcDbEntity
  8
TITLE_BLOCK_TEXT
100
AcDbMText
 10
167.343850922
 20
16.5910810231
 30
0.0
 40
1.5
 41
0.0
 71
     1
 72
     1
  1
DRAWN:
  7
SLDTEXTSTYLE0
 73
     1
 44
1.0
  0
MTEXT
  5
E1
330
1F
100
AcDbEntity
  8
TITLE_BLOCK_TEXT
100
AcDbMText
 10
200.0082621128
 20
16.5910810231
 30
0.0
 40
1.5
 41
0.0
 71
     1
 72
     1
  1
DIM UNITS:
  7
SLDTEXTSTYLE0
 73
     1
 44
1.0
  0
MTEXT
  5
E2
330
1F
100
AcDbEntity
  8
TITLE_BLOCK_TEXT
100
AcDbMText
 10
200.0125587695
 20
22.3605363923
 30
0.0
 40
1.5
 41
0.0
 71
     1
 72
     1
  1
SHEET SIZE:
  7
SLDTEXTSTYLE0
 73
     1
 44
1.0
  0
MTEXT
  5
E3
330
1F
100
AcDbEntity
  8
TITLE_BLOCK_TEXT
100
AcDbMText
 10
167.1307478371
 20
10.3416128512
 30
0.0
 40
1.5
 41
0.0
 71
     1
 72
     1
  1
MATERIAL:
  7
SLDTEXTSTYLE0
 73
     1
 44
1.0
  0
MTEXT
  5
E4
330
1F
100
AcDbEntity
  8
TITLE_BLOCK_TEXT
100
AcDbMText
 10
222.244722813
 20
10.3416128512
 30
0.0
 40
1.5
 41
0.0
 71
     1
 72
     1
  1
FINISH:
  7
SLDTEXTSTYLE0
 73
     1
 44
1.0
  0
MTEXT
  5
E5
330
1F
100
AcDbEntity
  8
TITLE_BLOCK_TEXT
100
AcDbMText
 10
188.0632422217
 20
23.4756891017
 30
0.0
 40
3.4395833333
 41
0.0
 71
     2
 72
     1
  1
1:16
  7
SLDTEXTSTYLE0
 73
     1
 44
1.0
  0
MTEXT
  5
E7
330
1F
100
AcDbEntity
  8
TITLE_BLOCK_TEXT
100
AcDbMText
 10
221.4628897315
 20
23.4756892181
 30
0.0
 40
3.4395833333
 41
0.0
 71
     2
 72
     1
  1
8.5" x 11"
  7
SLDTEXTSTYLE1
 73
     1
 44
1.0
  0
LINE
  5
E8
330
1F
100
AcDbEntity
  8
0
  6
Continuous
 62
     7
370
    25
100
AcDbLine
 10
41.6012143607
 20
153.3995315421
 30
0.0
 11
108.1769956107
 21
153.3995315421
 31
0.0
  0
LINE
  5
E9
330
1F
100
AcDbEntity
  8
0
  6
Continuous
 62
     7
370
    25
100
AcDbLine
 10
41.6012143607
 20
159.0053909171
 30
0.0
 11
41.6012143607
 21
153.3995315421
 31
0.0
  0
LINE
  5
EA
330
1F
100
AcDbEntity
  8
0
  6
Continuous
 62
     7
370
    25
100
AcDbLine
 10
36.7891049857
 20
159.0053909171
 30
0.0
 11
41.6012143607
 21
159.0053909171
 31
0.0
  0
LINE
  5
EB
330
1F
100
AcDbEntity
  8
0
  6
Continuous
 62
     7
370
    25
100
AcDbLine
 10
36.7891049857
 20
187.5307815421
 30
0.0
 11
36.7891049857
 21
159.0053909171
 31
0.0
  0
LINE
  5
EC
330
1F
100
AcDbEntity
  8
0
  6
Continuous
 62
     7
370
    25
100
AcDbLine
 10
112.9891049857
 20
187.5307815421
 30
0.0
 11
36.7891049857
 21
187.5307815421
 31
0.0
  0
LINE
  5
ED
330
1F
100
AcDbEntity
  8
0
  6
Continuous
 62
     7
370
    25
100
AcDbLine
 10
108.1769956107
 20
153.3995315421
 30
0.0
 11
108.1769956107
 21
159.0053909171
 31
0.0
  0
LINE
  5
EE
330
1F
100
AcDbEntity
  8
0
  6
Continuous
 62
     7
370
    25
100
AcDbLine
 10
108.1769956107
 20
159.0053909171
 30
0.0
 11
112.9891049857
 21
159.0053909171
 31
0.0
  0
LINE
  5
EF
330
1F
100
AcDbEntity
  8
0
  6
Continuous
 62
     7
370
    25
100
AcDbLine
 10
112.9891049857
 20
159.0053909171
 30
0.0
 11
112.9891049857
 21
187.5307815421
 31
0.0
  0
DIMENSION
  5
F0
330
1F
100
AcDbEntity
  8
DIM
100
AcDbDimension
  2
_D
 10
36.7891049857
 20
192.8471261682
 30
0.0
 11
76.4326890979
 21
192.8471261682
 31
0.0
 70
   160
  1
<>
 71
     2
 42
-1.0
  3
SLDDIMSTYLE0
100
AcDbAlignedDimension
 13
112.9891049857
 23
187.5307815421
 33
0.0
 14
36.7891049857
 24
187.5307815421
 34
0.0
 50
0.0
100
AcDbRotatedDimension
  0
DIMENSION
  5
104
330
1F
100
AcDbEntity
  8
DIM
100
AcDbDimension
  2
_D_1
 10
125.7885178599
 20
153.3995315421
 30
0.0
 11
125.7885178599
 21
172.5528857692
 31
0.0
 70
   160
  1
<>
 71
     2
 42
-1.0
  3
SLDDIMSTYLE0
100
AcDbAlignedDimension
 13
112.9891049857
 23
187.5307815421
 33
0.0
 14
108.1769956107
 24
153.3995315421
 34
0.0
 50
90.0
100
AcDbRotatedDimension
  0
DIMENSION
  5
117
330
1F
100
AcDbEntity
  8
DIM
100
AcDbDimension
  2
_D_2
 10
108.1769956107
 20
137.3995315421
 30
0.0
 11
125.7885178599
 21
137.3995315421
 31
0.0
 70
   160
  1
<>
 71
     2
 42
-1.0
  3
SLDDIMSTYLE1
100
AcDbAlignedDimension
 13
112.9891049857
 23
159.0053909171
 33
0.0
 14
108.1769956107
 24
153.3995315421
 34
0.0
100
AcDbRotatedDimension
  0
DIMENSION
  5
12D
330
1F
100
AcDbEntity
  8
DIM
100
AcDbDimension
  2
_D_3
 10
96.3385114213
 20
153.3995315421
 30
0.0
 11
96.3385114213
 21
143.8078337126
 31
0.0
 70
   160
  1
<>
 71
     2
 42
-1.0
  3
SLDDIMSTYLE1
100
AcDbAlignedDimension
 13
108.1769956107
 23
159.0053909171
 33
0.0
 14
108.1769956107
 24
153.3995315421
 34
0.0
 50
90.0
100
AcDbRotatedDimension
  0
DIMENSION
  5
141
330
1F
100
AcDbEntity
  8
DIM
100
AcDbDimension
  2
_D_4
 10
41.6012143607
 20
137.3995315421
 30
0.0
 11
26.7891049857
 21
137.3995315421
 31
0.0
 70
   160
  1
<>
 71
     2
 42
-1.0
  3
SLDDIMSTYLE1
100
AcDbAlignedDimension
 13
36.7891049857
 23
159.0053909171
 33
0.0
 14
41.6012143607
 24
153.3995315421
 34
0.0
100
AcDbRotatedDimension
  0
DIMENSION
  5
156
330
1F
100
AcDbEntity
  8
DIM
100
AcDbDimension
  2
_D_5
 10
61.993879352
 20
153.3995315421
 30
0.0
 11
61.993879352
 21
141.4061398606
 31
0.0
 70
   160
  1
<>
 71
     2
 42
-1.0
  3
SLDDIMSTYLE1
100
AcDbAlignedDimension
 13
41.6012143607
 23
159.0053909171
 33
0.0
 14
41.6012143607
 24
153.3995315421
 34
0.0
 50
90.0
100
AcDbRotatedDimension
  0
LINE
  5
16A
330
1F
100
AcDbEntity
  8
0
  6
Continuous
 62
     7
370
    25
100
AcDbLine
 10
36.7891049857
 20
99.3957585842
 30
0.0
 11
36.7891049857
 21
32.7207585842
 31
0.0
  0
LINE
  5
16B
330
1F
100
AcDbEntity
  8
0
  6
Continuous
 62
     7
370
    25
100
AcDbLine
 10
36.7891049857
 20
32.7207585842
 30
0.0
 11
112.9891049857
 21
32.7207585842
 31
0.0
  0
LINE
  5
16C
330
1F
100
AcDbEntity
  8
0
  6
Continuous
 62
     7
370
    25
100
AcDbLine
 10
112.9891049857
 20
99.3957585842
 30
0.0
 11
36.7891049857
 21
99.3957585842
 31
0.0
  0
LINE
  5
16D
330
1F
100
AcDbEntity
  8
0
  6
Continuous
 62
     7
370
    25
100
AcDbLine
 10
112.9891049857
 20
32.7207585842
 30
0.0
 11
112.9891049857
 21
99.3957585842
 31
0.0
  0
DIMENSION
  5
16E
330
1F
100
AcDbEntity
  8
DIM
100
AcDbDimension
  2
_D_6
 10
36.7891049857
 20
105.5405046895
 30
0.0
 11
76.1215492601
 21
105.5405046895
 31
0.0
 70
   160
  1
<>
 71
     2
 42
-1.0
  3
SLDDIMSTYLE0
100
AcDbAlignedDimension
 13
112.9891049857
 23
99.3957585842
 33
0.0
 14
36.7891049857
 24
99.3957585842
 34
0.0
 50
0.0
100
AcDbRotatedDimension
  0
DIMENSION
  5
181
330
1F
100
AcDbEntity
  8
DIM
100
AcDbDimension
  2
_D_7
 10
30.5272165105
 20
32.7207585842
 30
0.0
 11
30.5272165105
 21
68.2914377719
 31
0.0
 70
   160
  1
<>
 71
     2
 42
-1.0
  3
SLDDIMSTYLE0
100
AcDbAlignedDimension
 13
36.7891049857
 23
99.3957585842
 33
0.0
 14
36.7891049857
 24
32.7207585842
 34
0.0
 50
90.0
100
AcDbRotatedDimension
  0
LINE
  5
194
330
1F
100
AcDbEntity
  8
0
  6
Continuous
 62
     7
370
    25
100
AcDbLine
 10
240.3101593878
 20
189.5151565421
 30
0.0
 11
168.8726593878
 21
189.5151565421
 31
0.0
  0
LINE
  5
195
330
1F
100
AcDbEntity
  8
0
  6
Continuous
 62
     7
370
    25
100
AcDbLine
 10
168.8726593878
 20
189.5151565421
 30
0.0
 11
168.8726593878
 21
151.4151565421
 31
0.0
  0
LINE
  5
196
330
1F
100
AcDbEntity
  8
0
  6
Continuous
 62
     7
370
    25
100
AcDbLine
 10
240.3101593878
 20
151.4151565421
 30
0.0
 11
240.3101593878
 21
189.5151565421
 31
0.0
  0
LINE
  5
197
330
1F
100
AcDbEntity
  8
0
  6
Continuous
 62
     7
370
    25
100
AcDbLine
 10
168.8726593878
 20
151.4151565421
 30
0.0
 11
240.3101593878
 21
151.4151565421
 31
0.0
  0
DIMENSION
  5
198
330
1F
100
AcDbEntity
  8
DIM
100
AcDbDimension
  2
_D_8
 10
168.8726593878
 20
194.0455764368
 30
0.0
 11
206.0085480862
 21
194.0455764368
 31
0.0
 70
   160
  1
<>
 71
     2
 42
-1.0
  3
SLDDIMSTYLE0
100
AcDbAlignedDimension
 13
240.3101593878
 23
189.5151565421
 33
0.0
 14
168.8726593878
 24
189.5151565421
 34
0.0
100
AcDbRotatedDimension
  0
DIMENSION
  5
1AB
330
1F
100
AcDbEntity
  8
DIM
100
AcDbDimension
  2
_D_9
 10
163.3208716731
 20
151.4151565421
 30
0.0
 11
163.3208716731
 21
173.3639575541
 31
0.0
 70
   160
  1
<>
 71
     2
 42
-1.0
  3
SLDDIMSTYLE0
100
AcDbAlignedDimension
 13
168.8726593878
 23
189.5151565421
 33
0.0
 14
168.8726593878
 24
151.4151565421
 34
0.0
 50
90.0
100
AcDbRotatedDimension
  0
ENDSEC
  0
SECTION
  2
OBJECTS
  0
DICTIONARY
  5
C
330
0
100
AcDbDictionary
281
     1
  3
ACAD_GROUP
350
D
  3
ACAD_LAYOUT
350
1A
  3
ACAD_MLINESTYLE
350
17
  3
ACAD_PLOTSETTINGS
350
19
  3
ACAD_PLOTSTYLENAME
350
E
  3
ACAD_SCALELIST
350
47
  0
DICTIONARY
  5
D
102
{ACAD_REACTORS
330
C
102
}
330
C
100
AcDbDictionary
281
     1
  0
DICTIONARY
  5
1A
102
{ACAD_REACTORS
330
C
102
}
330
C
100
AcDbDictionary
281
     1
  3
Layout1
350
1E
  3
Layout2
350
26
  3
Model
350
22
  0
DICTIONARY
  5
17
102
{ACAD_REACTORS
330
C
102
}
330
C
100
AcDbDictionary
281
     1
  3
Standard
350
18
  0
DICTIONARY
  5
19
102
{ACAD_REACTORS
330
C
102
}
330
C
100
AcDbDictionary
281
     1
  0
ACDBDICTIONARYWDFLT
  5
E
102
{ACAD_REACTORS
330
C
102
}
330
C
100
AcDbDictionary
281
     1
  3
Normal
350
F
100
AcDbDictionaryWithDefault
340
F
  0
DICTIONARY
  5
47
102
{ACAD_REACTORS
330
C
102
}
330
C
100
AcDbDictionary
281
     1
  3
A0
350
48
  3
A1
350
49
  3
A2
350
4A
  3
A3
350
4B
  3
A4
350
4C
  3
A5
350
4D
  3
A6
350
4E
  3
A7
350
4F
  3
A8
350
50
  3
A9
350
51
  3
B0
350
52
  3
B1
350
53
  3
B2
350
54
  3
B3
350
55
  3
B4
350
56
  3
B5
350
57
  3
B6
350
58
  3
B7
350
59
  3
B8
350
5A
  3
B9
350
5B
  3
C0
350
5C
  3
C1
350
5D
  3
C2
350
5E
  3
C3
350
5F
  3
C4
350
60
  3
C5
350
61
  3
C6
350
62
  3
C7
350
63
  3
C8
350
64
  3
C9
350
65
  3
D0
350
66
  3
D1
350
67
  3
D2
350
68
  0
LAYOUT
  5
1E
102
{ACAD_REACTORS
330
1A
102
}
330
1A
100
AcDbPlotSettings
  1

  2
none_device
  4

  6

 40
0.0
 41
0.0
 42
0.0
 43
0.0
 44
0.0
 45
0.0
 46
0.0
 47
0.0
 48
0.0
 49
0.0
140
0.0
141
0.0
142
1.0
143
1.0
 70
   688
 72
     1
 73
     0
 74
     5
  7

 75
    16
147
1.0
148
0.0
149
0.0
100
AcDbLayout
  1
Layout1
 70
     1
 71
     1
 10
0.0
 20
0.0
 11
420.0
 21
297.0
 12
0.0
 22
0.0
 32
0.0
 14
1.0000000000E+20
 24
1.0000000000E+20
 34
1.0000000000E+20
 15
-1.0000000000E+20
 25
-1.0000000000E+20
 35
-1.0000000000E+20
146
0.0
 13
0.0
 23
0.0
 33
0.0
 16
1.0
 26
0.0
 36
0.0
 17
0.0
 27
1.0
 37
0.0
 76
     0
330
1B
  0
LAYOUT
  5
26
102
{ACAD_REACTORS
330
1A
102
}
330
1A
100
AcDbPlotSettings
  1

  2
none_device
  4

  6

 40
0.0
 41
0.0
 42
0.0
 43
0.0
 44
0.0
 45
0.0
 46
0.0
 47
0.0
 48
0.0
 49
0.0
140
0.0
141
0.0
142
1.0
143
1.0
 70
   688
 72
     1
 73
     0
 74
     5
  7

 75
    16
147
1.0
148
0.0
149
0.0
100
AcDbLayout
  1
Layout2
 70
     1
 71
     2
 10
0.0
 20
0.0
 11
0.0
 21
0.0
 12
0.0
 22
0.0
 32
0.0
 14
0.0
 24
0.0
 34
0.0
 15
0.0
 25
0.0
 35
0.0
146
0.0
 13
0.0
 23
0.0
 33
0.0
 16
1.0
 26
0.0
 36
0.0
 17
0.0
 27
1.0
 37
0.0
 76
     0
330
23
  0
LAYOUT
  5
22
102
{ACAD_REACTORS
330
1A
102
}
330
1A
100
AcDbPlotSettings
  1

  2
none_device
  4
Letter_(8.50_x_11.00_Inches)
  6

 40
6.35
 41
6.35
 42
6.35000508
 43
6.35000508
 44
215.9
 45
279.4
 46
0.0
 47
0.0
 48
0.0
 49
0.0
140
0.0
141
0.0
142
1.0
143
1.0
 70
  1712
 72
     1
 73
     0
 74
     0
  7

 75
     0
147
1.0
148
0.0
149
0.0
100
AcDbLayout
  1
Model
 70
     1
 71
     0
 10
0.0
 20
0.0
 11
279.4
 21
215.9
 12
0.0
 22
0.0
 32
0.0
 14
0.0
 24
0.0
 34
0.0
 15
279.4
 25
215.9
 35
0.0
146
0.0
 13
0.0
 23
0.0
 33
0.0
 16
1.0
 26
0.0
 36
0.0
 17
0.0
 27
1.0
 37
0.0
 76
     0
330
1F
331
29
  0
MLINESTYLE
  5
18
102
{ACAD_REACTORS
330
17
102
}
330
17
100
AcDbMlineStyle
  2
Standard
 70
     0
  3

 62
   256
 51
90.0
 52
90.0
 71
     2
 49
0.5
 62
   256
  6
BYLAYER
 49
-0.5
 62
   256
  6
BYLAYER
  0
ACDBPLACEHOLDER
  5
F
102
{ACAD_REACTORS
330
E
102
}
330
E
  0
SCALE
  5
48
102
{ACAD_REACTORS
330
47
102
}
330
47
100
AcDbScale
 70
     0
300
1:1
140
1.0
141
1.0
290
     1
  0
SCALE
  5
49
102
{ACAD_REACTORS
330
47
102
}
330
47
100
AcDbScale
 70
     0
300
1:2
140
1.0
141
2.0
290
     0
  0
SCALE
  5
4A
102
{ACAD_REACTORS
330
47
102
}
330
47
100
AcDbScale
 70
     0
300
1:4
140
1.0
141
4.0
290
     0
  0
SCALE
  5
4B
102
{ACAD_REACTORS
330
47
102
}
330
47
100
AcDbScale
 70
     0
300
1:5
140
1.0
141
5.0
290
     0
  0
SCALE
  5
4C
102
{ACAD_REACTORS
330
47
102
}
330
47
100
AcDbScale
 70
     0
300
1:8
140
1.0
141
8.0
290
     0
  0
SCALE
  5
4D
102
{ACAD_REACTORS
330
47
102
}
330
47
100
AcDbScale
 70
     0
300
1:10
140
1.0
141
10.0
290
     0
  0
SCALE
  5
4E
102
{ACAD_REACTORS
330
47
102
}
330
47
100
AcDbScale
 70
     0
300
1:16
140
1.0
141
16.0
290
     0
  0
SCALE
  5
4F
102
{ACAD_REACTORS
330
47
102
}
330
47
100
AcDbScale
 70
     0
300
1:20
140
1.0
141
20.0
290
     0
  0
SCALE
  5
50
102
{ACAD_REACTORS
330
47
102
}
330
47
100
AcDbScale
 70
     0
300
1:30
140
1.0
141
30.0
290
     0
  0
SCALE
  5
51
102
{ACAD_REACTORS
330
47
102
}
330
47
100
AcDbScale
 70
     0
300
1:40
140
1.0
141
40.0
290
     0
  0
SCALE
  5
52
102
{ACAD_REACTORS
330
47
102
}
330
47
100
AcDbScale
 70
     0
300
1:50
140
1.0
141
50.0
290
     0
  0
SCALE
  5
53
102
{ACAD_REACTORS
330
47
102
}
330
47
100
AcDbScale
 70
     0
300
1:100
140
1.0
141
100.0
290
     0
  0
SCALE
  5
54
102
{ACAD_REACTORS
330
47
102
}
330
47
100
AcDbScale
 70
     0
300
2:1
140
2.0
141
1.0
290
     0
  0
SCALE
  5
55
102
{ACAD_REACTORS
330
47
102
}
330
47
100
AcDbScale
 70
     0
300
4:1
140
4.0
141
1.0
290
     0
  0
SCALE
  5
56
102
{ACAD_REACTORS
330
47
102
}
330
47
100
AcDbScale
 70
     0
300
8:1
140
8.0
141
1.0
290
     0
  0
SCALE
  5
57
102
{ACAD_REACTORS
330
47
102
}
330
47
100
AcDbScale
 70
     0
300
10:1
140
10.0
141
1.0
290
     0
  0
SCALE
  5
58
102
{ACAD_REACTORS
330
47
102
}
330
47
100
AcDbScale
 70
     0
300
100:1
140
100.0
141
1.0
290
     0
  0
SCALE
  5
59
102
{ACAD_REACTORS
330
47
102
}
330
47
100
AcDbScale
 70
     0
300
1/128" = 1'-0"
140
0.0078125
141
12.0
290
     0
  0
SCALE
  5
5A
102
{ACAD_REACTORS
330
47
102
}
330
47
100
AcDbScale
 70
     0
300
1/64" = 1'-0"
140
0.015625
141
12.0
290
     0
  0
SCALE
  5
5B
102
{ACAD_REACTORS
330
47
102
}
330
47
100
AcDbScale
 70
     0
300
1/32" = 1'-0"
140
0.03125
141
12.0
290
     0
  0
SCALE
  5
5C
102
{ACAD_REACTORS
330
47
102
}
330
47
100
AcDbScale
 70
     0
300
1/16" = 1'-0"
140
0.0625
141
12.0
290
     0
  0
SCALE
  5
5D
102
{ACAD_REACTORS
330
47
102
}
330
47
100
AcDbScale
 70
     0
300
3/32" = 1'-0"
140
0.09375
141
12.0
290
     0
  0
SCALE
  5
5E
102
{ACAD_REACTORS
330
47
102
}
330
47
100
AcDbScale
 70
     0
300
1/8" = 1'-0"
140
0.125
141
12.0
290
     0
  0
SCALE
  5
5F
102
{ACAD_REACTORS
330
47
102
}
330
47
100
AcDbScale
 70
     0
300
3/16" = 1'-0"
140
0.1875
141
12.0
290
     0
  0
SCALE
  5
60
102
{ACAD_REACTORS
330
47
102
}
330
47
100
AcDbScale
 70
     0
300
1/4" = 1'-0"
140
0.25
141
12.0
290
     0
  0
SCALE
  5
61
102
{ACAD_REACTORS
330
47
102
}
330
47
100
AcDbScale
 70
     0
300
3/8" = 1'-0"
140
0.375
141
12.0
290
     0
  0
SCALE
  5
62
102
{ACAD_REACTORS
330
47
102
}
330
47
100
AcDbScale
 70
     0
300
1/2" = 1'-0"
140
0.5
141
12.0
290
     0
  0
SCALE
  5
63
102
{ACAD_REACTORS
330
47
102
}
330
47
100
AcDbScale
 70
     0
300
3/4" = 1'-0"
140
0.75
141
12.0
290
     0
  0
SCALE
  5
64
102
{ACAD_REACTORS
330
47
102
}
330
47
100
AcDbScale
 70
     0
300
1" = 1'-0"
140
1.0
141
12.0
290
     0
  0
SCALE
  5
65
102
{ACAD_REACTORS
330
47
102
}
330
47
100
AcDbScale
 70
     0
300
1-1/2" = 1'-0"
140
1.5
141
12.0
290
     0
  0
SCALE
  5
66
102
{ACAD_REACTORS
330
47
102
}
330
47
100
AcDbScale
 70
     0
300
3" = 1'-0"
140
3.0
141
12.0
290
     0
  0
SCALE
  5
67
102
{ACAD_REACTORS
330
47
102
}
330
47
100
AcDbScale
 70
     0
300
6" = 1'-0"
140
6.0
141
12.0
290
     0
  0
SCALE
  5
68
102
{ACAD_REACTORS
330
47
102
}
330
47
100
AcDbScale
 70
     0
300
1'-0" = 1'-0"
140
12.0
141
12.0
290
     0
  0
ENDSEC
  0
EOF
